<svg xmlns="http://www.w3.org/2000/svg" xmlns:xlink="http://www.w3.org/1999/xlink" version="1.1" x="0px" y="0px" viewBox="0 0 16 20" style="enable-background:new 0 0 16 16;" xml:space="preserve"><path d="M9.056,6.388c0.001,0.03,0.027,0.075,0.062,0.077c0.002,0,0.002,0,0.003,0c0.045,0,0.09-0.04,0.108-0.075L9.238,6.39  C9.237,6.386,9.235,6.383,9.234,6.379c0,0,0-0.002-0.002-0.005L8.837,6.383l0.234,0.005L9.056,6.388z"/><path d="M6.757,6.808C7.356,7.388,8,7.947,8.655,8.487c0.221-0.181,0.456-0.373,0.697-0.573c0.329-0.27,0.657-0.541,0.93-0.762  c0.171-0.14,0.422-0.114,0.562,0.056c0.045,0.049,0.234,0.145,0.324,0.191l0.145,0.075c0.355,0.198,0.7,0.42,1.038,0.651  c-0.012-1.329-0.039-2.612-0.085-3.833c-0.387,0.017-0.767,0-1.112-0.017c-0.216-0.009-0.43-0.008-0.645-0.005  c-0.247,0.002-0.495,0.004-0.741-0.009c-0.202-0.01-0.404-0.025-0.605-0.04C8.892,4.201,8.622,4.181,8.35,4.172  C8.018,4.156,4.749,4.215,3.643,4.245C3.65,5.763,3.672,7.294,3.7,8.825c0.855-0.628,1.699-1.298,2.511-2.028  C6.367,6.658,6.606,6.661,6.757,6.808z M9.095,5.665c0.406-0.046,0.741,0.287,0.759,0.685C9.86,6.472,9.832,6.594,9.773,6.706  c-0.124,0.239-0.375,0.392-0.64,0.392c-0.005,0-0.009,0-0.013,0C8.831,7.094,8.564,6.901,8.474,6.626  C8.45,6.554,8.439,6.478,8.437,6.39C8.428,5.983,8.705,5.679,9.095,5.665z"/><path d="M10.805,8.112c-0.082-0.041-0.173-0.088-0.262-0.141C10.33,8.147,10.095,8.34,9.861,8.533  C9.666,8.693,9.474,8.851,9.29,9.002c0.365,0.292,0.731,0.58,1.091,0.858c0.175,0.135,0.207,0.387,0.072,0.561  c-0.079,0.102-0.197,0.155-0.316,0.155c-0.086,0-0.172-0.027-0.245-0.084C8.75,9.61,7.553,8.658,6.469,7.639  c-0.89,0.782-1.813,1.506-2.748,2.169c0.014,0.671,0.025,1.343,0.044,2.012c1.434-0.029,2.861-0.05,4.287-0.071  c1.429-0.021,2.857-0.042,4.293-0.071c0.011-0.874,0.013-1.725,0.011-2.565c-0.457-0.345-0.936-0.663-1.432-0.939L10.805,8.112z"/><path d="M8,0C3.582,0,0,3.582,0,8s3.582,8,8,8s8-3.582,8-8S12.418,0,8,0z M13.14,12.076c-0.003,0.215-0.176,0.389-0.391,0.394  c-1.569,0.034-3.127,0.057-4.684,0.08c-1.556,0.023-3.112,0.045-4.679,0.08c-0.003,0-0.006,0-0.009,0  c-0.216,0-0.394-0.172-0.4-0.388C2.952,11.396,2.937,10.547,2.92,9.7C2.91,9.657,2.912,9.614,2.917,9.571  C2.878,7.662,2.848,5.752,2.841,3.864c0-0.108,0.043-0.212,0.12-0.287c0.256-0.252,5.366-0.205,5.416-0.205  c0.282,0.009,0.564,0.03,0.845,0.051c0.196,0.015,0.392,0.029,0.589,0.04c0.23,0.011,0.462,0.009,0.693,0.008  c0.229-0.002,0.458-0.002,0.687,0.006c0.465,0.022,0.946,0.043,1.412-0.012c0.116-0.017,0.222,0.02,0.307,0.092  c0.085,0.073,0.136,0.177,0.141,0.288C13.153,6.362,13.184,9.131,13.14,12.076z"/></svg>