<svg xmlns="http://www.w3.org/2000/svg" viewBox="0 0 21 53" version="1.1" x="0" y="0"><g stroke="none" stroke-width="1" fill="none" fill-rule="evenodd"><g transform="translate(-688.000000, -825.000000)" fill="#000000"><g transform="translate(688.000000, 825.000000)"><path d="M10.3 19C10.7 19 11.1 19.3 11.1 19.7L11.1 24.5C11.1 24.9 10.7 25.3 10.3 25.3 9.8 25.3 9.5 24.9 9.5 24.5L9.5 19.7C9.5 19.3 9.8 19 10.3 19ZM11.1 50.3L13.7 47.7C13.8 47.5 14 47.4 14.2 47.4 14.5 47.4 14.6 47.5 14.8 47.7 15.1 48 15.1 48.5 14.8 48.8L10.8 52.7C10.7 52.9 10.5 53 10.3 53 10.1 53 9.9 52.9 9.7 52.7L5.8 48.8C5.5 48.5 5.5 48 5.8 47.7 5.9 47.5 6.1 47.4 6.3 47.4 6.6 47.4 6.7 47.5 6.9 47.7L9.5 50.3 9.5 39.5C9.5 39 9.8 38.7 10.3 38.7 10.8 38.7 11.1 39 11.1 39.5L11.1 50.3ZM7.4 43C7.8 43.1 8 43.6 7.9 44 7.7 44.4 7.3 44.6 6.9 44.5 6 44.2 3.9 43.3 2.2 41.1 0.1 38.5 0 35.7 0 34.8L0 19.7C0 19 0.1 15.6 2.7 12.8 5.7 9.5 9.6 9.5 10.3 9.5 10.9 9.5 14.9 9.5 17.9 12.8 20.5 15.6 20.6 19 20.6 19.7L20.6 34.8C20.6 35.7 20.5 38.3 18.6 40.9 16.8 43.3 14.6 44.2 13.7 44.5 13.3 44.6 12.8 44.4 12.7 44 12.6 43.6 12.8 43.1 13.2 43 13.9 42.7 15.7 41.9 17.2 40.1 18.9 37.9 19 35.5 19 34.8L19 19.7C19 19.1 18.9 16.2 16.6 13.7 14.1 11.1 10.8 11 10.3 11 9.7 11 6.3 11.1 3.7 14 1.5 16.6 1.6 19.6 1.6 20.2L1.6 34.8C1.6 35.6 1.7 37.8 3.3 40 4.8 41.9 6.6 42.7 7.4 43ZM8.7 1.6C8.7 0.7 9.4 0 10.3 0 11.2 0 11.9 0.7 11.9 1.6 11.9 2.5 11.2 3.2 10.3 3.2 9.4 3.2 8.7 2.5 8.7 1.6ZM8.7 6.3C8.7 5.5 9.4 4.7 10.3 4.7 11.2 4.7 11.9 5.5 11.9 6.3 11.9 7.2 11.2 7.9 10.3 7.9 9.4 7.9 8.7 7.2 8.7 6.3Z"/></g></g></g></svg>