<svg viewBox="0 0 100 70" xmlns="http://www.w3.org/2000/svg"><rect fill="none" height="72" width="102" y="-1" x="-1"/><path d="m96.8 4.5c0.1-0.5 0-0.9-0.3-1.3 -0.4-0.4-0.9-0.6-1.5-0.5l-90 19.3c-0.6 0.1-1.1 0.6-1.2 1.3s0.2 1.2 0.8 1.5l25.6 13.2 1.5 9.6 2.3 16.5c0.1 0.5 0.4 1 0.9 1.2 0.2 0.1 0.4 0.1 0.6 0.1 0.3 0 0.6-0.1 0.8-0.3l18.1-12.4 0 0 18 11.8c0.4 0.3 0.9 0.3 1.3 0.2s0.8-0.5 0.9-0.9l21.6-58c0.4-0.4 0.6-0.9 0.5-1.4zm-87.1 19.6l76.7-16.5 -54.8 27.8 -21.9-11.3zm31.9 17.8l0 0c-0.3 0.2-0.5 0.4-0.6 0.7l-4.7 14.6 -1.6-10.1 -1.3-9.4 45.7-23.2 -37.6 27.3zm-3 18.2l4.7-14.6 8.5 5.6 -13.2 9zm34 1l-27.4-18 46.8-33.9 -19.3 51.9z"/></svg>