<?xml version="1.0" encoding="UTF-8" standalone="no"?>
<!-- Created with Inkscape (http://www.inkscape.org/) -->

<svg
   xmlns:dc="http://purl.org/dc/elements/1.1/"
   xmlns:cc="http://creativecommons.org/ns#"
   xmlns:rdf="http://www.w3.org/1999/02/22-rdf-syntax-ns#"
   xmlns:svg="http://www.w3.org/2000/svg"
   xmlns="http://www.w3.org/2000/svg"
   xmlns:sodipodi="http://sodipodi.sourceforge.net/DTD/sodipodi-0.dtd"
   xmlns:inkscape="http://www.inkscape.org/namespaces/inkscape"
   width="210mm"
   height="148mm"
   viewBox="0 0 210 148"
   version="1.1"
   id="svg15493"
   sodipodi:docname="bron-bestond.svg"
   inkscape:version="0.92.4 (5da689c313, 2019-01-14)">
  <defs
     id="defs15487">
    <clipPath
       clipPathUnits="userSpaceOnUse"
       id="clipPath3314-1">
      <path
         style="fill:none;stroke:#000000;stroke-width:0.26458332px;stroke-linecap:butt;stroke-linejoin:miter;stroke-opacity:1"
         d="m -224.04372,-62.165435 -2.22599,-6.584336 -10.27713,-4.926891 -1.7789,2.627044 -1.6701,3.111054 -0.50738,1.693721 -0.0229,1.059382 -0.05,1.119709 0.16813,1.562198 c 0,0 -0.12776,0.84907 -0.50601,1.368003 -0.37826,0.518934 -0.49281,0.612481 -0.49281,0.612481 l -0.35775,0.836359 -0.33233,0.376404 -3.08033,1.045035 2.33279,5.943367 4.51966,-1.141492 12.5901,-3.406658 z"
         id="path3316-5"
         inkscape:connector-curvature="0" />
    </clipPath>
    <clipPath
       clipPathUnits="userSpaceOnUse"
       id="clipPath9967-5">
      <path
         style="fill:none;stroke:#000000;stroke-width:0.26458332px;stroke-linecap:butt;stroke-linejoin:miter;stroke-opacity:1"
         d="m -250.92881,70.625489 -27.91457,-8.359478 -8.57609,23.461136 8.70116,5.673656 -0.72221,6.056371 6.36204,11.467726 10.05877,1.96119 z"
         id="path9969-4"
         inkscape:connector-curvature="0" />
    </clipPath>
    <clipPath
       clipPathUnits="userSpaceOnUse"
       id="clipPath3314-1-8">
      <path
         style="fill:none;stroke:#000000;stroke-width:0.26458332px;stroke-linecap:butt;stroke-linejoin:miter;stroke-opacity:1"
         d="m -224.04372,-62.165435 -2.22599,-6.584336 -10.27713,-4.926891 -1.7789,2.627044 -1.6701,3.111054 -0.50738,1.693721 -0.0229,1.059382 -0.05,1.119709 0.16813,1.562198 c 0,0 -0.12776,0.84907 -0.50601,1.368003 -0.37826,0.518934 -0.49281,0.612481 -0.49281,0.612481 l -0.35775,0.836359 -0.33233,0.376404 -3.08033,1.045035 2.33279,5.943367 4.51966,-1.141492 12.5901,-3.406658 z"
         id="path3316-5-0"
         inkscape:connector-curvature="0" />
    </clipPath>
    <clipPath
       clipPathUnits="userSpaceOnUse"
       id="clipPath9967-5-4">
      <path
         style="fill:none;stroke:#000000;stroke-width:0.26458332px;stroke-linecap:butt;stroke-linejoin:miter;stroke-opacity:1"
         d="m -250.92881,70.625489 -27.91457,-8.359478 -8.57609,23.461136 8.70116,5.673656 -0.72221,6.056371 6.36204,11.467726 10.05877,1.96119 z"
         id="path9969-4-0"
         inkscape:connector-curvature="0" />
    </clipPath>
  </defs>
  <sodipodi:namedview
     id="base"
     pagecolor="#ffffff"
     bordercolor="#666666"
     borderopacity="1.0"
     inkscape:pageopacity="0.0"
     inkscape:pageshadow="2"
     inkscape:zoom="1.979899"
     inkscape:cx="454.18546"
     inkscape:cy="283.70211"
     inkscape:document-units="mm"
     inkscape:current-layer="layer1"
     showgrid="false"
     inkscape:window-width="2560"
     inkscape:window-height="1389"
     inkscape:window-x="1920"
     inkscape:window-y="27"
     inkscape:window-maximized="1" />
  <metadata
     id="metadata15490">
    <rdf:RDF>
      <cc:Work
         rdf:about="">
        <dc:format>image/svg+xml</dc:format>
        <dc:type
           rdf:resource="http://purl.org/dc/dcmitype/StillImage" />
        <dc:title></dc:title>
      </cc:Work>
    </rdf:RDF>
  </metadata>
  <g
     inkscape:groupmode="layer"
     id="date-text"
     inkscape:label="letters met happen eruit"
     style="display:inline">
    <path
       style="font-style:normal;font-variant:normal;font-weight:normal;font-stretch:normal;font-size:78.13490295px;line-height:1.25;font-family:'Black Tie SF';-inkscape-font-specification:'Black Tie SF';letter-spacing:0px;word-spacing:0px;display:inline;opacity:1;fill:#ff5555;fill-opacity:1;stroke:none;stroke-width:2.2885735"
       d="m 23.365488,57.754101 -4.48551,5.58416 h 6.957199 v 0.0682 c 0.19427,-2.64e-4 0.388931,-0.003 0.4532,-0.009 0.0438,-0.004 0.207521,-0.0375 0.3638,-0.0739 0.411922,-0.096 0.619159,-0.14133 0.807191,-0.17673 0.0914,-0.0172 0.233799,-0.0483 0.316259,-0.0692 0.0825,-0.0209 0.18619,-0.0399 0.23047,-0.0429 0.0443,-0.003 0.14622,-0.0289 0.226351,-0.0589 0.0801,-0.03 0.262049,-0.0842 0.40462,-0.12041 0.142579,-0.0362 0.319781,-0.0861 0.393261,-0.11059 0.0735,-0.0245 0.144629,-0.0385 0.158128,-0.0315 0.0265,0.0141 0.298072,-0.11323 0.41031,-0.19223 0.0989,-0.0696 0.428991,-0.27123 0.541571,-0.33073 0.0527,-0.0279 0.18874,-0.12134 0.30231,-0.20774 0.11357,-0.0864 0.25817,-0.18653 0.321429,-0.22273 0.0633,-0.0363 0.16878,-0.0984 0.23409,-0.13797 0.0804,-0.0488 0.152501,-0.0852 0.23771,-0.12093 v -2.54144 c -0.019,0.0104 -0.0366,0.0184 -0.0553,0.0295 -0.109191,0.0649 -0.28176,0.14366 -0.383442,0.17467 -0.113149,0.0345 -0.23935,0.0946 -0.325559,0.15554 -0.129609,0.0916 -0.29377,0.16014 -0.44648,0.18655 -0.0336,0.006 -0.0911,0.0424 -0.12764,0.0816 -0.0376,0.0403 -0.108781,0.0832 -0.163819,0.0987 -0.0535,0.0151 -0.167982,0.0716 -0.254762,0.12558 -0.163021,0.1014 -0.219329,0.10826 -0.420651,0.0512 -0.0341,-0.01 -0.116898,-0.004 -0.184478,0.0134 -0.0676,0.017 -0.166449,0.0332 -0.21963,0.0362 -0.0532,0.003 -0.171101,0.0383 -0.262001,0.0785 -0.0909,0.0403 -0.248068,0.10205 -0.348809,0.13746 -0.10075,0.0354 -0.241882,0.10049 -0.313682,0.14469 -0.148629,0.0916 -0.490828,0.22139 -0.625797,0.2372 -0.104953,0.0123 -0.170223,-0.0258 -0.160722,-0.0935 0.009,-0.0622 0.25966,-0.34235 0.365872,-0.40876 0.198109,-0.12384 0.236349,-0.15064 0.248568,-0.17363 0.007,-0.0134 0.121981,-0.10112 0.25528,-0.19482 0.133289,-0.0937 0.285621,-0.2188 0.338482,-0.2775 0.0529,-0.0587 0.113649,-0.12025 0.134879,-0.13694 0.02119,-0.0167 0.0861,-0.0677 0.144169,-0.11369 0.0581,-0.046 0.164999,-0.10678 0.237709,-0.13488 0.0727,-0.0281 0.183423,-0.0778 0.245981,-0.11058 0.0625,-0.0328 0.13159,-0.0653 0.153479,-0.0724 0.02191,-0.007 0.0603,-0.0263 0.0853,-0.0434 0.025,-0.0171 0.16156,-0.0952 0.30334,-0.17364 0.333089,-0.18415 0.58103,-0.33802 0.850079,-0.52658 0.119071,-0.0835 0.242912,-0.1666 0.274921,-0.18448 0.0388,-0.0217 0.0963,-0.0627 0.15916,-0.11111 z m 7.872389,5.84823 c -0.0343,0.0173 -0.0654,0.0358 -0.0941,0.0481 -0.0647,0.0275 -0.1572,0.0748 -0.205671,0.1049 -0.0485,0.0302 -0.126149,0.0691 -0.172599,0.0863 -0.0465,0.0173 -0.137141,0.0619 -0.201541,0.0992 -0.139099,0.0806 -0.87436,0.2922 -1.188551,0.34209 -0.122049,0.0194 -0.257889,0.0456 -0.301789,0.0584 -0.067,0.0193 -0.31443,0.0267 -0.851119,0.0227 -0.10945,-7.93e-4 -0.35243,-0.0618 -0.381881,-0.0956 -0.01119,-0.0129 -0.125399,-0.027 -0.253738,-0.031 -0.14959,-0.005 -0.271881,-0.0234 -0.34054,-0.0517 -0.239361,-0.0987 -0.35247,-0.128641 -0.484733,-0.130741 -0.0371,-5.29e-4 -0.150579,-0.0394 -0.252179,-0.0863 -0.13075,-0.0603 -0.212519,-0.085 -0.280089,-0.0848 -0.0525,2.1e-4 -0.10642,-0.005 -0.11937,-0.0124 -0.0129,-0.007 -0.0596,-0.005 -0.10387,0.004 -0.0334,0.007 -0.10497,0.0122 -0.16898,0.0171 v 27.549221 h 5.400699 V 80.26215 c -0.0164,-0.01061 -0.0369,-0.02011 -0.0465,-0.032 -0.079,-0.0982 -0.0968,-0.1095 -0.154512,-0.0992 -0.0311,0.006 -0.0721,4e-5 -0.091,-0.01241 -0.0381,-0.02511 -0.0424,-0.100758 -0.005,-0.0909 0.0306,0.008 0.0431,-0.0396 0.01651,-0.0631 -0.014,-0.0123 -0.0276,-0.007 -0.0429,0.01601 -0.01749,0.0266 -0.0245,0.0272 -0.032,0.003 -0.007,-0.02241 -0.024,-0.02371 -0.061,-0.004 -0.0379,0.02 -0.0699,0.0168 -0.118329,-0.0114 -0.0364,-0.02119 -0.0787,-0.0389 -0.0941,-0.0393 -0.0209,-5.29e-4 -0.02511,-0.0136 -0.0176,-0.0517 0.01349,-0.0683 -0.0487,-0.114641 -0.122992,-0.092 -0.0305,0.009 -0.0644,0.005 -0.0754,-0.009 -0.01101,-0.01421 -0.0438,-0.0181 -0.0729,-0.009 -0.0365,0.01109 -0.114601,-0.015 -0.252179,-0.0842 -0.29155,-0.146659 -0.319122,-0.15847 -0.352441,-0.14831 -0.0167,0.005 -0.0478,-0.008 -0.0693,-0.0295 -0.0214,-0.0213 -0.0626,-0.0525 -0.0915,-0.0692 -0.0288,-0.0167 -0.0544,-0.0369 -0.0568,-0.045 -0.0021,-0.008 -0.0366,-0.01791 -0.076,-0.0217 -0.0394,-0.004 -0.0744,-0.01259 -0.0775,-0.01961 -0.0324,-0.0731 -0.0679,-0.103222 -0.19895,-0.167941 -0.0973,-0.048 -0.163971,-0.0973 -0.185,-0.13643 -0.02159,-0.0401 -0.0531,-0.0625 -0.091,-0.0651 -0.0742,-0.005 -0.203301,-0.0737 -0.240819,-0.128162 -0.01601,-0.02331 -0.0377,-0.0395 -0.0486,-0.0362 -0.0109,0.003 -0.02529,-0.01101 -0.0315,-0.0315 -0.006,-0.0205 -0.0433,-0.048 -0.0822,-0.0615 -0.0389,-0.01339 -0.0991,-0.0397 -0.13435,-0.0579 -0.0352,-0.0182 -0.0898,-0.04 -0.12093,-0.0491 -0.0311,-0.009 -0.0798,-0.0476 -0.108,-0.0853 -0.0543,-0.0726 -0.159221,-0.16396 -0.234609,-0.204118 -0.025,-0.01331 -0.0501,-0.0392 -0.0558,-0.0579 -0.006,-0.0186 -0.0542,-0.0891 -0.108,-0.156069 -0.0799,-0.0995 -0.103111,-0.145521 -0.126611,-0.252691 -0.02061,-0.0941 -0.0395,-0.136289 -0.0662,-0.149349 -0.0204,-0.01 -0.0429,-0.0379 -0.0501,-0.0615 -0.007,-0.0236 -0.0276,-0.0571 -0.045,-0.0744 -0.01741,-0.0173 -0.0459,-0.0702 -0.0636,-0.117819 -0.01759,-0.0476 -0.0393,-0.0843 -0.0481,-0.0816 -0.009,0.003 -0.0402,-0.0511 -0.0698,-0.119369 -0.0295,-0.0682 -0.0712,-0.133072 -0.093,-0.14469 -0.0218,-0.01161 -0.0323,-0.02381 -0.0227,-0.0269 0.009,-0.003 0.004,-0.009 -0.01291,-0.01389 -0.01659,-0.005 -0.0455,-0.0505 -0.0641,-0.101799 -0.0307,-0.085 -0.0884,-0.174471 -0.124542,-0.192751 -0.0299,-0.01511 -0.0968,-0.0999 -0.110588,-0.140039 -0.0474,-0.138641 -0.0527,-0.16351 -0.0413,-0.19172 0.01479,-0.0366 -0.0164,-0.149621 -0.0393,-0.142631 -0.009,0.003 -0.02069,-0.0354 -0.02641,-0.0842 -0.006,-0.0489 -0.01691,-0.0927 -0.02529,-0.0971 -0.019,-0.01011 -0.0448,-0.0552 -0.0811,-0.143658 -0.01529,-0.0372 -0.0354,-0.0719 -0.045,-0.077 -0.0231,-0.0123 -0.0297,-0.0439 -0.02381,-0.113179 0.003,-0.0314 -4.9e-5,-0.083 -0.006,-0.114202 -0.0105,-0.053 0.01,-0.210859 0.0315,-0.243398 0.02331,-0.0349 0.0327,-0.12955 0.0176,-0.179311 -0.02069,-0.0678 0.01611,-0.146269 0.0899,-0.19069 0.0439,-0.02641 0.0547,-0.02641 0.0481,-0.0011 -0.005,0.0208 -0.0021,0.02479 0.01,0.0114 0.01021,-0.01159 0.01971,-0.0572 0.02069,-0.10129 0.0021,-0.0727 0.007,-0.0795 0.0599,-0.076 0.0527,0.004 0.0577,-0.003 0.0517,-0.0636 -0.005,-0.0546 5.29e-4,-0.0648 0.0305,-0.0522 0.066,0.0277 0.0547,-0.0127 -0.015,-0.0532 -0.0372,-0.0217 -0.0722,-0.0316 -0.0775,-0.0217 -0.005,0.01 -0.01289,0.007 -0.01701,-0.006 -0.004,-0.0136 0.0021,-0.0291 0.01291,-0.0341 0.01119,-0.005 0.0295,-0.0132 0.0403,-0.0181 0.0255,-0.0115 0.0703,-0.0861 0.0889,-0.1478 0.01349,-0.0448 0.01521,-0.0448 0.01701,0.006 0.0021,0.0531 0.003,0.0535 0.0408,0.005 0.0548,-0.07 0.0756,-0.0701 0.0791,-10e-4 0.0021,0.0477 0.009,0.0554 0.0315,0.0377 0.01561,-0.0122 0.0367,-0.0147 0.047,-0.006 0.0345,0.0303 0.062,0.004 0.0357,-0.0346 -0.01431,-0.0208 -0.0218,-0.0579 -0.01601,-0.0822 0.01,-0.0414 0.01159,-0.0415 0.02381,-0.004 0.007,0.0222 0.0173,0.0319 0.0227,0.0217 0.005,-0.0102 0.0289,-0.01 0.0522,0.001 0.02331,0.0105 0.0659,0.0191 0.0946,0.0191 0.0419,0 0.053,-0.0121 0.0563,-0.061 0.0021,-0.0334 0.01331,-0.0647 0.02479,-0.0698 0.01151,-0.005 0.0279,-0.0129 0.0362,-0.017 0.008,-0.004 0.0303,-0.0361 0.0491,-0.0713 0.0275,-0.0517 0.0417,-0.0611 0.0729,-0.0481 0.0499,0.0209 0.0627,-0.004 0.0279,-0.0548 -0.0299,-0.0434 -0.0708,-0.0437 -0.0605,-5.29e-4 0.004,0.0148 -0.01511,-0.002 -0.0413,-0.0367 -0.0438,-0.0584 -0.0497,-0.0602 -0.0713,-0.0196 -0.0182,0.0341 -0.0297,0.0395 -0.0512,0.0243 -0.0419,-0.0297 -0.0818,-0.0886 -0.0553,-0.0816 0.0127,0.003 0.02619,-0.005 0.03,-0.0196 0.004,-0.0143 0.01611,-0.0237 0.0274,-0.0207 0.0113,0.003 0.0196,-0.0153 0.0186,-0.0403 -0.0011,-0.0268 0.01619,-0.0506 0.0419,-0.0584 0.02389,-0.007 0.0557,-0.0388 0.0708,-0.0698 l 0.0274,-0.0563 0.046,0.0357 0.046,0.0362 0.0011,-0.0496 c 5.29e-4,-0.0358 0.009,-0.046 0.0326,-0.0362 0.0222,0.009 0.0471,-7.93e-4 0.0796,-0.0326 0.02601,-0.0255 0.0657,-0.0488 0.0879,-0.0512 0.02209,-0.002 0.0536,-0.007 0.0698,-0.0114 0.0195,-0.005 0.0312,0.0116 0.0351,0.0481 0.003,0.0304 0.01529,0.0555 0.0269,0.0558 0.01159,2.64e-4 0.0172,0.0402 0.01241,0.0884 -0.009,0.0923 -0.0379,0.14584 -0.0527,0.0992 -0.007,-0.0209 -0.01111,-0.0187 -0.0186,0.009 -0.008,0.0293 -0.01781,0.0332 -0.0501,0.0196 -0.0329,-0.0138 -0.0416,-0.008 -0.0496,0.0325 -0.0123,0.062 -2.58e-4,0.10319 0.0222,0.0775 0.0105,-0.0119 0.0285,0.0171 0.046,0.0744 0.0254,0.0833 0.0351,0.0931 0.0842,0.0879 0.0696,-0.008 0.0754,-0.0191 0.0512,-0.100259 -0.01339,-0.0447 -0.01119,-0.0577 0.007,-0.0419 0.032,0.0275 0.0442,-0.005 0.02019,-0.0542 -0.009,-0.0191 -0.0105,-0.0359 -0.003,-0.0372 0.0468,-0.008 0.0534,-0.028 0.03,-0.0935 -0.01439,-0.0403 -0.01929,-0.0813 -0.0109,-0.0909 0.008,-0.01 0.01161,-0.0286 0.007,-0.0424 -0.005,-0.0151 -0.01209,-0.01 -0.0186,0.0129 -0.009,0.0311 -0.0132,0.0298 -0.02479,-0.007 -0.008,-0.0249 -0.0021,-0.0551 0.01339,-0.0672 0.01921,-0.015 0.0324,-0.008 0.0413,0.0207 0.02141,0.07 0.083,0.017 0.0873,-0.0749 0.004,-0.0815 0.004,-0.0816 0.01709,-0.016 0.01021,0.0506 0.0217,0.0638 0.0496,0.0553 0.02011,-0.006 0.0296,-0.0174 0.02119,-0.0248 -0.01299,-0.0115 0.014,-0.0269 0.0636,-0.0362 0.0362,-0.007 0.041,-0.10433 0.009,-0.19379 -0.037,-0.10461 -0.0258,-0.15016 0.01289,-0.0527 0.0122,0.0306 0.0346,0.0589 0.0501,0.0631 0.01561,0.004 0.02551,0.0189 0.0217,0.0331 -0.004,0.0142 0.004,0.0265 0.01651,0.0269 0.01299,2.6e-4 0.01389,0.0356 0.003,0.0801 -0.0137,0.0535 -0.0392,0.0882 -0.0775,0.1049 -0.038,0.0165 -0.0555,0.04 -0.0522,0.0698 0.003,0.0246 -10e-6,0.0517 -0.006,0.0599 -0.006,0.008 -0.01709,0.0531 -0.02381,0.0997 -0.007,0.0466 -0.02609,0.1065 -0.0434,0.13332 -0.041,0.0634 -0.0267,0.20919 0.0217,0.22221 0.02331,0.006 0.0338,-0.002 0.032,-0.0238 -0.003,-0.0343 0.0365,-0.057 0.0687,-0.0398 0.01,0.005 0.0114,0.0269 0.003,0.0481 -0.01291,0.0308 -0.006,0.042 0.0331,0.0558 0.0271,0.01 0.0662,0.0121 0.0873,0.006 0.0457,-0.0139 0.0518,-5.29e-4 0.0362,0.0827 -0.008,0.0446 -0.0011,0.0763 0.02432,0.10852 0.02,0.025 0.0547,0.097 0.077,0.1602 0.05,0.14164 0.140171,0.287629 0.162261,0.26251 0.009,-0.0102 0.02069,-0.005 0.0259,0.01191 0.005,0.0168 0.02641,0.0377 0.0475,0.0465 0.024,0.01011 0.0446,0.0453 0.0548,0.094 0.01011,0.0482 0.049,0.11553 0.102321,0.177249 0.0474,0.0549 0.0987,0.128371 0.113691,0.16278 0.015,0.0344 0.0499,0.072 0.078,0.0837 0.0659,0.0274 0.15526,0.10514 0.167949,0.146748 0.01471,0.0483 -0.0538,0.0596 -0.0822,0.01349 -0.0369,-0.06 -0.0696,-0.01929 -0.0522,0.0651 0.0336,0.162822 0.0498,0.197602 0.0966,0.208251 0.0258,0.006 0.0615,0.006 0.0791,0.0021 0.0176,-0.005 0.0356,0.003 0.0403,0.0186 0.005,0.01521 0.0368,0.038 0.0713,0.0506 0.0497,0.0181 0.0724,0.047 0.109039,0.139009 0.0254,0.0639 0.0491,0.115311 0.0527,0.114202 0.004,-0.0011 0.028,-0.01842 0.0543,-0.0388 0.0423,-0.0328 0.0537,-0.0311 0.0987,0.015 0.028,0.0287 0.058,0.0755 0.0667,0.10387 0.0108,0.0355 0.0322,0.0506 0.0677,0.0496 0.0406,-0.0011 0.0466,0.005 0.0279,0.0269 -0.01561,0.01849 -0.01431,0.0396 0.005,0.062 0.0159,0.01871 0.0399,0.0563 0.0532,0.0832 0.01339,0.0269 0.0464,0.0584 0.0729,0.0703 0.0274,0.0123 0.0741,0.0736 0.10904,0.142108 0.0784,0.153771 0.133191,0.22316 0.178282,0.226341 0.01968,0.0011 0.0412,0.0196 0.0475,0.0403 0.006,0.02069 0.0339,0.0608 0.0615,0.0889 0.0336,0.0343 0.0468,0.0389 0.0393,0.01389 -0.0155,-0.0516 0.0271,-0.0599 0.0475,-0.009 0.0497,0.123319 0.0601,0.164229 0.0408,0.15916 -0.0295,-0.008 -7.94e-4,0.0773 0.0393,0.117298 0.0384,0.0383 0.201099,0.128082 0.194821,0.107492 -0.0021,-0.008 0.0279,0.005 0.0672,0.0274 0.0393,0.02291 0.0847,0.0375 0.100769,0.0326 0.01601,-0.005 0.0367,0.0021 0.046,0.015 0.0104,0.01471 0.02119,0.003 0.0279,-0.031 0.01371,-0.069 -0.0346,-0.151752 -0.0956,-0.163822 -0.02561,-0.005 -0.0519,-0.0266 -0.0584,-0.0481 -0.006,-0.02141 -0.0298,-0.0466 -0.0517,-0.0558 -0.0508,-0.0213 -0.0594,-0.0512 -0.0357,-0.12402 l 0.0191,-0.0584 0.0506,0.032 c 0.028,0.0176 0.0579,0.0299 0.0661,0.0274 0.0231,-0.007 0.134242,0.0626 0.222722,0.129712 v -1.266082 c -0.007,-0.007 -0.0104,-0.01339 -0.0176,-0.02069 -0.0842,-0.0858 -0.154011,-0.168558 -0.155542,-0.183968 -0.0021,-0.0154 0.0131,-0.057 0.0325,-0.0925 0.0316,-0.0576 0.0308,-0.0691 -0.008,-0.107489 -0.02381,-0.02371 -0.0608,-0.038 -0.0822,-0.0315 -0.025,0.008 -0.0436,-0.003 -0.0522,-0.0315 -0.007,-0.024 -0.01961,-0.0363 -0.0274,-0.0274 -0.0268,0.0305 -0.18532,-0.0633 -0.202579,-0.119881 -0.009,-0.0299 -0.048,-0.0889 -0.0863,-0.13127 -0.0383,-0.0423 -0.0715,-0.0996 -0.0744,-0.127119 -0.003,-0.0306 -0.0149,-0.0454 -0.0295,-0.0377 -0.01349,0.007 -0.0334,-0.0141 -0.0465,-0.0496 -0.0127,-0.0343 -0.0415,-0.103939 -0.0636,-0.154508 -0.02209,-0.0506 -0.0427,-0.0989 -0.046,-0.10749 -0.003,-0.009 -0.0163,-0.01 -0.0289,-0.003 -0.02371,0.0131 -0.103813,-0.10909 -0.0946,-0.14418 0.003,-0.0107 -0.005,-0.0167 -0.01759,-0.0129 -0.0123,0.004 -0.02511,-0.002 -0.0284,-0.0129 -0.003,-0.0109 -0.025,-0.0432 -0.0486,-0.0718 -0.0235,-0.0287 -0.0437,-0.0599 -0.0444,-0.0693 -7.94e-4,-0.009 -0.02529,-0.0295 -0.0543,-0.045 -0.0539,-0.0287 -0.0764,-0.0904 -0.0801,-0.218069 -0.0021,-0.0519 -0.007,-0.0612 -0.02429,-0.0413 -0.0149,0.0169 -0.01961,0.0155 -0.0145,-0.004 0.004,-0.0162 0.01701,-0.0267 0.0284,-0.0238 0.024,0.006 0.0114,-0.14465 -0.01389,-0.16691 -0.009,-0.008 -0.006,-0.031 0.007,-0.0506 0.0365,-0.0554 0.01619,-0.0808 -0.0382,-0.0481 -0.0408,0.0245 -0.051,0.0218 -0.0625,-0.016 -0.0122,-0.04 -0.01741,-0.0404 -0.0424,-0.005 -0.027,0.0381 -0.0272,0.0374 -0.005,-0.015 0.0131,-0.0302 0.02029,-0.0666 0.01601,-0.0806 -0.004,-0.014 0.005,-0.0354 0.02069,-0.0475 0.01561,-0.0122 0.02371,-0.0323 0.01759,-0.045 -0.006,-0.0126 -0.009,-0.0415 -0.006,-0.0641 0.003,-0.0226 -0.0208,-0.0832 -0.0517,-0.13488 -0.0308,-0.0516 -0.0659,-0.12108 -0.078,-0.15451 -0.0122,-0.0334 -0.0351,-0.0616 -0.0512,-0.062 -0.0591,-0.002 -0.0454,-0.0623 0.0269,-0.12041 0.0409,-0.0329 0.0721,-0.0675 0.0692,-0.077 -0.009,-0.0302 0.133191,-0.12001 0.150902,-0.0951 0.008,0.012 0.0301,0.0174 0.0481,0.0119 0.0271,-0.008 0.0299,-0.003 0.0155,0.031 -0.01421,0.034 -0.0127,0.0389 0.009,0.0263 0.01479,-0.008 0.0362,0.002 0.0475,0.0243 0.0114,0.022 0.043,0.0647 0.0703,0.0946 0.0273,0.0299 0.0745,0.0861 0.104899,0.12454 0.0304,0.0385 0.0655,0.0669 0.078,0.0631 0.01389,-0.004 0.0177,0.0221 0.009,0.0682 -0.0132,0.0719 -0.0118,0.0757 0.0325,0.0739 0.02561,-10e-4 0.0577,0.0139 0.0713,0.0336 0.0136,0.0197 0.0306,0.033 0.0382,0.0294 0.0556,-0.026 0.0319,0.0443 -0.0413,0.12247 -0.0458,0.0489 -0.0265,0.15372 0.02529,0.13746 0.0691,-0.0217 0.128349,-0.0205 0.1354,0.003 0.01379,0.0453 0.0434,0.0407 0.0439,-0.007 2.59e-4,-0.0267 0.01249,-0.0453 0.0274,-0.0413 0.0181,0.005 0.0168,-0.0103 -0.004,-0.045 -0.01709,-0.0285 -0.0223,-0.0546 -0.0114,-0.0579 0.0301,-0.009 0.054,0.033 0.0661,0.11679 0.008,0.0537 0.0164,0.0688 0.0305,0.0527 0.0109,-0.0124 0.0232,-0.0125 0.0269,-5.3e-4 0.009,0.0293 0.0682,-0.0164 0.0909,-0.0698 0.01932,-0.0454 0.01979,-0.0433 0.0227,0.10645 7.93e-4,0.0342 0.01601,0.0472 0.0594,0.0501 0.0705,0.005 0.0832,0.0148 0.127641,0.10232 0.0402,0.0791 0.0799,0.0959 0.123499,0.0522 0.0222,-0.0223 0.0382,-0.0229 0.0589,-0.004 z m -0.883658,9.84126 c 0.0021,-0.003 0.005,-7.93e-4 0.0114,0.007 0.0108,0.0134 0.01569,0.0322 0.0109,0.0413 -0.005,0.009 -0.01371,-0.002 -0.01961,-0.0248 -0.003,-0.0125 -0.004,-0.0204 -0.003,-0.0233 z m -2.352831,0.10903 c 0.003,-5.29e-4 0.01,0.004 0.02069,0.0134 0.0347,0.0299 0.0293,0.0617 -0.01241,0.0744 -0.0168,0.005 -0.0348,-0.006 -0.0403,-0.0238 -0.006,-0.0182 0.0011,-0.03 0.015,-0.0264 0.01381,0.004 0.02151,-0.006 0.01709,-0.0212 -0.003,-0.0104 -0.003,-0.0161 0,-0.0165 z m 0.0729,0.0822 c 5.29e-4,-0.005 0.004,-0.006 0.009,5.29e-4 0.01029,0.0128 0.01749,0.0369 0.01601,0.0532 -0.0011,0.0164 -0.01,0.006 -0.0186,-0.0232 -0.004,-0.0146 -0.007,-0.0251 -0.006,-0.0305 z m -0.178289,0.12141 c -0.01381,-0.004 -0.02209,0.003 -0.0186,0.0145 0.004,0.0117 0.0177,0.0243 0.0315,0.0279 0.01381,0.004 0.02209,-0.003 0.0186,-0.0145 -0.004,-0.0116 -0.0177,-0.0243 -0.0315,-0.0279 z m 2.854608,0.0212 c 0.01161,-0.004 0.02421,0.004 0.0279,0.016 0.004,0.0123 -0.005,0.0192 -0.0186,0.0155 -0.01381,-0.004 -0.02641,-0.0109 -0.0279,-0.016 -0.0021,-0.005 0.007,-0.012 0.0186,-0.0155 z m -2.85047,0.0904 c -0.004,-5.29e-4 -0.009,0.002 -0.01389,0.007 -0.01,0.0107 -0.01601,0.0238 -0.0145,0.0289 0.0021,0.005 0.01209,0.006 0.02381,0.003 0.01159,-0.004 0.0182,-0.0166 0.0145,-0.0289 -0.0021,-0.006 -0.005,-0.009 -0.01,-0.01 z m 2.7466,0.046 c -0.003,-0.003 -0.006,-0.001 -0.007,0.007 -0.0011,0.0163 -0.01611,0.0337 -0.0326,0.0388 -0.01651,0.005 -0.0273,0.0188 -0.02381,0.0305 0.004,0.0116 0.0258,0.0153 0.0491,0.008 0.0303,-0.009 0.0374,-0.0267 0.0259,-0.0605 -0.004,-0.013 -0.008,-0.0211 -0.01191,-0.0243 z m -2.862869,0.0341 c -0.01119,-0.006 -0.02471,0.005 -0.03,0.0253 -0.01241,0.047 0.01079,0.0593 0.0331,0.0176 0.009,-0.0177 0.008,-0.0369 -0.003,-0.0429 z m -0.28888,0.0114 c -0.01161,0.004 -0.0186,0.0163 -0.015,0.0279 0.004,0.0116 0.01619,0.018 0.0279,0.0145 0.01161,-0.004 0.01799,-0.0157 0.0145,-0.0274 -0.004,-0.0116 -0.01569,-0.0185 -0.0274,-0.015 z m -0.26561,0.0703 c 0.006,0.001 0.01069,0.005 0.01241,0.0103 0.003,0.0113 0.01471,0.0115 0.02479,0 0.01198,-0.0137 0.02339,0.004 0.0331,0.0522 0.01,0.0471 0.003,0.0767 -0.01709,0.0832 -0.01781,0.006 -0.02389,0.025 -0.0145,0.0439 0.01209,0.0242 0.004,0.0348 -0.0289,0.0382 -0.0297,0.003 -0.0421,0.0161 -0.0357,0.0372 0.01879,0.0615 -0.0488,0.0307 -0.076,-0.0346 -0.019,-0.0458 -0.0181,-0.0663 0.003,-0.0682 0.0163,-0.002 0.02551,-0.0171 0.02019,-0.0346 -0.01169,-0.0384 0.0195,-0.10665 0.0574,-0.12454 0.008,-0.004 0.01561,-0.005 0.02169,-0.003 z m 4.004919,0.338481 c -0.008,-0.015 -0.0994,0.0226 -0.124539,0.0512 -0.0275,0.0313 -0.0011,0.0879 0.0594,0.12764 0.0307,0.0201 0.0529,0.0271 0.0687,0.0263 v -0.0822 c -0.0021,-0.006 -0.0011,-0.009 0,-0.0108 v -0.10387 c -7.93e-4,-0.001 -0.003,-0.007 -0.004,-0.008 z m -1.762681,1.4056 c 0.0364,0.005 0.0712,0.0335 0.0873,0.0749 0.01029,0.02641 0.0267,0.0333 0.0481,0.02019 0.02141,-0.0131 0.0418,-0.005 0.0605,0.02529 0.056,0.0898 0.0501,0.107289 -0.02381,0.0713 -0.0682,-0.0332 -0.146381,-0.108392 -0.149349,-0.143661 -7.93e-4,-0.009 -0.02011,-0.01119 -0.0434,-0.004 -0.02331,0.007 -0.0455,0.003 -0.0491,-0.008 -0.004,-0.01161 0.01151,-0.0269 0.0331,-0.0336 0.01169,-0.004 0.02471,-0.004 0.0367,-0.0021 z m 0.274921,0.162779 c 0.01119,0.003 0.02241,0.02061 0.02381,0.0496 0.0021,0.0314 0.01109,0.0546 0.02069,0.0517 0.0265,-0.008 0.247999,0.113419 0.25528,0.140049 0.004,0.01291 -0.0113,0.01119 -0.0326,-0.004 -0.0281,-0.02029 -0.043,-0.02 -0.0548,0.0021 -0.0267,0.0502 -0.0937,0.0328 -0.093,-0.02429 2.62e-4,-0.0314 -0.006,-0.0422 -0.01709,-0.0295 -0.01,0.01111 -0.0422,-0.006 -0.0718,-0.0367 -0.0569,-0.0601 -0.0594,-0.0661 -0.0553,-0.11317 0.0021,-0.0279 0.0136,-0.0389 0.02479,-0.0357 z m -2.566249,0.0553 c -0.006,0.0011 -0.01281,0.008 -0.02119,0.0217 -0.0282,0.0455 -0.0266,0.0479 0.0222,0.0331 0.0278,-0.008 0.0343,-0.0222 0.02021,-0.0403 -0.008,-0.01079 -0.01471,-0.01561 -0.02119,-0.0145 z m 0.01759,0.107489 c -0.01381,-0.004 -0.0222,0.003 -0.0186,0.0145 0.004,0.01159 0.0177,0.02429 0.0315,0.0279 0.01389,0.004 0.02209,-0.003 0.0186,-0.0145 -0.004,-0.01159 -0.0177,-0.02429 -0.0315,-0.0279 z m 2.896461,0.158642 c 0.01381,0.004 0.02641,0.0109 0.0279,0.01601 0.0021,0.005 -0.007,0.01249 -0.0181,0.01601 -0.01159,0.004 -0.02421,-0.004 -0.0279,-0.01601 -0.004,-0.0123 0.004,-0.01971 0.0181,-0.01601 z m 0.13953,0.02429 c 0.004,5.29e-4 0.008,0.004 0.01,0.01 0.004,0.0123 -0.003,0.0254 -0.0145,0.0289 -0.01159,0.004 -0.0222,0.003 -0.02381,-0.003 -0.0021,-0.005 0.005,-0.0182 0.0145,-0.0289 0.005,-0.005 0.01,-0.008 0.01389,-0.007 z m 0.87901,3.730529 c -0.009,2.6e-4 -0.0104,0.007 -0.006,0.02119 0.003,0.01069 0.01931,0.02069 0.0356,0.0222 0.02331,0.0021 0.02519,0.009 0.008,0.031 -0.0173,0.0222 -0.0118,0.0284 0.02529,0.0269 0.0576,-0.0021 0.0504,-0.0479 -0.01289,-0.0816 -0.02479,-0.0132 -0.0408,-0.0199 -0.0496,-0.0196 z"
       id="path7131-9-4"
       inkscape:connector-curvature="0"
       inkscape:export-filename="/home/daniel/Design/Trouwkaart/exports/bloemen-met-tekst.png"
       inkscape:export-xdpi="599.93866"
       inkscape:export-ydpi="599.93866" />
    <path
       style="font-style:normal;font-variant:normal;font-weight:normal;font-stretch:normal;font-size:78.13490295px;line-height:1.25;font-family:'Black Tie SF';-inkscape-font-specification:'Black Tie SF';letter-spacing:0px;word-spacing:0px;display:inline;opacity:1;fill:#ff5555;fill-opacity:1;stroke:none;stroke-width:2.2885735"
       d="m 59.320919,55.740281 -2.658229,5.65495 c 0.138747,0.005 0.291258,0.0109 0.330208,0.0124 0.0514,0.002 0.243559,0.006 0.426849,0.008 0.183282,0.003 0.456391,0.01 0.606685,0.016 0.150278,0.006 0.333756,0.0109 0.407728,0.0103 0.074,-7.94e-4 0.196889,0.013 0.273359,0.031 0.0765,0.0181 0.244139,0.0373 0.372589,0.0424 0.12845,0.005 0.323033,0.0267 0.43253,0.0481 0.109504,0.0214 0.345364,0.0599 0.524002,0.0853 0.178639,0.0253 0.337551,0.0539 0.352949,0.0636 0.0154,0.01 0.0834,0.0236 0.151408,0.031 0.068,0.007 0.134842,0.0201 0.148312,0.0284 0.0136,0.008 0.0922,0.0221 0.17467,0.0305 0.0825,0.008 0.170778,0.0277 0.19585,0.0429 0.02511,0.0151 0.0961,0.0386 0.158128,0.0527 0.062,0.0141 0.21132,0.0635 0.331775,0.10956 0.120435,0.046 0.26652,0.0985 0.32453,0.11679 0.058,0.0182 0.240487,0.10512 0.405646,0.19327 0.0231,0.0123 0.0394,0.018 0.0636,0.0305 l 3.110931,-6.607348 z m 11.351252,4.39404 -5.492689,4.94337 v 0.13952 c 0.0785,0.0863 0.169836,0.21821 0.31523,0.45631 0.26734,0.43783 0.38123,0.55 0.804597,0.79323 0.242848,0.13952 0.311889,0.18952 0.37569,0.27389 0.07,0.0926 0.0871,0.10419 0.16536,0.11058 0.048,0.004 0.121531,-0.003 0.163808,-0.0145 0.0838,-0.0238 0.348031,-0.0388 0.376211,-0.0212 0.01,0.006 0.0665,-0.001 0.12609,-0.0165 l 0.108001,-0.0274 0.0362,-0.153999 c 0.0313,-0.13305 0.0468,-0.16129 0.112659,-0.209281 0.0419,-0.0306 0.13561,-0.121 0.208251,-0.20051 0.0726,-0.0795 0.207759,-0.20583 0.300239,-0.280599 0.0925,-0.0748 0.18592,-0.164041 0.20774,-0.19895 0.0593,-0.0948 0.233101,-0.193371 0.40876,-0.231511 0.0858,-0.0186 0.21046,-0.0522 0.27699,-0.0744 0.0665,-0.0222 0.16129,-0.0494 0.21032,-0.0605 l 0.0889,-0.0202 -0.0775,-0.0491 c -0.173882,-0.10968 -0.20075,-0.21577 -0.0496,-0.19585 0.0405,0.005 0.0791,7.93e-4 0.0858,-0.0103 0.007,-0.0106 0.02389,-0.0117 0.0388,-0.002 0.0149,0.009 0.0802,0.002 0.145212,-0.0155 0.129259,-0.0353 0.247269,-0.0178 0.440801,0.0646 0.182732,0.0778 0.379471,0.13826 0.473361,0.14572 0.0362,0.003 0.0968,0.0289 0.150889,0.0589 z m -1.87224,5.51181 c -0.008,-2.6e-4 -0.01529,0.002 -0.0186,0.007 -0.007,0.0105 -0.0021,0.0251 0.01,0.0326 0.01191,0.007 0.0324,0.008 0.0455,0.002 0.0131,-0.006 0.008,-0.021 -0.01,-0.0326 -0.009,-0.006 -0.01871,-0.009 -0.0269,-0.009 z m 0.552937,0.60358 c -0.285088,-0.007 -0.460727,0.0268 -0.576709,0.10645 -0.043,0.0295 -0.118759,0.0642 -0.168468,0.077 -0.178221,0.0459 -0.39754,0.19106 -0.397899,0.26355 -2.01e-4,0.0385 0.0392,0.0641 0.0563,0.0367 0.014,-0.0225 0.610761,-0.0359 0.644922,-0.0145 0.0114,0.007 0.10564,-0.004 0.20929,-0.0253 0.234238,-0.0476 0.53897,-0.0428 0.692978,0.0114 0.085,0.0299 0.152242,0.0302 0.24701,5.3e-4 0.0717,-0.0225 0.179091,-0.0322 0.238752,-0.0217 0.0597,0.0105 0.159179,0.006 0.22066,-0.0103 0.0615,-0.0159 0.12287,-0.0219 0.136419,-0.0134 7.94e-4,5.29e-4 0.01431,1e-5 0.01601,5.29e-4 v -0.210839 c -0.104798,-0.0315 -0.22026,-0.0576 -0.36277,-0.0811 -0.0895,-0.0148 -0.17527,-0.0348 -0.19068,-0.0444 -0.0154,-0.01 -0.0646,-0.0204 -0.10904,-0.0238 -0.0445,-0.003 -0.194529,-0.0169 -0.333309,-0.03 -0.12111,-0.0114 -0.22847,-0.0182 -0.3235,-0.0207 z m -0.595831,1.48467 c -0.234026,5.29e-4 -0.459287,0.004 -0.692467,0.0103 -0.75674,0.0207 -0.7215,0.0195 -0.960141,0.03 -0.117348,0.005 -0.26543,0.006 -0.328668,0.003 -0.196141,-0.0116 -0.247629,0.0275 -0.410822,0.31367 -0.323209,0.56674 -0.583538,0.94558 -0.891939,1.2976 -0.14746,0.16831 -0.226052,0.25908 -0.293518,0.33848 v 12.65152 H 52.913049 l 5.012089,-10.64534 c -0.216831,0.0396 -0.39171,0.0788 -0.494016,0.12247 -0.0714,0.0305 -0.234125,0.0864 -0.361741,0.12402 -0.127619,0.0375 -0.236874,0.0762 -0.242883,0.0858 -0.0305,0.0488 -0.56243,0.25698 -0.640267,0.25063 -0.0489,-0.004 -0.149882,0.0223 -0.224272,0.0584 -0.0744,0.0361 -0.188661,0.0681 -0.25374,0.0713 -0.0651,0.003 -0.308417,0.0303 -0.54105,0.0605 -0.700082,0.0907 -0.730011,0.0932 -0.815972,0.0625 -0.0456,-0.0163 -0.104367,-0.0226 -0.130739,-0.0139 -0.0264,0.009 -0.0588,0.009 -0.0718,0.002 -0.01299,-0.008 -0.0706,-0.0108 -0.128159,-0.005 -0.0576,0.005 -0.134081,-10e-4 -0.170008,-0.0139 -0.0359,-0.0127 -0.131845,-0.0434 -0.212911,-0.0682 -0.161081,-0.0492 -0.328152,-0.115531 -0.45992,-0.18293 -0.293182,-0.14996 -0.365953,-0.184371 -0.389133,-0.18449 -0.01431,-7.1e-5 -0.0786,-0.0298 -0.142621,-0.0661 -0.064,-0.0362 -0.149929,-0.0697 -0.191209,-0.0739 -0.0466,-0.005 -0.147569,-0.0562 -0.266128,-0.13591 -0.105072,-0.0706 -0.253453,-0.15458 -0.329703,-0.18706 -0.0021,-7.93e-4 -0.007,-0.004 -0.009,-0.005 l -7.633119,16.23725 H 65.17981 V 102.0614 l 5.492692,-4.119638 V 87.872173 h 7.597981 l -4.668435,-5.492642 h -2.929539 v -14.64252 c -0.0699,2.65e-4 -0.147111,5.29e-4 -0.211359,-0.002 -0.269928,-0.007 -0.359209,-0.007 -0.611331,5.3e-4 -0.133627,0.004 -0.290287,0.007 -0.348297,0.006 -0.267311,-0.005 -0.510112,-0.008 -0.744143,-0.007 z"
       id="path7133-4-6"
       inkscape:connector-curvature="0"
       inkscape:export-filename="/home/daniel/Design/Trouwkaart/exports/bloemen-met-tekst.png"
       inkscape:export-xdpi="599.93866"
       inkscape:export-ydpi="599.93866" />
    <path
       style="font-style:normal;font-variant:normal;font-weight:normal;font-stretch:normal;font-size:78.13490295px;line-height:1.25;font-family:'Black Tie SF';-inkscape-font-specification:'Black Tie SF';letter-spacing:0px;word-spacing:0px;display:inline;opacity:1;fill:#ff5555;fill-opacity:1;stroke:none;stroke-width:2.0388639"
       d="M 107.3118,48.487491 81.862702,101.23568 h 6.042009 L 110.98186,53.230351 c -0.026,-0.0275 -0.0504,-0.0552 -0.0765,-0.0811 -0.1017,-0.10115 -0.18448,-0.19986 -0.18448,-0.21911 0,-0.0192 -0.0273,-0.0527 -0.0605,-0.0744 -0.0332,-0.0217 -0.0926,-0.10872 -0.13229,-0.19327 -0.0396,-0.0846 -0.0786,-0.15894 -0.0868,-0.16536 -0.008,-0.006 -0.0513,-0.0641 -0.0956,-0.12816 -0.0443,-0.0641 -0.0945,-0.13118 -0.11162,-0.14935 -0.0171,-0.0182 -0.0564,-0.0908 -0.0879,-0.16174 -0.0314,-0.0709 -0.0775,-0.14328 -0.10232,-0.16072 -0.0249,-0.0174 -0.0747,-0.0839 -0.11059,-0.14779 -0.0359,-0.0639 -0.0728,-0.11626 -0.0822,-0.11627 -0.028,-5e-5 -0.1013,-0.16507 -0.14521,-0.32712 -0.0226,-0.0835 -0.0546,-0.16728 -0.0708,-0.18655 -0.0545,-0.0649 -0.12955,-0.40737 -0.12868,-0.58653 0.002,-0.34789 -0.0101,-0.43885 -0.0599,-0.47387 -0.0425,-0.0297 -0.0465,-0.0581 -0.045,-0.31471 10e-4,-0.15508 0.006,-0.28473 0.0124,-0.28835 0.0855,-0.0537 0.17237,-0.0847 0.2589,-0.093 0.0865,-0.008 0.17258,0.006 0.25528,0.0434 0.21734,0.0985 0.27042,0.11863 0.38913,0.14883 0.10722,0.0273 0.13803,0.0266 0.24752,-0.008 0.16476,-0.0519 0.3251,-0.0489 0.48266,0.01 0.13426,0.0498 0.30587,0.0841 0.73588,0.14625 0.3809,0.0551 0.61995,0.0805 0.84697,0.0977 l 0.63148,-1.31362 z"
       id="path7135-7-2"
       inkscape:connector-curvature="0"
       inkscape:export-filename="/home/daniel/Design/Trouwkaart/exports/bloemen-met-tekst.png"
       inkscape:export-xdpi="599.93866"
       inkscape:export-ydpi="599.93866" />
    <path
       style="font-style:normal;font-variant:normal;font-weight:normal;font-stretch:normal;font-size:78.13490295px;line-height:1.25;font-family:'Black Tie SF';-inkscape-font-specification:'Black Tie SF';letter-spacing:0px;word-spacing:0px;display:inline;opacity:1;fill:#ff5555;fill-opacity:1;stroke:none;stroke-width:2.2885735"
       d="m 133.89725,56.564001 c -1.11164,0 -2.16538,0.0668 -3.16363,0.19637 0.0321,0.0228 0.0491,0.0449 0.0491,0.0837 0,0.0374 0.01,0.0677 0.0217,0.0677 0.0237,0 0.0299,0.006 0.20051,0.19741 0.0642,0.0722 0.15611,0.17355 0.20412,0.22479 0.048,0.0512 0.10277,0.12312 0.12195,0.1602 0.0192,0.0371 0.0874,0.12192 0.15194,0.1881 0.0645,0.0662 0.1173,0.13302 0.1173,0.14883 0,0.0158 0.0421,0.0697 0.0935,0.11989 0.0514,0.0502 0.0935,0.10677 0.0935,0.12557 0,0.0188 0.0157,0.0509 0.0351,0.0713 0.0679,0.0712 0.22168,0.2698 0.22168,0.28629 0,0.0159 0.22423,0.29098 0.37569,0.46095 0.039,0.0438 0.0911,0.11895 0.11575,0.16744 0.0247,0.0485 0.0556,0.0945 0.0682,0.10231 0.029,0.0179 0.14107,0.24018 0.14107,0.27957 0,0.0162 0.0213,0.0486 0.0475,0.0724 0.0263,0.0238 0.0453,0.0651 0.0419,0.0915 -0.003,0.0264 -2.6e-4,0.0585 0.007,0.0713 0.008,0.0128 0.0313,0.0758 0.0522,0.14005 0.021,0.0642 0.0638,0.14655 0.0951,0.18293 0.0313,0.0364 0.0511,0.0815 0.0439,0.10025 -0.007,0.0187 0.002,0.0519 0.0207,0.0739 0.0187,0.022 0.0474,0.0733 0.0636,0.1142 0.0162,0.0409 0.0549,0.10848 0.0858,0.15038 0.0342,0.0463 0.0561,0.10916 0.0563,0.15968 2.6e-4,0.0492 0.0302,0.13519 0.0734,0.21135 0.0954,0.16857 0.14988,0.2785 0.16794,0.33952 0.13205,-0.004 0.26305,-0.0108 0.39739,-0.0108 0.86485,0 1.67441,0.0951 2.42983,0.28267 0.0101,-0.0153 0.0208,-0.0358 0.0289,-0.0434 0.0304,-0.0283 0.0553,-0.0709 0.0553,-0.0946 0,-0.0237 0.009,-0.0529 0.0207,-0.0651 0.0113,-0.0122 0.0419,-0.0858 0.0682,-0.1633 0.0263,-0.0776 0.0853,-0.19687 0.13125,-0.2651 0.0459,-0.0682 0.0832,-0.13435 0.0832,-0.14676 0,-0.0124 0.0251,-0.0557 0.0558,-0.0966 0.0307,-0.0409 0.0896,-0.13744 0.13024,-0.21445 0.0407,-0.077 0.0918,-0.16131 0.11419,-0.18707 0.0223,-0.0258 0.0602,-0.10715 0.0842,-0.18087 0.0239,-0.0737 0.0632,-0.1512 0.0868,-0.1726 0.0237,-0.0214 0.0429,-0.052 0.0429,-0.0677 0,-0.0349 0.0656,-0.18772 0.20102,-0.46974 0.0565,-0.11756 0.10231,-0.2251 0.10231,-0.23874 0,-0.0137 0.0204,-0.0354 0.045,-0.0486 0.0264,-0.0141 0.0657,-0.0889 0.0961,-0.18191 0.0284,-0.0868 0.0648,-0.174 0.0806,-0.19327 0.0158,-0.0193 0.0551,-0.0926 0.0873,-0.16329 0.0322,-0.0707 0.0811,-0.15362 0.10852,-0.18449 0.0274,-0.0309 0.0496,-0.0741 0.0496,-0.0961 0,-0.022 0.0213,-0.067 0.047,-0.0997 0.0257,-0.0327 0.0465,-0.0709 0.0465,-0.0853 0,-0.0143 0.0343,-0.077 0.076,-0.13901 0.113,-0.16806 0.20523,-0.31886 0.30953,-0.50643 0.0346,-0.0622 0.0748,-0.12469 0.1137,-0.18655 -1.54621,-0.3775 -3.11089,-0.56896 -4.69481,-0.56896 z m 5.56246,0.80202 c -0.0118,0.0218 -0.0428,0.0689 -0.0455,0.0775 -0.009,0.0289 -0.0248,0.0527 -0.0346,0.0527 -0.0241,0 -0.15573,0.20731 -0.17777,0.28008 -0.01,0.0321 -0.0425,0.0836 -0.0729,0.11421 -0.0304,0.0307 -0.0553,0.0705 -0.0553,0.0884 0,0.0473 -0.12981,0.29738 -0.17311,0.33331 -0.0203,0.0169 -0.0367,0.0525 -0.0367,0.0791 0,0.0266 -0.0272,0.0874 -0.0605,0.13539 -0.0333,0.048 -0.0695,0.12226 -0.0806,0.16485 -0.0424,0.16332 -0.12187,0.35985 -0.1633,0.40463 -0.0238,0.0257 -0.0761,0.11988 -0.11627,0.2098 -0.0402,0.0899 -0.0921,0.18464 -0.11524,0.21033 -0.0232,0.0257 -0.0815,0.13628 -0.12919,0.24546 -0.16356,0.37448 -0.20366,0.45542 -0.24805,0.49713 -0.0245,0.023 -0.0447,0.0651 -0.045,0.0935 -2.6e-4,0.0284 -0.0296,0.10008 -0.0646,0.15968 -0.11087,0.18864 -0.24903,0.39848 -0.28835,0.4377 -0.0209,0.0208 -0.0453,0.0644 -0.0543,0.0966 -0.0336,0.11927 -0.11952,0.31777 -0.17105,0.39533 -0.0292,0.044 -0.0594,0.10698 -0.0667,0.14004 -0.004,0.0172 -0.0302,0.0742 -0.0481,0.11731 0.40711,0.15069 0.7987,0.32838 1.16996,0.54053 0.91991,0.45995 1.72206,1.03738 2.41277,1.72652 0.0261,-0.0348 0.0505,-0.067 0.0724,-0.0961 0.12919,-0.17198 0.25204,-0.29006 0.42426,-0.40773 0.099,-0.0676 0.16433,-0.12865 0.16433,-0.15348 0,-0.0227 0.0104,-0.0473 0.0233,-0.0553 0.0129,-0.008 0.0233,-0.0308 0.0233,-0.0506 0,-0.0199 0.0234,-0.0661 0.0522,-0.10232 0.0289,-0.0362 0.11073,-0.14624 0.18138,-0.24443 0.14843,-0.20629 0.55218,-0.64234 0.5948,-0.64234 0.0159,0 0.0574,-0.0263 0.092,-0.0584 0.0347,-0.0321 0.093,-0.074 0.12971,-0.093 0.0367,-0.019 0.086,-0.0587 0.10956,-0.0884 0.0394,-0.0496 0.37236,-0.24074 0.68522,-0.39377 0.12013,-0.0588 0.42775,-0.14584 0.72399,-0.20464 0.0707,-0.014 0.27595,-0.0361 0.45579,-0.0491 0.61458,-0.0445 0.56014,-0.0331 0.92811,-0.18862 0.0995,-0.0421 0.18086,-0.0844 0.18086,-0.094 0,-0.005 0.006,-0.0103 0.0119,-0.016 -0.18917,-0.18263 -0.38361,-0.35855 -0.58342,-0.52762 -1.52572,-1.40368 -3.26486,-2.41072 -5.21777,-3.021 -0.12893,-0.0403 -0.25838,-0.0756 -0.38757,-0.11317 z m -10.85929,1.54254 c -0.10915,0.003 -0.26368,0.0213 -0.56172,0.0568 -0.10276,0.0123 -0.25005,0.0287 -0.32712,0.0372 -0.21491,0.0236 -0.50753,0.075 -0.5767,0.10129 -0.0342,0.013 -0.17572,0.041 -0.31471,0.0615 -0.31908,0.0472 -0.32345,0.0479 -0.601,0.13333 -0.12717,0.0391 -0.26784,0.0962 -0.31264,0.12661 -0.0448,0.0304 -0.12442,0.0666 -0.17725,0.0806 -0.0528,0.0141 -0.11199,0.0392 -0.13126,0.0558 -0.0193,0.0166 -0.0614,0.0378 -0.0935,0.0475 -0.0321,0.01 -0.0836,0.0375 -0.11421,0.0615 -0.0306,0.0239 -0.0686,0.0434 -0.0847,0.0434 -0.0162,0 -0.0983,0.0413 -0.1819,0.092 -0.0836,0.0508 -0.27078,0.1301 -0.41651,0.17622 -0.14573,0.0461 -0.30575,0.10584 -0.35554,0.13229 -0.11067,0.0588 -0.40409,0.15968 -0.46354,0.15968 -0.0239,0 -0.0929,0.0253 -0.15347,0.0558 -0.26818,0.13487 -0.65009,0.19037 -1.05937,0.15452 -0.17297,-0.0152 -0.31869,-0.0377 -0.46095,-0.0672 -0.5376,0.45378 -1.04044,0.93661 -1.49965,1.45572 -1.34263,1.58674 -2.31873,3.38727 -2.92902,5.40122 -0.61029,2.01393 -0.91571,4.08895 -0.91571,6.22495 0,2.380121 0.30542,4.66869 0.91571,6.865729 0.67132,2.197021 1.67837,4.149752 3.021,5.85856 1.34263,1.647773 3.05133,2.990692 5.1263,4.028171 2.07497,1.037492 4.5467,1.55598 7.41505,1.55598 h 0.73226 c 3.17349,0 5.79742,-0.548939 7.87239,-1.64745 2.07497,-1.159549 3.72278,-2.5938 4.94336,-4.30258 1.2816,-1.76984 2.16692,-3.723079 2.65514,-5.859071 0.48824,-2.136018 0.73225,-4.210489 0.73225,-6.224429 0,-0.17733 -0.007,-0.34808 -0.0103,-0.52244 -0.0575,0.0664 -0.12049,0.1369 -0.21601,0.23926 -0.0418,0.0447 -0.076,0.0887 -0.076,0.0982 0,0.009 -0.0525,0.0732 -0.11679,0.14159 -0.0642,0.0684 -0.11679,0.13652 -0.11679,0.15141 0,0.0149 -0.0351,0.0512 -0.078,0.0806 -0.0429,0.0294 -0.1032,0.0901 -0.13384,0.13488 -0.0677,0.0988 -0.38758,0.41284 -0.48008,0.47129 -0.0368,0.0232 -0.1253,0.0987 -0.19637,0.16743 -0.0711,0.0687 -0.19206,0.1667 -0.26872,0.218071 -0.0767,0.0514 -0.14885,0.10926 -0.16071,0.128159 -0.0731,0.116501 -0.41055,0.388609 -0.55656,0.449069 -0.0225,0.009 -0.0412,0.0305 -0.0419,0.047 -5.3e-4,0.01651 -0.0438,0.0666 -0.0961,0.11162 -0.0523,0.045 -0.13319,0.120001 -0.17984,0.16692 -0.0467,0.0469 -0.14006,0.113731 -0.20722,0.14831 -0.0672,0.0346 -0.15431,0.0997 -0.19378,0.14469 -0.0395,0.045 -0.14184,0.124261 -0.22738,0.17622 -0.0855,0.052 -0.16958,0.108601 -0.18707,0.12609 -0.0175,0.01749 -0.0464,0.032 -0.0636,0.032 -0.0172,0 -0.10518,0.0416 -0.19586,0.093 -0.0907,0.0514 -0.1715,0.0935 -0.17983,0.0935 -0.008,0 -0.0513,0.0317 -0.0951,0.0703 -0.0439,0.0385 -0.10045,0.0703 -0.12558,0.0703 -0.0251,0 -0.0588,0.0208 -0.0749,0.0465 -0.016,0.02569 -0.052,0.0465 -0.0801,0.0465 -0.028,0 -0.0805,0.0245 -0.11679,0.0543 -0.0851,0.0697 -0.20751,0.118311 -0.25321,0.100772 -0.044,-0.01691 -0.37793,0.0842 -0.53692,0.162258 -0.0642,0.0315 -0.12476,0.057 -0.13436,0.0568 -0.01,-2.2e-4 -0.083,0.0301 -0.1633,0.0672 -0.10416,0.0481 -0.19647,0.071 -0.32142,0.0796 -0.0963,0.007 -0.20436,0.0255 -0.2403,0.0419 -0.0288,0.0131 -0.0723,0.0177 -0.13642,0.01709 -0.0455,0.22547 -0.0935,0.453049 -0.14676,0.683678 -0.30515,1.525712 -0.8546,2.959441 -1.64797,4.302062 -0.79338,1.28162 -1.86131,2.350068 -3.20393,3.204458 -1.34262,0.854401 -3.05134,1.281581 -5.12631,1.281581 -2.13602,0 -3.93654,-0.396751 -5.40122,-1.190109 -1.40367,-0.8544 -2.53249,-1.922341 -3.38687,-3.20394 -0.85442,-1.281599 -1.46472,-2.685402 -1.8309,-4.211111 -0.36616,-1.586749 -0.54932,-3.11231 -0.54932,-4.57699 0,-1.52573 0.21359,-3.02137 0.64079,-4.48603 0.48822,-1.52573 1.18986,-2.86812 2.1053,-4.02766 0.97646,-1.22057 2.16667,-2.19719 3.57032,-2.92954 0.90577,-0.51195 1.90169,-0.85607 2.98535,-1.03766 -5.3e-4,-10e-4 -7.9e-4,-0.002 -0.002,-0.003 -0.0873,-0.16059 -0.18247,-0.31933 -0.21136,-0.35295 -0.0289,-0.0336 -0.0754,-0.11 -0.10386,-0.16949 -0.0548,-0.11484 -0.1978,-0.31202 -0.32402,-0.44701 -0.042,-0.0449 -0.0864,-0.1104 -0.0987,-0.14572 -0.0123,-0.0353 -0.0316,-0.0641 -0.0429,-0.0641 -0.0113,0 -0.055,-0.0381 -0.0971,-0.0848 -0.15493,-0.17205 -0.30397,-0.30261 -0.44287,-0.38757 -0.0784,-0.0479 -0.16124,-0.10397 -0.18398,-0.12454 -0.15173,-0.13732 -0.68038,-0.36506 -0.97512,-0.42013 -0.0987,-0.0184 -0.23734,-0.0501 -0.308,-0.0698 -0.0707,-0.0197 -0.22843,-0.0567 -0.35088,-0.0822 -0.117,-0.0244 -0.18076,-0.0366 -0.2899,-0.0336 z"
       id="path7137-8-6"
       inkscape:connector-curvature="0"
       inkscape:export-filename="/home/daniel/Design/Trouwkaart/exports/bloemen-met-tekst.png"
       inkscape:export-xdpi="599.93866"
       inkscape:export-ydpi="599.93866" />
    <path
       style="font-style:normal;font-variant:normal;font-weight:normal;font-stretch:normal;font-size:78.13490295px;line-height:1.25;font-family:'Black Tie SF';-inkscape-font-specification:'Black Tie SF';letter-spacing:0px;word-spacing:0px;display:inline;opacity:1;fill:#ff5555;fill-opacity:1;stroke:none;stroke-width:2.2885735"
       d="m 173.79198,56.564001 c -2.25787,7e-5 -4.39359,0.45768 -6.40736,1.37304 -1.95293,0.85441 -3.69258,2.04462 -5.21829,3.57032 -1.46468,1.52573 -2.62393,3.32625 -3.47834,5.40122 -0.8544,2.01395 -1.28158,4.14983 -1.28158,6.40788 0,2.380121 0.42718,4.607291 1.28158,6.682281 0.38685,0.876879 0.8317,1.701649 1.32756,2.480468 0.0144,0.006 0.0274,0.01079 0.0439,0.0191 0.14989,0.0755 0.14217,0.0748 0.16846,0.006 0.0186,-0.0486 0.0283,-0.0584 0.0481,-0.0491 0.0276,0.01291 0.043,0.0886 0.0196,0.0961 -0.008,0.003 -0.0139,-0.005 -0.0129,-0.01651 0.002,-0.02551 -0.0365,-0.0476 -0.0465,-0.02641 -0.004,0.008 -8e-4,0.01749 0.007,0.02119 0.008,0.004 0.006,0.01421 -0.003,0.0232 -0.021,0.02029 0.0354,0.0703 0.0868,0.077 0.0344,0.004 0.0352,0.004 0.0176,-0.0284 -0.0178,-0.0323 -0.0175,-0.0333 0.0202,-0.0413 0.0433,-0.009 0.0638,-0.004 0.0558,0.01289 -0.007,0.015 0.14243,0.083 0.17363,0.0791 0.0332,-0.004 0.0414,-0.029 0.0222,-0.0667 -0.0148,-0.0283 -0.0142,-0.0301 0.004,-0.01241 0.0162,0.01569 0.0219,0.01281 0.0269,-0.01389 0.004,-0.01961 0.0137,-0.0313 0.0227,-0.0269 0.009,0.004 0.0101,0.0205 0.003,0.0362 -0.008,0.01569 -0.009,0.0353 -0.004,0.0434 0.005,0.008 0.005,0.036 -0.001,0.062 -0.0128,0.0571 0.0195,0.153389 0.0574,0.17105 0.0319,0.0149 0.0317,0.01511 0.0377,-0.0481 l 0.005,-0.0486 0.0165,0.0553 c 0.0204,0.0677 0.058,0.119859 0.0879,0.121959 0.0123,7.94e-4 0.0349,0.01791 0.0501,0.0377 0.0152,0.01979 0.0647,0.0591 0.10956,0.0873 0.0449,0.0282 0.0913,0.0645 0.10335,0.0806 0.0219,0.0292 0.0861,0.0753 0.15451,0.11058 0.0198,0.01021 0.0426,0.0353 0.0496,0.0558 0.01,0.02609 0.0277,0.0404 0.061,0.0486 0.034,0.008 0.0562,0.0269 0.077,0.0636 0.016,0.0283 0.0405,0.0569 0.0548,0.0636 0.0143,0.007 0.0333,0.0281 0.0413,0.0481 0.008,0.0199 0.0349,0.0487 0.0589,0.0636 0.0379,0.02339 0.0446,0.0223 0.0496,-0.006 0.003,-0.0181 0.0126,-0.0298 0.0196,-0.02641 0.007,0.003 0.008,0.01561 0.003,0.0274 -0.0226,0.0484 -0.01,0.10976 0.03,0.141082 0.0226,0.01781 0.0462,0.0339 0.0532,0.0357 0.006,0.0021 0.009,0.01 0.005,0.0176 -0.004,0.009 0.01,0.01421 0.0367,0.0145 0.0582,5.29e-4 0.0847,0.0318 0.0641,0.076 -0.0126,0.027 -0.009,0.0391 0.0129,0.0475 0.0232,0.009 0.0312,0.003 0.0372,-0.0258 0.004,-0.02069 0.0137,-0.0348 0.0217,-0.031 0.0162,0.007 0.0193,0.0598 0.005,0.0827 -0.005,0.008 0.003,0.035 0.017,0.0605 0.0138,0.02551 0.0237,0.036 0.0227,0.02381 -0.002,-0.01601 0.0211,-0.01119 0.0816,0.01709 0.0463,0.02159 0.0778,0.0422 0.0698,0.045 -0.0216,0.008 0.0587,0.144081 0.0904,0.153482 0.0456,0.01349 0.12537,0.0967 0.16226,0.1695 0.0189,0.0373 0.0471,0.0739 0.0625,0.0811 0.0154,0.007 0.0392,0.0424 0.0532,0.0785 0.014,0.0361 0.0345,0.0698 0.0455,0.0749 0.0109,0.005 0.0256,0.0281 0.0326,0.0506 0.007,0.0226 0.0177,0.0419 0.0227,0.0434 0.0252,0.007 0.0867,0.0851 0.0847,0.108 -0.002,0.0204 0.006,0.025 0.0372,0.02331 0.0261,-0.0011 0.0336,0.0021 0.0222,0.009 -0.01,0.006 -0.006,0.0429 0.008,0.0822 0.0141,0.0392 0.0274,0.088 0.0284,0.107998 0.002,0.02 0.0159,0.0451 0.032,0.0558 0.0283,0.01871 0.0298,0.02601 0.0139,0.0682 -0.004,0.0105 2.6e-4,0.0452 0.0103,0.0775 0.0413,0.139891 0.0534,0.1611 0.10387,0.18242 0.0276,0.01159 0.0566,0.0352 0.0646,0.0522 0.0123,0.02609 0.0182,0.0285 0.0377,0.01601 0.0128,-0.008 0.027,-0.02151 0.031,-0.0294 0.004,-0.008 0.008,-0.003 0.0103,0.01191 0.007,0.0552 0.0405,0.02231 0.0631,-0.062 0.0284,-0.106659 0.0207,-0.164069 -0.0274,-0.19947 -0.0277,-0.0204 -0.0359,-0.0394 -0.0279,-0.0703 0.006,-0.02339 0.0152,-0.0686 0.0212,-0.100261 0.007,-0.0352 0.0208,-0.0641 0.0362,-0.0744 0.0183,-0.01241 0.0247,-0.0503 0.0207,-0.142621 -0.0108,-0.284369 -0.0108,-0.28448 -0.0377,-0.399979 l -0.0114,-0.0491 -0.0429,0.01961 c -0.0393,0.0177 -0.0423,0.01659 -0.0403,-0.0114 0.002,-0.0291 0.002,-0.0293 -0.0202,-0.009 -0.0271,0.025 -0.0173,0.0783 0.015,0.0806 0.0137,0.0011 0.0224,0.0241 0.0217,0.0563 0,0.0299 0.004,0.0563 0.009,0.0589 0.006,0.003 0.007,0.0313 0.003,0.0641 -0.004,0.0328 2.5e-4,0.059 0.0103,0.0579 0.01,-0.0011 0.0127,0.008 0.007,0.02021 -0.006,0.0123 1.3e-4,0.0361 0.0129,0.0532 0.0175,0.0231 0.0172,0.0337 -0.001,0.0403 -0.0181,0.007 -0.0298,7.94e-4 -0.045,-0.0227 -0.0112,-0.0173 -0.0302,-0.0362 -0.0424,-0.0419 -0.0145,-0.007 -0.0159,-0.0223 -0.004,-0.0429 0.0189,-0.0329 0.009,-0.132159 -0.015,-0.144179 -0.0215,-0.0108 -0.0289,-0.0741 -0.0134,-0.108519 0.0109,-0.02421 0.001,-0.046 -0.0398,-0.0884 -0.039,-0.0399 -0.0498,-0.0645 -0.0408,-0.0848 0.007,-0.01569 0.003,-0.0579 -0.0103,-0.0935 -0.0126,-0.0357 -0.0173,-0.0682 -0.0103,-0.0729 0.0115,-0.008 -0.0347,-0.0579 -0.0713,-0.0775 -0.008,-0.004 -0.0177,-0.02151 -0.0217,-0.0382 -0.005,-0.01961 -0.0105,-0.02421 -0.0165,-0.01291 -0.0108,0.02159 -0.0863,-0.0467 -0.076,-0.0687 0.004,-0.008 -8e-4,-0.01349 -0.0109,-0.01241 -0.0218,0.003 -0.0788,-0.0632 -0.0708,-0.0811 0.003,-0.007 -0.001,-0.01201 -0.0114,-0.01079 -0.01,0.0011 -0.0192,-0.007 -0.0202,-0.0181 -0.001,-0.01101 -0.0233,-0.0422 -0.0486,-0.0693 -0.0254,-0.027 -0.0492,-0.0689 -0.0522,-0.093 -0.004,-0.0302 -0.0187,-0.0481 -0.046,-0.0574 -0.0239,-0.008 -0.0409,-0.0254 -0.0419,-0.0434 -0.002,-0.02151 -0.0291,-0.0443 -0.0997,-0.0827 -0.0538,-0.0292 -0.10463,-0.0662 -0.11162,-0.0822 -0.007,-0.0159 -0.0295,-0.0338 -0.0491,-0.0393 -0.0241,-0.007 -0.0318,-0.0172 -0.0248,-0.0326 0.005,-0.01249 0.009,-0.0478 0.008,-0.0786 -0.002,-0.0404 -0.009,-0.0537 -0.0258,-0.0475 -0.0169,0.006 -0.0277,0.0011 -0.0357,-0.01651 -0.009,-0.01841 -0.0283,-0.0232 -0.076,-0.0186 -0.0715,0.007 -0.15897,-0.0309 -0.19897,-0.0863 -0.0136,-0.01881 -0.0332,-0.0332 -0.0434,-0.032 -0.0103,0.0011 -0.0245,-0.007 -0.0315,-0.0176 -0.007,-0.0108 -0.0222,-0.02601 -0.0336,-0.0336 -0.0481,-0.032 -0.0649,-0.0486 -0.0785,-0.0775 -0.008,-0.0168 -0.0166,-0.0258 -0.0196,-0.02019 -0.003,0.006 -0.021,-0.02241 -0.0408,-0.062 -0.0389,-0.078 -0.0633,-0.0987 -0.078,-0.0672 -0.006,0.01339 -0.02,0.01209 -0.0424,-0.004 -0.0186,-0.01331 -0.0309,-0.0298 -0.0279,-0.0367 0.003,-0.007 -0.006,-0.01349 -0.0202,-0.0145 -0.0147,-0.0011 -0.0226,-0.01 -0.0176,-0.01961 0.005,-0.01 -0.003,-0.01871 -0.0165,-0.01961 -0.0136,-0.0011 -0.028,-0.01421 -0.032,-0.0295 -0.005,-0.01921 -0.021,-0.03 -0.0532,-0.0351 -0.0567,-0.009 -0.10981,-0.04 -0.14211,-0.0832 -0.0134,-0.01791 -0.0286,-0.0305 -0.0346,-0.0284 -0.014,0.005 -0.0431,-0.0744 -0.0341,-0.0935 0.004,-0.008 -0.003,-0.0195 -0.0155,-0.02529 -0.0119,-0.006 -0.0219,-0.0302 -0.0217,-0.0548 5.3e-4,-0.0555 -0.0245,-0.0711 -0.0315,-0.0196 -0.01,0.0729 -0.0152,0.01061 -0.007,-0.0811 0.006,-0.0586 0.003,-0.0802 -0.008,-0.0584 -0.0118,0.02421 -0.0221,0.029 -0.0346,0.01601 -0.01,-0.01011 -0.0322,-0.01299 -0.0496,-0.007 -0.0359,0.01299 -0.0479,-0.0173 -0.0181,-0.046 0.0127,-0.0122 0.008,-0.02241 -0.016,-0.0336 -0.0189,-0.009 -0.0448,-0.0365 -0.0574,-0.0615 -0.0126,-0.025 -0.0393,-0.0591 -0.0594,-0.0754 -0.0529,-0.0427 -0.0719,-0.1075 -0.0439,-0.146241 0.0179,-0.02461 0.0174,-0.0352 -0.004,-0.045 -0.0176,-0.008 -0.0323,-0.0021 -0.0413,0.01651 -0.0209,0.0452 -0.0423,0.0231 -0.03,-0.0315 0.006,-0.0267 0.004,-0.0522 -0.005,-0.0563 -0.009,-0.004 -0.023,-0.02191 -0.03,-0.0393 -0.0267,-0.0623 -0.18206,-0.109969 -0.20515,-0.063 -0.0132,0.0263 -0.0317,-0.0826 -0.0191,-0.11059 0.006,-0.01421 0.002,-0.0305 -0.0103,-0.0362 -0.0124,-0.006 -0.0185,-0.0173 -0.0145,-0.02641 0.004,-0.009 -0.003,-0.01709 -0.017,-0.0181 -0.0361,-0.003 -0.0858,-0.0686 -0.0698,-0.0925 0.008,-0.01281 0.003,-0.0231 -0.0145,-0.0279 -0.0154,-0.004 -0.0268,-0.02011 -0.0258,-0.0351 0.002,-0.02111 -0.005,-0.0259 -0.0264,-0.02021 -0.0221,0.006 -0.0261,0.0021 -0.0171,-0.01651 0.006,-0.0131 0.005,-0.0265 -0.002,-0.03 -0.007,-0.003 -0.0221,-0.0149 -0.0326,-0.0258 -0.0127,-0.0132 -0.0225,-0.01159 -0.0305,0.005 -0.006,0.01339 -0.004,0.02331 0.006,0.0222 0.0316,-0.004 0.01,0.0649 -0.0274,0.0863 -0.0344,0.01969 -0.0362,0.01921 -0.0382,-0.01291 -0.002,-0.0305 -0.005,-0.0304 -0.031,0.0011 -0.0155,0.0191 -0.0273,0.0455 -0.0253,0.0589 0.005,0.0441 -0.0709,0.15172 -0.0884,0.125058 -0.005,-0.007 -0.0233,-0.0021 -0.0413,0.0114 l -0.0331,0.02429 -0.0114,-0.0465 c -0.006,-0.02561 -0.006,-0.0585 0.001,-0.0729 0.007,-0.0159 0.001,-0.0301 -0.015,-0.0362 -0.019,-0.007 -0.0211,-0.0199 -0.008,-0.0455 0.01,-0.01961 0.0138,-0.049 0.008,-0.0651 -0.006,-0.01619 -0.002,-0.0346 0.008,-0.0413 0.0128,-0.008 0.0169,-0.003 0.0119,0.01601 -0.004,0.0155 -0.002,0.0305 0.005,0.0336 0.0226,0.0105 0.053,-0.0333 0.045,-0.0651 -0.005,-0.0213 -0.003,-0.0259 0.005,-0.01341 0.0147,0.0217 0.0524,0.003 0.0398,-0.02021 -0.004,-0.008 -0.0104,-0.042 -0.0124,-0.0739 -0.003,-0.0465 0.003,-0.0651 0.0326,-0.0951 0.02,-0.02061 0.0475,-0.0366 0.061,-0.0357 0.0136,0.0011 0.0253,-0.01011 0.0264,-0.02479 0.001,-0.0146 -0.008,-0.02561 -0.0186,-0.02429 -0.012,0.0011 -0.0125,-0.005 -0.002,-0.015 0.01,-0.009 0.0132,-0.0288 0.007,-0.0434 -0.0147,-0.0365 -0.05,-0.0021 -0.047,0.046 10e-4,0.0204 -0.004,0.0326 -0.0119,0.0289 -0.0165,-0.008 -0.0141,-0.0506 0.005,-0.0935 0.013,-0.029 0.0116,-0.0299 -0.0129,-0.01291 -0.0149,0.0104 -0.0267,0.0289 -0.0264,0.0413 0,0.01241 -0.004,0.005 -0.009,-0.01709 -0.01,-0.0382 -0.0103,-0.0382 -0.0274,-0.0021 -0.01,0.0208 -0.0111,0.0509 -0.004,0.0667 0.0182,0.0385 2.6e-4,0.0736 -0.0243,0.0481 -0.0147,-0.01529 -0.0215,-0.0113 -0.0305,0.0176 -0.009,0.029 -0.0171,0.0339 -0.0362,0.02069 -0.0174,-0.01201 -0.0271,-0.009 -0.0331,0.0114 -0.0117,0.0396 -0.0644,0.100521 -0.0806,0.093 -0.0227,-0.01069 -0.0388,-0.110598 -0.0196,-0.122978 0.01,-0.007 0.0218,-0.02461 0.0258,-0.0398 0.01,-0.0353 0.0371,-0.02389 0.0341,0.0145 -0.002,0.02069 0.004,0.02619 0.0212,0.02021 0.0165,-0.006 0.0215,-0.0209 0.0155,-0.0532 -0.01,-0.055 0.005,-0.092 0.0274,-0.0687 0.0177,0.01831 0.0658,-0.0287 0.13746,-0.134882 0.0218,-0.0323 0.0508,-0.0583 0.0641,-0.0573 0.0132,0.0011 0.0232,-0.006 0.0222,-0.015 -0.001,-0.009 0.005,-0.0149 0.0145,-0.01191 0.0314,0.0104 0.0406,0.01191 0.0646,0.009 0.0131,-0.0021 0.0232,-0.01101 0.0222,-0.02069 -0.001,-0.01 0.004,-0.01431 0.0134,-0.01029 0.0199,0.009 0.009,0.0342 -0.0165,0.0372 -0.0103,0.0011 -0.0186,0.01 -0.0176,0.0186 0.001,0.009 -0.006,0.01701 -0.0155,0.0181 -0.0278,0.003 -0.0303,0.106098 -0.003,0.107998 0.0124,7.94e-4 0.0173,0.005 0.0103,0.01 -0.007,0.005 -0.0107,0.02111 -0.008,0.0367 0.004,0.02151 0.008,0.02479 0.0207,0.01339 0.009,-0.008 0.0258,-0.0105 0.0372,-0.005 0.0115,0.005 0.0234,0.003 0.0274,-0.005 0.004,-0.008 0.0411,-0.0361 0.0832,-0.0631 0.0422,-0.0269 0.0803,-0.0575 0.0853,-0.0677 0.01,-0.0209 -0.0243,-0.125161 -0.0439,-0.134361 -0.0311,-0.0145 -0.0688,-0.008 -0.0801,0.01389 -0.009,0.01709 -0.0126,0.01252 -0.0129,-0.01709 -5.3e-4,-0.0501 0.0613,-0.1035 0.0941,-0.0811 0.0117,0.008 0.035,0.003 0.0517,-0.01191 0.0177,-0.0154 0.037,-0.01939 0.047,-0.009 0.0132,0.01371 0.0153,0.008 0.0103,-0.0274 -0.005,-0.0366 -0.003,-0.0438 0.0135,-0.0362 0.011,0.005 0.0142,0.01331 0.007,0.0181 -0.007,0.005 -0.004,0.0136 0.008,0.0191 0.0245,0.0114 0.0906,-0.0818 0.0806,-0.113689 -0.009,-0.0288 -0.003,-0.0369 0.0481,-0.0594 0.0249,-0.01109 0.0412,-0.01241 0.0372,-0.003 -0.004,0.009 0.005,0.0232 0.0207,0.0305 0.0157,0.007 0.03,0.02201 0.031,0.0326 0.004,0.0328 0.0405,0.01651 0.0475,-0.02119 0.004,-0.0205 0.0262,-0.0477 0.0527,-0.0641 l 0.046,-0.0284 -0.007,0.0388 c -0.005,0.031 -0.002,0.0353 0.017,0.02331 0.0129,-0.008 0.0227,-0.0217 0.0217,-0.03 -0.001,-0.008 0.005,-0.01201 0.0129,-0.008 0.008,0.004 0.0129,0.0159 0.0119,0.0269 -0.001,0.01119 0.0106,0.02051 0.0269,0.0217 0.0278,0.0021 0.0294,-0.0021 0.0289,-0.061 -5.3e-4,-0.0708 0.0208,-0.0896 0.0501,-0.0444 0.0159,0.02439 0.0241,0.0258 0.0429,0.01 0.0127,-0.01079 0.0276,-0.0291 0.0346,-0.0408 0.0193,-0.0346 0.0888,-0.084 0.10594,-0.0754 0.0219,0.01101 0.0511,0.0694 0.0372,0.0744 -0.006,0.0021 -2.6e-4,0.033 0.0134,0.0677 0.0283,0.0713 0.009,0.13453 -0.0475,0.15503 -0.0276,0.01011 -0.0331,0.0173 -0.0227,0.0331 0.009,0.01431 0.007,0.02101 -0.008,0.0227 -0.0417,0.005 -0.0313,0.0276 0.0212,0.0465 0.0295,0.01061 0.0511,0.0245 0.0481,0.031 -0.007,0.0141 0.0651,0.0428 0.10955,0.0439 0.0172,5.29e-4 0.0588,0.01889 0.0925,0.0413 0.0479,0.0319 0.0628,0.0363 0.0708,0.02021 0.005,-0.0114 0.0279,-0.0263 0.0501,-0.0331 0.0564,-0.01741 0.0711,-0.0669 0.0413,-0.14056 l -0.0253,-0.0625 0.0718,0.0424 c 0.0396,0.02339 0.0822,0.0563 0.0946,0.0729 0.0217,0.029 0.0726,0.044 0.0816,0.02429 0.002,-0.005 8e-4,-0.0393 -0.004,-0.076 -0.005,-0.0366 -0.01,-0.083 -0.0109,-0.103349 -0.001,-0.0204 -0.005,-0.0563 -0.008,-0.0796 -0.005,-0.0378 -10e-4,-0.0435 0.0341,-0.0512 0.0458,-0.01 0.0998,0.025 0.15813,0.101809 0.0535,0.0705 0.15196,0.326581 0.13746,0.3576 -0.017,0.0371 -0.0147,0.150101 0.005,0.19534 0.0159,0.0373 0.0321,0.0532 0.0605,0.061 0.0155,0.004 0.0803,0.0929 0.0853,0.11575 0.002,0.009 0.0253,0.0289 0.0517,0.0439 0.0676,0.0385 0.10571,0.0767 0.13901,0.138489 0.0159,0.0294 0.0365,0.054 0.0465,0.0548 0.01,7.94e-4 0.017,0.0191 0.0165,0.0408 -7.9e-4,0.0376 0.0103,0.0558 0.0915,0.148828 0.0193,0.02209 0.0495,0.0694 0.0672,0.104902 0.0177,0.0356 0.038,0.0671 0.045,0.0703 0.007,0.003 0.0222,0.0325 0.0341,0.0651 0.0227,0.0623 0.0394,0.0858 0.13643,0.19069 0.041,0.044 0.056,0.0727 0.047,0.0909 -0.006,0.01471 -0.002,0.0315 0.01,0.0372 0.0125,0.006 0.0215,0.02429 0.0207,0.0413 -7.9e-4,0.01709 0.007,0.0399 0.0171,0.0506 0.0269,0.0278 0.1113,0.2648 0.11731,0.330729 0.003,0.0304 0.01,0.0573 0.0155,0.0599 0.006,0.003 0.0136,0.0412 0.0176,0.0858 0.004,0.0446 0.0312,0.131281 0.0599,0.192241 0.0287,0.061 0.057,0.126098 0.063,0.144687 0.014,0.0426 0.0628,0.12038 0.0806,0.128673 0.0374,0.01749 0.0521,-0.0494 0.0305,-0.140552 -0.0133,-0.054 -0.0216,-0.102939 -0.0186,-0.109041 0.003,-0.006 -7.9e-4,-0.0287 -0.008,-0.0501 -0.0324,-0.0971 -0.0415,-0.149551 -0.0315,-0.205672 0.006,-0.0333 5.3e-4,-0.099 -0.0114,-0.145729 -0.0278,-0.10926 -0.0347,-0.342699 -0.0124,-0.409279 0.0231,-0.0686 0.0121,-0.131699 -0.0305,-0.178282 -0.0457,-0.05 -0.0724,-0.197548 -0.0723,-0.402047 1e-4,-0.0908 -0.008,-0.180041 -0.0176,-0.197911 -0.01,-0.01791 -0.0203,-0.0559 -0.0243,-0.0848 -0.004,-0.0289 -0.0253,-0.0825 -0.0475,-0.118851 -0.0473,-0.0773 -0.0379,-0.108101 0.0444,-0.146241 0.0539,-0.025 0.0618,-0.0354 0.076,-0.0961 0.0135,-0.0577 0.0104,-0.0709 -0.0222,-0.0909 -0.0243,-0.01471 -0.0344,-0.0323 -0.0274,-0.047 0.006,-0.01288 0.005,-0.02151 -0.003,-0.0186 -0.0196,0.007 -0.0477,-0.0636 -0.0357,-0.0894 0.005,-0.0113 5.3e-4,-0.01939 -0.0103,-0.0181 -0.0128,0.0021 -0.0101,-0.009 0.007,-0.0305 0.0199,-0.025 0.0211,-0.0464 0.006,-0.0889 -0.021,-0.0576 -0.0214,-0.0847 -0.002,-0.0543 0.007,0.0104 0.0152,0.006 0.0202,-0.01191 0.0168,-0.0554 0.0736,-0.11367 0.092,-0.0946 0.01,0.01 0.0203,0.0109 0.0243,0.003 0.004,-0.008 -0.004,-0.02561 -0.0181,-0.0382 -0.0136,-0.0127 -0.0226,-0.0291 -0.0186,-0.0367 0.01,-0.02141 -0.0342,-0.1417 -0.0501,-0.135908 -0.008,0.003 -0.008,-0.008 0,-0.02479 0.008,-0.01669 0.006,-0.0388 -0.004,-0.0491 -0.01,-0.01029 -0.0143,-0.02641 -0.0104,-0.0351 0.004,-0.009 0.0116,-0.009 0.0176,-5.29e-4 0.006,0.008 0.0168,-0.003 0.0248,-0.02479 0.0124,-0.033 0.0289,-0.0406 0.0966,-0.0444 0.0549,-0.003 0.0828,0.0021 0.0848,0.01601 0.003,0.0289 0.0388,0.004 0.0408,-0.0284 7.9e-4,-0.01378 0.0193,-0.031 0.0408,-0.0382 0.0382,-0.01291 0.0521,-0.0258 0.11111,-0.102319 0.0197,-0.02569 0.0345,-0.0316 0.0465,-0.0191 0.0102,0.01061 0.0214,0.01 0.0274,-0.0021 0.005,-0.0113 0.0221,-0.02551 0.0372,-0.0315 0.0431,-0.01699 0.1572,-0.0883 0.19792,-0.1235 0.0203,-0.01759 0.0415,-0.0296 0.0475,-0.0269 0.006,0.003 0.0203,-0.007 0.032,-0.02069 0.0117,-0.0141 0.0407,-0.0245 0.0646,-0.0227 0.0239,0.0021 0.0558,-0.01 0.0703,-0.0258 0.0145,-0.0159 0.0328,-0.03 0.0398,-0.0315 0.007,-0.0021 0.0382,-0.0196 0.0693,-0.0403 0.0685,-0.0456 0.16144,-0.0848 0.18034,-0.076 0.008,0.004 0.0218,-0.0021 0.032,-0.0114 0.0105,-0.01011 0.0266,-0.009 0.0372,0.0021 0.0118,0.0122 0.0225,0.0105 0.0294,-0.004 0.006,-0.0123 0.0563,-0.0352 0.11421,-0.0574 -0.2718,-0.4538 -0.51784,-0.929569 -0.73537,-1.42988 -0.61029,-1.40366 -0.91518,-2.86833 -0.91518,-4.39405 0,-1.58675 0.27445,-3.05143 0.82373,-4.39405 0.61025,-1.40367 1.40375,-2.59386 2.38021,-3.57032 1.03749,-1.03748 2.19674,-1.83097 3.47834,-2.38022 1.34262,-0.61029 2.74642,-0.91519 4.2111,-0.91519 1.46471,0 2.86851,0.3049 4.21113,0.91519 0.50718,0.20748 0.98787,0.44994 1.4428,0.72709 0.0524,-0.004 0.11979,-0.01 0.14263,-0.0109 0.0436,-0.002 0.0935,-0.006 0.11111,-0.008 0.0175,-0.003 0.0369,-0.002 0.0429,0.002 0.006,0.003 0.0785,-2.6e-4 0.16122,-0.007 0.0827,-0.008 0.17226,-0.007 0.19896,0.002 0.0266,0.009 0.0727,0.0122 0.10231,0.006 0.0296,-0.006 0.098,-0.004 0.15194,0.003 0.0538,0.007 0.14119,-0.002 0.1943,-0.0202 0.0775,-0.0267 0.11726,-0.0263 0.20206,0.004 0.11883,0.0415 0.34632,0.0696 0.36482,0.0444 0.0179,-0.0244 -0.0715,-0.1264 -0.16225,-0.185 -0.0486,-0.0314 -0.0818,-0.0662 -0.0847,-0.0904 -0.003,-0.0217 -0.0181,-0.0474 -0.0336,-0.0574 -0.0155,-0.01 -0.093,-0.0952 -0.17261,-0.19017 -0.0796,-0.095 -0.19976,-0.23218 -0.26716,-0.30438 -0.0674,-0.0722 -0.1592,-0.18568 -0.2036,-0.25218 -0.0916,-0.13695 -0.21346,-0.38938 -0.19895,-0.41238 0.005,-0.008 -1.2e-4,-0.0209 -0.0119,-0.0289 -0.0118,-0.008 -0.0421,-0.10832 -0.0677,-0.22376 -0.0256,-0.11545 -0.0563,-0.21676 -0.0682,-0.22376 -0.0563,-0.0354 -0.1324,-0.31137 -0.1354,-0.49041 -0.002,-0.16393 -0.0132,-0.20711 -0.0858,-0.34726 -0.1078,-0.20817 -0.12892,-0.33563 -0.13952,-0.84491 -0.007,-0.3163 -0.004,-0.37844 0.0176,-0.38344 0.009,-0.002 0.0246,0.0435 0.0351,0.10077 0.0308,0.16861 0.0666,0.12221 0.0646,-0.0847 -2.6e-4,-0.0421 0.0135,-0.10386 0.0305,-0.13746 0.0528,-0.10412 0.0678,-0.3846 0.0346,-0.64337 -0.015,-0.11756 -0.008,-0.26797 0.015,-0.30437 0.005,-0.009 0.003,-0.0411 -0.006,-0.0718 -0.009,-0.0307 -0.0204,-0.0991 -0.0264,-0.15193 -0.0101,-0.0925 -0.008,-0.0973 0.0455,-0.12196 0.0541,-0.0248 0.0552,-0.0284 0.0357,-0.11369 -0.0166,-0.0728 -0.0268,-0.0867 -0.0594,-0.0827 -0.0217,0.003 -0.0409,2.64e-4 -0.0419,-0.006 -10e-4,-0.006 0.0264,-0.11231 0.0615,-0.23616 0.0114,-0.04 0.0129,-0.0602 0.0227,-0.0997 -1.82084,-0.77206 -3.79401,-1.16265 -5.92367,-1.16272 z m 5.82135,1.5937 c 0.0108,0.002 0.0114,0.0422 -0.003,0.0889 -0.0154,0.0484 -0.0157,0.0484 -0.0217,0 -0.003,-0.0277 0.002,-0.0621 0.0108,-0.0765 0.006,-0.009 0.0104,-0.013 0.0139,-0.0124 z m -0.0594,0.21756 c 0.005,-0.006 0.009,-0.007 0.0103,0.002 0.003,0.0138 -0.007,0.0553 -0.0217,0.0925 -0.0189,0.0483 -0.0268,0.0571 -0.0269,0.03 -1.5e-4,-0.0368 0.0236,-0.10576 0.0382,-0.12402 z m -0.032,0.35294 c 0.004,0.004 0.008,0.0134 0.0129,0.0289 0.014,0.0416 0.02,0.21343 0.008,0.23203 h -5.3e-4 c -0.0139,0.022 -0.0275,-0.0383 -0.0315,-0.14107 -0.004,-0.0905 4e-5,-0.1313 0.0109,-0.1199 z m -0.002,0.52297 c 0.013,0.008 -0.002,0.20128 -0.0176,0.22428 -0.005,0.007 -0.011,-0.0163 -0.015,-0.0517 -0.007,-0.0741 0.0135,-0.18459 0.0325,-0.17259 z m -0.0233,0.25425 c 0.0173,-0.004 0.0359,0.11232 0.0217,0.13643 h -5.3e-4 c -0.004,0.008 -0.0183,0.007 -0.031,-0.001 -0.0252,-0.0161 -0.0174,-0.1294 0.01,-0.1354 z m 5.8198,1.90066 c 7.9e-4,0.0745 -0.001,0.15998 -0.0129,0.34571 -0.005,0.083 -0.005,0.19151 -0.001,0.24081 0.004,0.0493 0.004,0.1545 -10e-4,0.2341 h -5.3e-4 c -0.009,0.1416 0.0234,0.22611 0.0481,0.12661 0.0165,-0.0662 0.0493,-0.10664 0.0987,-0.12144 0.0403,-0.0121 0.11459,-0.0885 0.22686,-0.23461 0.0275,-0.0358 0.0672,-0.0762 0.0884,-0.0894 0.008,-0.005 0.0139,-0.0104 0.0217,-0.0155 -0.12096,-0.12922 -0.24037,-0.25949 -0.36587,-0.38499 -0.0333,-0.0347 -0.0687,-0.0669 -0.10232,-0.10128 z m -3.49074,2.78742 c -0.0114,0.003 5.3e-4,0.0173 0.0362,0.0434 0.0507,0.037 0.22772,0.24687 0.4992,0.59273 0.16551,0.21086 0.38767,0.47002 0.5426,0.63304 0.0439,0.0462 0.11138,0.12832 0.15038,0.18242 0.039,0.0541 0.15599,0.179 0.25993,0.2775 v 5.29e-4 c 0.1874,0.17751 0.57045,0.45293 0.60565,0.43563 0.009,-0.004 0.003,-0.0288 -0.0139,-0.0543 -0.0307,-0.0467 -0.0182,-0.0848 0.0439,-0.13074 0.0344,-0.0254 0.0584,-0.12186 0.0341,-0.13746 -0.007,-0.005 -0.0359,0.007 -0.0636,0.0263 -0.0277,0.0191 -0.0555,0.0368 -0.0605,0.0388 -0.0188,0.008 -0.0184,-0.0943 5.3e-4,-0.12557 0.0279,-0.0462 0.0129,-0.17594 -0.0212,-0.18293 -0.0483,-0.01 -0.0203,-0.0713 0.0579,-0.12816 l 0.0734,-0.0532 -0.0574,-0.0217 c -0.0738,-0.0283 -0.076,-0.0483 -0.009,-0.0791 0.0397,-0.0186 0.0649,-0.016 0.091,0.008 0.034,0.032 0.0359,0.031 0.0269,-0.0176 -0.007,-0.0406 2e-5,-0.0561 0.0346,-0.0775 0.071,-0.0438 0.11484,-0.0904 0.0966,-0.1018 -0.009,-0.006 -0.0259,-0.0223 -0.0367,-0.0367 -0.0122,-0.0163 -0.0296,-0.0162 -0.0465,5.29e-4 -0.0219,0.022 -0.0261,0.0159 -0.0171,-0.0336 0.008,-0.049 0.002,-0.0628 -0.0372,-0.0754 -0.0374,-0.0124 -0.0451,-0.0257 -0.0346,-0.0636 0.0128,-0.046 0.0122,-0.047 -0.0233,-0.0227 l -0.0367,0.0253 0.0202,-0.0351 c 0.0191,-0.033 0.008,-0.0439 -0.16381,-0.15451 -0.15552,-0.0999 -0.19902,-0.13744 -0.27493,-0.23874 -0.0496,-0.0661 -0.11576,-0.13605 -0.14675,-0.15555 -0.0757,-0.0476 -0.35039,-0.10349 -0.65268,-0.13229 -0.091,-0.009 -0.46923,-0.0892 -0.48214,-0.10284 -0.007,-0.007 -0.0516,-0.0183 -0.10025,-0.0253 -0.0486,-0.007 -0.13461,-0.0299 -0.19121,-0.0506 -0.0574,-0.0209 -0.0925,-0.0301 -0.10387,-0.0274 z m 2.21795,0.89762 c -0.008,-0.001 -0.014,1.5e-4 -0.0165,0.004 -0.0122,0.0195 0.0214,0.0655 0.0439,0.0605 0.0339,-0.008 0.0337,-0.0331 0,-0.0543 -0.009,-0.006 -0.0193,-0.009 -0.0274,-0.0103 z m 0.63459,0.0842 c -0.0437,-0.0116 -0.0555,0.0277 -0.0636,0.14728 -0.006,0.0814 -0.0297,0.24489 -0.0532,0.36277 -0.0235,0.11789 -0.0408,0.2315 -0.0388,0.2527 0.002,0.0212 -0.01,0.0898 -0.0258,0.15245 -0.0308,0.11834 -0.0667,0.45861 -0.0537,0.50901 0.0258,0.0996 0.0195,0.15494 -0.0279,0.24184 -0.0305,0.0559 -0.0555,0.14011 -0.0615,0.20671 -0.005,0.0619 -0.0169,0.12419 -0.0258,0.13849 -0.008,0.0143 -0.0128,0.0449 -0.009,0.0682 0.006,0.0356 -0.0282,0.28477 -0.0884,0.65216 -0.008,0.0517 -0.002,0.0895 0.0176,0.1018 0.0225,0.0141 0.046,0.003 0.0837,-0.0382 0.24683,-0.27102 0.26149,-0.28158 0.68264,-0.51986 0.25456,-0.14403 0.45153,-0.23986 0.75655,-0.36639 0.13756,-0.0571 0.27015,-0.11529 0.29455,-0.12919 0.25903,-0.14769 0.99332,-0.28237 1.32239,-0.24288 0.0617,0.007 0.21131,0.0251 0.33228,0.0398 0.12097,0.015 0.23082,0.0193 0.24393,0.009 0.0131,-0.01 0.0582,-0.018 0.10024,-0.0181 0.042,0 0.13232,-0.003 0.20103,-0.007 0.0687,-0.004 0.16773,0.003 0.22013,0.0145 0.0524,0.0116 0.13107,0.0249 0.17467,0.0289 0.0436,0.004 0.13845,0.026 0.21085,0.0481 0.0367,0.0112 0.0594,0.0161 0.093,0.0253 -0.1791,-0.43082 -0.37474,-0.8482 -0.5829,-1.25522 -0.0214,0.007 -0.0299,0.0134 -0.0517,0.0202 -0.0849,0.0263 -0.2682,0.0845 -0.40774,0.12971 -0.13954,0.0452 -0.30804,0.0854 -0.37413,0.0904 -0.26765,0.0195 -0.42372,0.0241 -0.46301,0.0139 -0.0228,-0.006 -0.0897,-0.004 -0.14832,0.005 -0.0586,0.009 -0.28109,-0.002 -0.49455,-0.0248 -0.46688,-0.0492 -0.61263,-0.0944 -0.96583,-0.29921 -0.17573,-0.10189 -0.31262,-0.16652 -0.47232,-0.22272 -0.12369,-0.0435 -0.24526,-0.0915 -0.27027,-0.10697 -0.0228,-0.0141 -0.0407,-0.0235 -0.0553,-0.0274 z m -0.68523,0.14418 c 0.041,-0.006 0.0521,0.0374 0.0145,0.0558 -0.0267,0.0131 -0.0519,-0.002 -0.0517,-0.03 9e-5,-0.0117 0.0169,-0.0228 0.0372,-0.0258 z m -0.11834,0.28577 c 0.0144,-0.003 0.0265,7.94e-4 0.0264,0.0139 -2e-4,0.0146 -0.01,0.0312 -0.0217,0.0372 -0.0252,0.0123 -0.0578,-0.004 -0.0455,-0.0227 0.01,-0.0152 0.0264,-0.0253 0.0408,-0.0284 z m -0.0475,0.30748 c 0.009,0.006 0.0122,0.0184 0.006,0.0284 -0.006,0.009 -0.0184,0.0117 -0.0284,0.006 -0.009,-0.006 -0.0122,-0.0179 -0.006,-0.0279 0.006,-0.009 0.0184,-0.0122 0.0284,-0.006 z m 5.95674,3.3755 c -0.0522,0.0356 -0.12263,0.0872 -0.17105,0.12713 -0.106,0.0873 -0.59223,0.55361 -0.61753,0.59221 -0.008,0.0126 -0.0854,0.0654 -0.17157,0.1173 -0.16143,0.0973 -0.37518,0.25256 -0.51624,0.37517 -0.14257,0.12392 -0.41429,0.27624 -0.4806,0.26924 -0.0411,-0.004 -0.0822,0.0128 -0.12712,0.0527 -0.0364,0.0323 -0.10064,0.0725 -0.14314,0.0899 -0.10161,0.0416 -0.16867,0.0814 -0.18707,0.11059 -0.008,0.0134 -0.0642,0.0195 -0.12402,0.0145 -0.10748,-0.009 -0.25675,0.0279 -0.45631,0.11317 -0.0565,0.0242 -0.19532,0.0672 -0.30851,0.0956 -0.11317,0.0283 -0.24003,0.0638 -0.28163,0.0791 -0.0536,0.0197 -0.0975,0.0189 -0.15038,-0.004 -0.0412,-0.0175 -0.0871,-0.0256 -0.10232,-0.0186 -0.0911,0.0443 -0.77009,-0.34059 -1.01906,-0.57774 -0.16858,-0.16057 -0.24832,-0.24515 -0.27182,-0.28835 -0.0106,-0.0194 -0.0393,-0.064 -0.0636,-0.0992 -0.0242,-0.0352 -0.0515,-0.078 -0.0605,-0.0951 -0.0558,-0.10481 -0.10742,-0.17623 -0.16175,-0.23823 0.33225,1.03786 0.49971,2.14169 0.49971,3.31246 0,1.58676 -0.30541,3.08187 -0.9157,4.485511 -0.61029,1.342639 -1.43421,2.53283 -2.47169,3.57033 -0.97646,1.037479 -2.13571,1.861399 -3.47834,2.471679 -1.34262,0.549248 -2.74642,0.823719 -4.21111,0.823719 -1.34263,0 -2.68504,-0.305408 -4.02766,-0.915699 -0.10671,-0.0508 -0.21124,-0.104791 -0.31626,-0.158131 -0.009,0.004 -0.0196,0.01 -0.0269,0.0108 -0.0235,0.003 -0.0651,0.01431 -0.0925,0.02381 -0.0274,0.01 -0.0738,0.0217 -0.10336,0.0274 -0.0297,0.006 -0.0591,0.02241 -0.0661,0.0367 -0.007,0.01421 -0.0178,0.0226 -0.0258,0.0191 -0.007,-0.003 -0.0253,0.007 -0.0393,0.0217 -0.0328,0.0356 -0.13329,0.0717 -0.18759,0.0677 -0.0277,-0.0021 -0.0531,0.0114 -0.0729,0.0382 -0.0193,0.02619 -0.0728,0.0548 -0.14832,0.0796 -0.10176,0.0334 -0.13074,0.0516 -0.16174,0.101279 -0.003,0.005 -0.0294,0.008 -0.0584,0.007 -0.029,-0.0011 -0.0544,0.0021 -0.0574,0.008 -0.003,0.006 -0.0229,0.01781 -0.0455,0.0269 -0.0226,0.009 -0.0557,0.0271 -0.0734,0.0403 -0.0178,0.01331 -0.0421,0.0199 -0.0538,0.0145 -0.0231,-0.01079 -0.0446,-0.005 -0.2713,0.0713 -0.10699,0.036 -0.1658,0.0465 -0.1912,0.0346 -0.0202,-0.01 -0.0453,-0.01 -0.0543,-5.29e-4 -0.009,0.009 -0.0342,0.009 -0.0553,-0.0011 -0.0515,-0.0241 -0.1017,0.003 -0.0987,0.0537 0.002,0.0284 -0.003,0.0375 -0.0181,0.0357 -0.0112,-0.0011 -0.0437,0.007 -0.0724,0.0186 -0.038,0.0155 -0.0613,0.01479 -0.0868,-0.004 -0.0248,-0.01789 -0.038,-0.01921 -0.045,-0.004 -0.008,0.01709 -0.0127,0.01601 -0.0227,-0.005 -0.009,-0.01831 -0.018,-0.0235 -0.0294,-0.01601 -0.0213,0.01421 -0.0174,0.0502 0.006,0.0475 0.028,-0.003 0.0173,0.0514 -0.0129,0.0656 -0.0149,0.007 -0.0452,0.007 -0.0672,-5.29e-4 -0.0408,-0.01339 -0.055,-0.007 -0.12247,0.0563 -0.0609,0.057 -0.28243,0.0703 -0.25684,0.0155 0.004,-0.007 -0.009,-0.01569 -0.0274,-0.0191 -0.0523,-0.01 -0.0644,0.0539 -0.016,0.0837 0.0211,0.01299 0.0361,0.0286 0.0331,0.0346 -0.009,0.01831 -0.1398,0.0622 -0.1478,0.0496 -0.004,-0.007 -0.0239,5.29e-4 -0.0439,0.0155 -0.02,0.015 -0.0648,0.0298 -0.0992,0.0331 -0.0344,0.003 -0.0652,0.01281 -0.0692,0.02119 -0.004,0.008 -0.0166,0.01069 -0.0284,0.005 -0.0118,-0.006 -0.0621,-0.006 -0.11162,-0.0011 -0.0495,0.005 -0.11059,0.004 -0.13539,-5.29e-4 -0.0249,-0.005 -0.0493,0.0021 -0.0553,0.0145 -0.006,0.01259 -0.0231,0.0277 -0.0382,0.0336 -0.0151,0.006 -0.0447,0.01889 -0.0656,0.0289 -0.0209,0.01 -0.0494,0.01939 -0.0636,0.02119 -0.0306,0.004 -0.13411,0.0617 -0.14211,0.0796 -0.003,0.007 -0.031,0.0176 -0.0615,0.02381 -0.0399,0.008 -0.079,0.037 -0.14005,0.103351 -0.0467,0.0507 -0.0959,0.100849 -0.10955,0.11162 -0.0136,0.0108 -0.0318,0.0345 -0.0408,0.0527 -0.0162,0.0335 -0.0705,0.0706 -0.0899,0.0615 -0.006,-0.003 0.004,-0.0231 0.0207,-0.0455 0.0347,-0.0453 0.0743,-0.10736 0.0693,-0.109551 -0.0171,-0.008 -0.0922,0.03 -0.11524,0.0584 -0.0161,0.0199 -0.0478,0.0413 -0.0708,0.0475 -0.0231,0.006 -0.0611,0.0267 -0.0842,0.0455 -0.0567,0.0461 -0.0939,0.0703 -0.16795,0.109551 -0.14201,0.0752 -0.2274,0.182419 -0.2806,0.35243 -0.007,0.02151 -0.0245,0.0669 -0.0393,0.101291 -0.0204,0.0467 -0.0216,0.0795 -0.006,0.13022 0.012,0.0373 0.0147,0.0724 0.006,0.078 -0.0442,0.029 -0.13936,0.21835 -0.22066,0.4377 -0.028,0.0756 -0.081,0.204189 -0.11731,0.285771 -0.0551,0.124108 -0.077,0.199358 -0.0904,0.28216 1.01707,0.731491 2.10927,1.355439 3.2799,1.86758 1.95293,0.854408 4.02793,1.28158 6.22495,1.28158 h 0.54932 l -9.70366,12.541255 v 7.96385 l 0.92553,-1.11105 c 0.002,-0.0447 0.006,-0.11408 0.007,-0.11523 0.003,-0.005 0.014,-0.0649 0.0336,-0.19276 0.0437,-0.2852 0.0698,-0.40732 0.11679,-0.54932 0.0213,-0.0643 0.0453,-0.14537 0.0537,-0.17984 0.008,-0.0345 0.0353,-0.12198 0.0599,-0.19481 0.10691,-0.31604 0.17907,-0.65334 0.19792,-0.92707 0.004,-0.0573 0.0154,-0.11387 0.0258,-0.12558 0.0376,-0.0421 0.0757,-0.13127 0.0961,-0.22376 0.0508,-0.23094 0.19296,-0.66465 0.24753,-0.75603 0.0126,-0.0211 0.0566,-0.11394 0.0982,-0.20618 0.0416,-0.0922 0.0992,-0.20816 0.12815,-0.25787 0.0289,-0.0497 0.0535,-0.10148 0.0543,-0.11523 0.002,-0.0284 0.11644,-0.12773 0.14573,-0.12609 0.0105,5.2e-4 0.0313,0.0143 0.046,0.0305 0.0147,0.0162 0.0523,0.0446 0.0837,0.063 0.0411,0.0241 0.0612,0.0496 0.0718,0.0915 0.008,0.032 0.0254,0.0771 0.0382,0.0997 0.0129,0.0226 0.0312,0.0558 0.0408,0.0739 0.0284,0.0536 0.0842,0.19278 0.0946,0.23615 0.005,0.0222 0.0213,0.0657 0.0357,0.0971 0.0144,0.0313 0.0257,0.063 0.0253,0.0703 -0.001,0.0174 0.1276,0.26036 0.14934,0.28216 0.009,0.009 0.0416,0.06 0.0724,0.11266 0.0307,0.0526 0.0686,0.10547 0.0842,0.11781 0.0174,0.0138 0.0344,0.0619 0.0439,0.12507 0.004,0.0314 0.0134,0.0547 0.0212,0.0842 l 18.05781,-21.668957 c 1.58672,-1.952911 2.74652,-3.875199 3.47886,-5.767088 0.73234,-1.891893 1.09812,-3.997331 1.09812,-6.316411 0,-1.38911 -0.16293,-2.73145 -0.48627,-4.02818 z m -27.39343,10.39575 c 0.0103,0.005 0.0342,0.006 0.0532,0.004 0.0699,-0.008 0.10534,0.106979 0.0904,0.294561 -0.003,0.0338 -0.0264,0.103018 -0.0522,0.15399 -0.0418,0.0826 -0.0527,0.0939 -0.10128,0.10387 -0.0542,0.01119 -0.0546,0.0109 -0.0796,-0.0357 -0.0164,-0.0308 -0.0204,-0.0915 -0.0124,-0.176731 0.007,-0.0754 0.002,-0.16977 -0.0119,-0.22583 l -0.0243,-0.0961 0.0594,-0.0155 c 0.0327,-0.008 0.0682,-0.01119 0.0786,-0.007 z m 2.16111,0.0693 -0.047,0.02021 c -0.0528,0.02259 -0.0715,0.0501 -0.0532,0.078 0.008,0.0127 0.0129,0.009 0.014,-0.0109 10e-4,-0.0164 0.0213,-0.0426 0.0444,-0.0584 z m -3.45663,0.381891 c -0.006,-0.003 -0.0195,0.009 -0.0295,0.0263 -0.0142,0.0249 -0.0132,0.0281 0.006,0.01601 h 5.3e-4 c 0.0292,-0.019 0.0386,-0.0352 0.0233,-0.0424 z m -0.0326,0.0925 c -0.0114,-0.005 -0.0287,0.004 -0.0377,0.02021 -0.009,0.01651 -0.0138,0.0285 -0.0108,0.02641 0.003,-0.0021 0.0203,-0.01159 0.0377,-0.02069 0.0267,-0.01389 0.0283,-0.0177 0.0109,-0.0258 z m -0.37052,0.008 c -0.0107,0.007 -0.0101,0.01169 0.002,0.01029 0.0111,-0.0011 0.0198,0.007 0.0191,0.0191 -0.001,0.01569 8e-4,0.0173 0.008,0.005 0.0135,-0.0245 -0.007,-0.049 -0.0289,-0.0346 z m 0.003,0.0527 c -0.008,-0.004 -0.0144,0.0021 -0.0134,0.01191 0.002,0.0104 0.005,0.02 0.009,0.0217 0.003,0.0021 0.009,-0.003 0.0134,-0.0114 0.003,-0.008 -2.5e-4,-0.0182 -0.009,-0.0222 z m 0.15451,0.0295 c -0.004,0.0021 -0.009,0.008 -0.0134,0.01651 -0.0157,0.0335 -0.006,0.0564 0.0217,0.0512 h 5.3e-4 c 0.0103,-0.0021 0.0285,-0.0191 0.0403,-0.0382 0.0153,-0.02519 0.0148,-0.0307 -0.002,-0.02069 -0.0127,0.008 -0.0291,0.006 -0.0351,-0.004 -0.004,-0.005 -0.007,-0.007 -0.0119,-0.005 z m -0.0264,0.0848 c -0.002,-5.29e-4 -0.004,0.009 -0.006,0.0269 -0.004,0.0254 -0.0153,0.0372 -0.0388,0.0393 -0.0314,0.003 -0.0322,0.004 -0.008,0.0155 0.014,0.007 0.0301,0.005 0.0351,-0.005 0.006,-0.01 0.01,-0.0021 0.009,0.01701 l -0.002,0.0357 0.0139,-0.0295 c 0.008,-0.01601 0.0102,-0.0471 0.005,-0.0692 -0.004,-0.0199 -0.007,-0.03 -0.009,-0.0305 z m -0.10541,0.0398 c -0.0569,-0.0282 -0.13206,0.0831 -0.10336,0.15296 0.0193,0.0469 0.0185,0.0463 0.031,0.01961 0.005,-0.0118 0.001,-0.0208 -0.01,-0.02069 -0.0107,2.01e-4 -0.005,-0.004 0.0129,-0.008 h 5.3e-4 c 0.0302,-0.008 0.0699,-0.0605 0.0434,-0.0574 -0.006,7.94e-4 -0.014,-0.01479 -0.016,-0.0346 -0.003,-0.0295 0.001,-0.0369 0.0279,-0.0393 0.0202,-0.0021 0.0256,-0.006 0.0134,-0.01241 z m -0.54054,0.170531 c 0.002,0.004 0.005,0.01389 0.006,0.0274 0.003,0.02561 -2.1e-4,0.0561 -0.006,0.0682 -0.006,0.01281 -0.012,0.003 -0.0139,-0.02429 -0.003,-0.02561 2.2e-4,-0.0566 0.006,-0.0687 0.003,-0.006 0.006,-0.007 0.008,-0.003 z m 0.0672,0.0289 c 0.0105,-7.94e-4 0.0142,0.008 0.008,0.02069 -0.012,0.0258 -0.0223,0.0258 -0.0253,-5.29e-4 -0.001,-0.01 0.006,-0.01889 0.017,-0.02019 z m 2.34663,0.0419 c 0.0356,0.005 0.0718,0.03 0.10645,0.0744 0.0432,0.0555 0.0897,0.22724 0.0987,0.3669 0.002,0.0285 0.0155,0.100002 0.0295,0.158652 h -5.3e-4 c 0.0145,0.0587 0.0216,0.113998 0.0176,0.1235 -0.0242,0.0518 -0.12808,0.02561 -0.18347,-0.0465 -0.0164,-0.02141 -0.0375,-0.0691 -0.0465,-0.105931 -0.009,-0.0368 -0.0219,-0.0823 -0.0279,-0.100769 -0.006,-0.0185 -0.0184,-0.0689 -0.0274,-0.112141 -0.009,-0.0433 -0.034,-0.124699 -0.0558,-0.18087 -0.0329,-0.0846 -0.0349,-0.106899 -0.0129,-0.131259 0.0319,-0.0353 0.0667,-0.0509 0.10232,-0.046 z m -2.28152,0.005 c -0.004,-0.006 -0.0186,0.004 -0.0331,0.0222 -0.0145,0.01781 -0.0323,0.0294 -0.0403,0.0258 -0.008,-0.004 -0.0146,0.004 -0.0155,0.01709 -8e-4,0.01299 -0.0298,0.0363 -0.0641,0.0522 -0.0521,0.02421 -0.0619,0.0347 -0.0579,0.0646 0.002,0.01971 -0.004,0.0541 -0.0145,0.0765 -0.0137,0.0297 -0.0125,0.037 0.004,0.02641 0.0125,-0.008 0.0233,-0.0265 0.0243,-0.0408 0.001,-0.01971 0.009,-0.02021 0.03,-0.003 0.0326,0.027 0.0325,0.0269 0.0331,-0.032 2.6e-4,-0.02461 -0.007,-0.0439 -0.0155,-0.0429 -0.0263,0.003 -0.003,-0.0306 0.0295,-0.0424 0.0349,-0.01249 0.0449,0.004 0.0269,0.0429 -0.007,0.01479 -0.008,0.0294 -5.3e-4,0.0326 0.0143,0.007 0.10374,-0.183919 0.0935,-0.199469 z m -0.29197,0.006 c -7.9e-4,-0.0021 -0.004,-0.0011 -0.009,0.004 -0.009,0.009 -0.0149,0.0217 -0.0119,0.0289 0.003,0.007 0.0101,-2.41e-4 0.017,-0.01601 0.003,-0.009 0.004,-0.01431 0.004,-0.01651 z m 0.65112,0.092 c -0.002,0.0021 -0.004,0.007 -0.004,0.0145 -10e-4,0.01479 0.001,0.0285 0.004,0.03 0.012,0.006 0.0183,-0.02569 0.008,-0.0408 -0.003,-0.005 -0.006,-0.006 -0.008,-0.004 z m -0.60203,0.12092 c -0.008,-0.004 -0.0188,0.003 -0.0248,0.0155 -0.006,0.01209 -0.008,0.02331 -0.005,0.02479 0.003,0.0021 0.0145,-0.006 0.0248,-0.0155 0.011,-0.01 0.0132,-0.02109 0.005,-0.02479 z m 0.29094,0.0289 c -0.008,-0.004 -0.0177,-2.59e-4 -0.0217,0.008 -0.004,0.008 -2.5e-4,0.01791 0.008,0.0217 0.008,0.004 0.0177,-1.79e-4 0.0217,-0.008 0.004,-0.008 2.5e-4,-0.01741 -0.008,-0.02119 z m -0.24856,0.0718 c -0.0104,0.0011 -0.0202,0.005 -0.0222,0.009 -0.002,0.004 0.004,0.009 0.0119,0.01291 0.008,0.004 0.0182,2.59e-4 0.0222,-0.008 0.004,-0.009 -0.002,-0.01461 -0.0119,-0.01339 z m 0.29766,0.01339 c 0.004,-0.008 -0.004,-0.007 -0.0176,0.0011 -0.0135,0.008 -0.0275,0.02191 -0.0315,0.03 -0.004,0.008 0.004,0.008 0.0176,-5.3e-4 0.0135,-0.008 0.0275,-0.02241 0.0315,-0.0305 z m 5.24205,0.005 c -0.008,-0.003 -0.0145,0.006 -0.0155,0.0217 -0.001,0.02 -0.007,0.0223 -0.0202,0.009 -0.0129,-0.01339 -0.0232,-0.01 -0.0341,0.01339 -0.0124,0.02641 -0.0161,0.0274 -0.0191,0.004 -0.003,-0.02529 -0.005,-0.02619 -0.015,-0.006 -0.006,0.01249 -0.006,0.0352 -0.001,0.0501 0.008,0.0217 0.006,0.0227 -0.0114,0.005 -0.0116,-0.01199 -0.0234,-0.0155 -0.0274,-0.008 -0.0157,0.0338 -0.0158,0.120578 0,0.136937 0.0198,0.02051 0.035,-2.59e-4 0.0186,-0.02529 -0.006,-0.009 -0.003,-0.0265 0.007,-0.0382 0.01,-0.0118 0.0306,-0.0383 0.0465,-0.0589 0.0196,-0.02529 0.034,-0.031 0.046,-0.0191 h 5.2e-4 c 0.0121,0.01209 0.0222,0.008 0.0331,-0.0155 0.0173,-0.036 0.0142,-0.0587 -0.008,-0.0692 z m -4.82555,0.0553 c -0.002,-0.0011 -0.008,0.0021 -0.0186,0.009 -0.0491,0.0308 -0.0398,0.0772 0.0176,0.0884 0.0233,0.005 0.0513,-5.29e-4 0.0625,-0.0114 0.011,-0.0108 0.0142,-0.01741 0.006,-0.0145 -0.008,0.003 -0.0193,-0.01 -0.0263,-0.0279 -0.01,-0.0268 -0.0161,-0.0303 -0.0336,-0.0191 -0.0166,0.0109 -0.0199,0.009 -0.0119,-0.009 0.004,-0.01 0.006,-0.01511 0.004,-0.01601 z m -0.80046,0.015 c -0.004,0.0021 -0.007,0.008 -0.008,0.015 -0.001,0.01349 -0.005,0.0322 -0.009,0.0419 -0.004,0.01 0.005,0.007 0.0196,-0.006 0.0378,-0.0337 0.0393,-0.0383 0.014,-0.0501 -0.007,-0.003 -0.0128,-0.003 -0.0171,-0.0011 z m -0.30851,0.138491 c 0.007,0.0011 0.0147,0.005 0.0202,0.0109 0.012,0.01151 0.0137,0.02529 0.006,0.0305 -0.008,0.005 -0.0193,0.003 -0.0243,-0.006 -0.005,-0.008 -0.013,-0.008 -0.0171,0.0011 -0.004,0.009 -0.0137,0.01259 -0.0217,0.009 -0.0176,-0.008 -0.0111,-0.02429 0.0171,-0.0424 0.006,-0.004 0.0127,-0.005 0.0202,-0.003 z m 0.14418,0.0403 c -0.008,-0.004 -0.0177,1.9e-4 -0.0217,0.008 -0.004,0.008 -2.5e-4,0.01741 0.008,0.02119 0.008,0.004 0.0177,2.65e-4 0.0217,-0.008 0.004,-0.008 2.5e-4,-0.01791 -0.008,-0.0217 z m 5.6534,0.0181 c -0.004,0.008 -0.005,0.0276 -0.003,0.0434 0.002,0.01579 0.007,0.02259 0.0108,0.0145 0.004,-0.008 0.005,-0.0276 0.003,-0.0434 -0.002,-0.01579 -0.007,-0.02259 -0.0109,-0.0145 z m -4.77387,0.006 c -7.9e-4,-0.0021 -0.004,-0.0011 -0.009,0.004 -0.009,0.009 -0.0149,0.02119 -0.0119,0.0284 0.003,0.007 0.01,2.64e-4 0.0165,-0.01551 0.004,-0.009 0.005,-0.01429 0.004,-0.01651 z m -0.63459,0.0946 c 5.3e-4,0.0021 -0.004,0.008 -0.0134,0.0186 -0.014,0.0164 -0.0168,0.0387 -0.009,0.0563 h -5.3e-4 c 0.0133,0.0287 0.009,0.0582 -0.007,0.0506 -0.0165,-0.007 -0.0302,-0.0655 -0.0212,-0.0848 0.005,-0.01061 0.0209,-0.0259 0.0351,-0.0341 0.0104,-0.006 0.0156,-0.008 0.016,-0.007 z m -0.13229,0.02381 c 0.008,0.004 0.0101,0.01691 0.004,0.0295 -0.006,0.01259 -0.0152,0.01601 -0.0212,0.007 -0.006,-0.009 -0.008,-0.02241 -0.004,-0.03 0.004,-0.008 0.0132,-0.0105 0.0212,-0.007 z m 0.35347,0.02641 c 0.007,-0.003 0.006,0.009 -0.002,0.02641 -0.008,0.01701 -0.01,0.0382 -0.004,0.047 0.0131,0.02 0.002,0.0457 -0.016,0.0372 -0.0159,-0.007 0.003,-0.103791 0.0217,-0.11059 z m -0.12247,0.0372 c 0.006,0.004 0.011,0.01609 0.0196,0.0377 0.0106,0.027 0.0175,0.0536 0.0145,0.0594 -0.0106,0.02281 -0.0564,0.005 -0.0677,-0.0258 -0.0137,-0.0378 -0.0143,-0.0368 0.0129,-0.0631 0.009,-0.009 0.0151,-0.01241 0.0207,-0.008 z m 0.40617,0.0594 c -0.001,-0.003 -0.007,-5.29e-4 -0.0165,0.006 -0.0313,0.01968 -0.0383,0.0348 -0.0207,0.0434 0.008,0.003 0.0216,-0.008 0.0295,-0.0258 0.006,-0.01341 0.009,-0.02061 0.008,-0.02331 z m 6.39909,0.460959 c -0.004,0.004 -0.005,0.008 -0.009,0.01191 -0.0329,0.0388 -0.0942,0.11457 -0.1359,0.16846 -0.0417,0.0539 -0.0859,0.105637 -0.0982,0.115239 -0.0607,0.0471 -0.13931,0.139809 -0.14831,0.17466 -0.006,0.02151 -0.0152,0.0364 -0.0222,0.0331 -0.007,-0.003 -0.0178,0.004 -0.0238,0.01709 -0.006,0.01259 -0.0152,0.01601 -0.0212,0.007 -0.006,-0.009 -0.0163,-0.0021 -0.0243,0.0145 -0.008,0.01659 -0.0209,0.0271 -0.0289,0.02331 -0.008,-0.004 -0.0198,0.0021 -0.0248,0.01389 -0.005,0.01159 -0.0229,0.02569 -0.0388,0.0315 -0.051,0.0185 -0.0957,0.0597 -0.0997,0.092 -0.002,0.01831 -0.0192,0.0367 -0.0403,0.0444 -0.02,0.007 -0.0471,0.0341 -0.0599,0.0594 -0.0246,0.0485 -0.10695,0.0871 -0.14624,0.0687 -0.0171,-0.008 -0.0258,0.003 -0.0388,0.0491 -0.009,0.0327 -0.0225,0.0722 -0.0294,0.0873 -0.0104,0.02249 -0.007,0.0259 0.017,0.0196 0.0164,-0.004 0.0348,-0.0011 0.0398,0.007 0.0152,0.02331 0.0642,0.02199 0.0754,-0.0021 0.006,-0.0118 0.0142,-0.014 0.0202,-0.005 0.006,0.009 0.0152,0.005 0.0212,-0.007 0.006,-0.01259 0.0163,-0.02 0.0243,-0.01651 0.008,0.003 0.024,-0.005 0.0367,-0.0186 0.0127,-0.01381 0.0324,-0.02061 0.0434,-0.01551 0.011,0.005 0.0272,-0.0011 0.0362,-0.01339 0.0152,-0.02101 0.0171,-0.0199 0.0295,0.01389 0.0164,0.0453 0.0363,0.0567 0.0253,0.0145 -0.0103,-0.0395 0.046,-0.0866 0.093,-0.078 0.017,0.003 0.0375,-0.007 0.0445,-0.0227 0.007,-0.01569 0.032,-0.0343 0.0548,-0.0413 0.0339,-0.0104 0.0436,-0.008 0.0548,0.01601 0.009,0.0199 0.0167,0.02371 0.0217,0.01241 0.0136,-0.0289 0.0364,-0.004 0.0434,0.047 0.004,0.0308 0,0.0504 -0.0119,0.0522 -0.0106,0.0021 -0.029,0.0132 -0.0413,0.02529 -0.0122,0.0122 -0.027,0.015 -0.032,0.007 -0.005,-0.008 -0.031,-9e-5 -0.0568,0.0176 -0.0258,0.0177 -0.0561,0.0277 -0.0667,0.0227 -0.0106,-0.005 -0.0322,0.003 -0.0481,0.0176 l -0.0289,0.0269 0.006,-0.0393 c 0.006,-0.0368 0.003,-0.0364 -0.0419,0.007 -0.0632,0.0616 -0.10821,0.12497 -0.0868,0.12247 0.009,-0.0011 0.0175,0.01749 0.0176,0.0413 1e-4,0.0355 -0.004,0.0414 -0.0217,0.0331 -0.012,-0.006 -0.0271,-0.02511 -0.0341,-0.0434 -0.0108,-0.0299 -0.0149,-0.0313 -0.0439,-0.01601 -0.0178,0.009 -0.0374,0.0265 -0.0444,0.0382 -0.008,0.0146 -0.0115,0.01029 -0.0108,-0.01389 7.9e-4,-0.0266 -0.006,-0.0191 -0.0284,0.031 -0.0164,0.0367 -0.0428,0.0802 -0.0584,0.0966 -0.0197,0.0205 -0.0219,0.0296 -0.008,0.0279 0.0113,-0.0011 0.0217,0.008 0.0227,0.02119 0.001,0.01299 -10e-4,0.01619 -0.005,0.007 -0.004,-0.009 -0.0256,-0.008 -0.0486,0.0021 -0.0395,0.0176 -0.0411,0.02019 -0.0253,0.0491 0.009,0.0168 0.0235,0.0299 0.0315,0.0289 0.008,-7.93e-4 0.0107,0.005 0.007,0.01389 -0.005,0.009 -7.9e-4,0.0186 0.008,0.0227 0.0333,0.01561 0.0794,-0.0177 0.12144,-0.0884 0.0421,-0.0709 0.0804,-0.103679 0.10645,-0.0915 0.007,0.003 0.002,0.01511 -0.009,0.0269 -0.012,0.0117 -0.0136,0.01921 -0.005,0.01651 0.009,-0.003 0.0219,0.01 0.0279,0.0274 0.0148,0.0406 0.0373,0.035 0.0264,-0.007 -0.005,-0.01699 5.3e-4,-0.0392 0.0114,-0.0496 0.0112,-0.0109 0.0118,-0.01781 0.001,-0.01651 -0.01,0.0011 -0.0132,-0.009 -0.007,-0.0222 0.007,-0.014 0.0179,-0.01749 0.0269,-0.008 0.009,0.009 0.0316,0.0127 0.0512,0.009 0.0196,-0.004 0.0427,7.94e-4 0.0517,0.01 0.0182,0.01889 0.074,-0.0168 0.0879,-0.0563 0.0156,-0.0444 0.0322,-0.0672 0.0372,-0.0522 0.003,0.008 0.0205,0.005 0.0393,-0.006 0.0188,-0.0109 0.0416,-0.01609 0.0506,-0.01191 0.009,0.004 0.0335,0.0021 0.0543,-0.004 0.0308,-0.01 0.0406,-0.006 0.0517,0.0176 0.0115,0.0245 0.0163,0.0236 0.0315,-0.005 0.01,-0.01871 0.0192,-0.0391 0.0212,-0.045 0.005,-0.01701 0.0668,0.0217 0.0708,0.0444 0.002,0.0114 0.01,0.006 0.0186,-0.01191 0.009,-0.0176 0.0112,-0.0392 0.005,-0.048 -0.006,-0.009 -0.005,-0.0288 0.003,-0.045 0.0113,-0.02421 0.005,-0.0326 -0.0346,-0.0465 -0.0361,-0.0127 -0.0554,-0.0339 -0.077,-0.0842 -0.0259,-0.0597 -0.0255,-0.0681 0.003,-0.0739 0.0181,-0.004 0.0331,-0.01831 0.0341,-0.0336 0.003,-0.0387 -0.0331,-0.0709 -0.0599,-0.0537 -0.017,0.0108 -0.0189,0.006 -0.007,-0.01961 0.0164,-0.0357 0.0664,-0.0618 0.0935,-0.0491 0.009,0.004 0.0182,7.94e-4 0.0222,-0.007 0.01,-0.02029 0.0637,0.007 0.0667,0.0336 0.001,0.01191 -0.007,0.0406 -0.0186,0.0636 -0.011,0.02289 -0.0125,0.0404 -0.003,0.0393 0.01,-0.0011 0.0224,-0.01159 0.0274,-0.02331 0.005,-0.01159 0.0163,-0.01791 0.0253,-0.01389 0.01,0.004 0.006,0.01849 -0.01,0.0357 -0.0223,0.02439 -0.0218,0.0268 0.006,0.0196 0.0214,-0.006 0.0321,-0.0021 0.0341,0.01191 0.004,0.0333 0.0207,0.0308 0.0661,-0.009 0.0239,-0.0208 0.0617,-0.042 0.0837,-0.0475 0.0284,-0.007 0.0403,-0.01971 0.0413,-0.0434 0.001,-0.02331 -0.003,-0.0288 -0.0145,-0.0176 -0.0163,0.01611 -0.1,0.019 -0.11938,0.004 -0.006,-0.004 -0.0256,-0.007 -0.0444,-0.006 -0.11703,0.006 0.0323,-0.224901 0.2558,-0.39584 0.0273,-0.0209 0.0758,-0.0461 0.12092,-0.0672 -0.13774,-0.104151 -0.27366,-0.210722 -0.40773,-0.3204 z m -6.32984,0.1142 c 0.0196,-0.0021 0.0462,0.003 0.0641,0.01601 0.0197,0.01439 0.0266,0.0332 0.0186,0.0506 -0.0118,0.02511 -0.0324,0.0272 -0.0625,0.006 -0.006,-0.004 -0.01,0.0011 -0.009,0.01191 10e-4,0.01061 -0.004,0.0159 -0.0134,0.01191 -0.009,-0.004 -0.0171,-0.0021 -0.0191,0.005 -0.008,0.0286 -0.0251,0.0464 -0.0382,0.0403 -0.007,-0.004 -0.005,-0.01479 0.005,-0.02479 0.01,-0.01 0.011,-0.02159 0.002,-0.0258 -0.009,-0.004 -0.0111,-0.019 -0.004,-0.0331 0.0102,-0.02191 0.013,-0.02141 0.016,0.003 0.003,0.02479 0.006,0.02551 0.016,0.004 0.007,-0.0136 0.006,-0.0326 5.3e-4,-0.0419 -0.009,-0.0136 0.004,-0.02159 0.0238,-0.0232 z m 0.12661,0.0114 c 0.004,-0.008 0.011,-0.008 0.0171,0.0011 0.006,0.009 0.008,0.02291 0.004,0.031 -0.004,0.008 -0.0116,0.007 -0.0176,-0.0021 -0.006,-0.009 -0.008,-0.02241 -0.004,-0.0305 z m 0.19895,0.0506 c -0.002,0.0021 -0.004,0.007 -0.004,0.015 -10e-4,0.01479 0.001,0.028 0.004,0.0295 0.012,0.006 0.0183,-0.02569 0.008,-0.0408 -0.003,-0.005 -0.006,-0.006 -0.008,-0.004 z m -0.51005,0.0222 c 0.0102,-0.0021 0.0208,-7.94e-4 0.0305,0.003 0.0238,0.008 0.0359,0.01889 0.0279,0.02429 -0.008,0.005 -0.008,0.0131 0.001,0.01701 0.008,0.004 0.0107,0.0173 0.005,0.0295 -0.006,0.01209 -0.004,0.0249 0.003,0.0284 0.007,0.003 0.0102,0.019 0.007,0.0346 h 0.001 c -0.003,0.01569 -0.017,0.037 -0.03,0.0475 -0.013,0.0105 -0.0302,0.0329 -0.0382,0.0496 -0.026,0.0556 -0.0726,0.005 -0.0553,-0.0605 0.0262,-0.0995 0.0304,-0.12908 0.0181,-0.134879 -0.0257,-0.01201 -5.3e-4,-0.0339 0.03,-0.0382 z m -0.0687,0.137459 c 0.004,-0.0011 0.007,-2.49e-4 0.0103,0.004 0.006,0.009 0.008,0.02241 0.004,0.03 -0.004,0.008 -0.0132,0.01101 -0.0212,0.007 -0.008,-0.004 -0.0101,-0.01741 -0.004,-0.03 0.003,-0.006 0.007,-0.01011 0.0108,-0.0114 z m 0.18552,0.0429 c 0.009,0.0021 0.0203,0.0104 0.0351,0.0258 0.0291,0.0302 0.0133,0.0446 -0.0279,0.02529 -0.0213,-0.01 -0.0334,-0.02601 -0.0274,-0.0377 0.005,-0.01101 0.0113,-0.0154 0.0202,-0.01339 z m -0.50229,0.0145 c 0.008,0.004 0.008,0.0118 -0.001,0.01759 -0.009,0.006 -0.0225,0.007 -0.0305,0.004 -0.008,-0.004 -0.008,-0.01191 0.001,-0.0176 0.009,-0.006 0.0225,-0.007 0.0305,-0.004 z m 0.0398,0.0114 c 0.0229,-0.004 0.0606,0.0113 0.0687,0.0336 0.008,0.02101 -0.004,0.0395 -0.0202,0.032 -0.007,-0.004 -0.015,-0.0154 -0.016,-0.0263 -0.002,-0.0136 -0.0113,-0.01701 -0.031,-0.01191 -0.0227,0.006 -0.0271,0.0021 -0.0181,-0.01651 0.003,-0.006 0.009,-0.01 0.0165,-0.0109 z m 7.39903,0.015 c -0.009,0.01299 -0.0267,0.02389 -0.0439,0.02479 -0.0454,0.0021 -0.0893,0.0576 -0.0863,0.109041 0.001,0.02529 0.008,0.0349 0.0171,0.02529 0.008,-0.008 0.0235,-0.0114 0.0346,-0.006 0.0111,0.005 0.0456,-7.94e-4 0.0765,-0.01339 0.0309,-0.01259 0.0547,-0.01831 0.0517,-0.01291 -0.004,0.009 0.0435,-0.008 0.0894,-0.0274 -0.0462,-0.0332 -0.0932,-0.0654 -0.13901,-0.0992 z m -7.19956,0.02069 c 7.9e-4,0.0021 -1.1e-4,0.008 -0.004,0.01651 -0.007,0.0158 -0.014,0.0232 -0.0171,0.01601 -0.003,-0.007 0.003,-0.02029 0.0119,-0.0289 0.005,-0.005 0.008,-0.006 0.009,-0.004 z m 0.1602,0.01339 c 0.004,-0.009 0.0121,-0.008 0.0181,5.29e-4 0.005,0.009 0.009,0.0186 0.007,0.0222 -0.002,0.004 -0.01,0.003 -0.0176,-5.29e-4 -0.008,-0.004 -0.0113,-0.0136 -0.007,-0.0222 z m 0.0656,0.01339 c 0.008,0.004 0.0101,0.01741 0.004,0.03 -0.006,0.01259 -0.0152,0.01601 -0.0212,0.007 -0.006,-0.009 -0.008,-0.02241 -0.004,-0.03 0.004,-0.008 0.0132,-0.01101 0.0212,-0.007 z m -0.0129,0.218591 c -0.0104,0.0011 -0.0197,0.005 -0.0217,0.008 -0.002,0.004 0.004,0.01 0.0119,0.01339 0.008,0.004 0.0177,-1.8e-4 0.0217,-0.009 0.004,-0.009 -0.002,-0.0141 -0.0119,-0.01291 z m 6.17844,0.101809 c 0.0386,-0.01011 0.0344,-0.0011 -0.0181,0.0388 -0.0361,0.0276 -0.04,0.0276 -0.0274,5.29e-4 0.008,-0.0172 0.0287,-0.0349 0.0455,-0.0393 z m 0.17983,0.118332 c 1.8e-4,-0.004 -0.002,-0.003 -0.007,0.003 -0.0101,0.01259 -0.0195,0.0326 -0.0202,0.0444 -7.9e-4,0.0118 0.008,0.0021 0.0191,-0.0227 0.005,-0.0122 0.008,-0.0209 0.008,-0.02479 z m -0.68781,0.181909 c -0.008,-0.004 -0.0177,1.8e-4 -0.0217,0.009 -0.004,0.009 0.001,0.01461 0.0114,0.01339 0.0104,-0.0011 0.0202,-0.005 0.0222,-0.009 0.002,-0.004 -0.004,-0.01 -0.0119,-0.01341 z m 0.88212,0.143661 c -0.001,0.0011 0.001,0.01069 0.005,0.0289 0.004,0.0217 0.008,0.0431 0.009,0.0475 0,0.004 0.004,5.29e-4 0.008,-0.008 0.004,-0.008 -2.5e-4,-0.0298 -0.009,-0.0475 -0.008,-0.0149 -0.0114,-0.0222 -0.0124,-0.02119 z m -0.2651,0.003 c -0.002,-5.29e-4 -0.006,0.005 -0.0109,0.0155 -0.007,0.0141 -0.006,0.0288 0.002,0.0326 h 5.3e-4 c 0.0177,0.008 0.0184,0.007 0.0134,-0.0295 -0.002,-0.0123 -0.003,-0.0181 -0.005,-0.0186 z m 0.23564,0.0636 c -0.0164,0.0021 -0.03,0.0493 -0.016,0.0558 0.003,0.0021 0.0116,-0.01119 0.0196,-0.0279 0.008,-0.01659 0.006,-0.0291 -0.004,-0.0279 z m -0.64647,0.0491 c -0.002,-5.29e-4 -0.006,0.007 -0.0134,0.0222 -0.009,0.0173 -0.0253,0.0396 -0.0362,0.0501 -0.0122,0.0118 -0.0117,0.02299 10e-4,0.0289 0.0235,0.01101 0.0461,-0.0244 0.0491,-0.0755 7.9e-4,-0.01691 0.001,-0.0254 -5.3e-4,-0.0258 z m 0.0646,0.104389 c -0.0325,0.0104 -0.0356,0.0254 -0.004,0.0217 0.0111,-0.0011 0.0229,-0.009 0.0269,-0.01651 0.004,-0.008 -0.007,-0.01029 -0.0227,-0.005 z m -0.50281,0.593762 c -0.018,0.0021 -0.0248,0.0335 -0.009,0.0408 h 0.001 c 0.004,0.0021 0.0111,-0.007 0.0171,-0.02021 0.005,-0.01259 0.002,-0.02191 -0.009,-0.02069 z m -2.14198,0.129709 c -0.009,0.0011 -0.0182,0.008 -0.0222,0.0155 -0.003,0.008 -0.001,0.01651 0.006,0.0196 0.007,0.003 0.0162,-0.004 0.0222,-0.0155 0.005,-0.0118 0.003,-0.02061 -0.006,-0.01961 z m -0.0538,0.0444 c -0.0241,0.003 -0.0654,0.107569 -0.0522,0.132289 0.006,0.0113 -2.6e-4,0.01939 -0.0176,0.0217 -0.0203,0.003 -0.0149,0.01109 0.0207,0.032 0.0379,0.02259 0.0457,0.0357 0.0367,0.0651 -0.007,0.0236 -0.0152,0.0312 -0.0222,0.02021 -0.007,-0.0105 -0.0174,-0.004 -0.0274,0.01651 -0.0129,0.0281 -0.0111,0.0313 0.0103,0.0191 0.0201,-0.01169 0.0206,-0.007 0.002,0.02019 -0.0129,0.0191 -0.0184,0.0468 -0.0124,0.0615 0.007,0.01619 -5.3e-4,0.0419 -0.0176,0.0651 -0.0159,0.0217 -0.0236,0.0458 -0.0165,0.0558 0.006,0.01 0.004,0.0329 -0.005,0.0522 -0.009,0.01929 -0.0122,0.0424 -0.006,0.0512 h 0.001 c 0.0149,0.02281 0.035,-0.0329 0.0667,-0.183449 0.0151,-0.0718 0.0361,-0.140361 0.0465,-0.151929 0.01,-0.01159 0.0138,-0.0286 0.008,-0.0377 -0.005,-0.009 -0.005,-0.0276 5.3e-4,-0.0413 0.006,-0.01371 0.009,-0.0462 0.007,-0.0718 -0.002,-0.02569 -0.003,-0.0647 -0.003,-0.0873 5.3e-4,-0.02259 -0.008,-0.0406 -0.0191,-0.0393 z m 3.36672,0.0971 c -0.006,-0.0011 -0.0189,0.0021 -0.0382,0.009 -0.0495,0.01791 -0.0592,0.0503 -0.0176,0.0579 0.0272,0.005 0.0315,7.94e-4 0.0212,-0.01709 -0.01,-0.0176 -0.008,-0.02241 0.008,-0.0217 0.0119,5.29e-4 0.0255,-0.005 0.0284,-0.01241 0.004,-0.01 0.004,-0.0149 -0.002,-0.01601 z m -4.0411,0.0444 c -0.008,-0.004 -0.021,-0.0021 -0.03,0.004 -0.009,0.006 -0.005,0.01529 0.007,0.02119 0.0126,0.006 0.026,0.004 0.03,-0.004 0.004,-0.008 8e-4,-0.0176 -0.007,-0.02119 z m -0.076,0.439761 c 0.004,-0.0011 0.008,2.49e-4 0.0109,0.005 0.006,0.009 0.008,0.02241 0.004,0.03 -0.004,0.008 -0.0132,0.0105 -0.0212,0.007 -0.008,-0.004 -0.0101,-0.01741 -0.004,-0.03 0.003,-0.006 0.007,-0.01011 0.0104,-0.0114 z m 2.31045,0.464569 h 5.3e-4 c 0.0217,0.006 0.0242,0.01101 0.008,0.02119 -0.012,0.008 -0.0244,0.02 -0.0284,0.0274 -0.004,0.007 -0.017,0.0122 -0.0294,0.0108 -0.0159,-0.0021 -0.0159,-0.01249 -0.002,-0.0346 0.012,-0.01831 0.0336,-0.0291 0.0506,-0.02479 z m -0.14573,0.108011 c 0.008,0.004 0.0113,0.0131 0.007,0.02119 -0.004,0.008 -0.0174,0.01 -0.03,0.004 -0.013,-0.006 -0.0157,-0.0154 -0.007,-0.02119 0.009,-0.006 0.0215,-0.008 0.0295,-0.004 z m -0.20153,0.15244 c 0.0278,-0.007 0.0281,-0.003 -0.002,0.0377 -0.0387,0.0527 -0.048,0.0581 -0.062,0.0367 -0.0135,-0.02061 0.0237,-0.0642 0.0636,-0.0744 z m -0.0904,0.0873 c 0.0209,0.01 0.003,0.0387 -0.0434,0.0693 l -0.0393,0.02641 0.0253,-0.0331 c 0.0138,-0.0182 0.0286,-0.0411 0.0336,-0.0512 0.005,-0.01 0.0158,-0.01521 0.0238,-0.0114 z m -0.1235,0.112141 c 0.0143,-0.007 0.0339,-0.005 0.0429,0.005 0.0208,0.02151 0.0145,0.0373 -0.0532,0.126608 -0.0444,0.0587 -0.0528,0.0638 -0.0548,0.0341 -0.004,-0.052 0.0354,-0.151868 0.0651,-0.165877 z"
       id="path7139-4-7"
       inkscape:connector-curvature="0"
       inkscape:export-filename="/home/daniel/Design/Trouwkaart/exports/bloemen-met-tekst.png"
       inkscape:export-xdpi="599.93866"
       inkscape:export-ydpi="599.93866" />
  </g>
</svg>
