<?xml version="1.0" encoding="UTF-8" standalone="no"?>
<svg
   xmlns:dc="http://purl.org/dc/elements/1.1/"
   xmlns:cc="http://creativecommons.org/ns#"
   xmlns:rdf="http://www.w3.org/1999/02/22-rdf-syntax-ns#"
   xmlns:svg="http://www.w3.org/2000/svg"
   xmlns="http://www.w3.org/2000/svg"
   viewBox="0 0 175 140"
   height="140"
   width="175"
   xml:space="preserve"
   id="svg2"
   version="1.1"><metadata
     id="metadata8"><rdf:RDF><cc:Work
         rdf:about=""><dc:format>image/svg+xml</dc:format><dc:type
           rdf:resource="http://purl.org/dc/dcmitype/StillImage" /><dc:title></dc:title></cc:Work></rdf:RDF></metadata><defs
     id="defs6"><clipPath
       id="clipPath18"
       clipPathUnits="userSpaceOnUse"><path
         id="path16"
         d="M 0,841.89 H 595.276 V 0 H 0 Z" /></clipPath><clipPath
       id="clipPath18-6"
       clipPathUnits="userSpaceOnUse"><path
         id="path16-6"
         d="M 0,841.89 H 595.276 V 0 H 0 Z" /></clipPath></defs><g
     transform="matrix(1.3333333,0,0,-1.3333333,0,139.99998)"
     id="g10"><path
       d="m 33.8039,34.64828 -5.538,16.682 -5.443,-16.682 z m 1.406,-4.481 h -13.818 l -1.995,-6.147 h -6.428 l 10.651,32.026 h 9.128 l 10.817,-32.026 h -6.313 z"
       style="fill:#ffffff;fill-opacity:1;fill-rule:nonzero;stroke:none"
       id="path26" /><path
       d="m 76.0612,56.04628 v -32.026 h -10.301 l -9.151,17.573 c -0.454,0.876 -1.164,2.409 -2.134,4.599 l -1.033,2.299 -1.008,2.3 h -0.235 l 0.092,-2.112 0.072,-2.088 0.047,-4.2 v -18.371 h -6.077 v 32.026 h 10.301 l 8.328,-16.236 c 0.735,-1.44 1.589,-3.183 2.559,-5.232 l 1.219,-2.605 1.22,-2.628 h 0.212 l -0.071,2.065 -0.071,2.065 -0.045,4.13 v 18.441 z"
       style="fill:#ffffff;fill-opacity:1;fill-rule:nonzero;stroke:none"
       id="path30" /><path
       d="m 87.7687,29.13518 h 6.664 l 2.134,0.046 c 2.05,0 3.399,0.289 4.049,0.869 0.647,0.578 0.972,1.798 0.972,3.66 0,1.939 -0.34,3.159 -1.021,3.66 -0.68,0.5 -2.357,0.75 -5.032,0.75 h -7.766 z m 0,13.467 h 7.438 c 2.41,0 3.945,0.266 4.61,0.798 0.665,0.532 0.998,1.759 0.998,3.684 0,2.565 -1.455,3.847 -4.364,3.847 h -8.682 z m -6.076,-18.582 v 32.026 h 15.742 c 3.691,0 6.206,-0.59 7.545,-1.771 1.336,-1.181 2.007,-3.406 2.007,-6.675 0,-3.958 -1.574,-6.288 -4.718,-6.992 v -0.118 c 3.661,-0.563 5.49,-3.105 5.49,-7.625 0,-3.269 -0.703,-5.561 -2.112,-6.875 -1.407,-1.314 -3.862,-1.97 -7.365,-1.97 z"
       style="fill:#ffffff;fill-opacity:1;fill-rule:nonzero;stroke:none"
       id="path34" /><path
       id="path36"
       style="fill:#ffffff;fill-opacity:1;fill-rule:nonzero;stroke:none"
       d="m 118.2471,24.01948 h -6.077 v 32.026 h 6.077 z" /><path
       d="m 53.1237,84.74748 h -0.036 l -1.944,-2.88 c 0.424,-0.021 0.86,-0.033 1.297,-0.033 0.425,0 0.861,0.012 1.296,0.033 z m 0.569,1.325 c 0.223,-1.13 1.353,-6.498 1.654,-7.563 -0.145,0.021 -0.312,0.043 -0.514,0.043 -0.201,0 -0.357,-0.022 -0.503,-0.043 -0.077,0.782 -0.38,2.38 -0.503,2.934 -0.223,0.011 -0.862,0.033 -1.487,0.033 -0.491,0 -0.984,-0.022 -1.475,-0.033 -0.404,-0.587 -1.398,-2.227 -1.756,-2.934 -0.101,0.021 -0.201,0.043 -0.358,0.043 -0.124,0 -0.257,-0.022 -0.425,-0.043 1.298,1.837 2.56,3.695 3.812,5.564 0.56,0.837 0.95,1.38 1.343,1.999 z"
       style="fill:#ffffff;fill-opacity:1;fill-rule:nonzero;stroke:none"
       id="path40" /><path
       d="m 57.2721,78.50968 c -0.11,0.021 -0.255,0.043 -0.458,0.043 -0.189,0 -0.324,-0.022 -0.447,-0.043 0.726,2.619 1.521,6.542 1.756,8.128 0.122,-0.021 0.234,-0.043 0.424,-0.043 0.168,0 0.358,0.022 0.516,0.043 -0.168,-0.576 -1.499,-6.27 -1.791,-8.128"
       style="fill:#ffffff;fill-opacity:1;fill-rule:nonzero;stroke:none"
       id="path44" /><path
       d="m 61.3776,80.56338 c 1.084,0 1.487,1.185 1.487,1.848 0,0.63 -0.38,1.032 -0.984,1.032 -1.129,0 -1.53,-1.163 -1.53,-1.794 0,-0.825 0.557,-1.086 1.027,-1.086 m -0.715,-4.564 c 1.341,0 2.001,0.923 2.001,1.695 0,0.848 -0.917,0.881 -1.521,0.881 -0.291,0 -0.838,-0.023 -1.229,-0.272 -0.549,-0.348 -0.626,-0.892 -0.626,-1.163 0,-0.815 0.659,-1.141 1.375,-1.141 m -0.368,4.488 c -0.179,0.076 -0.806,0.337 -0.806,1.217 0,1.022 0.849,2.054 2.449,2.054 0.368,0 0.524,-0.044 0.849,-0.13 0.201,-0.055 0.336,-0.055 0.571,-0.055 0.268,0 0.816,0.033 1.107,0.044 0,-0.065 -0.024,-0.141 -0.024,-0.228 0,-0.087 0.024,-0.164 0.024,-0.229 -0.537,0.032 -0.795,0.044 -1.063,0.054 0.122,-0.152 0.314,-0.401 0.314,-0.891 0,-0.608 -0.324,-1.369 -1.075,-1.771 -0.524,-0.283 -1.151,-0.304 -1.509,-0.304 -0.245,0 -0.48,0.011 -0.648,0.021 -0.123,-0.076 -0.458,-0.26 -0.458,-0.597 0,-0.435 0.469,-0.446 0.826,-0.446 1.265,-0.01 1.666,-0.01 2.08,-0.249 0.414,-0.239 0.492,-0.674 0.492,-0.946 0,-0.837 -0.737,-2.358 -2.884,-2.358 -0.526,0 -1.04,0.087 -1.409,0.38 -0.29,0.228 -0.515,0.609 -0.515,1.032 0,0.512 0.314,0.989 0.739,1.25 0.245,0.153 0.459,0.228 0.582,0.272 l 0.01,0.076 c -0.168,0.044 -0.615,0.174 -0.615,0.63 0,0.674 0.626,0.946 0.963,1.098 z"
       style="fill:#ffffff;fill-opacity:1;fill-rule:nonzero;stroke:none"
       id="path48" /><path
       d="m 65.7287,81.55218 c 0.459,-0.032 1.063,-0.043 1.522,-0.043 0.435,0 1.074,0 1.488,0.043 0.032,0.13 0.066,0.305 0.066,0.587 0,0.967 -0.626,1.293 -1.208,1.293 -0.603,0 -1.531,-0.38 -1.868,-1.88 m 3.042,-2.663 c -0.548,-0.314 -1.185,-0.478 -1.821,-0.478 -0.963,0 -2.226,0.512 -2.226,2.24 0,1.705 1.163,3.096 2.873,3.096 1.062,0 2.003,-0.466 2.003,-1.781 0,-0.403 -0.079,-0.696 -0.125,-0.881 -0.826,0.043 -1.14,0.054 -2.471,0.054 -0.424,0 -1.007,-0.011 -1.352,-0.022 -0.023,-0.141 -0.056,-0.347 -0.056,-0.629 0,-1.414 0.994,-1.686 1.622,-1.686 0.861,0 1.408,0.392 1.666,0.577 h 0.033 z"
       style="fill:#ffffff;fill-opacity:1;fill-rule:nonzero;stroke:none"
       id="path52" /><path
       d="m 71.9596,82.84508 h 0.022 c 0.257,0.261 0.828,0.87 1.835,0.87 1.073,0 1.273,-0.674 1.375,-1.054 0.346,0.424 0.928,1.054 1.955,1.054 0.974,0 1.454,-0.609 1.454,-1.152 0,-0.228 -0.077,-0.597 -0.167,-1.011 l -0.426,-1.978 c -0.133,-0.619 -0.156,-0.891 -0.178,-1.064 -0.123,0.021 -0.269,0.043 -0.435,0.043 -0.169,0 -0.337,-0.022 -0.482,-0.043 0.19,0.532 0.873,3.162 0.873,3.737 0,0.609 -0.425,0.957 -1.018,0.957 -0.571,0 -1.33,-0.348 -1.599,-1.238 -0.179,-0.588 -0.583,-2.62 -0.715,-3.456 -0.123,0.021 -0.291,0.043 -0.425,0.043 -0.168,0 -0.337,-0.022 -0.482,-0.043 0.247,0.749 0.851,3.162 0.851,3.825 0,0.641 -0.547,0.869 -0.995,0.869 -0.247,0 -1.208,-0.076 -1.599,-1.26 -0.179,-0.544 -0.615,-2.772 -0.695,-3.434 -0.122,0.021 -0.278,0.043 -0.447,0.043 -0.156,0 -0.325,-0.022 -0.447,-0.043 0.37,1.249 0.963,3.944 1.119,5.15 0.089,-0.022 0.257,-0.043 0.391,-0.043 0.156,0 0.314,0.021 0.457,0.043 z"
       style="fill:#ffffff;fill-opacity:1;fill-rule:nonzero;stroke:none"
       id="path56" /><path
       d="m 80.6398,81.55218 c 0.458,-0.032 1.062,-0.043 1.521,-0.043 0.435,0 1.074,0 1.487,0.043 0.033,0.13 0.066,0.305 0.066,0.587 0,0.967 -0.626,1.293 -1.208,1.293 -0.602,0 -1.53,-0.38 -1.866,-1.88 m 3.041,-2.663 c -0.549,-0.314 -1.186,-0.478 -1.821,-0.478 -0.964,0 -2.226,0.512 -2.226,2.24 0,1.705 1.162,3.096 2.872,3.096 1.063,0 2.003,-0.466 2.003,-1.781 0,-0.403 -0.079,-0.696 -0.125,-0.881 -0.826,0.043 -1.14,0.054 -2.471,0.054 -0.423,0 -1.004,-0.011 -1.351,-0.022 -0.024,-0.141 -0.057,-0.347 -0.057,-0.629 0,-1.414 0.996,-1.686 1.622,-1.686 0.862,0 1.409,0.392 1.666,0.577 h 0.034 z"
       style="fill:#ffffff;fill-opacity:1;fill-rule:nonzero;stroke:none"
       id="path60" /><path
       d="m 86.2326,81.55218 c 0.458,-0.032 1.061,-0.043 1.521,-0.043 0.434,0 1.073,0 1.487,0.043 0.033,0.13 0.066,0.305 0.066,0.587 0,0.967 -0.626,1.293 -1.208,1.293 -0.603,0 -1.531,-0.38 -1.866,-1.88 m 3.041,-2.663 c -0.547,-0.314 -1.186,-0.478 -1.822,-0.478 -0.963,0 -2.226,0.512 -2.226,2.24 0,1.705 1.163,3.096 2.873,3.096 1.063,0 2.003,-0.466 2.003,-1.781 0,-0.403 -0.08,-0.696 -0.124,-0.881 -0.826,0.043 -1.141,0.054 -2.471,0.054 -0.425,0 -1.005,-0.011 -1.352,-0.022 -0.024,-0.141 -0.057,-0.347 -0.057,-0.629 0,-1.414 0.996,-1.686 1.622,-1.686 0.861,0 1.409,0.392 1.666,0.577 h 0.034 z"
       style="fill:#ffffff;fill-opacity:1;fill-rule:nonzero;stroke:none"
       id="path64" /><path
       d="m 92.508,82.85638 0.045,-0.021 c 0.311,0.379 0.995,0.879 1.845,0.879 0.792,0 1.565,-0.434 1.565,-1.303 0,-0.283 -0.024,-0.392 -0.257,-1.369 -0.124,-0.512 -0.46,-2.076 -0.504,-2.533 -0.122,0.021 -0.267,0.043 -0.425,0.043 -0.166,0 -0.358,-0.022 -0.492,-0.043 0.169,0.489 0.838,2.978 0.838,3.727 0,0.653 -0.547,0.968 -1.106,0.968 -0.369,0 -1.284,-0.174 -1.621,-1.163 -0.257,-0.749 -0.716,-3.184 -0.773,-3.532 -0.112,0.021 -0.256,0.043 -0.414,0.043 -0.155,0 -0.323,-0.022 -0.447,-0.043 0.303,1 0.984,4.271 1.13,5.151 0.112,-0.022 0.247,-0.043 0.403,-0.043 0.134,0 0.291,0.021 0.425,0.043 z"
       style="fill:#ffffff;fill-opacity:1;fill-rule:nonzero;stroke:none"
       id="path68" /><path
       d="m 102.2384,86.05118 c 0.648,-1.13 3.724,-5.477 4.272,-6.096 0.189,0.684 0.938,4.183 1.151,5.998 0.1,-0.021 0.257,-0.043 0.391,-0.043 0.144,0 0.224,0.022 0.336,0.043 -0.414,-1.391 -1.566,-6.553 -1.689,-7.563 h -0.156 c -0.347,0.597 -3.812,5.488 -4.272,6.053 -0.324,-1.283 -1.096,-4.934 -1.174,-5.934 -0.111,0.021 -0.234,0.043 -0.38,0.043 -0.123,0 -0.28,-0.022 -0.39,-0.043 0.514,1.489 1.609,6.575 1.776,7.542 z"
       style="fill:#ffffff;fill-opacity:1;fill-rule:nonzero;stroke:none"
       id="path72" /><path
       d="m 112.6183,79.24838 -0.045,0.043 c -0.358,-0.413 -0.984,-0.901 -1.902,-0.901 -0.738,0 -1.566,0.445 -1.566,1.249 0,0.272 0.146,0.838 0.347,1.717 0.09,0.381 0.336,1.521 0.437,2.304 0.134,-0.022 0.302,-0.043 0.491,-0.043 0.181,0 0.337,0.021 0.483,0.043 -0.302,-1.087 -0.874,-3.108 -0.874,-3.705 0,-0.674 0.403,-1.043 1.086,-1.043 0.86,0 1.441,0.597 1.666,1.26 0.278,0.815 0.703,3.292 0.737,3.488 0.158,-0.022 0.303,-0.043 0.447,-0.043 0.169,0 0.324,0.021 0.46,0.043 -0.225,-0.718 -0.985,-3.836 -1.13,-5.151 -0.135,0.021 -0.258,0.043 -0.404,0.043 -0.166,0 -0.312,-0.022 -0.434,-0.043 z"
       style="fill:#ffffff;fill-opacity:1;fill-rule:nonzero;stroke:none"
       id="path76" /><path
       d="m 117.3381,85.01898 c -0.145,-0.5 -0.257,-1 -0.369,-1.5 0.348,0 0.772,0.033 1.163,0.043 -0.044,-0.151 -0.066,-0.292 -0.066,-0.445 -0.391,0.011 -0.851,0.044 -1.187,0.044 l -0.436,-2.043 c -0.099,-0.467 -0.255,-1.174 -0.255,-1.522 0,-0.576 0.466,-0.793 0.792,-0.793 0.257,0 0.515,0.087 0.739,0.217 l -0.022,-0.282 c -0.303,-0.228 -0.771,-0.337 -1.141,-0.337 -0.58,0 -1.197,0.348 -1.197,1.021 0,0.283 0.08,0.609 0.157,0.968 0.323,1.489 0.38,1.651 0.603,2.771 -0.213,0 -0.491,-0.011 -0.737,-0.022 0.044,0.12 0.066,0.207 0.066,0.423 0.237,-0.01 0.528,-0.043 0.716,-0.043 l 0.202,1.152 z"
       style="fill:#ffffff;fill-opacity:1;fill-rule:nonzero;stroke:none"
       id="path80" /><path
       d="m 28.4924,73.44518 c -0.335,0 -0.683,-0.01 -1.017,-0.043 -0.381,-1.521 -0.514,-2.086 -0.683,-2.88 0.169,-0.021 0.335,-0.032 0.583,-0.032 0.39,0 1.061,0.032 1.564,0.326 0.616,0.358 0.894,0.978 0.894,1.51 0,0.804 -0.58,1.119 -1.341,1.119 m -0.392,-3.336 c -0.234,0.033 -0.513,0.044 -0.771,0.044 -0.202,0 -0.437,0 -0.626,-0.011 -0.301,-1.391 -0.526,-2.499 -0.671,-3.347 0.28,-0.055 0.548,-0.055 0.716,-0.055 0.369,0 0.949,0.033 1.431,0.228 0.693,0.283 1.263,1.076 1.263,1.87 0,0.772 -0.603,1.173 -1.342,1.271 m 0.593,0.207 c 1.296,-0.12 1.677,-0.902 1.677,-1.467 0,-0.794 -0.524,-1.652 -1.442,-2.098 -0.738,-0.359 -1.599,-0.39 -2.013,-0.39 -0.223,0 -1.207,0.042 -1.408,0.042 -0.212,0 -0.358,-0.021 -0.503,-0.042 0.57,2.096 1.308,5.531 1.62,7.443 0.158,-0.011 0.403,-0.043 0.593,-0.043 0.425,0 0.94,0.043 1.453,0.043 0.616,0 1.041,-0.076 1.375,-0.25 0.516,-0.272 0.695,-0.76 0.695,-1.12 0,-1.086 -1.119,-1.88 -2.024,-2.042 z"
       style="fill:#ffffff;fill-opacity:1;fill-rule:nonzero;stroke:none"
       id="path84" /><path
       d="m 32.5636,69.40268 c 0.459,-0.032 1.063,-0.043 1.521,-0.043 0.437,0 1.075,0 1.489,0.043 0.033,0.131 0.066,0.305 0.066,0.587 0,0.968 -0.626,1.293 -1.208,1.293 -0.603,0 -1.531,-0.38 -1.868,-1.88 m 3.043,-2.662 c -0.549,-0.315 -1.186,-0.479 -1.824,-0.479 -0.961,0 -2.223,0.512 -2.223,2.239 0,1.706 1.162,3.097 2.872,3.097 1.063,0 2.003,-0.467 2.003,-1.781 0,-0.403 -0.079,-0.696 -0.125,-0.881 -0.826,0.044 -1.14,0.054 -2.471,0.054 -0.424,0 -1.006,-0.01 -1.352,-0.021 -0.023,-0.142 -0.056,-0.348 -0.056,-0.63 0,-1.413 0.994,-1.685 1.62,-1.685 0.861,0 1.41,0.391 1.667,0.576 h 0.034 z"
       style="fill:#ffffff;fill-opacity:1;fill-rule:nonzero;stroke:none"
       id="path88" /><path
       d="m 39.4435,66.59898 c 1.688,0 2.315,2.01 2.315,3.086 0,0.903 -0.526,1.576 -1.489,1.576 -1.62,0 -2.246,-1.88 -2.246,-3.086 0,-0.913 0.414,-1.576 1.42,-1.576 m 0.815,5.01 c 1.768,0 2.382,-1.021 2.382,-2.119 0,-1.598 -1.241,-3.239 -3.164,-3.239 -1.845,0 -2.337,1.251 -2.337,2.185 0,1.554 1.185,3.173 3.119,3.173"
       style="fill:#ffffff;fill-opacity:1;fill-rule:nonzero;stroke:none"
       id="path92" /><path
       d="m 45.6174,68.41448 c 1.086,0 1.487,1.184 1.487,1.847 0,0.63 -0.381,1.033 -0.984,1.033 -1.129,0 -1.53,-1.163 -1.53,-1.794 0,-0.825 0.557,-1.086 1.027,-1.086 m -0.715,-4.564 c 1.341,0 2.001,0.923 2.001,1.695 0,0.847 -0.916,0.88 -1.52,0.88 -0.292,0 -0.839,-0.022 -1.23,-0.272 -0.548,-0.347 -0.627,-0.891 -0.627,-1.163 0,-0.815 0.66,-1.14 1.376,-1.14 m -0.368,4.488 c -0.179,0.076 -0.807,0.337 -0.807,1.217 0,1.021 0.85,2.053 2.45,2.053 0.368,0 0.526,-0.043 0.851,-0.13 0.199,-0.054 0.334,-0.054 0.569,-0.054 0.269,0 0.815,0.033 1.107,0.044 0,-0.066 -0.023,-0.141 -0.023,-0.229 0,-0.087 0.023,-0.163 0.023,-0.228 -0.537,0.032 -0.795,0.044 -1.063,0.054 0.122,-0.152 0.314,-0.402 0.314,-0.891 0,-0.608 -0.324,-1.369 -1.073,-1.771 -0.526,-0.283 -1.153,-0.304 -1.51,-0.304 -0.246,0 -0.481,0.01 -0.65,0.021 -0.122,-0.076 -0.457,-0.261 -0.457,-0.598 0,-0.435 0.468,-0.445 0.826,-0.445 1.265,-0.011 1.668,-0.011 2.08,-0.25 0.414,-0.239 0.493,-0.674 0.493,-0.945 0,-0.837 -0.739,-2.359 -2.885,-2.359 -0.526,0 -1.041,0.087 -1.41,0.381 -0.29,0.228 -0.515,0.609 -0.515,1.032 0,0.511 0.314,0.989 0.739,1.25 0.246,0.152 0.46,0.228 0.583,0.272 l 0.01,0.076 c -0.168,0.043 -0.615,0.174 -0.615,0.63 0,0.674 0.626,0.945 0.963,1.097 z"
       style="fill:#ffffff;fill-opacity:1;fill-rule:nonzero;stroke:none"
       id="path96" /><path
       d="m 49.9699,69.40268 c 0.458,-0.032 1.061,-0.043 1.521,-0.043 0.435,0 1.073,0 1.487,0.043 0.034,0.131 0.067,0.305 0.067,0.587 0,0.968 -0.627,1.293 -1.209,1.293 -0.603,0 -1.531,-0.38 -1.866,-1.88 m 3.042,-2.662 c -0.55,-0.315 -1.186,-0.479 -1.823,-0.479 -0.963,0 -2.225,0.512 -2.225,2.239 0,1.706 1.162,3.097 2.872,3.097 1.063,0 2.003,-0.467 2.003,-1.781 0,-0.403 -0.079,-0.696 -0.123,-0.881 -0.828,0.044 -1.142,0.054 -2.471,0.054 -0.426,0 -1.006,-0.01 -1.354,-0.021 -0.023,-0.142 -0.056,-0.348 -0.056,-0.63 0,-1.413 0.996,-1.685 1.622,-1.685 0.861,0 1.409,0.391 1.667,0.576 h 0.033 z"
       style="fill:#ffffff;fill-opacity:1;fill-rule:nonzero;stroke:none"
       id="path100" /><path
       d="m 56.2453,70.70738 0.043,-0.022 c 0.314,0.38 0.996,0.88 1.846,0.88 0.794,0 1.565,-0.435 1.565,-1.304 0,-0.283 -0.023,-0.391 -0.256,-1.369 -0.125,-0.511 -0.459,-2.077 -0.503,-2.532 -0.125,0.021 -0.268,0.043 -0.426,0.043 -0.166,0 -0.358,-0.022 -0.491,-0.043 0.166,0.489 0.838,2.977 0.838,3.727 0,0.652 -0.549,0.968 -1.107,0.968 -0.37,0 -1.287,-0.174 -1.622,-1.163 -0.257,-0.75 -0.715,-3.184 -0.771,-3.532 -0.113,0.021 -0.258,0.043 -0.414,0.043 -0.156,0 -0.325,-0.022 -0.447,-0.043 0.302,0.999 0.983,4.271 1.129,5.151 0.112,-0.022 0.246,-0.043 0.404,-0.043 0.132,0 0.289,0.021 0.423,0.043 z"
       style="fill:#ffffff;fill-opacity:1;fill-rule:nonzero;stroke:none"
       id="path104" /><path
       d="m 63.1227,66.64248 c 1.688,0 2.169,2.13 2.169,3.076 0,0.435 -0.145,1.478 -1.364,1.478 -1.743,0 -2.157,-2.087 -2.157,-2.924 0,-1.054 0.493,-1.63 1.352,-1.63 m 1.755,0.685 c -0.368,-0.456 -0.894,-1.109 -1.988,-1.109 -1.354,0 -2.014,1 -2.014,2.12 0,1.369 0.951,3.249 2.918,3.249 1.197,0 1.532,-0.728 1.689,-1.076 h 0.044 c 0.268,1.369 0.583,2.793 0.772,3.977 0.123,-0.021 0.281,-0.043 0.447,-0.043 0.169,0 0.314,0.022 0.437,0.043 -0.649,-2.575 -0.884,-3.77 -1.364,-6.063 -0.113,-0.533 -0.269,-1.338 -0.381,-2.065 -0.1,0.021 -0.19,0.043 -0.381,0.043 -0.189,0 -0.302,-0.022 -0.424,-0.043 z"
       style="fill:#ffffff;fill-opacity:1;fill-rule:nonzero;stroke:none"
       id="path108" /><path
       d="m 68.2013,69.40268 c 0.459,-0.032 1.063,-0.043 1.521,-0.043 0.436,0 1.073,0 1.486,0.043 0.034,0.131 0.067,0.305 0.067,0.587 0,0.968 -0.626,1.293 -1.206,1.293 -0.604,0 -1.531,-0.38 -1.868,-1.88 m 3.041,-2.662 c -0.547,-0.315 -1.184,-0.479 -1.822,-0.479 -0.961,0 -2.225,0.512 -2.225,2.239 0,1.706 1.164,3.097 2.874,3.097 1.063,0 2,-0.467 2,-1.781 0,-0.403 -0.076,-0.696 -0.122,-0.881 -0.828,0.044 -1.14,0.054 -2.471,0.054 -0.424,0 -1.006,-0.01 -1.352,-0.021 -0.023,-0.142 -0.056,-0.348 -0.056,-0.63 0,-1.413 0.994,-1.685 1.62,-1.685 0.861,0 1.408,0.391 1.666,0.576 h 0.034 z"
       style="fill:#ffffff;fill-opacity:1;fill-rule:nonzero;stroke:none"
       id="path112" /><path
       d="m 77.6418,73.80408 c 0.135,-0.021 0.324,-0.043 0.481,-0.043 0.18,0 0.369,0.022 0.514,0.043 -0.602,-2.228 -1.297,-5.444 -1.632,-7.443 -0.134,0.021 -0.301,0.043 -0.493,0.043 -0.167,0 -0.357,-0.022 -0.503,-0.043 0.571,2.096 1.31,5.531 1.633,7.443"
       style="fill:#ffffff;fill-opacity:1;fill-rule:nonzero;stroke:none"
       id="path116" /><path
       d="m 80.6965,70.70738 0.044,-0.022 c 0.313,0.38 0.996,0.88 1.845,0.88 0.795,0 1.566,-0.435 1.566,-1.304 0,-0.283 -0.023,-0.391 -0.258,-1.369 -0.123,-0.511 -0.458,-2.077 -0.504,-2.532 -0.122,0.021 -0.267,0.043 -0.423,0.043 -0.169,0 -0.359,-0.022 -0.494,-0.043 0.168,0.489 0.84,2.977 0.84,3.727 0,0.652 -0.549,0.968 -1.108,0.968 -0.368,0 -1.285,-0.174 -1.62,-1.163 -0.258,-0.75 -0.716,-3.184 -0.772,-3.532 -0.112,0.021 -0.258,0.043 -0.414,0.043 -0.156,0 -0.324,-0.022 -0.447,-0.043 0.302,0.999 0.983,4.271 1.129,5.151 0.112,-0.022 0.246,-0.043 0.403,-0.043 0.134,0 0.29,0.021 0.425,0.043 z"
       style="fill:#ffffff;fill-opacity:1;fill-rule:nonzero;stroke:none"
       id="path120" /><path
       d="m 88.4123,70.64198 c -0.11,0.402 -0.491,0.641 -0.915,0.641 -0.649,0 -1.064,-0.532 -1.064,-1.032 0,-0.532 0.458,-0.74 0.961,-0.957 0.471,-0.206 1.008,-0.445 1.008,-1.152 0,-1 -1.008,-1.901 -2.304,-1.901 -0.458,0 -0.816,0.087 -1.207,0.315 0.168,0.26 0.292,0.565 0.357,0.728 h 0.08 c 0.166,-0.435 0.613,-0.652 1.105,-0.652 0.85,0 1.219,0.641 1.219,1.12 0,0.477 -0.301,0.619 -0.893,0.89 -0.481,0.218 -1.019,0.468 -1.019,1.25 0,0.739 0.549,1.75 2.046,1.75 0.403,0 0.661,-0.065 1.02,-0.218 -0.226,-0.489 -0.259,-0.641 -0.291,-0.782 z"
       style="fill:#ffffff;fill-opacity:1;fill-rule:nonzero;stroke:none"
       id="path124" /><path
       d="m 91.8478,72.86948 c -0.146,-0.5 -0.258,-1 -0.37,-1.5 0.347,0 0.771,0.033 1.162,0.044 -0.044,-0.152 -0.066,-0.293 -0.066,-0.446 -0.391,0.012 -0.849,0.044 -1.185,0.044 l -0.436,-2.043 c -0.101,-0.468 -0.257,-1.174 -0.257,-1.522 0,-0.576 0.469,-0.793 0.794,-0.793 0.256,0 0.514,0.087 0.737,0.217 l -0.022,-0.282 c -0.3,-0.228 -0.771,-0.337 -1.14,-0.337 -0.581,0 -1.196,0.347 -1.196,1.022 0,0.282 0.078,0.608 0.155,0.967 0.325,1.488 0.381,1.651 0.605,2.771 -0.212,0 -0.492,-0.011 -0.738,-0.022 0.043,0.119 0.067,0.207 0.067,0.424 0.235,-0.011 0.526,-0.044 0.715,-0.044 l 0.201,1.152 z"
       style="fill:#ffffff;fill-opacity:1;fill-rule:nonzero;stroke:none"
       id="path128" /><path
       d="m 93.8947,69.40268 c 0.457,-0.032 1.063,-0.043 1.52,-0.043 0.437,0 1.074,0 1.487,0.043 0.034,0.131 0.067,0.305 0.067,0.587 0,0.968 -0.627,1.293 -1.206,1.293 -0.605,0 -1.533,-0.38 -1.868,-1.88 m 3.041,-2.662 c -0.548,-0.315 -1.186,-0.479 -1.822,-0.479 -0.962,0 -2.226,0.512 -2.226,2.239 0,1.706 1.163,3.097 2.875,3.097 1.063,0 2,-0.467 2,-1.781 0,-0.403 -0.078,-0.696 -0.122,-0.881 -0.828,0.044 -1.141,0.054 -2.471,0.054 -0.427,0 -1.006,-0.01 -1.355,-0.021 -0.02,-0.142 -0.055,-0.348 -0.055,-0.63 0,-1.413 0.995,-1.685 1.622,-1.685 0.861,0 1.408,0.391 1.666,0.576 h 0.034 z"
       style="fill:#ffffff;fill-opacity:1;fill-rule:nonzero;stroke:none"
       id="path132" /><path
       d="m 99.3195,66.36078 c -0.112,0.021 -0.257,0.043 -0.459,0.043 -0.188,0 -0.324,-0.022 -0.447,-0.043 0.728,2.619 1.521,6.541 1.756,8.128 0.122,-0.022 0.234,-0.044 0.424,-0.044 0.168,0 0.358,0.022 0.516,0.044 -0.169,-0.576 -1.5,-6.271 -1.79,-8.128"
       style="fill:#ffffff;fill-opacity:1;fill-rule:nonzero;stroke:none"
       id="path136" /><path
       d="m 102.0158,66.36078 c -0.112,0.021 -0.257,0.043 -0.459,0.043 -0.19,0 -0.325,-0.022 -0.447,-0.043 0.727,2.619 1.519,6.541 1.755,8.128 0.123,-0.022 0.235,-0.044 0.423,-0.044 0.169,0 0.361,0.022 0.517,0.044 -0.168,-0.576 -1.499,-6.271 -1.789,-8.128"
       style="fill:#ffffff;fill-opacity:1;fill-rule:nonzero;stroke:none"
       id="path140" /><path
       d="m 105.7951,73.74988 c 0.304,0 0.536,-0.239 0.536,-0.522 0,-0.282 -0.232,-0.521 -0.536,-0.521 -0.302,0 -0.536,0.239 -0.536,0.521 0,0.283 0.234,0.522 0.536,0.522 m -1.051,-7.389 c -0.169,0.021 -0.347,0.043 -0.513,0.043 -0.179,0 -0.325,-0.022 -0.437,-0.043 0.49,1.542 1.096,4.738 1.152,5.15 0.166,-0.022 0.313,-0.043 0.47,-0.043 0.167,0 0.324,0.021 0.458,0.043 -0.213,-0.717 -0.984,-3.858 -1.13,-5.15"
       style="fill:#ffffff;fill-opacity:1;fill-rule:nonzero;stroke:none"
       id="path144" /><path
       d="m 108.258,70.70738 0.043,-0.022 c 0.313,0.38 0.995,0.88 1.845,0.88 0.794,0 1.565,-0.435 1.565,-1.304 0,-0.283 -0.022,-0.391 -0.257,-1.369 -0.124,-0.511 -0.458,-2.077 -0.503,-2.532 -0.124,0.021 -0.268,0.043 -0.424,0.043 -0.169,0 -0.359,-0.022 -0.494,-0.043 0.169,0.489 0.84,2.977 0.84,3.727 0,0.652 -0.549,0.968 -1.108,0.968 -0.368,0 -1.285,-0.174 -1.619,-1.163 -0.259,-0.75 -0.716,-3.184 -0.773,-3.532 -0.112,0.021 -0.258,0.043 -0.414,0.043 -0.156,0 -0.324,-0.022 -0.447,-0.043 0.303,0.999 0.984,4.271 1.13,5.151 0.112,-0.022 0.245,-0.043 0.403,-0.043 0.133,0 0.289,0.021 0.424,0.043 z"
       style="fill:#ffffff;fill-opacity:1;fill-rule:nonzero;stroke:none"
       id="path148" /><path
       d="m 115.0353,68.41448 c 1.084,0 1.487,1.184 1.487,1.847 0,0.63 -0.381,1.033 -0.984,1.033 -1.13,0 -1.533,-1.163 -1.533,-1.794 0,-0.825 0.559,-1.086 1.03,-1.086 m -0.716,-4.564 c 1.341,0 2.001,0.923 2.001,1.695 0,0.847 -0.917,0.88 -1.52,0.88 -0.29,0 -0.839,-0.022 -1.231,-0.272 -0.547,-0.347 -0.627,-0.891 -0.627,-1.163 0,-0.815 0.661,-1.14 1.377,-1.14 m -0.37,4.488 c -0.179,0.076 -0.805,0.337 -0.805,1.217 0,1.021 0.851,2.053 2.451,2.053 0.368,0 0.524,-0.043 0.848,-0.13 0.201,-0.054 0.335,-0.054 0.57,-0.054 0.268,0 0.818,0.033 1.106,0.044 0,-0.066 -0.021,-0.141 -0.021,-0.229 0,-0.087 0.021,-0.163 0.021,-0.228 -0.537,0.032 -0.793,0.044 -1.061,0.054 0.123,-0.152 0.313,-0.402 0.313,-0.891 0,-0.608 -0.324,-1.369 -1.073,-1.771 -0.525,-0.283 -1.151,-0.304 -1.509,-0.304 -0.247,0 -0.483,0.01 -0.649,0.021 -0.124,-0.076 -0.459,-0.261 -0.459,-0.598 0,-0.435 0.47,-0.445 0.829,-0.445 1.263,-0.011 1.665,-0.011 2.079,-0.25 0.414,-0.239 0.492,-0.674 0.492,-0.945 0,-0.837 -0.737,-2.359 -2.884,-2.359 -0.527,0 -1.04,0.087 -1.411,0.381 -0.291,0.228 -0.513,0.609 -0.513,1.032 0,0.511 0.312,0.989 0.738,1.25 0.246,0.152 0.458,0.228 0.581,0.272 l 0.011,0.076 c -0.168,0.043 -0.615,0.174 -0.615,0.63 0,0.674 0.626,0.945 0.961,1.097 z"
       style="fill:#ffffff;fill-opacity:1;fill-rule:nonzero;stroke:none"
       id="path152" /><path
       d="m 12.1794,9.86168 c -1.119,0 -2.036,0.916 -2.036,2.036 v 0.379 c 0,1.119 0.917,2.035 2.036,2.035 h 107.271 c 1.121,0 2.037,-0.916 2.037,-2.035 v -0.379 c 0,-1.12 -0.916,-2.036 -2.037,-2.036 z"
       style="fill:#ffffff;fill-opacity:1;fill-rule:nonzero;stroke:none"
       id="path156" /></g></svg>