<svg xmlns:svg="http://www.w3.org/2000/svg" xmlns="http://www.w3.org/2000/svg" viewBox="0 0 175 140" height="140"
     width="175" xml:space="preserve" version="1.1"><defs><clipPath clipPathUnits="userSpaceOnUse"><path d="M0 841.9H595.3V0H0Z"/></clipPath></defs>
    <g transform="matrix(1.3333333,0,0,-1.3333333,0,139.99998)"><path fill="#D22630" d="M3.8 104.3C1.7 104.3 0 102.5 0 100.3V4C0 1.8 1.7 0 3.8 0H127.4c2.1 0 3.8 1.8 3.8 4v96.3c0 2.2-1.7 4-3.8 4zM58.1 86.6c0.1 0 0.2 0 0.4 0 0.2 0 0.4 0 0.5 0-0.2-0.6-1.5-6.3-1.8-8.1-0.1 0-0.3 0-0.5 0-0.2 0-0.3 0-0.4 0 0.7 2.6 1.5 6.5 1.8 8.1zm-4.6-0.6h0.2c0.2-1.1 1.4-6.5 1.7-7.6-0.1 0-0.3 0-0.5 0-0.2 0-0.4 0-0.5 0-0.1 0.8-0.4 2.4-0.5 2.9-0.2 0-0.9 0-1.5 0-0.5 0-1 0-1.5 0-0.4-0.6-1.4-2.2-1.8-2.9-0.1 0-0.2 0-0.4 0-0.1 0-0.3 0-0.4 0 1.3 1.8 2.6 3.7 3.8 5.6 0.6 0.8 1 1.4 1.3 2zm48.6 0h0.1c0.6-1.1 3.7-5.5 4.3-6.1 0.2 0.7 0.9 4.2 1.2 6 0.1 0 0.3 0 0.4 0 0.1 0 0.2 0 0.3 0-0.4-1.4-1.6-6.6-1.7-7.6h-0.2c-0.3 0.6-3.8 5.5-4.3 6.1-0.3-1.3-1.1-4.9-1.2-5.9-0.1 0-0.2 0-0.4 0-0.1 0-0.3 0-0.4 0 0.5 1.5 1.6 6.6 1.8 7.5zm15.2-1c-0.1-0.5-0.3-1-0.4-1.5 0.3 0 0.8 0 1.2 0 0-0.2-0.1-0.3-0.1-0.4-0.4 0-0.9 0-1.2 0l-0.4-2c-0.1-0.5-0.3-1.2-0.3-1.5 0-0.6 0.5-0.8 0.8-0.8 0.3 0 0.5 0.1 0.7 0.2l0-0.3c-0.3-0.2-0.8-0.3-1.1-0.3-0.6 0-1.2 0.3-1.2 1 0 0.3 0.1 0.6 0.2 1 0.3 1.5 0.4 1.7 0.6 2.8-0.2 0-0.5 0-0.7 0 0 0.1 0.1 0.2 0.1 0.4 0.2 0 0.5 0 0.7 0l0.2 1.2zM53.1 84.7 51.1 81.9c0.4 0 0.9 0 1.3 0 0.4 0 0.9 0 1.3 0l-0.6 2.9zm8.9-1c0.4 0 0.5 0 0.8-0.1 0.2-0.1 0.3-0.1 0.6-0.1 0.3 0 0.8 0 1.1 0 0-0.1 0-0.1 0-0.2 0-0.1 0-0.2 0-0.2-0.5 0-0.8 0-1.1 0.1 0.1-0.2 0.3-0.4 0.3-0.9 0-0.6-0.3-1.4-1.1-1.8-0.5-0.3-1.2-0.3-1.5-0.3-0.2 0-0.5 0-0.6 0-0.1-0.1-0.5-0.3-0.5-0.6 0-0.4 0.5-0.4 0.8-0.4 1.3 0 1.7 0 2.1-0.2 0.4-0.2 0.5-0.7 0.5-0.9 0-0.8-0.7-2.4-2.9-2.4-0.5 0-1 0.1-1.4 0.4-0.3 0.2-0.5 0.6-0.5 1 0 0.5 0.3 1 0.7 1.3 0.2 0.2 0.5 0.2 0.6 0.3l0 0.1c-0.2 0-0.6 0.2-0.6 0.6 0 0.7 0.6 0.9 1 1.1v0.1c-0.2 0.1-0.8 0.3-0.8 1.2 0 1 0.8 2.1 2.4 2.1zm5.7 0c1.1 0 2-0.5 2-1.8 0-0.4-0.1-0.7-0.1-0.9-0.8 0-1.1 0.1-2.5 0.1-0.4 0-1 0-1.4 0 0-0.1-0.1-0.3-0.1-0.6 0-1.4 1-1.7 1.6-1.7 0.9 0 1.4 0.4 1.7 0.6h0L68.8 78.9c-0.5-0.3-1.2-0.5-1.8-0.5-1 0-2.2 0.5-2.2 2.2 0 1.7 1.2 3.1 2.9 3.1zm14.9 0c1.1 0 2-0.5 2-1.8 0-0.4-0.1-0.7-0.1-0.9-0.8 0-1.1 0.1-2.5 0.1-0.4 0-1 0-1.4 0 0-0.1-0.1-0.3-0.1-0.6 0-1.4 1-1.7 1.6-1.7 0.9 0 1.4 0.4 1.7 0.6h0l-0.1-0.5c-0.5-0.3-1.2-0.5-1.8-0.5-1 0-2.2 0.5-2.2 2.2 0 1.7 1.2 3.1 2.9 3.1zm5.6 0c1.1 0 2-0.5 2-1.8 0-0.4-0.1-0.7-0.1-0.9-0.8 0-1.1 0.1-2.5 0.1-0.4 0-1 0-1.4 0 0-0.1-0.1-0.3-0.1-0.6 0-1.4 1-1.7 1.6-1.7 0.9 0 1.4 0.4 1.7 0.6h0l-0.1-0.5c-0.5-0.3-1.2-0.5-1.8-0.5-1 0-2.2 0.5-2.2 2.2 0 1.7 1.2 3.1 2.9 3.1zm-14.3 0c1.1 0 1.3-0.7 1.4-1.1 0.3 0.4 0.9 1.1 2 1.1 1 0 1.5-0.6 1.5-1.2 0-0.2-0.1-0.6-0.2-1l-0.4-2c-0.1-0.6-0.2-0.9-0.2-1.1-0.1 0-0.3 0-0.4 0-0.2 0-0.3 0-0.5 0 0.2 0.5 0.9 3.2 0.9 3.7 0 0.6-0.4 1-1 1-0.6 0-1.3-0.3-1.6-1.2-0.2-0.6-0.6-2.6-0.7-3.5-0.1 0-0.3 0-0.4 0-0.2 0-0.3 0-0.5 0 0.2 0.7 0.9 3.2 0.9 3.8 0 0.6-0.5 0.9-1 0.9-0.2 0-1.2-0.1-1.6-1.3-0.2-0.5-0.6-2.8-0.7-3.4-0.1 0-0.3 0-0.4 0-0.2 0-0.3 0-0.4 0 0.4 1.2 1 3.9 1.1 5.2 0.1 0 0.3 0 0.4 0 0.2 0 0.3 0 0.5 0l-0.2-0.8h0c0.3 0.3 0.8 0.9 1.8 0.9zm20.6 0c0.8 0 1.6-0.4 1.6-1.3 0-0.3 0-0.4-0.3-1.4-0.1-0.5-0.5-2.1-0.5-2.5-0.1 0-0.3 0-0.4 0-0.2 0-0.4 0-0.5 0 0.2 0.5 0.8 3 0.8 3.7 0 0.7-0.5 1-1.1 1-0.4 0-1.3-0.2-1.6-1.2-0.3-0.7-0.7-3.2-0.8-3.5-0.1 0-0.3 0-0.4 0-0.2 0-0.3 0-0.4 0 0.3 1 1 4.3 1.1 5.2 0.1 0 0.2 0 0.4 0 0.1 0 0.3 0 0.4 0l-0.2-0.8 0 0c0.3 0.4 1 0.9 1.8 0.9zm15.5-0.1c0.1 0 0.3 0 0.5 0 0.2 0 0.3 0 0.5 0-0.3-1.1-0.9-3.1-0.9-3.7 0-0.7 0.4-1 1.1-1 0.9 0 1.4 0.6 1.7 1.3 0.3 0.8 0.7 3.3 0.7 3.5 0.2 0 0.3 0 0.4 0 0.2 0 0.3 0 0.5 0-0.2-0.7-1-3.8-1.1-5.2-0.1 0-0.3 0-0.4 0-0.2 0-0.3 0-0.4 0l0.2 0.7 0 0c-0.4-0.4-1-0.9-1.9-0.9-0.7 0-1.6 0.4-1.6 1.2 0 0.3 0.1 0.8 0.3 1.7 0.1 0.4 0.3 1.5 0.4 2.3zM61.9 83.4c-1.1 0-1.5-1.2-1.5-1.8 0-0.8 0.6-1.1 1-1.1 1.1 0 1.5 1.2 1.5 1.8 0 0.6-0.4 1-1 1zm5.7 0c-0.6 0-1.5-0.4-1.9-1.9 0.5 0 1.1 0 1.5 0 0.4 0 1.1 0 1.5 0 0 0.1 0.1 0.3 0.1 0.6 0 1-0.6 1.3-1.2 1.3zm14.9 0c-0.6 0-1.5-0.4-1.9-1.9 0.5 0 1.1 0 1.5 0 0.4 0 1.1 0 1.5 0 0 0.1 0.1 0.3 0.1 0.6 0 1-0.6 1.3-1.2 1.3zm5.6 0c-0.6 0-1.5-0.4-1.9-1.9 0.5 0 1.1 0 1.5 0 0.4 0 1.1 0 1.5 0 0 0.1 0.1 0.3 0.1 0.6 0 1-0.6 1.3-1.2 1.3zM61.1 78.6c-0.3 0-0.8 0-1.2-0.3-0.5-0.3-0.6-0.9-0.6-1.2 0-0.8 0.7-1.1 1.4-1.1 1.3 0 2 0.9 2 1.7 0 0.8-0.9 0.9-1.5 0.9zm5.2-4.1c0.1 0 0.3 0 0.4 0 0.2 0 0.3 0 0.4 0-0.6-2.6-0.9-3.8-1.4-6.1-0.1-0.5-0.3-1.3-0.4-2.1-0.1 0-0.2 0-0.4 0-0.2 0-0.3 0-0.4 0l0.2 1c-0.4-0.5-0.9-1.1-2-1.1-1.4 0-2 1-2 2.1 0 1.4 1 3.2 2.9 3.2 1.2 0 1.5-0.7 1.7-1.1h0c0.3 1.4 0.6 2.8 0.8 4zm33.9 0c0.1 0 0.2 0 0.4 0 0.2 0 0.4 0 0.5 0-0.2-0.6-1.5-6.3-1.8-8.1-0.1 0-0.3 0-0.5 0-0.2 0-0.3 0-0.4 0 0.7 2.6 1.5 6.5 1.8 8.1zm2.7 0c0.1 0 0.2 0 0.4 0 0.2 0 0.4 0 0.5 0-0.2-0.6-1.5-6.3-1.8-8.1-0.1 0-0.3 0-0.5 0-0.2 0-0.3 0-0.4 0 0.7 2.6 1.5 6.5 1.8 8.1zM26.6 73.8c0.2 0 0.4 0 0.6 0 0.4 0 0.9 0 1.5 0 0.6 0 1-0.1 1.4-0.2 0.5-0.3 0.7-0.8 0.7-1.1 0-1.1-1.1-1.9-2-2l0-0.1c1.3-0.1 1.7-0.9 1.7-1.5 0-0.8-0.5-1.7-1.4-2.1-0.7-0.4-1.6-0.4-2-0.4-0.2 0-1.2 0-1.4 0-0.2 0-0.4 0-0.5 0 0.6 2.1 1.3 5.5 1.6 7.4zm51 0c0.1 0 0.3 0 0.5 0 0.2 0 0.4 0 0.5 0-0.6-2.2-1.3-5.4-1.6-7.4-0.1 0-0.3 0-0.5 0-0.2 0-0.4 0-0.5 0 0.6 2.1 1.3 5.5 1.6 7.4zm28.2-0.1c0.3 0 0.5-0.2 0.5-0.5 0-0.3-0.2-0.5-0.5-0.5-0.3 0-0.5 0.2-0.5 0.5 0 0.3 0.2 0.5 0.5 0.5zm-77.3-0.3c-0.3 0-0.7 0-1 0-0.4-1.5-0.5-2.1-0.7-2.9 0.2 0 0.3 0 0.6 0 0.4 0 1.1 0 1.6 0.3 0.6 0.4 0.9 1 0.9 1.5 0 0.8-0.6 1.1-1.3 1.1zm63.4-0.6c-0.1-0.5-0.3-1-0.4-1.5 0.3 0 0.8 0 1.2 0 0-0.2-0.1-0.3-0.1-0.4-0.4 0-0.8 0-1.2 0l-0.4-2c-0.1-0.5-0.3-1.2-0.3-1.5 0-0.6 0.5-0.8 0.8-0.8 0.3 0 0.5 0.1 0.7 0.2l0-0.3c-0.3-0.2-0.8-0.3-1.1-0.3-0.6 0-1.2 0.3-1.2 1 0 0.3 0.1 0.6 0.2 1 0.3 1.5 0.4 1.7 0.6 2.8-0.2 0-0.5 0-0.7 0 0 0.1 0.1 0.2 0.1 0.4 0.2 0 0.5 0 0.7 0l0.2 1.2zm-4.1-1.2c0.4 0 0.7-0.1 1-0.2-0.2-0.5-0.3-0.6-0.3-0.8h-0.1c-0.1 0.4-0.5 0.6-0.9 0.6-0.6 0-1.1-0.5-1.1-1 0-0.5 0.5-0.7 1-1 0.5-0.2 1-0.4 1-1.2 0-1-1-1.9-2.3-1.9-0.5 0-0.8 0.1-1.2 0.3 0.2 0.3 0.3 0.6 0.4 0.7h0.1c0.2-0.4 0.6-0.7 1.1-0.7 0.9 0 1.2 0.6 1.2 1.1 0 0.5-0.3 0.6-0.9 0.9-0.5 0.2-1 0.5-1 1.3 0 0.7 0.5 1.7 2 1.7zm-47.5 0c1.8 0 2.4-1 2.4-2.1 0-1.6-1.2-3.2-3.2-3.2-1.8 0-2.3 1.3-2.3 2.2 0 1.6 1.2 3.2 3.1 3.2zm5.9 0c0.4 0 0.5 0 0.8-0.1 0.2-0.1 0.3-0.1 0.6-0.1 0.3 0 0.8 0 1.1 0 0-0.1 0-0.1 0-0.2 0-0.1 0-0.2 0-0.2-0.5 0-0.8 0-1.1 0.1 0.1-0.2 0.3-0.4 0.3-0.9 0-0.6-0.3-1.4-1.1-1.8-0.5-0.3-1.2-0.3-1.5-0.3-0.2 0-0.5 0-0.7 0-0.1-0.1-0.5-0.3-0.5-0.6 0-0.4 0.5-0.4 0.8-0.4 1.3 0 1.7 0 2.1-0.2 0.4-0.2 0.5-0.7 0.5-0.9 0-0.8-0.7-2.4-2.9-2.4-0.5 0-1 0.1-1.4 0.4-0.3 0.2-0.5 0.6-0.5 1 0 0.5 0.3 1 0.7 1.2 0.2 0.2 0.5 0.2 0.6 0.3l0 0.1c-0.2 0-0.6 0.2-0.6 0.6 0 0.7 0.6 0.9 1 1.1v0.1c-0.2 0.1-0.8 0.3-0.8 1.2 0 1 0.9 2.1 2.5 2.1zm69.4 0c0.4 0 0.5 0 0.8-0.1 0.2-0.1 0.3-0.1 0.6-0.1 0.3 0 0.8 0 1.1 0 0-0.1 0-0.1 0-0.2 0-0.1 0-0.2 0-0.2-0.5 0-0.8 0-1.1 0.1 0.1-0.2 0.3-0.4 0.3-0.9 0-0.6-0.3-1.4-1.1-1.8-0.5-0.3-1.2-0.3-1.5-0.3-0.2 0-0.5 0-0.6 0-0.1-0.1-0.5-0.3-0.5-0.6 0-0.4 0.5-0.4 0.8-0.4 1.3 0 1.7 0 2.1-0.2 0.4-0.2 0.5-0.7 0.5-0.9 0-0.8-0.7-2.4-2.9-2.4-0.5 0-1 0.1-1.4 0.4-0.3 0.2-0.5 0.6-0.5 1 0 0.5 0.3 1 0.7 1.2 0.2 0.2 0.5 0.2 0.6 0.3l0 0.1c-0.2 0-0.6 0.2-0.6 0.6 0 0.7 0.6 0.9 1 1.1v0.1c-0.2 0.1-0.8 0.3-0.8 1.2 0 1 0.9 2.1 2.5 2.1zm-81.2 0c1.1 0 2-0.5 2-1.8 0-0.4-0.1-0.7-0.1-0.9-0.8 0-1.1 0.1-2.5 0.1-0.4 0-1 0-1.4 0 0-0.1-0.1-0.3-0.1-0.6 0-1.4 1-1.7 1.6-1.7 0.9 0 1.4 0.4 1.7 0.6h0l-0.1-0.5c-0.5-0.3-1.2-0.5-1.8-0.5-1 0-2.2 0.5-2.2 2.2 0 1.7 1.2 3.1 2.9 3.1zm17.4 0c1.1 0 2-0.5 2-1.8 0-0.4-0.1-0.7-0.1-0.9-0.8 0-1.1 0.1-2.5 0.1-0.4 0-1 0-1.4 0 0-0.1-0.1-0.3-0.1-0.6 0-1.4 1-1.7 1.6-1.7 0.9 0 1.4 0.4 1.7 0.6h0l-0.1-0.5c-0.5-0.3-1.2-0.5-1.8-0.5-1 0-2.2 0.5-2.2 2.2 0 1.7 1.2 3.1 2.9 3.1zm18.2 0c1.1 0 2-0.5 2-1.8 0-0.4-0.1-0.7-0.1-0.9-0.8 0-1.1 0.1-2.5 0.1-0.4 0-1 0-1.4 0 0-0.1-0.1-0.3-0.1-0.6 0-1.4 1-1.7 1.6-1.7 0.9 0 1.4 0.4 1.7 0.6h0l-0.1-0.5c-0.5-0.3-1.2-0.5-1.8-0.5-1 0-2.2 0.5-2.2 2.2 0 1.7 1.2 3.1 2.9 3.1zm25.7 0c1.1 0 2-0.5 2-1.8 0-0.4-0.1-0.7-0.1-0.9-0.8 0-1.1 0.1-2.5 0.1-0.4 0-1 0-1.4 0 0-0.1-0.1-0.3-0.1-0.6 0-1.4 1-1.7 1.6-1.7 0.9 0 1.4 0.4 1.7 0.6h0l-0.1-0.5c-0.5-0.3-1.2-0.5-1.8-0.5-1 0-2.2 0.5-2.2 2.2 0 1.7 1.2 3.1 2.9 3.1zm-37.6 0c0.8 0 1.6-0.4 1.6-1.3 0-0.3 0-0.4-0.3-1.4-0.1-0.5-0.5-2.1-0.5-2.5-0.1 0-0.3 0-0.4 0-0.2 0-0.4 0-0.5 0 0.2 0.5 0.8 3 0.8 3.7 0 0.7-0.5 1-1.1 1-0.4 0-1.3-0.2-1.6-1.2-0.3-0.7-0.7-3.2-0.8-3.5-0.1 0-0.3 0-0.4 0-0.2 0-0.3 0-0.4 0 0.3 1 1 4.3 1.1 5.2 0.1 0 0.2 0 0.4 0 0.1 0 0.3 0 0.4 0l-0.2-0.8 0 0c0.3 0.4 1 0.9 1.8 0.9zm24.5 0c0.8 0 1.6-0.4 1.6-1.3 0-0.3 0-0.4-0.3-1.4-0.1-0.5-0.5-2.1-0.5-2.5-0.1 0-0.3 0-0.4 0-0.2 0-0.4 0-0.5 0 0.2 0.5 0.8 3 0.8 3.7 0 0.7-0.5 1-1.1 1-0.4 0-1.3-0.2-1.6-1.2-0.3-0.7-0.7-3.2-0.8-3.5-0.1 0-0.3 0-0.4 0-0.2 0-0.3 0-0.4 0 0.3 1 1 4.3 1.1 5.2 0.1 0 0.2 0 0.4 0 0.1 0 0.3 0 0.4 0l-0.2-0.8 0 0c0.3 0.4 1 0.9 1.8 0.9zm27.6 0c0.8 0 1.6-0.4 1.6-1.3 0-0.3 0-0.4-0.3-1.4-0.1-0.5-0.5-2.1-0.5-2.5-0.1 0-0.3 0-0.4 0-0.2 0-0.4 0-0.5 0 0.2 0.5 0.8 3 0.8 3.7 0 0.7-0.5 1-1.1 1-0.4 0-1.3-0.2-1.6-1.2-0.3-0.7-0.7-3.2-0.8-3.5-0.1 0-0.3 0-0.4 0-0.2 0-0.3 0-0.4 0 0.3 1 1 4.3 1.1 5.2 0.1 0 0.2 0 0.4 0 0.1 0 0.3 0 0.4 0l-0.2-0.8 0 0c0.3 0.4 1 0.9 1.8 0.9zm-5.2-0.1c0.2 0 0.3 0 0.5 0 0.2 0 0.3 0 0.5 0-0.2-0.7-1-3.9-1.1-5.2-0.2 0-0.3 0-0.5 0-0.2 0-0.3 0-0.4 0 0.5 1.5 1.1 4.7 1.2 5.2zM46.1 71.3c-1.1 0-1.5-1.2-1.5-1.8 0-0.8 0.6-1.1 1-1.1 1.1 0 1.5 1.2 1.5 1.8 0 0.6-0.4 1-1 1zm69.4 0c-1.1 0-1.5-1.2-1.5-1.8 0-0.8 0.6-1.1 1-1.1 1.1 0 1.5 1.2 1.5 1.8 0 0.6-0.4 1-1 1zm-81.1 0c-0.6 0-1.5-0.4-1.9-1.9 0.5 0 1.1 0 1.5 0 0.4 0 1.1 0 1.5 0 0 0.1 0.1 0.3 0.1 0.6 0 1-0.6 1.3-1.2 1.3zm17.4 0c-0.6 0-1.5-0.4-1.9-1.9 0.5 0 1.1 0 1.5 0 0.4 0 1.1 0 1.5 0 0 0.1 0.1 0.3 0.1 0.6 0 1-0.6 1.3-1.2 1.3zm18.2 0c-0.6 0-1.5-0.4-1.9-1.9 0.5 0 1.1 0 1.5 0 0.4 0 1.1 0 1.5 0 0 0.1 0.1 0.3 0.1 0.6 0 1-0.6 1.3-1.2 1.3zm25.7 0c-0.6 0-1.5-0.4-1.9-1.9 0.5 0 1.1 0 1.5 0 0.4 0 1.1 0 1.5 0 0 0.1 0.1 0.3 0.1 0.6 0 1-0.6 1.3-1.2 1.3zm-55.5 0c-1.6 0-2.2-1.9-2.2-3.1 0-0.9 0.4-1.6 1.4-1.6 1.7 0 2.3 2 2.3 3.1 0 0.9-0.5 1.6-1.5 1.6zm23.7-0.1c-1.7 0-2.2-2.1-2.2-2.9 0-1.1 0.5-1.6 1.4-1.6 1.7 0 2.2 2.1 2.2 3.1 0 0.4-0.1 1.5-1.4 1.5zM27.3 70.2c-0.2 0-0.4 0-0.6 0-0.3-1.4-0.5-2.5-0.7-3.3 0.3-0.1 0.5-0.1 0.7-0.1 0.4 0 0.9 0 1.4 0.2 0.7 0.3 1.3 1.1 1.3 1.9 0 0.8-0.6 1.2-1.3 1.3-0.2 0-0.5 0-0.8 0zm18.1-3.7c-0.3 0-0.8 0-1.2-0.3-0.5-0.3-0.6-0.9-0.6-1.2 0-0.8 0.7-1.1 1.4-1.1 1.3 0 2 0.9 2 1.7 0 0.8-0.9 0.9-1.5 0.9zm69.4 0c-0.3 0-0.8 0-1.2-0.3-0.5-0.3-0.6-0.9-0.6-1.2 0-0.8 0.7-1.1 1.4-1.1 1.3 0 2 0.9 2 1.7 0 0.8-0.9 0.9-1.5 0.9zM23.6 56h9.1L43.6 24h-6.3l-2 6.1H21.4l-2-6.1h-6.4zm22.7 0h10.3l8.3-16.2c0.7-1.4 1.6-3.2 2.6-5.2l1.2-2.6 1.2-2.6h0.2l-0.1 2.1-0.1 2.1 0 4.1V56H76.1V24H65.8l-9.2 17.6c-0.5 0.9-1.2 2.4-2.1 4.6l-1 2.3-1 2.3h-0.2l0.1-2.1 0.1-2.1 0-4.2V24h-6.1zm35.4 0h15.7c3.7 0 6.2-0.6 7.5-1.8 1.3-1.2 2-3.4 2-6.7 0-4-1.6-6.3-4.7-7v-0.1c3.7-0.6 5.5-3.1 5.5-7.6 0-3.3-0.7-5.6-2.1-6.9-1.4-1.3-3.9-2-7.4-2h-16.6zm30.5 0h6.1V24h-6.1zM28.3 51.3 22.8 34.6H33.8ZM87.8 50.9v-8.3h7.4c2.4 0 3.9 0.3 4.6 0.8 0.7 0.5 1 1.8 1 3.7 0 2.6-1.5 3.8-4.4 3.8zm0-12.8v-9h6.7l2.1 0c2.1 0 3.4 0.3 4 0.9 0.6 0.6 1 1.8 1 3.7 0 1.9-0.3 3.2-1 3.7-0.7 0.5-2.4 0.8-5 0.8zM12.2 14.3H119.5c1.1 0 2-0.9 2-2v-0.4c0-1.1-0.9-2-2-2H12.2c-1.1 0-2 0.9-2 2v0.4c0 1.1 0.9 2 2 2z"/></g></svg>