<?xml version="1.0" encoding="UTF-8" standalone="no"?>
<svg
   xmlns:dc="http://purl.org/dc/elements/1.1/"
   xmlns:cc="http://creativecommons.org/ns#"
   xmlns:rdf="http://www.w3.org/1999/02/22-rdf-syntax-ns#"
   xmlns:svg="http://www.w3.org/2000/svg"
   xmlns="http://www.w3.org/2000/svg"
   viewBox="0 0 175 140"
   height="140"
   width="175"
   xml:space="preserve"
   id="svg2"
   version="1.1"><metadata
     id="metadata8"><rdf:RDF><cc:Work
         rdf:about=""><dc:format>image/svg+xml</dc:format><dc:type
           rdf:resource="http://purl.org/dc/dcmitype/StillImage" /><dc:title></dc:title></cc:Work></rdf:RDF></metadata><defs
     id="defs6"><clipPath
       id="clipPath18"
       clipPathUnits="userSpaceOnUse"><path
         id="path16"
         d="M 0,841.89 H 595.276 V 0 H 0 Z" /></clipPath></defs><g
     transform="matrix(1.3333333,0,0,-1.3333333,0,139.99998)"
     id="g10"><path
       id="path22"
       d="M 3.817383,104.33495 C 1.716383,104.33495 0,102.53732 0,100.34032 V 3.994613 C 0,1.797608 1.716383,-1.5e-5 3.817383,-1.5e-5 H 127.43995 c 2.101,0 3.81738,1.797623 3.81738,3.994628 v 96.345707 c 0,2.197 -1.71638,3.99463 -3.81738,3.99463 z M 58.122072,86.636703 c 0.122,-0.021 0.234805,-0.04248 0.424805,-0.04248 0.168,0 0.357625,0.02148 0.515625,0.04248 -0.168,-0.576 -1.498039,-6.268953 -1.790039,-8.126953 -0.110001,0.021 -0.255496,0.04248 -0.458497,0.04248 -0.189,0 -0.323777,-0.02148 -0.446777,-0.04248 0.726,2.619 1.519883,6.540954 1.754883,8.126953 z m -4.64209,-0.563965 h 0.212403 c 0.222999,-1.13 1.352808,-6.497988 1.653808,-7.562988 -0.145,0.021 -0.31216,0.04248 -0.51416,0.04248 -0.201,0 -0.356441,-0.02148 -0.502442,-0.04248 -0.077,0.782 -0.380906,2.380082 -0.503906,2.934082 -0.223,0.011 -0.861815,0.03223 -1.486817,0.03223 -0.490999,0 -0.984097,-0.02123 -1.475097,-0.03223 -0.404,-0.587 -1.396883,-2.227082 -1.754883,-2.934082 -0.101,0.021 -0.201886,0.04248 -0.358887,0.04248 -0.123999,0 -0.256804,-0.02148 -0.424804,-0.04248 1.298,1.837 2.559523,3.694477 3.811523,5.563476 0.560001,0.837001 0.950262,1.380513 1.343262,1.999512 z m 48.622558,-0.02198 h 0.13624 c 0.648,-1.129999 3.72348,-5.47768 4.27148,-6.096679 0.189,0.684 0.93836,4.183535 1.15136,5.998535 0.10001,-0.021 0.25712,-0.04248 0.39112,-0.04248 0.144,0 0.22345,0.02148 0.33545,0.04248 -0.414,-1.391 -1.56597,-6.552989 -1.68897,-7.562988 h -0.15673 c -0.347,0.596999 -3.81149,5.487734 -4.27149,6.052734 -0.324,-1.283 -1.09534,-4.934082 -1.17334,-5.934082 -0.111,0.021 -0.23485,0.04394 -0.38086,0.04394 -0.123,0 -0.27965,-0.02294 -0.38964,-0.04394 0.51399,1.489 1.60839,6.575481 1.77538,7.54248 z m 15.23585,-1.032714 c -0.14501,-0.500001 -0.25715,-1 -0.36914,-1.500001 0.348,0 0.77208,0.03394 1.16308,0.04394 -0.044,-0.151 -0.0659,-0.292313 -0.0659,-0.445313 -0.391,0.011 -0.85199,0.04394 -1.18799,0.04394 l -0.43506,-2.043458 c -0.099,-0.466999 -0.25489,-1.173972 -0.25488,-1.521972 -1e-5,-0.576 0.46502,-0.79248 0.79101,-0.79248 0.257,0 0.51575,0.0868 0.73975,0.216796 l -0.022,-0.28125 c -0.303,-0.228 -0.77111,-0.338379 -1.14111,-0.338379 -0.57999,0 -1.19677,0.347996 -1.19677,1.020997 0,0.283 0.0797,0.609261 0.15673,0.968261 0.32301,1.489 0.37905,1.651484 0.60205,2.771485 -0.21299,0 -0.49081,-0.01097 -0.73681,-0.02197 0.044,0.12 0.0659,0.20734 0.0659,0.42334 0.237,-0.01 0.52832,-0.04394 0.71631,-0.04394 l 0.20215,1.152833 z M 53.087404,84.747052 51.143556,81.867169 c 0.424001,-0.021 0.859387,-0.03369 1.296387,-0.03369 0.425,0 0.861387,0.01269 1.296387,0.03369 l -0.612304,2.879886 z m 8.850586,-0.988769 c 0.368,0 0.523145,-0.04437 0.848145,-0.130372 0.201,-0.055 0.336289,-0.0542 0.571289,-0.0542 0.268,0 0.816422,0.03295 1.107422,0.04394 0,-0.065 -0.0249,-0.141516 -0.0249,-0.228516 0,-0.087 0.0249,-0.163515 0.0249,-0.228515 -0.537,0.032 -0.795476,0.04274 -1.063477,0.05273 0.122001,-0.152001 0.313477,-0.400626 0.313477,-0.890625 0,-0.608001 -0.324195,-1.368996 -1.075195,-1.770996 -0.524001,-0.283 -1.15079,-0.303223 -1.50879,-0.303223 -0.245,0 -0.479461,0.01051 -0.64746,0.0205 -0.123001,-0.076 -0.458497,-0.260657 -0.458497,-0.597656 0,-0.435 0.469172,-0.445313 0.826172,-0.445313 1.265,-0.01 1.666078,-0.01003 2.080078,-0.249023 0.414,-0.239 0.492188,-0.674289 0.492188,-0.946289 0,-0.837 -0.737277,-2.358399 -2.884278,-2.358399 -0.526,0 -1.040179,0.08786 -1.409179,0.380859 -0.290001,0.228 -0.514161,0.60825 -0.514161,1.03125 0,0.512001 0.313281,0.989977 0.738282,1.250977 0.245,0.153 0.458543,0.226996 0.581543,0.270996 l 0.01025,0.07617 c -0.168,0.044 -0.615234,0.173883 -0.615234,0.629883 0,0.674 0.626867,0.946632 0.963867,1.098633 v 0.07617 c -0.179,0.076 -0.805664,0.337286 -0.805664,1.217285 0,1.022001 0.849218,2.053712 2.449219,2.053712 z m 5.658691,-0.01172 c 1.062001,0 2.002442,-0.466251 2.002442,-1.78125 0,-0.403001 -0.07851,-0.695372 -0.124511,-0.880371 -0.826001,0.043 -1.140192,0.0542 -2.471192,0.0542 -0.424,0 -1.00705,-0.01097 -1.352051,-0.02197 -0.023,-0.141 -0.05567,-0.347882 -0.05567,-0.629883 0,-1.414 0.993582,-1.686034 1.621582,-1.686034 0.861,0 1.407527,0.392148 1.665527,0.577148 h 0.03369 L 68.770019,78.88914 c -0.548,-0.314 -1.184801,-0.479004 -1.820801,-0.479004 -0.963,0 -2.226563,0.513211 -2.226563,2.241211 0,1.705001 1.164024,3.095215 2.874023,3.095215 z m 14.909185,0 c 1.06299,0 2.00244,-0.466251 2.00244,-1.78125 0,-0.403001 -0.0785,-0.695372 -0.12452,-0.880371 -0.826,0.043 -1.14019,0.0542 -2.47119,0.0542 -0.423,0 -1.00358,-0.01097 -1.35058,-0.02197 -0.024,-0.141 -0.0572,-0.347882 -0.0572,-0.629883 0,-1.414 0.99558,-1.686034 1.62158,-1.686034 0.862,0 1.40853,0.392148 1.66552,0.577148 h 0.0352 l -0.14649,-0.489258 c -0.54899,-0.314 -1.1858,-0.479004 -1.8208,-0.479004 -0.964,0 -2.226561,0.513211 -2.226561,2.241211 0,1.705001 1.162561,3.095215 2.872561,3.095215 z m 5.59277,0 c 1.063,0 2.00244,-0.466251 2.00244,-1.78125 0,-0.403001 -0.0805,-0.695372 -0.12451,-0.880371 -0.826,0.043 -1.13973,0.0542 -2.46973,0.0542 -0.425,0 -1.00505,-0.01097 -1.35205,-0.02197 -0.024,-0.141 -0.0572,-0.347882 -0.0572,-0.629883 0,-1.414 0.99558,-1.686034 1.62158,-1.686034 0.861,0 1.40853,0.392148 1.66553,0.577148 h 0.0352 l -0.14648,-0.489258 c -0.54701,-0.314 -1.18627,-0.479004 -1.82227,-0.479004 -0.963,0 -2.22656,0.513211 -2.22656,2.241211 0,1.705001 1.16402,3.095215 2.87402,3.095215 z m -14.282228,-0.03223 c 1.073001,0 1.273492,-0.673222 1.375492,-1.053223 0.345998,0.424 0.927098,1.053223 1.954095,1.053223 0.974003,0 1.454595,-0.608367 1.454595,-1.151367 0,-0.228 -0.07699,-0.596743 -0.166995,-1.010743 l -0.42627,-1.979004 c -0.132997,-0.618999 -0.156712,-0.890476 -0.17871,-1.063476 -0.123,0.021 -0.269055,0.04248 -0.43506,0.04248 -0.168997,0 -0.33693,-0.02148 -0.481935,-0.04248 0.190005,0.532 0.873053,3.161817 0.873053,3.736817 0,0.609 -0.42507,0.956542 -1.018065,0.956542 -0.571013,0 -1.32915,-0.347793 -1.598145,-1.237792 -0.179007,-0.588 -0.582847,-2.619567 -0.714847,-3.455567 -0.123,0.021 -0.290805,0.04248 -0.424805,0.04248 -0.168,0 -0.336933,-0.02148 -0.481934,-0.04248 0.247001,0.749 0.851075,3.161707 0.851075,3.824707 0,0.641 -0.548094,0.868652 -0.996094,0.868652 -0.247,0 -1.207145,-0.07577 -1.598144,-1.259765 -0.179001,-0.544 -0.615802,-2.771594 -0.695802,-3.433594 -0.122,0.021 -0.277777,0.04248 -0.446777,0.04248 -0.156,0 -0.324777,-0.02148 -0.446777,-0.04248 0.369999,1.249 0.96314,3.944391 1.11914,5.150391 0.089,-0.022 0.257114,-0.04394 0.391114,-0.04394 0.156,-10e-7 0.314031,0.02194 0.457031,0.04394 l -0.222656,-0.815918 h 0.02197 c 0.256999,0.261 0.828449,0.870117 1.835449,0.870117 z m 20.581058,0 c 0.792,0 1.56592,-0.434711 1.56592,-1.303711 0,-0.283 -0.0248,-0.391164 -0.25782,-1.368164 -0.124,-0.512 -0.4599,-2.07718 -0.50391,-2.534179 -0.12199,0.021 -0.2668,0.04394 -0.4248,0.04394 -0.166,0 -0.35819,-0.02294 -0.49218,-0.04394 0.16899,0.489 0.83788,2.979027 0.83788,3.728027 0,0.652999 -0.54695,0.968261 -1.10595,0.968261 -0.36901,0 -1.28458,-0.174085 -1.62158,-1.163086 -0.257,-0.749 -0.71498,-3.185202 -0.77198,-3.533202 -0.11199,0.021 -0.25655,0.04394 -0.41455,0.04394 -0.155,0 -0.32278,-0.02294 -0.44678,-0.04394 0.303,0.999999 0.9834,4.271855 1.1294,5.151855 0.112,-0.022 0.24683,-0.04248 0.40283,-0.04248 0.134,0 0.29227,0.02048 0.42627,0.04248 l -0.2124,-0.804199 0.0454,-0.0205 c 0.311,0.379 0.99423,0.878906 1.84424,0.878906 z m 15.492194,-0.0542 c 0.13399,-0.022 0.30172,-0.04248 0.49072,-0.04248 0.181,0 0.33594,0.02048 0.48193,0.04248 -0.30199,-1.087 -0.87304,-3.10759 -0.87304,-3.70459 0,-0.674 0.40245,-1.042969 1.08545,-1.042969 0.85999,0 1.44199,0.596766 1.66699,1.259766 0.278,0.815 0.70281,3.291793 0.73681,3.487793 0.158,-0.022 0.30278,-0.04248 0.44678,-0.04248 0.169,0 0.32396,0.02048 0.45996,0.04248 -0.225,-0.718 -0.98586,-3.836856 -1.13085,-5.151855 -0.135,0.021 -0.25684,0.04394 -0.40284,0.04394 -0.166,0 -0.31306,-0.02294 -0.43506,-0.04394 l 0.20215,0.739746 -0.0455,0.04248 c -0.358,-0.413 -0.98483,-0.900879 -1.90283,-0.900879 -0.738,0 -1.56592,0.445512 -1.56592,1.249512 0,0.272 0.14617,0.837797 0.34717,1.716797 0.09,0.381 0.33699,1.521199 0.43799,2.304199 z M 61.880861,83.443334 c -1.129,0 -1.530762,-1.163434 -1.530762,-1.794433 0,-0.825 0.556856,-1.08545 1.026856,-1.08545 1.084,0 1.486817,1.184168 1.486817,1.847168 0,0.63 -0.378911,1.032715 -0.982911,1.032715 z m 5.71582,-0.01172 c -0.602999,0 -1.530675,-0.379395 -1.867675,-1.879395 0.459,-0.032 1.062973,-0.04394 1.521973,-0.04394 0.435,0 1.072816,9.75e-4 1.486816,0.04394 0.032,0.13 0.06592,0.303937 0.06592,0.585937 0,0.967001 -0.625032,1.293458 -1.207032,1.293458 z m 14.909185,0 c -0.60201,0 -1.53021,-0.379395 -1.86621,-1.879395 0.45799,-0.032 1.0615,-0.04394 1.5205,-0.04394 0.435,0 1.07382,9.75e-4 1.48682,0.04394 0.033,0.13 0.0659,0.303937 0.0659,0.585937 0,0.967001 -0.62503,1.293458 -1.20703,1.293458 z m 5.59277,0 c -0.603,0 -1.53121,-0.379395 -1.86621,-1.879395 0.458,-0.032 1.06051,-0.04394 1.5205,-0.04394 0.43401,0 1.07282,9.75e-4 1.48682,0.04394 0.033,0.13 0.0659,0.303937 0.0659,0.585937 0,0.967001 -0.62502,1.293458 -1.20702,1.293458 z M 61.14258,78.575654 c -0.291,0 -0.838004,-0.02346 -1.229004,-0.272461 -0.549,-0.348 -0.626953,-0.892086 -0.626953,-1.163085 0,-0.815001 0.659488,-1.141113 1.375488,-1.141113 1.341,0 2.000977,0.922824 2.000977,1.694823 0,0.848001 -0.916508,0.881836 -1.520508,0.881836 z m 5.15625,-4.086914 c 0.123,-0.021 0.280778,-0.04394 0.446778,-0.04394 0.168999,0 0.313523,0.02294 0.436523,0.04394 -0.649,-2.575 -0.883769,-3.769988 -1.363769,-6.062988 -0.113001,-0.533 -0.26886,-1.33843 -0.38086,-2.06543 -0.1,0.021 -0.18986,0.04248 -0.380859,0.04248 -0.189,0 -0.302805,-0.02148 -0.424805,-0.04248 l 0.246093,0.966797 c -0.367999,-0.456 -0.895257,-1.108887 -1.989257,-1.108887 -1.354001,0 -2.012696,0.999629 -2.012696,2.119629 0,1.369 0.950969,3.249024 2.917969,3.249024 1.197,0 1.531965,-0.727196 1.688965,-1.075196 h 0.04394 c 0.267999,1.369001 0.582972,2.793051 0.771972,3.977051 z m 33.87012,0 c 0.122,-0.022 0.2348,-0.04394 0.42481,-0.04394 0.168,0 0.35762,0.02195 0.51562,0.04394 -0.169,-0.576 -1.500044,-6.271418 -1.790044,-8.128418 -0.112,0.021 -0.2565,0.04248 -0.45849,0.04248 -0.18801,0 -0.32525,-0.02148 -0.44825,-0.04248 0.728,2.619 1.52135,6.541418 1.756354,8.128418 z m 2.69531,0 c 0.123,-0.022 0.23535,-0.04394 0.42334,-0.04394 0.16901,0 0.3611,0.02195 0.5171,0.04394 -0.168,-0.576 -1.49858,-6.271418 -1.78858,-8.128418 -0.112,0.021 -0.25796,0.04248 -0.45996,0.04248 -0.19,0 -0.32478,-0.02148 -0.44678,-0.04248 0.727,2.619 1.51888,6.541418 1.75488,8.128418 z M 26.623536,73.803207 c 0.158,-0.011 0.403262,-0.04248 0.593262,-0.04248 0.425,0 0.940125,0.04248 1.453125,0.04248 0.616,0 1.041488,-0.07502 1.375488,-0.249024 0.516,-0.272 0.694336,-0.760605 0.694336,-1.120605 0,-1.086 -1.117949,-1.879992 -2.022949,-2.041992 l -0.02344,-0.07617 c 1.296,-0.119999 1.677246,-0.901308 1.677246,-1.466308 0,-0.794 -0.524871,-1.651656 -1.442871,-2.097656 -0.738,-0.359 -1.598696,-0.391113 -2.012696,-0.391113 -0.223,0 -1.206715,0.04248 -1.407715,0.04248 -0.212,0 -0.358906,-0.02148 -0.503906,-0.04248 0.57,2.096 1.308117,5.530871 1.620117,7.442871 z m 51.017579,0 c 0.135,-0.021 0.324938,-0.04248 0.481935,-0.04248 0.18,0 0.367695,0.02148 0.512693,0.04248 -0.601995,-2.228 -1.296833,-5.443872 -1.631835,-7.442871 -0.134003,0.021 -0.300188,0.04394 -0.492188,0.04394 -0.167002,0 -0.357907,-0.02294 -0.503902,-0.04394 0.570997,2.096 1.310295,5.530871 1.633297,7.442871 z m 28.154295,-0.0542 c 0.30401,0 0.53467,-0.238485 0.53467,-0.521485 0,-0.282 -0.23066,-0.521484 -0.53467,-0.521484 -0.30199,0 -0.53613,0.239484 -0.53613,0.521484 0,0.283 0.23414,0.521485 0.53613,0.521485 z m -77.302733,-0.30469 c -0.335,0 -0.684067,-0.0095 -1.018066,-0.04248 -0.381,-1.521 -0.513617,-2.085883 -0.682618,-2.879883 0.169001,-0.021 0.335008,-0.03223 0.583008,-0.03223 0.39,0 1.061453,0.03266 1.564453,0.32666 0.616,0.358001 0.893555,0.97679 0.893555,1.50879 0,0.804 -0.579332,1.119141 -1.340332,1.119141 z m 63.354499,-0.575685 c -0.14601,-0.499999 -0.25715,-0.999999 -0.36915,-1.5 0.34701,0 0.77062,0.03295 1.16163,0.04394 -0.044,-0.152 -0.0659,-0.292313 -0.0659,-0.445313 -0.391,0.012 -0.84906,0.04394 -1.18506,0.04394 l -0.43652,-2.043457 c -0.101,-0.468001 -0.25635,-1.173973 -0.25635,-1.521973 0,-0.576 0.46894,-0.79248 0.79394,-0.79248 0.25601,0 0.51382,0.0868 0.73682,0.216796 l -0.022,-0.282715 c -0.3,-0.228 -0.77065,-0.336913 -1.13965,-0.336913 -0.581,0 -1.19678,0.347461 -1.19678,1.022461 0,0.282 0.0783,0.607797 0.15528,0.966796 0.325,1.488 0.38098,1.651485 0.60498,2.771485 -0.212,0 -0.49229,-0.01097 -0.73829,-0.02197 0.043,0.119 0.0674,0.20634 0.0674,0.42334 0.235,-0.011 0.52584,-0.04394 0.71484,-0.04394 l 0.20069,1.152833 z m -4.06056,-1.227538 c 0.40301,0 0.66054,-0.06379 1.01954,-0.216797 -0.226,-0.489 -0.25951,-0.641227 -0.2915,-0.782227 h -0.10254 c -0.11001,0.402 -0.49153,0.640137 -0.91553,0.640137 -0.649,0 -1.06348,-0.53125 -1.06348,-1.03125 0,-0.532 0.45794,-0.741008 0.96094,-0.958008 0.471,-0.206 1.00781,-0.444367 1.00781,-1.151367 0,-1 -1.0082,-1.901367 -2.3042,-1.901367 -0.458,0 -0.81603,0.08694 -1.20703,0.314941 0.168,0.26 0.29242,0.565027 0.35742,0.728028 h 0.0806 c 0.166,-0.435 0.61249,-0.651856 1.10449,-0.651856 0.85,0 1.21875,0.641605 1.21875,1.120606 0,0.477 -0.30156,0.618159 -0.89355,0.88916 -0.481,0.217999 -1.01807,0.468976 -1.01807,1.250976 0,0.739 0.54938,1.749024 2.04638,1.749024 z m -47.528314,-0.03223 c 1.768,0 2.381836,-1.021629 2.381836,-2.119629 0,-1.598 -1.241062,-3.238769 -3.164062,-3.238769 -1.845,0 -2.336426,1.251547 -2.336426,2.185547 0,1.554 1.184652,3.172851 3.118652,3.172851 z m 5.919434,-0.0015 c 0.368,0 0.524609,-0.04191 0.849609,-0.128906 0.199001,-0.054 0.334825,-0.0542 0.569825,-0.0542 0.269,0 0.815421,0.03295 1.107421,0.04394 0,-0.066 -0.02344,-0.140515 -0.02344,-0.228516 0,-0.087 0.02344,-0.163515 0.02344,-0.228515 -0.537,0.032 -0.795476,0.0442 -1.063476,0.0542 0.122,-0.151999 0.313476,-0.401624 0.313476,-0.890625 0,-0.607999 -0.323265,-1.368996 -1.072265,-1.770996 -0.526,-0.282999 -1.153254,-0.304687 -1.510254,-0.304687 -0.246,0 -0.48139,0.0095 -0.650391,0.0205 -0.122,-0.076 -0.457032,-0.260657 -0.457031,-0.597656 0,-0.435 0.468172,-0.445313 0.826172,-0.445313 1.265,-0.011 1.668077,-0.01002 2.080078,-0.249023 0.414,-0.239 0.493653,-0.673824 0.493653,-0.944825 0,-0.837 -0.739743,-2.359863 -2.885743,-2.359863 -0.526,0 -1.04018,0.08686 -1.40918,0.380859 -0.29,0.228 -0.515625,0.609715 -0.515625,1.032716 0,0.510999 0.314747,0.988511 0.739746,1.249511 0.246,0.152 0.460008,0.228461 0.583008,0.272461 l 0.0088,0.07617 c -0.168,0.043 -0.61377,0.173883 -0.61377,0.629883 0,0.674 0.625403,0.945168 0.962403,1.097168 v 0.07617 c -0.179,0.076 -0.807129,0.337285 -0.807129,1.217285 0,1.021 0.850683,2.052246 2.450684,2.052246 z m 69.417484,0 c 0.36801,0 0.52415,-0.04191 0.84815,-0.128906 0.201,-0.054 0.33482,-0.0542 0.56982,-0.0542 0.268,0 0.81796,0.03295 1.10596,0.04394 0,-0.066 -0.0205,-0.140515 -0.0205,-0.228516 0,-0.087 0.0205,-0.163515 0.0205,-0.228515 -0.537,0.032 -0.79255,0.0442 -1.06055,0.0542 0.123,-0.151999 0.31202,-0.401624 0.31202,-0.890625 0,-0.607999 -0.32327,-1.368996 -1.07227,-1.770996 -0.525,-0.282999 -1.15079,-0.304687 -1.50879,-0.304687 -0.247,0 -0.48293,0.0095 -0.64892,0.0205 -0.12401,-0.076 -0.45997,-0.260657 -0.45997,-0.597656 0,-0.435 0.47011,-0.445313 0.8291,-0.445313 1.263,-0.011 1.66462,-0.01002 2.07862,-0.249023 0.414,-0.239 0.49219,-0.673824 0.49219,-0.944825 0,-0.837 -0.73728,-2.359863 -2.88429,-2.359863 -0.52699,0 -1.03964,0.08686 -1.41063,0.380859 -0.291,0.228 -0.5127,0.609715 -0.5127,1.032716 0,0.510999 0.31228,0.988511 0.73828,1.249511 0.246,0.152 0.45707,0.228461 0.58007,0.272461 l 0.0117,0.07617 c -0.168,0.043 -0.61523,0.173883 -0.61523,0.629883 0,0.674 0.62594,0.945168 0.96094,1.097168 v 0.07617 c -0.179,0.076 -0.8042,0.337285 -0.8042,1.217285 0,1.021 0.85068,2.052246 2.45068,2.052246 z m -81.164067,-0.01025 c 1.063001,0 2.002442,-0.46725 2.002442,-1.78125 0,-0.403 -0.07851,-0.695372 -0.124511,-0.880371 -0.826001,0.044 -1.140192,0.0542 -2.471192,0.0542 -0.424001,0 -1.006051,-0.01097 -1.352051,-0.02197 -0.023,-0.142001 -0.05567,-0.347883 -0.05567,-0.629883 0,-1.413 0.994116,-1.68457 1.620117,-1.68457 0.861,0 1.409992,0.390683 1.666992,0.575683 h 0.03369 l -0.145014,-0.489261 c -0.549,-0.315 -1.185731,-0.479004 -1.823731,-0.479004 -0.961,0 -2.223633,0.512747 -2.223633,2.239747 0,1.706 1.162558,3.09668 2.872558,3.09668 z m 17.40381,0 c 1.063,0 2.003906,-0.46725 2.003906,-1.78125 0,-0.403 -0.07905,-0.695372 -0.123047,-0.880371 -0.828,0.044 -1.142192,0.0542 -2.471192,0.0542 -0.426,0 -1.005515,-0.01097 -1.353515,-0.02197 -0.023,-0.142001 -0.05713,-0.347883 -0.05713,-0.629883 0,-1.413 0.997047,-1.68457 1.623046,-1.68457 0.861,0 1.408992,0.390683 1.666993,0.575683 h 0.03223 l -0.14502,-0.489258 c -0.55,-0.315 -1.185265,-0.479004 -1.822266,-0.479004 -0.963,0 -2.225098,0.512747 -2.225098,2.239747 0,1.706 1.161094,3.09668 2.871095,3.09668 z m 18.234375,0 c 1.063,0 1.999512,-0.46725 1.999512,-1.78125 0,-0.403 -0.07558,-0.695372 -0.121582,-0.880371 -0.828,0.044 -1.140192,0.0542 -2.471192,0.0542 -0.423999,0 -1.00605,-0.01097 -1.35205,-0.02197 -0.023,-0.142001 -0.05567,-0.347883 -0.05567,-0.629883 0,-1.413 0.994117,-1.68457 1.620117,-1.68457 0.861,0 1.407527,0.390683 1.665527,0.575683 h 0.03369 l -0.145019,-0.489258 c -0.547,-0.315 -1.184266,-0.479004 -1.822266,-0.479004 -0.961,0 -2.225098,0.512747 -2.225098,2.239747 0,1.706 1.164024,3.09668 2.874024,3.09668 z m 25.693358,0 c 1.063,0 1.99952,-0.46725 1.99952,-1.78125 0,-0.403 -0.0776,-0.695372 -0.12159,-0.880371 -0.828,0.044 -1.14119,0.0542 -2.47119,0.0542 -0.427,0 -1.00598,-0.01097 -1.35498,-0.02197 -0.02,-0.142001 -0.0556,-0.347883 -0.0556,-0.629883 0,-1.413 0.99605,-1.68457 1.62305,-1.68457 0.861,0 1.40752,0.390683 1.66552,0.575683 h 0.0337 l -0.14502,-0.489258 c -0.548,-0.315 -1.18626,-0.479004 -1.82226,-0.479004 -0.962,0 -2.22656,0.512747 -2.22656,2.239747 0,1.706 1.16348,3.09668 2.87548,3.09668 z m -37.628905,-0.03223 c 0.794,0 1.564453,-0.43471 1.564453,-1.30371 0,-0.283 -0.02189,-0.391629 -0.254883,-1.369629 -0.125,-0.511 -0.459906,-2.07625 -0.503906,-2.53125 -0.125,0.021 -0.266805,0.04248 -0.424804,0.04248 -0.166002,0 -0.359188,-0.02148 -0.492188,-0.04248 0.166,0.489 0.83789,2.976562 0.83789,3.726562 0,0.652 -0.547956,0.968262 -1.105956,0.968262 -0.370001,0 -1.288047,-0.174086 -1.623048,-1.163086 -0.257,-0.75 -0.714507,-3.183738 -0.770508,-3.531738 -0.112999,0.021 -0.25855,0.04248 -0.41455,0.04248 -0.156,0 -0.324777,-0.02148 -0.446777,-0.04248 0.302,0.999 0.983394,4.27039 1.129394,5.15039 0.112,-0.022 0.246297,-0.04248 0.404297,-0.04248 0.132,0 0.28934,0.02048 0.42334,0.04248 l -0.210938,-0.804199 0.04248,-0.02198 c 0.314,0.38 0.995703,0.880371 1.845703,0.880371 z m 24.451175,0 c 0.795,0 1.56592,-0.43471 1.56592,-1.30371 0,-0.283 -0.0228,-0.391629 -0.25782,-1.369629 -0.123,-0.511 -0.4579,-2.07625 -0.50391,-2.53125 -0.12199,0.021 -0.26733,0.04248 -0.42333,0.04248 -0.169,0 -0.35865,-0.02148 -0.49365,-0.04248 0.168,0.489 0.83935,2.976562 0.83935,3.726562 0,0.652 -0.54842,0.968262 -1.10742,0.968262 -0.36801,0 -1.28512,-0.174086 -1.62012,-1.163086 -0.258,-0.75 -0.71597,-3.183738 -0.771973,-3.531738 -0.111998,0.021 -0.258548,0.04248 -0.414548,0.04248 -0.156,0 -0.323782,-0.02148 -0.446782,-0.04248 0.302002,0.999 0.983403,4.27039 1.129393,5.15039 0.11201,-0.022 0.24584,-0.04248 0.40283,-0.04248 0.13401,0 0.28981,0.02048 0.42481,0.04248 l -0.21094,-0.804199 0.0439,-0.02198 c 0.31301,0.38 0.99525,0.880371 1.84425,0.880371 z m 27.561034,0 c 0.794,0 1.56446,-0.43471 1.56446,-1.30371 0,-0.283 -0.0214,-0.391629 -0.25635,-1.369629 -0.12401,-0.511 -0.45891,-2.07625 -0.50391,-2.53125 -0.12399,0.021 -0.26733,0.04248 -0.42333,0.04248 -0.16901,0 -0.35866,-0.02148 -0.49366,-0.04248 0.169,0.489 0.83935,2.976562 0.83935,3.726562 0,0.652 -0.54841,0.968262 -1.10742,0.968262 -0.36799,0 -1.28611,-0.174086 -1.62011,-1.163086 -0.25901,-0.75 -0.71498,-3.183738 -0.77198,-3.531738 -0.11199,0.021 -0.25855,0.04248 -0.41455,0.04248 -0.156,0 -0.32378,-0.02148 -0.44678,-0.04248 0.303,0.999 0.9834,4.27039 1.1294,5.15039 0.112,-0.022 0.24483,-0.04248 0.40283,-0.04248 0.133,0 0.28981,0.02048 0.42481,0.04248 l -0.21094,-0.804199 0.0425,-0.02198 c 0.313,0.38 0.9957,0.880371 1.8457,0.880371 z m -5.20019,-0.0542 c 0.16599,-0.022 0.31321,-0.04394 0.47021,-0.04394 0.167,0 0.32303,0.02195 0.45703,0.04394 -0.213,-0.716999 -0.98339,-3.85839 -1.12939,-5.15039 -0.169,0.021 -0.3467,0.04248 -0.51269,0.04248 -0.17901,0 -0.32453,-0.02148 -0.43653,-0.04248 0.49,1.542 1.09536,4.73839 1.15137,5.15039 z M 46.120607,71.293929 c -1.129,0 -1.530762,-1.163433 -1.530762,-1.794433 0,-0.825 0.556856,-1.08545 1.026856,-1.08545 1.086,0 1.486816,1.184169 1.486816,1.847169 0,0.63 -0.37991,1.032714 -0.98291,1.032714 z m 69.417493,0 c -1.13001,0 -1.53369,-1.163433 -1.53369,-1.794433 0,-0.825 0.56025,-1.08545 1.03125,-1.08545 1.08399,0 1.48681,1.184169 1.48681,1.847169 0,0.63 -0.38137,1.032714 -0.98437,1.032714 z m -81.106947,-0.01172 c -0.603,0 -1.530676,-0.379394 -1.867675,-1.879394 0.459,-0.032 1.062507,-0.04394 1.520508,-0.04394 0.436999,0 1.075746,9.75e-4 1.489746,0.04394 0.033,0.130999 0.06592,0.303937 0.06592,0.585937 0,0.968 -0.626496,1.293457 -1.208496,1.293457 z m 17.40381,0 c -0.603001,0 -1.529747,-0.379394 -1.864747,-1.879394 0.458,-0.032 1.060508,-0.04394 1.520508,-0.04394 0.435,0 1.072817,9.75e-4 1.486817,0.04394 0.034,0.130999 0.06738,0.303937 0.06738,0.585937 0,0.968 -0.627962,1.293457 -1.209961,1.293457 z m 18.234375,0 c -0.604001,0 -1.530676,-0.379394 -1.867676,-1.879394 0.459,-0.032 1.062508,-0.04394 1.520508,-0.04394 0.436,0 1.072352,9.75e-4 1.485352,0.04394 0.034,0.130999 0.06738,0.303937 0.06738,0.585937 0,0.968 -0.625566,1.293457 -1.205566,1.293457 z m 25.693358,0 c -0.605,0 -1.53268,-0.379394 -1.86767,-1.879394 0.457,-0.032 1.06204,-0.04394 1.51904,-0.04394 0.437,0 1.07381,9.75e-4 1.48682,0.04394 0.034,0.130999 0.0673,0.303937 0.0673,0.585937 0,0.968 -0.62657,1.293457 -1.20557,1.293457 z m -55.49414,-0.02197 c -1.62,0 -2.245605,-1.878961 -2.245605,-3.084961 0,-0.913 0.414898,-1.576172 1.420898,-1.576172 1.688,0 2.314453,2.008961 2.314453,3.084961 0,0.903 -0.526746,1.576172 -1.489746,1.576172 z m 23.658692,-0.06446 c -1.743,0 -2.15625,-2.086829 -2.15625,-2.923829 0,-1.053999 0.493051,-1.630371 1.352051,-1.630371 1.688,0 2.167969,2.130171 2.167969,3.076173 0,0.434999 -0.14477,1.478027 -1.36377,1.478027 z M 27.329591,70.152808 c -0.202,0 -0.437953,-7.19e-4 -0.626953,-0.01172 -0.301,-1.391001 -0.525899,-2.497704 -0.670898,-3.345704 0.279999,-0.055 0.548308,-0.05566 0.716308,-0.05566 0.369,0 0.949152,0.03352 1.431152,0.228516 0.693,0.283 1.262696,1.075141 1.262696,1.86914 0,0.772001 -0.602798,1.173485 -1.341797,1.271485 -0.234,0.033 -0.512508,0.04394 -0.770508,0.04394 z m 18.0542,-3.728028 c -0.292,10e-7 -0.839469,-0.02099 -1.230469,-0.270996 -0.548,-0.347 -0.626953,-0.891086 -0.626954,-1.163086 0,-0.815 0.659489,-1.141113 1.375489,-1.141113 1.341,0 2.000977,0.922824 2.000977,1.694824 0,0.847001 -0.915044,0.880371 -1.519043,0.880371 z m 69.416019,0 c -0.28999,10e-7 -0.83847,-0.02099 -1.23046,-0.270996 -0.54701,-0.347 -0.62696,-0.891086 -0.62696,-1.163086 0,-0.815 0.66095,-1.141113 1.37696,-1.141113 1.341,0 2.00097,0.922824 2.00097,1.694824 0,0.847001 -0.91751,0.880371 -1.52051,0.880371 z M 23.619142,56.04637 h 9.128906 L 43.564455,24.020491 h -6.313477 l -2.041992,6.146484 H 21.391114 l -1.995117,-6.146484 h -6.427735 z m 22.713867,0 h 10.300782 l 8.327637,-16.236328 c 0.735,-1.44 1.589082,-3.183422 2.559082,-5.232422 l 1.21875,-2.604492 1.220215,-2.627931 h 0.212402 l -0.07031,2.065431 -0.07178,2.063965 -0.04541,4.130859 V 56.04637 H 76.06055 V 24.020491 H 65.759768 l -9.150879,17.572266 c -0.454,0.875999 -1.164278,2.409609 -2.134278,4.599609 l -1.032714,2.29834 -1.007813,2.299805 h -0.235841 l 0.09229,-2.112305 0.07178,-2.087402 0.04687,-4.199707 V 24.020491 h -6.07617 z m 35.359857,0 h 15.74122 c 3.691004,0 6.206414,-0.589996 7.545414,-1.770996 1.336,-1.181 2.00683,-3.406293 2.00683,-6.675293 0,-3.958 -1.57426,-6.287699 -4.71826,-6.991699 v -0.118653 c 3.661,-0.562999 5.49024,-3.104512 5.49024,-7.624511 0,-3.269001 -0.70331,-5.561977 -2.11231,-6.875977 -1.407,-1.314 -3.86223,-1.96875 -7.365234,-1.96875 h -16.5879 z m 30.477554,-0.0015 h 6.07617 V 24.018991 h -6.07617 z M 28.265626,51.329538 22.822267,34.647897 H 33.8042 Z M 87.769046,50.9311 v -8.329101 h 7.43701 c 2.41,0 3.94486,0.266339 4.60987,0.79834 0.664994,0.532 0.999024,1.759082 0.999024,3.684082 0,2.565 -1.456244,3.846679 -4.365234,3.846679 z m 0,-12.811523 v -8.985352 h 6.66357 l 2.13428,0.04687 c 2.05,0 3.39883,0.288652 4.048834,0.868652 0.647,0.578001 0.97119,1.798645 0.97119,3.660645 0,1.939 -0.33999,3.15818 -1.02099,3.65918 -0.680014,0.5 -2.356744,0.75 -5.031754,0.75 z M 12.178712,14.311508 H 119.45069 c 1.121,0 2.03614,-0.915668 2.03614,-2.034668 v -0.379395 c 0,-1.120005 -0.91514,-2.036137 -2.03614,-2.036137 H 12.178712 c -1.119001,0 -2.036133,0.916132 -2.036133,2.036137 v 0.379395 c 0,1.119 0.917132,2.034668 2.036133,2.034668 z"
       style="fill:#ffffff;fill-opacity:1;fill-rule:nonzero;stroke:none;stroke-width:0.99999994" /></g></svg>