<?xml version="1.0" encoding="UTF-8" standalone="no"?>
<svg
   xmlns:dc="http://purl.org/dc/elements/1.1/"
   xmlns:cc="http://creativecommons.org/ns#"
   xmlns:rdf="http://www.w3.org/1999/02/22-rdf-syntax-ns#"
   xmlns:svg="http://www.w3.org/2000/svg"
   xmlns="http://www.w3.org/2000/svg"
   height="225.47"
   width="190"
   xml:space="preserve"
   viewBox="0 0 190 225.47"
   y="0px"
   x="0px"
   id="Laag_1"
   version="1.1"><metadata
   id="metadata23"><rdf:RDF><cc:Work
       rdf:about=""><dc:format>image/svg+xml</dc:format><dc:type
         rdf:resource="http://purl.org/dc/dcmitype/StillImage" /><dc:title></dc:title></cc:Work></rdf:RDF></metadata><defs
   id="defs21" />
<style
   id="style2"
   type="text/css">
	.st0{fill:#D22630;}
</style>
<g
   style="stroke-width:0.57935047"
   transform="matrix(1.7260709,0,0,1.7260709,-102.95723,-82.194592)"
   id="g14">
	<path
   style="fill:#d22630;stroke-width:0.33564699"
   id="path4"
   d="m 94.87,107.88 c -1.08,0.54 -3.38,1.2 -5.93,1.2 -7.35,0 -8.57,-6.03 -5.18,-14 4.04,-9.5 11.44,-14.75 17.87,-14.75 2.49,0 4.1,0.66 4.71,1.24 l -3.12,4.96 c -0.72,-0.54 -1.86,-1.03 -3.6,-1.03 -3.79,0 -8.03,3.02 -10.68,9.25 -2.37,5.58 -1.34,9.09 2.92,9.09 1.48,0 3.22,-0.37 4.42,-0.91 z"
   class="st0" />
	<path
   style="fill:#d22630;stroke-width:0.33564699"
   id="path6"
   d="m 159.29,54.97 c -4.42,4.51 -10.35,7.49 -15.08,11.69 -15.73,-13.8 -40.3,-0.71 -52.41,10.93 -9.15,8.8 -19.13,20.8 -18.1,37.32 1.39,22.22 32.34,21.33 46,9.43 2.81,4.1 4.98,8.84 7.16,13.57 -22.79,15.01 -65.27,16.22 -62.21,-22.24 1.44,-18.11 13.73,-33.72 24.51,-43.73 12.1,-11.25 27.47,-21.37 45.24,-23 10.99,-1.01 18.49,1.71 24.89,6.03"
   class="st0" />
	<path
   style="fill:#d22630;stroke-width:0.33564699"
   id="path8"
   d="m 156.06,165.44 h -3.08 v 11.84 h 6.77 v -2.61 h -3.69 z m -5.14,2.6 v -2.61 h -6.74 v 11.84 h 6.74 v -2.61 h -3.66 v -2.04 h 3.47 v -2.61 h -3.47 v -1.98 h 3.66 z m -14.87,-0.01 c 1.84,0 3.35,1.49 3.35,3.13 0,2.04 -1.51,3.54 -3.35,3.54 -1.84,0 -3.35,-1.49 -3.35,-3.54 0,-1.64 1.51,-3.13 3.35,-3.13 m 0,-2.98 c -3.41,0 -6.55,2.51 -6.55,6.09 0,3.83 2.75,6.53 6.55,6.53 3.8,0 6.55,-2.7 6.55,-6.53 0,-3.58 -3.14,-6.09 -6.55,-6.09 m -15.01,2.99 h 0.72 c 1.98,0 3.38,1.19 3.38,3.32 0,2.31 -1.57,3.31 -3.41,3.31 h -0.69 z m -3.07,9.24 h 4.37 c 3.29,0 6.02,-2.59 6.02,-5.92 0,-3.33 -2.72,-5.92 -6.02,-5.92 h -4.37 z m -13.81,-9.24 h 0.72 c 1.98,0 3.38,1.19 3.38,3.32 0,2.31 -1.57,3.31 -3.41,3.31 h -0.69 z m -3.08,9.24 h 4.37 c 3.29,0 6.02,-2.59 6.02,-5.92 0,-3.33 -2.71,-5.92 -6.02,-5.92 h -4.37 z m -2.14,-9.24 v -2.61 H 92.2 v 11.84 h 6.74 v -2.61 h -3.66 v -2.04 h 3.47 v -2.61 h -3.47 v -1.98 h 3.66 z m -14.95,-0.01 c 1.84,0 3.35,1.49 3.35,3.13 0,2.04 -1.51,3.54 -3.35,3.54 -1.84,0 -3.35,-1.49 -3.35,-3.54 0,-1.64 1.51,-3.13 3.35,-3.13 m 0,-2.98 c -3.41,0 -6.55,2.51 -6.55,6.09 0,3.83 2.75,6.53 6.55,6.53 3.8,0 6.55,-2.7 6.55,-6.53 0,-3.58 -3.14,-6.09 -6.55,-6.09 m -13.79,5.62 v 2.42 h 2.51 c -0.13,1.37 -1.15,2.06 -2.48,2.06 -2.03,0 -3.13,-1.87 -3.13,-3.71 0,-1.81 1.05,-3.74 3.08,-3.74 1.24,0 2.14,0.75 2.56,1.89 l 2.92,-1.23 c -1.02,-2.22 -2.91,-3.31 -5.34,-3.31 -3.82,0 -6.43,2.53 -6.43,6.38 0,3.72 2.59,6.25 6.31,6.25 1.98,0 3.72,-0.71 4.88,-2.32 1.05,-1.48 1.18,-2.95 1.21,-4.68 H 70.2 Z"
   class="st0" />
	<path
   style="fill:#d22630;stroke-width:0.33564699"
   id="path10"
   d="m 136.19,125.04 -0.45,0.41 c -1.22,1.11 -2.74,1.15 -3.9,-0.18 -1.26,-1.45 -0.85,-2.96 0.29,-3.99 l 0.43,-0.39 z m -3.16,-7.52 -2.7,2.45 c -2.03,1.85 -2.3,5 -0.47,7.09 1.82,2.09 4.92,2.18 6.96,0.33 l 2.7,-2.45 z m 8.96,-9.99 -1.68,1.95 4.48,4.02 -0.02,0.02 -7.57,-0.45 -1.68,1.95 7.32,6.57 1.68,-1.95 -4.48,-4.02 0.02,-0.02 7.56,0.44 1.68,-1.95 z m 8.21,1.29 1.8,1.19 3.05,-4.76 -8.17,-5.43 -3.05,4.76 1.8,1.19 1.66,-2.59 1.41,0.94 -1.57,2.45 1.8,1.19 1.57,-2.45 1.37,0.91 z m 5.91,-14.94 0.01,-0.02 3.67,1.68 1.05,-2.37 -8.9,-4.07 -1.05,2.36 3.86,1.76 -0.01,0.02 -5.22,1.29 -1.36,3.07 6.44,-1.81 2.61,5.55 1.3,-2.93 z m 5.51,-11.04 -0.05,0.25 c -0.19,0.83 -0.55,1.72 -1.58,1.48 -1.04,-0.24 -0.98,-1.2 -0.79,-2.03 l 0.06,-0.25 z m -4.29,1.65 c -0.07,1.43 0.9,2.44 2.21,2.75 2.03,0.47 3.26,-0.79 3.69,-2.71 l 0.85,-3.78 -9.53,-2.18 -0.57,2.53 3.66,0.84 v 0.03 l -4.2,1.55 -0.71,3.15 z m 5.05,-9.31 2.15,0.02 0.09,-5.67 -9.78,-0.11 -0.09,5.67 2.15,0.02 0.05,-3.08 1.69,0.02 -0.05,2.92 2.15,0.02 0.05,-2.92 1.63,0.02 z"
   class="st0" />
	<path
   style="fill:#d22630;stroke-width:0.33564699"
   id="path12"
   d="m 104.64,104.3 c 0.44,0.13 1.02,0.13 1.87,0.13 2.25,0 4.74,-1.16 6.03,-4.19 1.24,-2.91 -0.27,-4.07 -2.75,-4.07 h -1.7 z m 5.44,-12.79 h 1.63 c 2.65,0 4.62,-1.41 5.53,-3.55 0.93,-2.18 0.14,-3.34 -2.11,-3.34 -1.11,0 -1.77,0.08 -2.21,0.21 z m -0.26,-11 c 1.45,-0.34 4.19,-0.64 6.71,-0.64 3.04,0 4.74,0.39 5.81,1.63 1.08,1.07 1.32,3.04 0.2,5.69 -1.07,2.52 -3.22,4.88 -6.19,6.12 l -0.04,0.09 c 2.15,0.86 2.94,3.38 1.36,7.1 -1.13,2.65 -2.91,4.71 -4.89,6.12 -2.31,1.67 -5.39,2.61 -9.77,2.61 -2.45,0 -4.19,-0.21 -5.21,-0.43 z"
   class="st0" />
</g>
<polygon
   style="fill:#d22630;stroke-width:0.57935047"
   transform="matrix(1.7260709,0,0,1.7260709,-102.95723,-82.194592)"
   id="polygon16"
   points="135.49,97.51 127.49,97.51 122.5,109.24 117.48,109.24 129.88,80.05 143.47,80.05 141.17,85.47 132.61,85.47 129.77,92.13 137.77,92.13 "
   class="st0" />
</svg>