<?xml version="1.0" encoding="UTF-8" standalone="no"?>
<svg
   xmlns:dc="http://purl.org/dc/elements/1.1/"
   xmlns:cc="http://creativecommons.org/ns#"
   xmlns:rdf="http://www.w3.org/1999/02/22-rdf-syntax-ns#"
   xmlns:svg="http://www.w3.org/2000/svg"
   xmlns="http://www.w3.org/2000/svg"
   xmlns:sodipodi="http://sodipodi.sourceforge.net/DTD/sodipodi-0.dtd"
   xmlns:inkscape="http://www.inkscape.org/namespaces/inkscape"
   version="1.1"
   x="0px"
   y="0px"
   viewBox="0 0 100 100"
   enable-background="new 0 0 100 100"
   xml:space="preserve"
   id="svg20"
   sodipodi:docname="noun_Donate_851667.svg"
   width="100"
   height="100"
   inkscape:version="0.92.5 (2060ec1f9f, 2020-04-08)"><metadata
     id="metadata26"><rdf:RDF><cc:Work
         rdf:about=""><dc:format>image/svg+xml</dc:format><dc:type
           rdf:resource="http://purl.org/dc/dcmitype/StillImage" /><dc:title></dc:title></cc:Work></rdf:RDF></metadata><defs
     id="defs24" /><sodipodi:namedview
     pagecolor="#ffffff"
     bordercolor="#666666"
     borderopacity="1"
     objecttolerance="10"
     gridtolerance="10"
     guidetolerance="10"
     inkscape:pageopacity="0"
     inkscape:pageshadow="2"
     inkscape:window-width="1920"
     inkscape:window-height="1004"
     id="namedview22"
     showgrid="false"
     inkscape:zoom="3.776"
     inkscape:cx="47.898294"
     inkscape:cy="34.761001"
     inkscape:window-x="0"
     inkscape:window-y="197"
     inkscape:window-maximized="1"
     inkscape:current-layer="svg20" /><g
     display="none"
     id="g4"
     style="display:none"
     transform="translate(0,-25)"><rect
       x="-843.065"
       y="-377.496"
       display="inline"
       stroke-miterlimit="10"
       width="1220.125"
       height="751.55798"
       id="rect2"
       style="display:inline;fill:#000000;stroke:#000000;stroke-width:4;stroke-miterlimit:10" /></g><g
     id="g14"
     transform="translate(0.79449153,2.0127119)"><path
       d="m 73.237,55.485 c -0.213,0.127 -0.744,0.395 -1.411,0.724 -0.581,0.288 -1.655,0.819 -2.483,1.269 0.068,0.185 0.125,0.373 0.171,0.562 0.4,1.641 -0.033,3.328 -1.22,4.751 -1.407,1.685 -3.553,2.649 -5.896,2.649 -0.016,0 -0.031,0 -0.047,0 L 45.48,65.349 c 0,0.002 -0.062,0.109 -0.062,0.112 l -3.829,-0.045 c -0.004,-1.038 0.402,-2.02 1.141,-2.758 0.735,-0.734 1.711,-1.138 2.749,-1.138 0.007,0 0.013,0 0.02,0 l 16.872,0.091 c 0.008,0 0.017,0 0.024,0 1.187,0 2.291,-0.475 2.958,-1.273 0.54,-0.649 0.51,-1.105 0.44,-1.392 -0.042,-0.173 -0.119,-0.346 -0.223,-0.515 -0.146,-0.129 -0.268,-0.282 -0.368,-0.458 -0.285,-0.285 -0.648,-0.532 -1.05,-0.701 -1.233,-0.518 -2.781,-0.508 -4.279,-0.495 -0.806,0.006 -1.634,0.022 -2.476,0.038 -4.271,0.082 -9.115,0.175 -13.524,-0.975 -0.945,-0.246 -1.853,-0.509 -2.736,-0.765 -4.025,-1.167 -7.208,-2.086 -11.313,-0.671 -3.975,1.371 -7.827,4.109 -12.125,8.615 -0.032,0.034 -0.065,0.066 -0.099,0.097 l -8.724,7.912 11.798,13.725 11.855,-9.082 c 0.452,-0.346 1.035,-0.474 1.59,-0.346 0.751,0.172 1.595,0.186 2.541,0.186 l 25.337,0.004 c 1.038,0 2.111,0 2.948,-0.306 0.982,-0.358 1.919,-1.247 2.747,-2.03 10.276,-9.736 21.384,-23.02 23.209,-27.528 -1.275,0.133 -2.741,0.902 -4.176,1.76 z"
       id="path6"
       inkscape:connector-curvature="0"
       style="fill:none" /><path
       d="M 51.29,41.992 65.957,27.325 c 1.338,-1.338 2.074,-3.12 2.074,-5.019 0,-1.899 -0.737,-3.682 -2.074,-5.019 -1.338,-1.338 -3.12,-2.075 -5.019,-2.075 -1.899,0 -3.682,0.737 -5.019,2.074 l -1.921,1.921 c -0.748,0.747 -1.727,1.121 -2.707,1.121 -0.98,0 -1.96,-0.374 -2.707,-1.121 l -1.921,-1.92 c -1.341,-1.341 -3.124,-2.08 -5.02,-2.08 -1.896,0 -3.679,0.738 -5.019,2.079 -1.338,1.338 -2.074,3.12 -2.074,5.02 0,1.899 0.737,3.682 2.074,5.019 z"
       id="path8"
       inkscape:connector-curvature="0"
       style="fill:none" /><path
       d="M 93.671,42.246 C 90.2,40.876 86.66,42.99 84.76,44.127 l -13.49,8.072 c -0.176,0.105 -0.607,0.314 -1.141,0.578 -1.322,0.654 -2.391,1.183 -3.21,1.666 -0.397,-0.274 -0.827,-0.51 -1.283,-0.702 -1.958,-0.822 -4.081,-0.802 -5.791,-0.793 -0.82,0.007 -1.662,0.022 -2.519,0.039 -4.225,0.081 -8.588,0.165 -12.485,-0.851 -0.911,-0.238 -1.786,-0.491 -2.637,-0.738 -4.306,-1.247 -8.374,-2.424 -13.628,-0.612 -4.559,1.572 -8.882,4.605 -13.598,9.542 L 6.232,68.26 c -1.509,1.367 -1.651,3.647 -0.323,5.191 l 11.925,13.873 c 0.735,0.855 1.778,1.298 2.83,1.298 0.793,0 1.59,-0.252 2.263,-0.768 l 11.267,-8.631 c 0.823,0.107 1.64,0.118 2.469,0.118 L 62,79.345 c 1.307,0 2.788,0 4.261,-0.538 1.727,-0.63 3.025,-1.86 4.068,-2.848 C 75.504,71.055 81.893,64.187 86.604,58.463 95.101,48.14 95.525,45.048 94.719,43.244 94.514,42.788 94.138,42.429 93.671,42.246 Z M 67.694,73.181 c -0.827,0.784 -1.765,1.672 -2.747,2.03 -0.838,0.306 -1.911,0.306 -2.948,0.306 L 36.662,75.513 c -0.946,0 -1.79,-0.014 -2.541,-0.186 -0.555,-0.128 -1.139,0 -1.59,0.346 L 20.676,84.755 8.877,71.031 17.601,63.119 c 0.035,-0.031 0.067,-0.064 0.099,-0.097 4.297,-4.507 8.15,-7.244 12.125,-8.615 4.105,-1.415 7.288,-0.496 11.313,0.671 0.883,0.256 1.791,0.518 2.736,0.765 4.409,1.15 9.253,1.056 13.524,0.975 0.842,-0.016 1.671,-0.032 2.476,-0.038 1.498,-0.014 3.046,-0.024 4.279,0.495 0.402,0.168 0.765,0.416 1.05,0.701 0.1,0.176 0.222,0.329 0.368,0.458 0.105,0.169 0.181,0.342 0.223,0.515 0.07,0.287 0.1,0.743 -0.44,1.392 -0.667,0.798 -1.771,1.273 -2.958,1.273 -0.007,0 -0.016,0 -0.024,0 L 45.501,61.52 c -0.007,0 -0.013,0 -0.02,0 -1.039,0 -2.015,0.403 -2.749,1.138 -0.739,0.738 -1.145,1.72 -1.141,2.758 l 3.829,0.045 c 0,-0.002 0.062,-0.109 0.062,-0.112 l 16.871,0.091 c 0.016,0 0.031,0 0.047,0 2.343,0 4.489,-0.964 5.896,-2.649 1.187,-1.423 1.62,-3.111 1.22,-4.751 -0.046,-0.19 -0.103,-0.377 -0.171,-0.562 0.828,-0.45 1.901,-0.981 2.483,-1.269 0.667,-0.329 1.198,-0.597 1.411,-0.724 l 13.49,-8.072 c 1.435,-0.858 2.901,-1.627 4.176,-1.76 -1.827,4.509 -12.936,17.792 -23.211,27.528 z"
       id="path10"
       inkscape:connector-curvature="0" /><path
       d="M 33.915,30.032 51.123,47.24 51.29,47.073 51.457,47.24 68.665,30.032 c 4.261,-4.26 4.261,-11.193 0,-15.454 -2.13,-2.131 -4.928,-3.196 -7.727,-3.196 -2.798,0 -5.597,1.065 -7.727,3.195 l -1.921,1.921 -1.921,-1.92 c -2.064,-2.064 -4.808,-3.201 -7.727,-3.201 -2.919,0 -5.663,1.137 -7.727,3.201 -4.261,4.261 -4.261,11.193 0,15.454 z m 2.708,-12.747 c 1.34,-1.341 3.123,-2.079 5.019,-2.079 1.896,0 3.679,0.738 5.02,2.08 l 1.921,1.92 c 0.748,0.747 1.727,1.121 2.707,1.121 0.98,0 1.96,-0.374 2.707,-1.121 l 1.921,-1.921 c 1.337,-1.337 3.12,-2.074 5.019,-2.074 1.899,0 3.682,0.737 5.019,2.075 1.338,1.337 2.074,3.12 2.074,5.019 0,1.899 -0.737,3.682 -2.074,5.019 L 51.29,41.992 36.623,27.324 c -1.337,-1.337 -2.074,-3.12 -2.074,-5.019 0,-1.899 0.736,-3.682 2.074,-5.02 z"
       id="path12"
       inkscape:connector-curvature="0" /></g></svg>