<?xml version="1.0" encoding="UTF-8" standalone="no"?>
<!-- Created with Inkscape (http://www.inkscape.org/) -->

<svg
   xmlns:dc="http://purl.org/dc/elements/1.1/"
   xmlns:cc="http://creativecommons.org/ns#"
   xmlns:rdf="http://www.w3.org/1999/02/22-rdf-syntax-ns#"
   xmlns:svg="http://www.w3.org/2000/svg"
   xmlns="http://www.w3.org/2000/svg"
   xmlns:sodipodi="http://sodipodi.sourceforge.net/DTD/sodipodi-0.dtd"
   xmlns:inkscape="http://www.inkscape.org/namespaces/inkscape"
   width="222"
   height="50"
   viewBox="0 0 58.737498 13.229167"
   version="1.1"
   id="svg3487"
   inkscape:version="0.92.5 (2060ec1f9f, 2020-04-08)"
   sodipodi:docname="donate-calendar-2.svg">
  <defs
     id="defs3481" />
  <sodipodi:namedview
     id="base"
     pagecolor="#ffffff"
     bordercolor="#666666"
     borderopacity="1.0"
     inkscape:pageopacity="0.0"
     inkscape:pageshadow="2"
     inkscape:zoom="2.8"
     inkscape:cx="-17.940336"
     inkscape:cy="22.635926"
     inkscape:document-units="mm"
     inkscape:current-layer="layer1"
     showgrid="false"
     units="px"
     inkscape:window-width="1920"
     inkscape:window-height="964"
     inkscape:window-x="0"
     inkscape:window-y="27"
     inkscape:window-maximized="1" />
  <metadata
     id="metadata3484">
    <rdf:RDF>
      <cc:Work
         rdf:about="">
        <dc:format>image/svg+xml</dc:format>
        <dc:type
           rdf:resource="http://purl.org/dc/dcmitype/StillImage" />
        <dc:title></dc:title>
      </cc:Work>
    </rdf:RDF>
  </metadata>
  <g
     inkscape:label="Layer 1"
     inkscape:groupmode="layer"
     id="layer1"
     transform="translate(0,-283.77081)">
    <g
       transform="matrix(1.0017066,0,0,1,-111.39372,219.11363)"
       id="g3422"
       style="stroke-width:0.99914777">
      <path
         inkscape:connector-curvature="0"
         id="path492"
         style="fill:#ffffff;fill-opacity:1;fill-rule:nonzero;stroke:none;stroke-width:0.35247713"
         d="m 115.34376,71.791032 -0.0815,-0.01588 -0.0656,-0.0441 -0.043,-0.06562 -0.0159,-0.0822 0.0159,-0.08149 0.043,-0.06632 0.0656,-0.0448 0.0815,-0.01658 0.0815,0.01658 0.0663,0.0448 0.0441,0.06632 0.0159,0.08149 -0.0159,0.0822 -0.0441,0.06562 -0.0663,0.0441 -0.0815,0.01588 m -0.38876,-2.030236 -0.0649,-0.03845 -0.078,-0.12453 c 0.0342,-0.0321 0.0723,-0.06244 0.1136,-0.09137 0.0416,-0.02893 0.0871,-0.05433 0.13652,-0.07655 0.049,-0.02187 0.10231,-0.03951 0.15946,-0.05221 0.0568,-0.0127 0.11889,-0.01905 0.18521,-0.01905 0.0875,0 0.16862,0.0127 0.24341,0.0381 0.0748,0.0254 0.13935,0.06138 0.19368,0.10795 0.054,0.04657 0.0967,0.103011 0.1277,0.169686 0.0311,0.06632 0.0466,0.141111 0.0466,0.224014 0,0.08431 -0.0123,0.156986 -0.0374,0.217664 -0.0247,0.06103 -0.0564,0.114653 -0.0945,0.160514 -0.0384,0.04586 -0.0801,0.08572 -0.12559,0.119592 -0.0455,0.03387 -0.0878,0.06562 -0.127,0.0956 -0.0395,0.02999 -0.073,0.05997 -0.10124,0.08961 -0.0282,0.02999 -0.0448,0.06315 -0.049,0.09984 l -0.03,0.254 h -0.20284 l -0.0198,-0.275872 v -0.01799 c 0,-0.04657 0.0123,-0.08784 0.0374,-0.123825 0.0247,-0.03598 0.0564,-0.06985 0.0945,-0.101247 0.0381,-0.03175 0.0794,-0.06315 0.12312,-0.0949 0.0437,-0.0314 0.0847,-0.06632 0.12277,-0.104775 0.0381,-0.0381 0.0699,-0.08149 0.0949,-0.130175 0.0247,-0.04868 0.0374,-0.106539 0.0374,-0.172861 0,-0.04762 -0.01,-0.09102 -0.0282,-0.12947 -0.0191,-0.03881 -0.0445,-0.07197 -0.0766,-0.09913 -0.0321,-0.02716 -0.0702,-0.04762 -0.11394,-0.06209 -0.0438,-0.01446 -0.0903,-0.02187 -0.14041,-0.02187 -0.0674,0 -0.12524,0.0085 -0.17357,0.02505 -0.0483,0.01658 -0.0889,0.03493 -0.12206,0.05468 -0.0332,0.02011 -0.06,0.03845 -0.0804,0.05503 l -0.0508,0.02505 m -3.75109,-3.421944 v 0 6.002866 c 0,0.490714 0.39794,0.888647 0.88865,0.888647 h 6.59694 c 0.49072,0 0.88865,-0.397933 0.88865,-0.888647 V 67.37249 h -8.37424 z" />
      <path
         inkscape:connector-curvature="0"
         id="path496"
         style="fill:#e7665c;fill-opacity:1;fill-rule:nonzero;stroke:none;stroke-width:0.35247713"
         d="m 114.13613,75.566954 h -0.30198 v 1.297164 c 0,0.03245 -0.003,0.05997 -0.008,0.08184 l -0.0268,0.05327 -0.0501,0.02928 -0.0765,0.0092 -0.061,0.0067 -0.0194,0.03105 -0.01,0.162983 0.0744,0.01764 0.0797,0.0053 c 0.0734,0 0.13547,-0.01023 0.18627,-0.03105 0.0511,-0.02081 0.0921,-0.04939 0.12347,-0.08537 0.0314,-0.03634 0.0543,-0.07867 0.0684,-0.126647 0.0145,-0.04833 0.0215,-0.09948 0.0215,-0.154164 z m -0.15028,-0.5588 -0.0741,0.01517 -0.0603,0.04127 -0.0413,0.06103 -0.0152,0.07585 0.0152,0.07338 0.0413,0.05962 0.0603,0.04127 0.0741,0.01517 0.0758,-0.01517 0.0617,-0.04127 0.042,-0.05962 0.0159,-0.07338 -0.0159,-0.07585 -0.042,-0.06103 -0.0617,-0.04127 -0.0758,-0.01517" />
      <path
         inkscape:connector-curvature="0"
         id="path500"
         style="fill:#e7665c;fill-opacity:1;fill-rule:nonzero;stroke:none;stroke-width:0.35247713"
         d="m 115.66196,75.566954 h -0.30198 v 0.907344 c -0.0409,0.04057 -0.084,0.07267 -0.12947,0.09596 -0.0459,0.02293 -0.0949,0.03457 -0.14675,0.03457 -0.0709,0 -0.12418,-0.02081 -0.15981,-0.06279 -0.0353,-0.04198 -0.0529,-0.101247 -0.0529,-0.1778 V 75.56696 h -0.30198 v 0.797278 c 0,0.06985 0.009,0.134055 0.0275,0.192264 0.0183,0.05856 0.0455,0.108655 0.0811,0.151341 0.036,0.04233 0.0801,0.07514 0.13264,0.09807 0.0526,0.02328 0.11325,0.03493 0.18169,0.03493 0.0416,0 0.0804,-0.0042 0.11676,-0.0127 0.036,-0.0085 0.0699,-0.02046 0.10125,-0.03563 l 0.0889,-0.05503 0.0804,-0.07126 0.0208,0.100188 c 0.0123,0.03669 0.0381,0.05503 0.0773,0.05503 h 0.1845 z" />
      <path
         inkscape:connector-curvature="0"
         id="path504"
         style="fill:#e7665c;fill-opacity:1;fill-rule:nonzero;stroke:none;stroke-width:0.35247713"
         d="m 116.77695,75.547375 c -0.0423,0 -0.0815,0.0042 -0.11747,0.01235 -0.0356,0.0081 -0.0695,0.01976 -0.1009,0.03528 l -0.0893,0.05503 -0.0801,0.07091 -0.0205,-0.09913 c -0.0123,-0.03669 -0.0381,-0.05468 -0.0773,-0.05468 h -0.1845 v 1.254125 h 0.30197 v -0.906992 c 0.0406,-0.04092 0.084,-0.07303 0.12947,-0.09666 0.0459,-0.02364 0.0945,-0.03563 0.14676,-0.03563 0.0709,0 0.12418,0.02117 0.15945,0.06315 0.0356,0.04198 0.0533,0.101248 0.0533,0.1778 v 0.798337 h 0.30198 v -0.798337 c 0,-0.06985 -0.009,-0.134055 -0.0275,-0.192616 -0.0183,-0.05821 -0.0451,-0.108303 -0.0808,-0.150284 -0.0353,-0.04198 -0.0797,-0.07444 -0.13229,-0.09772 -0.0533,-0.02328 -0.11395,-0.03493 -0.18239,-0.03493" />
      <path
         inkscape:connector-curvature="0"
         id="path508"
         style="fill:#7b7979;fill-opacity:1;fill-rule:nonzero;stroke:none;stroke-width:0.35247713"
         d="m 115.34376,71.373978 -0.0815,0.01658 -0.0656,0.0448 -0.043,0.06668 -0.0159,0.08114 0.0159,0.08255 0.043,0.06562 0.0656,0.04374 0.0815,0.01587 0.0815,-0.01587 0.0663,-0.04374 0.0441,-0.06562 0.0159,-0.08255 -0.0159,-0.08114 -0.0441,-0.06668 -0.0663,-0.0448 -0.0815,-0.01658 m 0.0631,-2.015419 c -0.0663,0 -0.12841,0.0063 -0.18521,0.01905 -0.0571,0.0127 -0.11042,0.03034 -0.15946,0.05256 -0.0494,0.02187 -0.0949,0.04762 -0.13652,0.0762 -0.0413,0.02893 -0.0794,0.05927 -0.1136,0.09137 l 0.078,0.12453 0.0649,0.03845 0.0508,-0.02505 c 0.0205,-0.01658 0.0473,-0.03492 0.0804,-0.05468 0.0332,-0.02011 0.0737,-0.03845 0.12206,-0.05503 0.0483,-0.01658 0.10619,-0.02469 0.17357,-0.02469 0.0501,0 0.0967,0.0071 0.14041,0.02152 0.0437,0.01446 0.0818,0.03528 0.11394,0.06209 0.0321,0.02752 0.0575,0.06033 0.0766,0.09913 0.0187,0.0388 0.0282,0.08184 0.0282,0.129469 0,0.06668 -0.0127,0.124178 -0.0374,0.172861 -0.025,0.04868 -0.0568,0.09208 -0.0949,0.130528 -0.0381,0.0381 -0.079,0.07303 -0.12277,0.104422 -0.0438,0.03175 -0.085,0.06315 -0.12312,0.0949 -0.0381,0.0314 -0.0699,0.06526 -0.0945,0.101248 -0.0251,0.03598 -0.0374,0.07726 -0.0374,0.123825 v 0.01834 l 0.0198,0.275872 h 0.20284 l 0.03,-0.254353 c 0.004,-0.03669 0.0208,-0.06985 0.049,-0.09984 0.0282,-0.02963 0.0617,-0.05962 0.10124,-0.08961 0.0392,-0.02999 0.0815,-0.06174 0.127,-0.0956 0.0455,-0.03351 0.0871,-0.07373 0.12559,-0.119592 0.0381,-0.04586 0.0699,-0.09948 0.0945,-0.160161 0.025,-0.06103 0.0374,-0.133703 0.0374,-0.217664 0,-0.08326 -0.0155,-0.158044 -0.0466,-0.224366 -0.031,-0.06668 -0.0737,-0.12312 -0.1277,-0.169334 -0.0543,-0.04657 -0.11889,-0.08255 -0.19368,-0.108302 -0.0748,-0.0254 -0.15592,-0.0381 -0.24341,-0.0381" />
      <path
         inkscape:connector-curvature="0"
         id="path512"
         style="fill:#e7665c;fill-opacity:1;fill-rule:nonzero;stroke:none;stroke-width:0.35247713"
         d="m 118.68954,65.450169 h -0.40005 v 0.898525 c 0,0.150636 -0.12171,0.272344 -0.27234,0.272344 -0.15029,0 -0.27235,-0.121708 -0.27235,-0.272344 v -0.898525 h -4.65596 v 0.898525 c 0,0.150636 -0.12206,0.272344 -0.27234,0.272344 -0.15064,0 -0.27235,-0.121708 -0.27235,-0.272344 v -0.898525 h -0.45155 c -0.49072,0 -0.88865,0.397933 -0.88865,0.888647 v 1.033639 h 8.37424 v -1.033639 c 0,-0.490714 -0.39794,-0.888647 -0.88865,-0.888647" />
      <path
         inkscape:connector-curvature="0"
         id="path516"
         style="fill:#7b7979;fill-opacity:1;fill-rule:nonzero;stroke:none;stroke-width:0.35247713"
         d="m 112.81639,64.677833 c -0.15028,0 -0.27234,0.122061 -0.27234,0.272344 v 0.499887 h 0.54468 v -0.499887 c 0,-0.150283 -0.12206,-0.272344 -0.27234,-0.272344" />
      <path
         inkscape:connector-curvature="0"
         id="path520"
         style="fill:#745750;fill-opacity:1;fill-rule:nonzero;stroke:none;stroke-width:0.35247713"
         d="m 113.0888,65.450169 h -0.54469 v 0.898525 c 0,0.150636 0.12171,0.272344 0.27235,0.272344 0.15028,0 0.27234,-0.121708 0.27234,-0.272344 z" />
      <path
         inkscape:connector-curvature="0"
         id="path524"
         style="fill:#7b7979;fill-opacity:1;fill-rule:nonzero;stroke:none;stroke-width:0.35247713"
         d="m 118.01725,64.677833 c -0.15028,0 -0.27234,0.122061 -0.27234,0.272344 v 0.499887 h 0.54468 v -0.499887 c 0,-0.150283 -0.1217,-0.272344 -0.27234,-0.272344" />
      <path
         inkscape:connector-curvature="0"
         id="path528"
         style="fill:#745750;fill-opacity:1;fill-rule:nonzero;stroke:none;stroke-width:0.35247713"
         d="m 118.28966,65.450169 h -0.54469 v 0.898525 c 0,0.150636 0.12171,0.272344 0.27235,0.272344 0.15028,0 0.27234,-0.121708 0.27234,-0.272344 z" />
      <path
         inkscape:connector-curvature="0"
         id="path532"
         style="fill:#ffffff;fill-opacity:1;fill-rule:nonzero;stroke:none;stroke-width:0.35247713"
         d="m 125.36363,71.791032 -0.0815,-0.01588 -0.0656,-0.0441 -0.043,-0.06562 -0.0159,-0.0822 0.0159,-0.08149 0.043,-0.06632 0.0656,-0.0448 0.0815,-0.01658 0.0815,0.01658 0.0663,0.0448 0.0441,0.06632 0.0159,0.08149 -0.0159,0.0822 -0.0441,0.06562 -0.0663,0.0441 -0.0815,0.01588 m -0.38876,-2.030236 -0.0649,-0.03845 -0.078,-0.12453 c 0.0342,-0.0321 0.0723,-0.06244 0.11395,-0.09137 0.0413,-0.02893 0.0868,-0.05433 0.13617,-0.07655 0.049,-0.02187 0.10231,-0.03951 0.15946,-0.05221 0.0568,-0.0127 0.11889,-0.01905 0.18521,-0.01905 0.0875,0 0.16862,0.0127 0.24341,0.0381 0.0748,0.0254 0.13935,0.06138 0.19368,0.10795 0.054,0.04657 0.0967,0.103011 0.1277,0.169686 0.0311,0.06632 0.0466,0.141111 0.0466,0.224014 0,0.08431 -0.0123,0.156986 -0.0374,0.217664 -0.0247,0.06103 -0.0564,0.114653 -0.0945,0.160514 -0.0384,0.04586 -0.0801,0.08572 -0.12559,0.119592 -0.0451,0.03387 -0.0878,0.06562 -0.127,0.0956 -0.0395,0.02999 -0.073,0.05997 -0.10124,0.08961 -0.0282,0.02999 -0.0448,0.06315 -0.049,0.09984 l -0.03,0.254 h -0.20284 l -0.0198,-0.275872 v -0.01799 c 0,-0.04657 0.0124,-0.08784 0.0374,-0.123825 0.0247,-0.03598 0.0564,-0.06985 0.0945,-0.101247 0.0385,-0.03175 0.0794,-0.06315 0.12312,-0.0949 0.0437,-0.0314 0.0847,-0.06632 0.12277,-0.104775 0.0384,-0.0381 0.0699,-0.08149 0.0949,-0.130175 0.0247,-0.04868 0.0374,-0.106539 0.0374,-0.172861 0,-0.04762 -0.01,-0.09102 -0.0282,-0.12947 -0.0191,-0.03881 -0.0444,-0.07197 -0.0766,-0.09913 -0.0321,-0.02716 -0.0702,-0.04762 -0.11394,-0.06209 -0.0438,-0.01446 -0.0903,-0.02187 -0.14041,-0.02187 -0.0674,0 -0.12524,0.0085 -0.17357,0.02505 -0.048,0.01658 -0.0889,0.03493 -0.12206,0.05468 -0.0332,0.02011 -0.06,0.03845 -0.0804,0.05503 l -0.0508,0.02505 m -3.72675,-3.421944 v 0 6.002866 c 0,0.490714 0.39794,0.888647 0.88865,0.888647 h 6.59695 c 0.49071,0 0.88864,-0.397933 0.88864,-0.888647 V 67.37249 h -8.37424 z" />
      <path
         inkscape:connector-curvature="0"
         id="path536"
         style="fill:#e7665c;fill-opacity:1;fill-rule:nonzero;stroke:none;stroke-width:0.35247713"
         d="m 124.56586,75.566954 h -0.30198 v 1.297164 c 0,0.03245 -0.003,0.05997 -0.008,0.08184 l -0.0268,0.05327 -0.0501,0.02928 -0.0765,0.0092 -0.061,0.0067 -0.0194,0.03105 -0.01,0.162983 0.0744,0.01764 0.0797,0.0053 c 0.0734,0 0.13547,-0.01023 0.18627,-0.03105 0.0508,-0.02081 0.0921,-0.04939 0.12347,-0.08537 0.0314,-0.03634 0.0543,-0.07867 0.0684,-0.126647 0.0145,-0.04833 0.0215,-0.09948 0.0215,-0.154164 z m -0.15028,-0.5588 -0.0741,0.01517 -0.0603,0.04127 -0.0413,0.06103 -0.0152,0.07585 0.0152,0.07338 0.0413,0.05962 0.0603,0.04127 0.0741,0.01517 0.0758,-0.01517 0.0617,-0.04127 0.042,-0.05962 0.0159,-0.07338 -0.0159,-0.07585 -0.042,-0.06103 -0.0617,-0.04127 -0.0758,-0.01517" />
      <path
         inkscape:connector-curvature="0"
         id="path540"
         style="fill:#e7665c;fill-opacity:1;fill-rule:nonzero;stroke:none;stroke-width:0.35247713"
         d="m 126.09163,75.566954 h -0.30198 v 0.907344 c -0.0406,0.04057 -0.084,0.07267 -0.12947,0.09596 -0.0459,0.02293 -0.0945,0.03457 -0.14675,0.03457 -0.0709,0 -0.12418,-0.02081 -0.15946,-0.06279 -0.0356,-0.04198 -0.0533,-0.101247 -0.0533,-0.1778 V 75.56696 h -0.30198 v 0.797278 c 0,0.06985 0.009,0.134055 0.0275,0.192264 0.0183,0.05856 0.0455,0.108655 0.0811,0.151341 0.036,0.04233 0.0801,0.07514 0.13264,0.09807 0.0526,0.02328 0.11325,0.03493 0.18169,0.03493 0.0416,0 0.0804,-0.0042 0.11676,-0.0127 0.0363,-0.0085 0.0699,-0.02046 0.10125,-0.03563 l 0.0889,-0.05503 0.0804,-0.07126 0.0208,0.100188 c 0.0123,0.03669 0.0381,0.05503 0.0773,0.05503 h 0.1845 z" />
      <path
         d="m 126.85832,75.004661 h -0.30198 v 1.816806 h 0.30198 z"
         style="fill:#e7665c;fill-opacity:1;fill-rule:nonzero;stroke:none;stroke-width:0.35247713"
         id="path542"
         inkscape:connector-curvature="0" />
      <path
         inkscape:connector-curvature="0"
         id="path546"
         style="fill:#7b7979;fill-opacity:1;fill-rule:nonzero;stroke:none;stroke-width:0.35247713"
         d="m 125.36363,71.373978 -0.0815,0.01658 -0.0656,0.0448 -0.043,0.06668 -0.0159,0.08114 0.0159,0.08255 0.043,0.06562 0.0656,0.04374 0.0815,0.01587 0.0815,-0.01587 0.0663,-0.04374 0.0441,-0.06562 0.0159,-0.08255 -0.0159,-0.08114 -0.0441,-0.06668 -0.0663,-0.0448 -0.0815,-0.01658 m 0.0631,-2.015419 c -0.0663,0 -0.12841,0.0063 -0.18521,0.01905 -0.0571,0.0127 -0.11042,0.03034 -0.15946,0.05256 -0.0494,0.02187 -0.0949,0.04762 -0.13617,0.0762 -0.0416,0.02893 -0.0797,0.05927 -0.11395,0.09137 l 0.078,0.12453 0.0649,0.03845 0.0508,-0.02505 c 0.0205,-0.01658 0.0473,-0.03492 0.0804,-0.05468 0.0332,-0.02011 0.0741,-0.03845 0.12206,-0.05503 0.0483,-0.01658 0.10619,-0.02469 0.17357,-0.02469 0.0501,0 0.0967,0.0071 0.14041,0.02152 0.0437,0.01446 0.0818,0.03528 0.11394,0.06209 0.0321,0.02752 0.0575,0.06033 0.0766,0.09913 0.0187,0.0388 0.0282,0.08184 0.0282,0.129469 0,0.06668 -0.0127,0.124178 -0.0374,0.172861 -0.025,0.04868 -0.0564,0.09208 -0.0949,0.130528 -0.0381,0.0381 -0.079,0.07303 -0.12277,0.104422 -0.0437,0.03175 -0.0847,0.06315 -0.12312,0.0949 -0.0381,0.0314 -0.0698,0.06526 -0.0945,0.101248 -0.025,0.03598 -0.0374,0.07726 -0.0374,0.123825 v 0.01834 l 0.0198,0.275872 h 0.20284 l 0.03,-0.254353 c 0.004,-0.03669 0.0208,-0.06985 0.049,-0.09984 0.0282,-0.02963 0.0617,-0.05962 0.10124,-0.08961 0.0392,-0.02999 0.0819,-0.06174 0.127,-0.0956 0.0455,-0.03351 0.0871,-0.07373 0.12559,-0.119592 0.0381,-0.04586 0.0699,-0.09948 0.0945,-0.160161 0.025,-0.06103 0.0374,-0.133703 0.0374,-0.217664 0,-0.08326 -0.0155,-0.158044 -0.0466,-0.224366 -0.031,-0.06668 -0.0737,-0.12312 -0.1277,-0.169334 -0.0543,-0.04657 -0.11889,-0.08255 -0.19368,-0.108302 -0.0748,-0.0254 -0.15592,-0.0381 -0.24341,-0.0381" />
      <path
         inkscape:connector-curvature="0"
         id="path550"
         style="fill:#e7665c;fill-opacity:1;fill-rule:nonzero;stroke:none;stroke-width:0.35247713"
         d="m 122.5623,65.450169 h -0.42545 c -0.49107,0 -0.88865,0.397933 -0.88865,0.888647 0,-0.490714 0.39758,-0.888647 0.88865,-0.888647 z" />
      <path
         inkscape:connector-curvature="0"
         id="path554"
         style="fill:#e7665c;fill-opacity:1;fill-rule:nonzero;stroke:none;stroke-width:0.35247713"
         d="m 128.73358,65.450169 h -0.42545 v 0.898525 c 0,0.150636 -0.12206,0.272344 -0.27234,0.272344 -0.15064,0 -0.2727,-0.121708 -0.2727,-0.272344 v -0.898525 h -4.65596 v 0.898525 c 0,0.150636 -0.12206,0.272344 -0.27235,0.272344 -0.15063,0 -0.27234,-0.121708 -0.27234,-0.272344 v -0.898525 h -0.4258 c -0.49072,0 -0.88865,0.397933 -0.88865,0.888647 v 1.033639 h 8.37424 v -1.033639 c 0,-0.490714 -0.39794,-0.888647 -0.88865,-0.888647" />
      <path
         inkscape:connector-curvature="0"
         id="path558"
         style="fill:#7b7979;fill-opacity:1;fill-rule:nonzero;stroke:none;stroke-width:0.35247713"
         d="m 122.83471,64.677833 c -0.15028,0 -0.27234,0.122061 -0.27234,0.272344 v 0.499887 h 0.54468 v -0.499887 c 0,-0.150283 -0.12206,-0.272344 -0.27234,-0.272344" />
      <path
         inkscape:connector-curvature="0"
         id="path562"
         style="fill:#745750;fill-opacity:1;fill-rule:nonzero;stroke:none;stroke-width:0.35247713"
         d="m 123.10713,65.450169 h -0.54469 v 0.898525 c 0,0.150636 0.12171,0.272344 0.27235,0.272344 0.15028,0 0.27234,-0.121708 0.27234,-0.272344 z" />
      <path
         inkscape:connector-curvature="0"
         id="path566"
         style="fill:#7b7979;fill-opacity:1;fill-rule:nonzero;stroke:none;stroke-width:0.35247713"
         d="m 128.03561,64.677833 c -0.15028,0 -0.27234,0.122061 -0.27234,0.272344 v 0.499887 h 0.54468 v -0.499887 c 0,-0.150283 -0.12206,-0.272344 -0.27234,-0.272344" />
      <path
         inkscape:connector-curvature="0"
         id="path570"
         style="fill:#745750;fill-opacity:1;fill-rule:nonzero;stroke:none;stroke-width:0.35247713"
         d="m 128.30799,65.450169 h -0.54469 v 0.898525 c 0,0.150636 0.12206,0.272344 0.27235,0.272344 0.15028,0 0.27234,-0.121708 0.27234,-0.272344 z" />
      <path
         inkscape:connector-curvature="0"
         id="path574"
         style="fill:#ffffff;fill-opacity:1;fill-rule:nonzero;stroke:none;stroke-width:0.35247713"
         d="m 135.40771,71.791032 -0.0815,-0.01588 -0.0656,-0.0441 -0.043,-0.06562 -0.0159,-0.0822 0.0159,-0.08149 0.043,-0.06632 0.0656,-0.0448 0.0815,-0.01658 0.0815,0.01658 0.0663,0.0448 0.0441,0.06632 0.0159,0.08149 -0.0159,0.0822 -0.0441,0.06562 -0.0663,0.0441 -0.0815,0.01588 m -0.38876,-2.030236 -0.0649,-0.03845 -0.078,-0.12453 c 0.0342,-0.0321 0.0723,-0.06244 0.11395,-0.09137 0.0413,-0.02893 0.0868,-0.05433 0.13617,-0.07655 0.049,-0.02187 0.10231,-0.03951 0.15946,-0.05221 0.0572,-0.0127 0.11889,-0.01905 0.18521,-0.01905 0.0875,0 0.16862,0.0127 0.24341,0.0381 0.0748,0.0254 0.13935,0.06138 0.19368,0.10795 0.054,0.04657 0.097,0.103011 0.1277,0.169686 0.031,0.06632 0.0466,0.141111 0.0466,0.224014 0,0.08431 -0.0123,0.156986 -0.0374,0.217664 -0.0247,0.06103 -0.0564,0.114653 -0.0945,0.160514 -0.0381,0.04586 -0.0801,0.08572 -0.12559,0.119592 -0.0452,0.03387 -0.0878,0.06562 -0.127,0.0956 -0.0392,0.02999 -0.073,0.05997 -0.10124,0.08961 -0.0282,0.02999 -0.0448,0.06315 -0.049,0.09984 l -0.03,0.254 h -0.20284 l -0.0198,-0.275872 v -0.01799 c 0,-0.04657 0.0124,-0.08784 0.0374,-0.123825 0.025,-0.03598 0.0564,-0.06985 0.0945,-0.101247 0.0385,-0.03175 0.0794,-0.06315 0.12312,-0.0949 0.0437,-0.0314 0.0847,-0.06632 0.12277,-0.104775 0.0384,-0.0381 0.0699,-0.08149 0.0949,-0.130175 0.0247,-0.04868 0.0374,-0.106539 0.0374,-0.172861 0,-0.04762 -0.01,-0.09102 -0.0282,-0.12947 -0.0191,-0.03881 -0.0445,-0.07197 -0.0766,-0.09913 -0.0321,-0.02716 -0.0702,-0.04762 -0.11394,-0.06209 -0.0437,-0.01446 -0.0903,-0.02187 -0.14041,-0.02187 -0.0674,0 -0.12524,0.0085 -0.17357,0.02505 -0.048,0.01658 -0.0889,0.03493 -0.12206,0.05468 -0.0332,0.02011 -0.06,0.03845 -0.0804,0.05503 l -0.0508,0.02505 m -3.72675,-3.421944 v 0 6.002866 c 0,0.490714 0.39794,0.888647 0.88865,0.888647 h 6.59659 c 0.49107,0 0.889,-0.397933 0.889,-0.888647 V 67.37249 h -8.37424 z" />
      <path
         inkscape:connector-curvature="0"
         id="path578"
         style="fill:#e7665c;fill-opacity:1;fill-rule:nonzero;stroke:none;stroke-width:0.35247713"
         d="m 133.91116,76.633084 c -0.0504,0 -0.0914,-0.01164 -0.12277,-0.03457 -0.0314,-0.02293 -0.0473,-0.06103 -0.0473,-0.1143 l 0.0226,-0.07514 c 0.0152,-0.02293 0.0406,-0.04304 0.0765,-0.06033 0.036,-0.01729 0.0833,-0.0314 0.14252,-0.04269 0.0589,-0.01094 0.13265,-0.01658 0.22049,-0.01658 v 0.209903 l -0.0653,0.05856 -0.0674,0.04163 -0.0737,0.02505 -0.0857,0.0085 m 0.12241,-1.089378 c -0.2039,0 -0.37782,0.06597 -0.52211,0.197909 l 0.055,0.09666 0.0353,0.03916 0.0526,0.01588 0.0674,-0.01693 0.0667,-0.03845 c 0.024,-0.01446 0.0522,-0.02716 0.085,-0.03881 0.0325,-0.01129 0.0734,-0.01693 0.12206,-0.01693 0.0677,0 0.11924,0.02011 0.15487,0.06103 0.0353,0.04057 0.0529,0.103011 0.0529,0.187677 v 0.07408 c -0.14252,0 -0.26211,0.01199 -0.35807,0.03669 -0.0963,0.02469 -0.17321,0.05539 -0.23107,0.09278 -0.0579,0.03704 -0.0995,0.07867 -0.12418,0.124883 -0.0247,0.04621 -0.0374,0.09313 -0.0374,0.140406 0,0.05644 0.009,0.106186 0.0268,0.148519 0.018,0.04269 0.043,0.07832 0.0755,0.106892 0.0321,0.02858 0.0706,0.05009 0.11536,0.06421 0.0448,0.01446 0.0938,0.02152 0.14676,0.02152 0.0448,0 0.0857,-0.0035 0.12241,-0.01094 0.0367,-0.0074 0.0713,-0.01834 0.10372,-0.03316 0.0328,-0.01446 0.0642,-0.03281 0.0949,-0.05433 0.0303,-0.02152 0.0617,-0.04657 0.0935,-0.07514 l 0.0268,0.08925 0.0367,0.05186 0.0674,0.01305 h 0.13582 v -0.792339 c 0,-0.07091 -0.0106,-0.136172 -0.0314,-0.195791 -0.0208,-0.05927 -0.0512,-0.11042 -0.091,-0.153459 -0.0399,-0.04269 -0.0885,-0.0762 -0.14605,-0.100188 -0.0575,-0.02399 -0.12277,-0.03598 -0.19615,-0.03598" />
      <path
         inkscape:connector-curvature="0"
         id="path582"
         style="fill:#e7665c;fill-opacity:1;fill-rule:nonzero;stroke:none;stroke-width:0.35247713"
         d="m 135.98475,75.566954 h -0.30198 v 0.907344 c -0.0409,0.04057 -0.084,0.07267 -0.12982,0.09596 -0.0455,0.02293 -0.0942,0.03457 -0.1464,0.03457 -0.0709,0 -0.12418,-0.02081 -0.15981,-0.06279 -0.0353,-0.04198 -0.0529,-0.101247 -0.0529,-0.1778 V 75.56696 h -0.30198 v 0.797278 c 0,0.06985 0.009,0.134055 0.0275,0.192264 0.018,0.05856 0.0452,0.108655 0.0811,0.151341 0.036,0.04233 0.0801,0.07514 0.13264,0.09807 0.0526,0.02328 0.11325,0.03493 0.18169,0.03493 0.0416,0 0.0804,-0.0042 0.11676,-0.0127 0.0363,-0.0085 0.0699,-0.02046 0.10125,-0.03563 l 0.0889,-0.05503 0.0804,-0.07126 0.0208,0.100188 c 0.0123,0.03669 0.0381,0.05503 0.0773,0.05503 h 0.1845 z" />
      <path
         inkscape:connector-curvature="0"
         id="path586"
         style="fill:#e7665c;fill-opacity:1;fill-rule:nonzero;stroke:none;stroke-width:0.35247713"
         d="m 136.87234,77.047527 c -0.0554,0 -0.10231,-0.0039 -0.14041,-0.01164 -0.0385,-0.0078 -0.0695,-0.0187 -0.0938,-0.03245 l -0.0526,-0.04939 -0.0162,-0.06174 c 0,-0.03351 0.0102,-0.06315 0.031,-0.08855 0.0208,-0.02575 0.0483,-0.04798 0.0825,-0.06668 0.0374,0.0088 0.0762,0.01341 0.11677,0.01341 h 0.11747 c 0.0378,0 0.0737,0.0021 0.1076,0.0063 0.0335,0.0039 0.0631,0.01058 0.0885,0.01905 l 0.06,0.03704 0.0219,0.06103 -0.0183,0.0695 -0.0582,0.05468 c -0.0265,0.01552 -0.06,0.02752 -0.10054,0.03634 -0.0409,0.0088 -0.0896,0.01305 -0.1457,0.01305 m -0.008,-0.884061 c -0.0367,0 -0.0691,-0.0049 -0.0974,-0.01517 l -0.0695,-0.04269 -0.0416,-0.06562 -0.0141,-0.08184 c 0,-0.06174 0.0187,-0.111125 0.0557,-0.147461 0.037,-0.03598 0.0928,-0.05433 0.16686,-0.05433 0.0741,0 0.12983,0.01834 0.16687,0.05433 0.037,0.03634 0.0557,0.08572 0.0557,0.147461 l -0.0141,0.08326 -0.0416,0.06456 -0.0692,0.04233 c -0.0279,0.01023 -0.0603,0.01517 -0.0977,0.01517 m 0,-0.61842 c -0.072,0 -0.13793,0.0092 -0.19861,0.02787 -0.061,0.01905 -0.11359,0.04586 -0.15769,0.08149 -0.0444,0.03528 -0.0794,0.07832 -0.10407,0.128411 -0.0251,0.05009 -0.0374,0.106186 -0.0374,0.167922 0,0.07691 0.0183,0.14358 0.0543,0.20073 0.0363,0.0568 0.0864,0.102659 0.14993,0.136878 l -0.072,0.04692 -0.0508,0.05574 -0.03,0.05927 -0.01,0.05821 c 0,0.04551 0.01,0.08255 0.0282,0.111125 l 0.0744,0.06844 c -0.0635,0.02364 -0.11324,0.05539 -0.14922,0.09525 -0.0356,0.04022 -0.0536,0.08961 -0.0536,0.148167 0,0.04304 0.0113,0.08467 0.0342,0.124531 0.0229,0.03986 0.0572,0.07514 0.10337,0.105833 0.0459,0.03069 0.10407,0.05503 0.17427,0.07338 0.0698,0.01834 0.15275,0.02752 0.248,0.02752 0.0963,0 0.18168,-0.01235 0.25682,-0.03739 0.0751,-0.02505 0.13829,-0.05786 0.19015,-0.09878 0.0519,-0.04092 0.0914,-0.08749 0.11853,-0.1397 0.0275,-0.05256 0.0409,-0.106539 0.0409,-0.161925 0,-0.05997 -0.0117,-0.108655 -0.0346,-0.146755 -0.0233,-0.0381 -0.054,-0.06809 -0.0921,-0.08996 -0.0378,-0.02223 -0.0808,-0.03845 -0.12877,-0.04868 -0.048,-0.01023 -0.0974,-0.01729 -0.14816,-0.02152 -0.0504,-0.0039 -0.0998,-0.006 -0.14782,-0.006 -0.048,0 -0.091,-0.0025 -0.12876,-0.0074 -0.0381,-0.0049 -0.0688,-0.01341 -0.0917,-0.02505 l -0.0349,-0.05609 c 0,-0.02963 0.0194,-0.05644 0.0586,-0.08008 0.0448,0.0088 0.091,0.0134 0.13829,0.0134 0.0699,0 0.13512,-0.0095 0.19509,-0.02893 0.0596,-0.01905 0.11148,-0.04621 0.15522,-0.08114 0.0434,-0.03492 0.0776,-0.07761 0.10266,-0.127705 0.0247,-0.05009 0.0374,-0.106186 0.0374,-0.168275 l -0.007,-0.07444 -0.0187,-0.06738 0.11254,-0.02081 0.0501,-0.02187 0.0145,-0.0441 v -0.112536 h -0.36054 c -0.0392,-0.02117 -0.0822,-0.03704 -0.12947,-0.04833 -0.0476,-0.01094 -0.0981,-0.01623 -0.1517,-0.01623" />
      <path
         inkscape:connector-curvature="0"
         id="path590"
         style="fill:#7b7979;fill-opacity:1;fill-rule:nonzero;stroke:none;stroke-width:0.35247713"
         d="m 135.40771,71.373978 -0.0815,0.01658 -0.0656,0.0448 -0.043,0.06668 -0.0159,0.08114 0.0159,0.08255 0.043,0.06562 0.0656,0.04374 0.0815,0.01587 0.0815,-0.01587 0.0663,-0.04374 0.0441,-0.06562 0.0159,-0.08255 -0.0159,-0.08114 -0.0441,-0.06668 -0.0663,-0.0448 -0.0815,-0.01658 m 0.0631,-2.015419 c -0.0663,0 -0.12806,0.0063 -0.18521,0.01905 -0.0572,0.0127 -0.11042,0.03034 -0.15946,0.05256 -0.0494,0.02187 -0.0949,0.04762 -0.13617,0.0762 -0.0416,0.02893 -0.0797,0.05927 -0.11395,0.09137 l 0.078,0.12453 0.0649,0.03845 0.0508,-0.02505 c 0.0205,-0.01658 0.0473,-0.03492 0.0804,-0.05468 0.0332,-0.02011 0.0741,-0.03845 0.12206,-0.05503 0.0483,-0.01658 0.10619,-0.02469 0.17357,-0.02469 0.0501,0 0.0967,0.0071 0.14041,0.02152 0.0437,0.01446 0.0818,0.03528 0.11394,0.06209 0.0321,0.02752 0.0575,0.06033 0.0766,0.09913 0.0187,0.0388 0.0282,0.08184 0.0282,0.129469 0,0.06668 -0.0127,0.124178 -0.0374,0.172861 -0.025,0.04868 -0.0564,0.09208 -0.0949,0.130528 -0.0381,0.0381 -0.079,0.07303 -0.12277,0.104422 -0.0437,0.03175 -0.0847,0.06315 -0.12312,0.0949 -0.0381,0.0314 -0.0695,0.06526 -0.0945,0.101248 -0.025,0.03598 -0.0374,0.07726 -0.0374,0.123825 v 0.01834 l 0.0198,0.275872 h 0.20284 l 0.03,-0.254353 c 0.004,-0.03669 0.0208,-0.06985 0.049,-0.09984 0.0282,-0.02963 0.0621,-0.05962 0.10124,-0.08961 0.0392,-0.02999 0.0819,-0.06174 0.127,-0.0956 0.0455,-0.03351 0.0875,-0.07373 0.12559,-0.119592 0.0381,-0.04586 0.0699,-0.09948 0.0945,-0.160161 0.025,-0.06103 0.0374,-0.133703 0.0374,-0.217664 0,-0.08326 -0.0155,-0.158044 -0.0466,-0.224366 -0.0307,-0.06668 -0.0737,-0.12312 -0.1277,-0.169334 -0.0543,-0.04657 -0.11889,-0.08255 -0.19368,-0.108302 -0.0748,-0.0254 -0.15592,-0.0381 -0.24341,-0.0381" />
      <path
         inkscape:connector-curvature="0"
         id="path594"
         style="fill:#e7665c;fill-opacity:1;fill-rule:nonzero;stroke:none;stroke-width:0.35247713"
         d="m 138.77759,65.450169 h -0.42545 v 0.898525 c 0,0.150636 -0.12206,0.272344 -0.27234,0.272344 -0.15064,0 -0.2727,-0.121708 -0.2727,-0.272344 v -0.898525 h -4.65596 v 0.898525 c 0,0.150636 -0.12206,0.272344 -0.27235,0.272344 -0.15063,0 -0.27234,-0.121708 -0.27234,-0.272344 v -0.898525 h -0.4258 c -0.49072,0 -0.88865,0.397933 -0.88865,0.888647 v 1.033639 h 8.37424 v -1.033639 c 0,-0.490714 -0.39794,-0.888647 -0.88865,-0.888647" />
      <path
         inkscape:connector-curvature="0"
         id="path598"
         style="fill:#7b7979;fill-opacity:1;fill-rule:nonzero;stroke:none;stroke-width:0.35247713"
         d="m 132.87872,64.677833 c -0.15028,0 -0.27234,0.122061 -0.27234,0.272344 v 0.499887 h 0.54468 v -0.499887 c 0,-0.150283 -0.12206,-0.272344 -0.27234,-0.272344" />
      <path
         inkscape:connector-curvature="0"
         id="path602"
         style="fill:#745750;fill-opacity:1;fill-rule:nonzero;stroke:none;stroke-width:0.35247713"
         d="m 133.15113,65.450169 h -0.54469 v 0.898525 c 0,0.150636 0.12171,0.272344 0.27235,0.272344 0.15028,0 0.27234,-0.121708 0.27234,-0.272344 z" />
      <path
         inkscape:connector-curvature="0"
         id="path606"
         style="fill:#7b7979;fill-opacity:1;fill-rule:nonzero;stroke:none;stroke-width:0.35247713"
         d="m 138.07965,64.677833 c -0.15028,0 -0.27234,0.122061 -0.27234,0.272344 v 0.499887 h 0.54468 v -0.499887 c 0,-0.150283 -0.12206,-0.272344 -0.27234,-0.272344" />
      <path
         inkscape:connector-curvature="0"
         id="path610"
         style="fill:#745750;fill-opacity:1;fill-rule:nonzero;stroke:none;stroke-width:0.35247713"
         d="m 138.35203,65.450169 h -0.54469 v 0.898525 c 0,0.150636 0.12171,0.272344 0.27235,0.272344 0.15028,0 0.27234,-0.121708 0.27234,-0.272344 z" />
      <path
         inkscape:connector-curvature="0"
         id="path614"
         style="fill:#ffffff;fill-opacity:1;fill-rule:nonzero;stroke:none;stroke-width:0.35247713"
         d="m 145.45179,71.791032 -0.0815,-0.01588 -0.0656,-0.0441 -0.043,-0.06562 -0.0159,-0.0822 0.0159,-0.08149 0.043,-0.06632 0.0656,-0.0448 0.0815,-0.01658 0.0815,0.01658 0.0663,0.0448 0.0441,0.06632 0.0159,0.08149 -0.0159,0.0822 -0.0441,0.06562 -0.0663,0.0441 -0.0815,0.01588 m -0.38876,-2.030236 -0.0649,-0.03845 -0.078,-0.12453 c 0.0342,-0.0321 0.0723,-0.06244 0.11395,-0.09137 0.0413,-0.02893 0.0868,-0.05433 0.13617,-0.07655 0.049,-0.02187 0.10231,-0.03951 0.15946,-0.05221 0.0571,-0.0127 0.11889,-0.01905 0.18521,-0.01905 0.0875,0 0.16862,0.0127 0.24341,0.0381 0.0748,0.0254 0.13935,0.06138 0.19368,0.10795 0.0543,0.04657 0.0967,0.103011 0.1277,0.169686 0.031,0.06632 0.0466,0.141111 0.0466,0.224014 0,0.08431 -0.0123,0.156986 -0.0374,0.217664 -0.0247,0.06103 -0.0565,0.114653 -0.0945,0.160514 -0.0381,0.04586 -0.0801,0.08572 -0.12559,0.119592 -0.0455,0.03387 -0.0878,0.06562 -0.127,0.0956 -0.0395,0.02999 -0.073,0.05997 -0.10124,0.08961 -0.0282,0.02999 -0.0448,0.06315 -0.049,0.09984 l -0.03,0.254 h -0.20284 l -0.0198,-0.275872 v -0.01799 c 0,-0.04657 0.0123,-0.08784 0.0374,-0.123825 0.0247,-0.03598 0.0564,-0.06985 0.0945,-0.101247 0.0384,-0.03175 0.0794,-0.06315 0.12312,-0.0949 0.0437,-0.0314 0.0847,-0.06632 0.12277,-0.104775 0.0384,-0.0381 0.0698,-0.08149 0.0949,-0.130175 0.0247,-0.04868 0.0374,-0.106539 0.0374,-0.172861 0,-0.04762 -0.01,-0.09102 -0.0282,-0.12947 -0.019,-0.03881 -0.0444,-0.07197 -0.0766,-0.09913 -0.0321,-0.02716 -0.0702,-0.04762 -0.11394,-0.06209 -0.0438,-0.01446 -0.0903,-0.02187 -0.14041,-0.02187 -0.0674,0 -0.12524,0.0085 -0.17357,0.02505 -0.048,0.01658 -0.0889,0.03493 -0.12206,0.05468 -0.0332,0.02011 -0.06,0.03845 -0.0804,0.05503 l -0.0508,0.02505 m -3.72675,-3.421944 v 0 6.002866 c 0,0.490714 0.39759,0.888647 0.88865,0.888647 h 6.59659 c 0.49107,0 0.88865,-0.397933 0.88865,-0.888647 V 67.37249 h -8.37389 z m 0.88865,-0.888648 c -0.48048,0 -0.87171,0.381 -0.88829,0.85725 0.0166,-0.47625 0.40781,-0.85725 0.88829,-0.85725" />
      <path
         inkscape:connector-curvature="0"
         id="path618"
         style="fill:#e7665c;fill-opacity:1;fill-rule:nonzero;stroke:none;stroke-width:0.35247713"
         d="m 143.54506,75.547375 c -0.0776,0 -0.1457,0.01058 -0.20496,0.0314 -0.0589,0.02046 -0.10831,0.04833 -0.14782,0.0829 -0.0395,0.03457 -0.0695,0.07514 -0.09,0.121708 -0.0201,0.04657 -0.0303,0.09525 -0.0303,0.146756 0,0.05539 0.008,0.102658 0.0261,0.141817 0.0176,0.03916 0.0409,0.07197 0.0698,0.09913 0.0289,0.02681 0.0617,0.04904 0.0991,0.06632 0.0367,0.01764 0.0748,0.03281 0.1136,0.04586 0.0384,0.01305 0.0765,0.02505 0.11359,0.03634 0.037,0.01094 0.0702,0.02328 0.0991,0.03704 l 0.0695,0.04904 0.0265,0.07197 -0.0117,0.05715 -0.0367,0.04798 -0.0635,0.03387 c -0.0258,0.0085 -0.0564,0.0127 -0.0924,0.0127 -0.0455,0 -0.0833,-0.0053 -0.11324,-0.01588 l -0.0776,-0.03422 -0.0579,-0.03422 -0.0533,-0.01587 -0.0466,0.01094 -0.0317,0.03175 -0.0695,0.115005 c 0.0243,0.02187 0.0526,0.04233 0.085,0.06103 0.0321,0.0187 0.067,0.03528 0.10512,0.04904 0.0378,0.01376 0.0773,0.02469 0.11854,0.03245 0.0413,0.0078 0.0833,0.01164 0.12664,0.01164 0.0804,0 0.15205,-0.01058 0.21449,-0.0314 0.0621,-0.02081 0.11466,-0.04974 0.15699,-0.08678 0.0423,-0.03704 0.0748,-0.08114 0.0967,-0.131939 0.0219,-0.0508 0.0328,-0.106539 0.0328,-0.166864 0,-0.05045 -0.008,-0.09384 -0.0261,-0.12947 -0.0176,-0.03598 -0.0409,-0.06667 -0.0699,-0.09243 -0.0289,-0.02575 -0.0617,-0.04692 -0.0984,-0.0635 -0.0367,-0.01693 -0.0741,-0.03175 -0.11254,-0.0448 -0.0381,-0.01305 -0.0755,-0.02505 -0.11218,-0.03598 -0.0367,-0.01094 -0.0695,-0.02364 -0.0984,-0.03739 l -0.0699,-0.04833 -0.0261,-0.06773 c 0,-0.04057 0.0169,-0.07373 0.0512,-0.09913 0.0342,-0.02505 0.0811,-0.03775 0.14076,-0.03775 0.0381,0 0.0716,0.0039 0.0995,0.01199 l 0.0751,0.02787 0.0582,0.02752 0.0469,0.01199 0.0342,-0.0078 0.0258,-0.02752 0.0684,-0.109009 c -0.0473,-0.04657 -0.10618,-0.08396 -0.17709,-0.112536 -0.0709,-0.02858 -0.14958,-0.04269 -0.23601,-0.04269" />
      <path
         inkscape:connector-curvature="0"
         id="path622"
         style="fill:#e7665c;fill-opacity:1;fill-rule:nonzero;stroke:none;stroke-width:0.35247713"
         d="m 144.55859,76.049871 c 0.0138,-0.09137 0.0455,-0.161925 0.0952,-0.211314 0.0497,-0.04974 0.11889,-0.07479 0.20673,-0.07479 0.0448,0 0.084,0.0074 0.11747,0.02258 0.0332,0.01517 0.061,0.03563 0.0829,0.06174 0.0222,0.02611 0.0385,0.05644 0.049,0.09102 0.0106,0.03493 0.0159,0.07161 0.0159,0.110772 z m 0.29598,-0.502356 c -0.0938,0 -0.17815,0.01623 -0.25259,0.04868 -0.0744,0.03281 -0.13758,0.0769 -0.18944,0.132644 -0.0519,0.05609 -0.0914,0.121356 -0.11924,0.19685 -0.0279,0.0755 -0.0416,0.155928 -0.0416,0.241653 0,0.110067 0.0159,0.206728 0.0476,0.290336 0.0318,0.08361 0.0755,0.153458 0.13088,0.210256 0.0554,0.05644 0.12065,0.09948 0.19579,0.128411 0.0748,0.02893 0.15593,0.04339 0.24306,0.04339 0.0441,0 0.0896,-0.0032 0.13653,-0.0099 0.0469,-0.0063 0.0928,-0.01764 0.13794,-0.03351 0.0455,-0.01588 0.0889,-0.03704 0.13017,-0.0635 0.0416,-0.02646 0.0794,-0.05962 0.11254,-0.09843 l -0.0879,-0.110067 -0.0233,-0.02081 -0.0318,-0.0074 -0.0582,0.01693 -0.0695,0.0381 c -0.0265,0.01376 -0.0575,0.02646 -0.0931,0.03775 -0.0353,0.01164 -0.0776,0.01729 -0.12664,0.01729 -0.0991,0 -0.17922,-0.03034 -0.23954,-0.09066 -0.0603,-0.05997 -0.0949,-0.15487 -0.10372,-0.283634 h 0.77506 l 0.0342,-0.0053 0.0215,-0.01834 0.0109,-0.03563 0.003,-0.0568 c 0,-0.09031 -0.0134,-0.170744 -0.0402,-0.2413 -0.0268,-0.07055 -0.0642,-0.130175 -0.11254,-0.178505 -0.048,-0.04868 -0.10513,-0.08537 -0.1718,-0.110772 -0.0663,-0.0254 -0.139,-0.03775 -0.21802,-0.03775" />
      <path
         inkscape:connector-curvature="0"
         id="path626"
         style="fill:#e7665c;fill-opacity:1;fill-rule:nonzero;stroke:none;stroke-width:0.35247713"
         d="m 146.30932,76.609871 c -0.0466,0 -0.09,-0.0085 -0.13017,-0.02505 -0.0402,-0.01658 -0.0776,-0.04621 -0.11184,-0.08855 V 75.93359 c 0.0381,-0.04798 0.0797,-0.08537 0.12418,-0.111831 0.0445,-0.02646 0.0977,-0.03951 0.16052,-0.03951 0.0399,0 0.0758,0.0071 0.10724,0.02187 0.0314,0.01482 0.0579,0.03775 0.0801,0.06985 0.0219,0.03175 0.0388,0.07303 0.0504,0.123825 0.012,0.05115 0.018,0.113241 0.018,0.186619 0,0.07267 -0.007,0.135467 -0.0208,0.188736 -0.0138,0.05362 -0.0335,0.09772 -0.0593,0.132645 -0.0258,0.03528 -0.0572,0.06138 -0.0942,0.07832 -0.037,0.01729 -0.0787,0.02575 -0.12418,0.02575 m 0.14676,-1.066094 c -0.0878,0 -0.16475,0.01799 -0.23037,0.05362 -0.0656,0.03598 -0.12382,0.0829 -0.17427,0.140758 l -0.0243,-0.116417 -0.0272,-0.04127 -0.0501,-0.01341 h -0.1845 v 1.6637 h 0.30197 v -0.513292 c 0.0392,0.03845 0.0833,0.06809 0.13265,0.08996 0.0494,0.02152 0.10936,0.0321 0.18027,0.0321 0.0822,0 0.15663,-0.01623 0.22331,-0.04939 0.0663,-0.03281 0.12276,-0.07902 0.16968,-0.137583 0.0469,-0.05856 0.0833,-0.127705 0.10831,-0.207786 0.0254,-0.07973 0.0377,-0.166511 0.0377,-0.26035 0,-0.102658 -0.0109,-0.193675 -0.0335,-0.273403 -0.0222,-0.07937 -0.054,-0.14605 -0.0952,-0.200378 -0.0413,-0.05433 -0.09,-0.0956 -0.14676,-0.124177 -0.0568,-0.02857 -0.11924,-0.04269 -0.18767,-0.04269" />
      <path
         inkscape:connector-curvature="0"
         id="path630"
         style="fill:#e7665c;fill-opacity:1;fill-rule:nonzero;stroke:none;stroke-width:0.35247713"
         d="m 147.64564,75.183026 h -0.15663 l -0.0445,0.01341 -0.0226,0.0381 -0.0635,0.342194 -0.20179,0.03316 v 0.119592 l 0.0176,0.04762 0.0423,0.01588 h 0.127 v 0.700616 c 0,0.108303 0.0293,0.193323 0.0882,0.255059 0.0586,0.06138 0.14217,0.09207 0.25047,0.09207 0.061,0 0.1203,-0.0092 0.17745,-0.02787 0.0568,-0.0187 0.10759,-0.04657 0.15134,-0.08326 l -0.0903,-0.146756 -0.0183,-0.02011 -0.0222,-0.0067 -0.0219,0.0067 -0.025,0.01411 -0.0332,0.01411 -0.0469,0.0067 c -0.0325,0 -0.0586,-0.01094 -0.0783,-0.03316 -0.0194,-0.02187 -0.0293,-0.05256 -0.0293,-0.09172 v -0.679803 h 0.3302 v -0.214842 h -0.3302 z" />
      <path
         inkscape:connector-curvature="0"
         id="path634"
         style="fill:#7b7979;fill-opacity:1;fill-rule:nonzero;stroke:none;stroke-width:0.35247713"
         d="m 145.45179,71.373978 -0.0815,0.01658 -0.0656,0.0448 -0.043,0.06668 -0.0159,0.08114 0.0159,0.08255 0.043,0.06562 0.0656,0.04374 0.0815,0.01587 0.0815,-0.01587 0.0663,-0.04374 0.0441,-0.06562 0.0159,-0.08255 -0.0159,-0.08114 -0.0441,-0.06668 -0.0663,-0.0448 -0.0815,-0.01658 m 0.0632,-2.015419 c -0.0663,0 -0.12806,0.0063 -0.18521,0.01905 -0.0572,0.0127 -0.11042,0.03034 -0.15946,0.05256 -0.0494,0.02187 -0.0949,0.04762 -0.13617,0.0762 -0.0416,0.02893 -0.0797,0.05927 -0.11395,0.09137 l 0.078,0.12453 0.0649,0.03845 0.0508,-0.02505 c 0.0205,-0.01658 0.0473,-0.03492 0.0804,-0.05468 0.0332,-0.02011 0.0741,-0.03845 0.12206,-0.05503 0.0483,-0.01658 0.10619,-0.02469 0.17357,-0.02469 0.0501,0 0.0967,0.0071 0.14041,0.02152 0.0437,0.01446 0.0818,0.03528 0.11394,0.06209 0.0321,0.02752 0.0575,0.06033 0.0766,0.09913 0.0187,0.0388 0.0282,0.08184 0.0282,0.129469 0,0.06668 -0.0127,0.124178 -0.0374,0.172861 -0.025,0.04868 -0.0564,0.09208 -0.0949,0.130528 -0.0381,0.0381 -0.079,0.07303 -0.12277,0.104422 -0.0438,0.03175 -0.0847,0.06315 -0.12312,0.0949 -0.0381,0.0314 -0.0699,0.06526 -0.0945,0.101248 -0.025,0.03598 -0.0374,0.07726 -0.0374,0.123825 v 0.01834 l 0.0198,0.275872 h 0.20284 l 0.03,-0.254353 c 0.004,-0.03669 0.0208,-0.06985 0.049,-0.09984 0.0282,-0.02963 0.0617,-0.05962 0.10124,-0.08961 0.0392,-0.02999 0.0815,-0.06174 0.127,-0.0956 0.0455,-0.03351 0.0875,-0.07373 0.12559,-0.119592 0.0381,-0.04586 0.0699,-0.09948 0.0945,-0.160161 0.025,-0.06103 0.0374,-0.133703 0.0374,-0.217664 0,-0.08326 -0.0155,-0.158044 -0.0466,-0.224366 -0.031,-0.06668 -0.0734,-0.12312 -0.1277,-0.169334 -0.0543,-0.04657 -0.11889,-0.08255 -0.19368,-0.108302 -0.0748,-0.0254 -0.15592,-0.0381 -0.24341,-0.0381" />
      <path
         inkscape:connector-curvature="0"
         id="path638"
         style="fill:#e7665c;fill-opacity:1;fill-rule:nonzero;stroke:none;stroke-width:0.35247713"
         d="m 148.82166,65.450169 h -0.43497 v 0.898525 c 0,0.150636 -0.12207,0.272344 -0.27235,0.272344 -0.15028,0 -0.27234,-0.121708 -0.27234,-0.272344 v -0.898525 h -4.65632 v 0.898525 c 0,0.150636 -0.12171,0.272344 -0.27234,0.272344 -0.15029,0 -0.27235,-0.121708 -0.27235,-0.272344 v -0.898525 h -0.41627 c -0.48013,0 -0.87137,0.381 -0.88795,0.85725 l -7e-4,0.0314 v 1.033639 h 8.37424 v -1.033639 c 0,-0.490714 -0.39794,-0.888647 -0.88865,-0.888647" />
      <path
         inkscape:connector-curvature="0"
         id="path642"
         style="fill:#7b7979;fill-opacity:1;fill-rule:nonzero;stroke:none;stroke-width:0.35247713"
         d="m 142.91348,64.677833 c -0.15028,0 -0.27234,0.122061 -0.27234,0.272344 v 0.499887 h 0.54468 v -0.499887 c 0,-0.150283 -0.12206,-0.272344 -0.27234,-0.272344" />
      <path
         inkscape:connector-curvature="0"
         id="path646"
         style="fill:#745750;fill-opacity:1;fill-rule:nonzero;stroke:none;stroke-width:0.35247713"
         d="m 143.18583,65.450169 h -0.54469 v 0.898525 c 0,0.150636 0.12206,0.272344 0.27235,0.272344 0.15028,0 0.27234,-0.121708 0.27234,-0.272344 z" />
      <path
         inkscape:connector-curvature="0"
         id="path650"
         style="fill:#7b7979;fill-opacity:1;fill-rule:nonzero;stroke:none;stroke-width:0.35247713"
         d="m 148.11434,64.677833 c -0.15028,0 -0.27234,0.122061 -0.27234,0.272344 v 0.499887 h 0.54468 v -0.499887 c 0,-0.150283 -0.12206,-0.272344 -0.27234,-0.272344" />
      <path
         inkscape:connector-curvature="0"
         id="path654"
         style="fill:#745750;fill-opacity:1;fill-rule:nonzero;stroke:none;stroke-width:0.35247713"
         d="m 148.38676,65.450169 h -0.54469 v 0.898525 c 0,0.150636 0.12171,0.272344 0.27235,0.272344 0.15028,0 0.27234,-0.121708 0.27234,-0.272344 z" />
      <path
         inkscape:connector-curvature="0"
         id="path658"
         style="fill:#ffffff;fill-opacity:1;fill-rule:nonzero;stroke:none;stroke-width:0.35247713"
         d="m 155.49587,71.791032 -0.0815,-0.01588 -0.0656,-0.0441 -0.043,-0.06562 -0.0159,-0.0822 0.0159,-0.08149 0.043,-0.06632 0.0656,-0.0448 0.0815,-0.01658 0.0815,0.01658 0.0663,0.0448 0.0441,0.06632 0.0159,0.08149 -0.0159,0.0822 -0.0441,0.06562 -0.0663,0.0441 -0.0815,0.01588 m -0.38876,-2.030236 -0.0649,-0.03845 -0.078,-0.12453 c 0.0342,-0.0321 0.0723,-0.06244 0.1136,-0.09137 0.0416,-0.02893 0.0871,-0.05433 0.13652,-0.07655 0.049,-0.02187 0.10231,-0.03951 0.15946,-0.05221 0.0568,-0.0127 0.11853,-0.01905 0.18521,-0.01905 0.0875,0 0.16862,0.0127 0.24341,0.0381 0.0748,0.0254 0.13935,0.06138 0.19368,0.10795 0.054,0.04657 0.0967,0.103011 0.1277,0.169686 0.0311,0.06632 0.0466,0.141111 0.0466,0.224014 0,0.08431 -0.0123,0.156986 -0.0374,0.217664 -0.0247,0.06103 -0.0565,0.114653 -0.0945,0.160514 -0.0385,0.04586 -0.0801,0.08572 -0.12559,0.119592 -0.0455,0.03387 -0.0878,0.06562 -0.127,0.0956 -0.0395,0.02999 -0.073,0.05997 -0.10124,0.08961 -0.0286,0.02999 -0.0448,0.06315 -0.049,0.09984 l -0.03,0.254 h -0.20284 l -0.0198,-0.275872 v -0.01799 c 0,-0.04657 0.0123,-0.08784 0.0374,-0.123825 0.0247,-0.03598 0.0564,-0.06985 0.0945,-0.101247 0.0381,-0.03175 0.079,-0.06315 0.12312,-0.0949 0.0437,-0.0314 0.0847,-0.06632 0.12277,-0.104775 0.0381,-0.0381 0.0699,-0.08149 0.0949,-0.130175 0.0247,-0.04868 0.037,-0.106539 0.037,-0.172861 0,-0.04762 -0.009,-0.09102 -0.0282,-0.12947 -0.0187,-0.03881 -0.0441,-0.07197 -0.0762,-0.09913 -0.0321,-0.02716 -0.0702,-0.04762 -0.11394,-0.06209 -0.0438,-0.01446 -0.0903,-0.02187 -0.14041,-0.02187 -0.0674,0 -0.12524,0.0085 -0.17357,0.02505 -0.0483,0.01658 -0.0889,0.03493 -0.12206,0.05468 -0.0332,0.02011 -0.0603,0.03845 -0.0804,0.05503 l -0.0508,0.02505 m -3.72675,-3.421944 v 0 6.002866 c 0,0.490714 0.39759,0.888647 0.88865,0.888647 h 6.59659 c 0.49107,0 0.88865,-0.397933 0.88865,-0.888647 V 67.37249 h -8.37389 z" />
      <path
         inkscape:connector-curvature="0"
         id="path662"
         style="fill:#e7665c;fill-opacity:1;fill-rule:nonzero;stroke:none;stroke-width:0.35247713"
         d="m 154.28418,76.607401 c -0.10619,0 -0.18415,-0.03528 -0.2346,-0.105833 -0.0508,-0.07056 -0.0758,-0.172861 -0.0758,-0.307623 0,-0.134408 0.025,-0.237066 0.0758,-0.30868 0.0505,-0.07126 0.12841,-0.106892 0.2346,-0.106892 0.10442,0 0.18168,0.03563 0.23177,0.106539 0.0501,0.07091 0.0752,0.17392 0.0752,0.309033 0,0.135467 -0.0251,0.238125 -0.0752,0.308328 -0.0501,0.0702 -0.12735,0.105128 -0.23177,0.105128 m 0,-1.060097 c -0.0938,0 -0.17886,0.01517 -0.25541,0.04516 -0.0769,0.03034 -0.14217,0.07303 -0.1965,0.128411 -0.054,0.05539 -0.0959,0.12312 -0.12594,0.2032 -0.0296,0.07973 -0.0445,0.168981 -0.0445,0.267406 0,0.09984 0.0148,0.189442 0.0445,0.269169 0.03,0.07973 0.072,0.147814 0.12594,0.204259 0.0543,0.05609 0.11959,0.09948 0.1965,0.129469 0.0765,0.03034 0.16157,0.04516 0.25541,0.04516 0.0938,0 0.17851,-0.01482 0.25506,-0.04516 0.0759,-0.02999 0.14111,-0.07338 0.19473,-0.129469 0.054,-0.05645 0.0956,-0.124531 0.12488,-0.204259 0.0293,-0.07973 0.0438,-0.169333 0.0438,-0.269169 0,-0.09842 -0.0145,-0.187678 -0.0438,-0.267406 -0.0293,-0.08008 -0.0709,-0.147813 -0.12488,-0.2032 -0.0536,-0.05539 -0.11888,-0.09807 -0.19473,-0.128411 -0.0765,-0.02999 -0.16122,-0.04516 -0.25506,-0.04516" />
      <path
         inkscape:connector-curvature="0"
         id="path666"
         style="fill:#e7665c;fill-opacity:1;fill-rule:nonzero;stroke:none;stroke-width:0.35247713"
         d="m 155.5667,75.004556 h -0.30198 v 1.816806 h 0.30198 v -0.574675 h 0.0684 l 0.055,0.0085 0.0367,0.03669 0.31891,0.475545 0.0441,0.04163 0.06,0.01235 h 0.2727 l -0.41804,-0.608895 -0.0392,-0.05256 -0.0452,-0.04269 0.0476,-0.03739 0.0427,-0.04692 0.39018,-0.466019 h -0.27658 l -0.061,0.01411 -0.0441,0.03845 -0.31185,0.385233 -0.0367,0.03175 -0.0476,0.0085 h -0.0561 z" />
      <path
         inkscape:connector-curvature="0"
         id="path670"
         style="fill:#e7665c;fill-opacity:1;fill-rule:nonzero;stroke:none;stroke-width:0.35247713"
         d="m 157.10711,75.183026 h -0.15663 l -0.0445,0.01341 -0.0226,0.0381 -0.0635,0.342194 -0.20179,0.03316 v 0.119592 l 0.0176,0.04762 0.042,0.01588 h 0.12735 v 0.700616 c 0,0.108303 0.0293,0.193323 0.0882,0.255059 0.0586,0.06138 0.14217,0.09207 0.25047,0.09207 0.061,0 0.1203,-0.0092 0.17745,-0.02787 0.0568,-0.0187 0.10724,-0.04657 0.15134,-0.08326 l -0.0903,-0.146756 -0.0183,-0.02011 -0.0222,-0.0067 -0.0219,0.0067 -0.025,0.01411 -0.0332,0.01411 -0.0469,0.0067 c -0.0325,0 -0.0586,-0.01094 -0.0783,-0.03316 -0.0194,-0.02187 -0.0293,-0.05256 -0.0293,-0.09172 v -0.679803 h 0.3302 v -0.214842 h -0.3302 z" />
      <path
         inkscape:connector-curvature="0"
         id="path674"
         style="fill:#7b7979;fill-opacity:1;fill-rule:nonzero;stroke:none;stroke-width:0.35247713"
         d="m 155.49587,71.373978 -0.0815,0.01658 -0.0656,0.0448 -0.043,0.06668 -0.0159,0.08114 0.0159,0.08255 0.043,0.06562 0.0656,0.04374 0.0815,0.01587 0.0815,-0.01587 0.0663,-0.04374 0.0441,-0.06562 0.0159,-0.08255 -0.0159,-0.08114 -0.0441,-0.06668 -0.0663,-0.0448 -0.0815,-0.01658 m 0.0632,-2.015419 c -0.0667,0 -0.12841,0.0063 -0.18521,0.01905 -0.0571,0.0127 -0.11042,0.03034 -0.15946,0.05256 -0.0494,0.02187 -0.0949,0.04762 -0.13652,0.0762 -0.0413,0.02893 -0.0794,0.05927 -0.1136,0.09137 l 0.078,0.12453 0.0649,0.03845 0.0508,-0.02505 c 0.0201,-0.01658 0.0473,-0.03492 0.0804,-0.05468 0.0332,-0.02011 0.0737,-0.03845 0.12206,-0.05503 0.0483,-0.01658 0.10619,-0.02469 0.17357,-0.02469 0.0501,0 0.0967,0.0071 0.14041,0.02152 0.0437,0.01446 0.0818,0.03528 0.11394,0.06209 0.0321,0.02752 0.0575,0.06033 0.0762,0.09913 0.019,0.0388 0.0282,0.08184 0.0282,0.129469 0,0.06668 -0.0123,0.124178 -0.037,0.172861 -0.025,0.04868 -0.0568,0.09208 -0.0949,0.130528 -0.0381,0.0381 -0.079,0.07303 -0.12277,0.104422 -0.0441,0.03175 -0.085,0.06315 -0.12312,0.0949 -0.0381,0.0314 -0.0699,0.06526 -0.0945,0.101248 -0.025,0.03598 -0.0374,0.07726 -0.0374,0.123825 v 0.01834 l 0.0198,0.275872 h 0.20284 l 0.03,-0.254353 c 0.004,-0.03669 0.0205,-0.06985 0.049,-0.09984 0.0282,-0.02963 0.0617,-0.05962 0.10124,-0.08961 0.0392,-0.02999 0.0815,-0.06174 0.127,-0.0956 0.0455,-0.03351 0.0871,-0.07373 0.12559,-0.119592 0.0381,-0.04586 0.0699,-0.09948 0.0945,-0.160161 0.025,-0.06103 0.0374,-0.133703 0.0374,-0.217664 0,-0.08326 -0.0155,-0.158044 -0.0466,-0.224366 -0.031,-0.06668 -0.0737,-0.12312 -0.1277,-0.169334 -0.0543,-0.04657 -0.11889,-0.08255 -0.19368,-0.108302 -0.0748,-0.0254 -0.15592,-0.0381 -0.24341,-0.0381" />
      <path
         inkscape:connector-curvature="0"
         id="path678"
         style="fill:#e7665c;fill-opacity:1;fill-rule:nonzero;stroke:none;stroke-width:0.35247713"
         d="m 158.86567,65.450169 h -0.42545 v 0.898525 c 0,0.150636 -0.12206,0.272344 -0.2727,0.272344 -0.15028,0 -0.27199,-0.121708 -0.27199,-0.272344 v -0.898525 h -4.65631 v 0.898525 c 0,0.150636 -0.12206,0.272344 -0.27235,0.272344 -0.15063,0 -0.27234,-0.121708 -0.27234,-0.272344 v -0.898525 h -0.4258 c -0.49072,0 -0.88865,0.397933 -0.88865,0.888647 v 1.033639 h 8.37424 v -1.033639 c 0,-0.490714 -0.39794,-0.888647 -0.88865,-0.888647" />
      <path
         inkscape:connector-curvature="0"
         id="path682"
         style="fill:#7b7979;fill-opacity:1;fill-rule:nonzero;stroke:none;stroke-width:0.35247713"
         d="m 152.9668,64.677833 c -0.15028,0 -0.27234,0.122061 -0.27234,0.272344 v 0.499887 h 0.54468 v -0.499887 c 0,-0.150283 -0.1217,-0.272344 -0.27234,-0.272344" />
      <path
         inkscape:connector-curvature="0"
         id="path686"
         style="fill:#745750;fill-opacity:1;fill-rule:nonzero;stroke:none;stroke-width:0.35247713"
         d="m 153.23922,65.450169 h -0.54469 v 0.898525 c 0,0.150636 0.12171,0.272344 0.27235,0.272344 0.15028,0 0.27234,-0.121708 0.27234,-0.272344 z" />
      <path
         inkscape:connector-curvature="0"
         id="path690"
         style="fill:#7b7979;fill-opacity:1;fill-rule:nonzero;stroke:none;stroke-width:0.35247713"
         d="m 158.1677,64.677833 c -0.15028,0 -0.27234,0.122061 -0.27234,0.272344 v 0.499887 h 0.54468 v -0.499887 c 0,-0.150283 -0.12206,-0.272344 -0.27234,-0.272344" />
      <path
         inkscape:connector-curvature="0"
         id="path694"
         style="fill:#745750;fill-opacity:1;fill-rule:nonzero;stroke:none;stroke-width:0.35247713"
         d="m 158.44008,65.450169 h -0.54469 v 0.898525 c 0,0.150636 0.12206,0.272344 0.27235,0.272344 0.15028,0 0.27234,-0.121708 0.27234,-0.272344 z" />
      <path
         inkscape:connector-curvature="0"
         id="path698"
         style="fill:#ffffff;fill-opacity:1;fill-rule:nonzero;stroke:none;stroke-width:0.35247713"
         d="m 165.53984,71.790926 -0.0815,-0.01587 -0.0656,-0.04374 -0.043,-0.06597 -0.0159,-0.0822 0.0159,-0.08114 0.043,-0.06668 0.0656,-0.0448 0.0815,-0.01658 0.0815,0.01658 0.0663,0.0448 0.0441,0.06668 0.0159,0.08114 -0.0159,0.0822 -0.0441,0.06597 -0.0663,0.04374 -0.0815,0.01587 m -0.38876,-2.030236 -0.0649,-0.03845 -0.078,-0.12453 c 0.0342,-0.0321 0.0723,-0.06244 0.1136,-0.09137 0.0416,-0.02858 0.0871,-0.05433 0.13652,-0.07655 0.049,-0.02187 0.10231,-0.03951 0.15946,-0.05221 0.0568,-0.0127 0.11889,-0.01905 0.18521,-0.01905 0.0875,0 0.16862,0.0127 0.24341,0.0381 0.0748,0.0254 0.13935,0.06174 0.19368,0.108303 0.054,0.04621 0.0967,0.102658 0.1277,0.169333 0.031,0.06632 0.0466,0.141111 0.0466,0.224367 0,0.08396 -0.0123,0.156633 -0.0374,0.217664 -0.0247,0.06068 -0.0565,0.1143 -0.0945,0.160161 -0.0385,0.04586 -0.0801,0.08608 -0.12559,0.119592 -0.0455,0.03387 -0.0878,0.06562 -0.127,0.0956 -0.0395,0.02999 -0.073,0.05997 -0.10124,0.08961 -0.0286,0.02999 -0.0448,0.06315 -0.049,0.09984 l -0.03,0.254353 h -0.20284 l -0.0198,-0.275872 v -0.01834 c 0,-0.04657 0.0123,-0.08784 0.0374,-0.123825 0.0247,-0.03598 0.0564,-0.06985 0.0945,-0.101247 0.0385,-0.03175 0.0794,-0.06315 0.12312,-0.0949 0.0437,-0.0314 0.0847,-0.06632 0.12277,-0.104422 0.0385,-0.03845 0.0699,-0.08185 0.0949,-0.130528 0.0247,-0.04868 0.037,-0.106539 0.037,-0.172861 0,-0.04762 -0.009,-0.09066 -0.0279,-0.12947 -0.019,-0.0388 -0.0445,-0.07161 -0.0766,-0.09913 -0.0321,-0.02716 -0.0702,-0.04762 -0.11394,-0.06209 -0.0437,-0.01446 -0.0903,-0.02152 -0.14041,-0.02152 -0.0674,0 -0.12524,0.0081 -0.17357,0.02469 -0.0483,0.01658 -0.0889,0.03493 -0.12206,0.05503 -0.0332,0.01976 -0.06,0.0381 -0.0804,0.05468 l -0.0508,0.02505 m -3.72675,-3.421944 v 0 6.002866 c 0,0.490714 0.39759,0.888647 0.88865,0.888647 h 6.59659 c 0.49107,0 0.88865,-0.397933 0.88865,-0.888647 v -4.968875 h -8.37389 z" />
      <path
         inkscape:connector-curvature="0"
         id="path702"
         style="fill:#e7665c;fill-opacity:1;fill-rule:nonzero;stroke:none;stroke-width:0.35247713"
         d="m 164.22602,75.547375 c -0.0423,0 -0.0815,0.0042 -0.11747,0.01235 -0.0356,0.0081 -0.0695,0.01976 -0.1009,0.03528 l -0.0889,0.05503 -0.0804,0.07091 -0.0205,-0.09913 c -0.0123,-0.03669 -0.0381,-0.05468 -0.0773,-0.05468 h -0.1845 v 1.254125 h 0.30197 v -0.906992 c 0.0406,-0.04092 0.084,-0.07303 0.12947,-0.09666 0.0459,-0.02364 0.0945,-0.03563 0.14676,-0.03563 0.0709,0 0.12418,0.02117 0.15945,0.06315 0.0356,0.04198 0.0533,0.101248 0.0533,0.1778 v 0.798337 h 0.30198 v -0.798337 c 0,-0.06985 -0.009,-0.134055 -0.0275,-0.192616 -0.0183,-0.05821 -0.0451,-0.108303 -0.0804,-0.150284 -0.0356,-0.04198 -0.0797,-0.07444 -0.133,-0.09772 -0.0529,-0.02328 -0.11359,-0.03493 -0.18203,-0.03493" />
      <path
         inkscape:connector-curvature="0"
         id="path706"
         style="fill:#e7665c;fill-opacity:1;fill-rule:nonzero;stroke:none;stroke-width:0.35247713"
         d="m 165.60394,76.607401 c -0.10583,0 -0.18415,-0.03528 -0.2346,-0.105833 -0.0508,-0.07056 -0.0758,-0.172861 -0.0758,-0.307623 0,-0.134408 0.025,-0.237066 0.0758,-0.30868 0.0505,-0.07126 0.12877,-0.106892 0.2346,-0.106892 0.10442,0 0.18168,0.03563 0.23177,0.106539 0.0501,0.07091 0.0752,0.17392 0.0752,0.309033 0,0.135467 -0.0251,0.238125 -0.0752,0.308328 -0.0501,0.0702 -0.12735,0.105128 -0.23177,0.105128 m 0,-1.060097 c -0.0938,0 -0.17886,0.01517 -0.25541,0.04516 -0.0769,0.03034 -0.14217,0.07303 -0.1965,0.128411 -0.054,0.05539 -0.0959,0.12312 -0.12594,0.2032 -0.0296,0.07973 -0.0445,0.168981 -0.0445,0.267406 0,0.09984 0.0148,0.189442 0.0445,0.269169 0.03,0.07973 0.072,0.147814 0.12594,0.204259 0.0543,0.05609 0.11959,0.09948 0.1965,0.129469 0.0765,0.03034 0.16157,0.04516 0.25541,0.04516 0.0938,0 0.17851,-0.01482 0.25506,-0.04516 0.0762,-0.02999 0.14111,-0.07338 0.19473,-0.129469 0.054,-0.05645 0.0956,-0.124531 0.12488,-0.204259 0.0293,-0.07973 0.0441,-0.169333 0.0441,-0.269169 0,-0.09842 -0.0148,-0.187678 -0.0441,-0.267406 -0.0293,-0.08008 -0.0709,-0.147813 -0.12488,-0.2032 -0.0536,-0.05539 -0.11853,-0.09807 -0.19473,-0.128411 -0.0765,-0.02999 -0.16122,-0.04516 -0.25506,-0.04516" />
      <path
         inkscape:connector-curvature="0"
         id="path710"
         style="fill:#e7665c;fill-opacity:1;fill-rule:nonzero;stroke:none;stroke-width:0.35247713"
         d="m 167.66652,75.566954 h -0.23848 l -0.0526,0.01588 -0.0307,0.04022 -0.24801,0.670277 c -0.0148,0.03881 -0.0268,0.07726 -0.036,0.114653 -0.01,0.03775 -0.018,0.07514 -0.025,0.112536 -0.007,-0.03739 -0.0159,-0.07479 -0.025,-0.112536 -0.01,-0.03739 -0.0212,-0.07585 -0.0349,-0.114653 l -0.242,-0.670277 -0.0314,-0.04022 -0.0554,-0.01588 h -0.25082 l 0.49883,1.254478 h 0.27375 z" />
      <path
         inkscape:connector-curvature="0"
         id="path714"
         style="fill:#7b7979;fill-opacity:1;fill-rule:nonzero;stroke:none;stroke-width:0.35247713"
         d="m 165.53984,71.373943 -0.0815,0.01658 -0.0656,0.0448 -0.043,0.06668 -0.0159,0.08114 0.0159,0.0822 0.043,0.06597 0.0656,0.04374 0.0815,0.01587 0.0815,-0.01587 0.0663,-0.04374 0.0441,-0.06597 0.0159,-0.0822 -0.0159,-0.08114 -0.0441,-0.06668 -0.0663,-0.0448 -0.0815,-0.01658 m 0.0632,-2.015419 c -0.0663,0 -0.12841,0.0063 -0.18521,0.01905 -0.0572,0.0127 -0.11042,0.03034 -0.15946,0.05256 -0.0494,0.02187 -0.0949,0.04762 -0.13652,0.0762 -0.0413,0.02893 -0.0794,0.05927 -0.1136,0.09137 l 0.078,0.12453 0.0649,0.03845 0.0508,-0.02505 c 0.0205,-0.01658 0.0473,-0.03493 0.0804,-0.05468 0.0332,-0.02011 0.0737,-0.03845 0.12206,-0.05503 0.0483,-0.01658 0.10619,-0.02469 0.17357,-0.02469 0.0501,0 0.0967,0.0071 0.14041,0.02152 0.0437,0.01446 0.0818,0.03493 0.11394,0.06209 0.0321,0.02752 0.0575,0.06033 0.0766,0.09913 0.0187,0.0388 0.0279,0.08184 0.0279,0.129469 0,0.06632 -0.0123,0.124178 -0.037,0.172861 -0.025,0.04868 -0.0564,0.09208 -0.0949,0.130528 -0.0381,0.0381 -0.079,0.07303 -0.12277,0.104422 -0.0437,0.03175 -0.0847,0.06315 -0.12312,0.0949 -0.0381,0.0314 -0.0699,0.06526 -0.0945,0.101248 -0.025,0.03598 -0.0374,0.07726 -0.0374,0.123825 v 0.01834 l 0.0198,0.275872 h 0.20284 l 0.03,-0.254353 c 0.004,-0.03669 0.0205,-0.06985 0.049,-0.09984 0.0282,-0.02963 0.0617,-0.05962 0.10124,-0.0896 0.0392,-0.02999 0.0815,-0.06174 0.127,-0.0956 0.0455,-0.03351 0.0871,-0.07373 0.12559,-0.119592 0.0381,-0.04586 0.0699,-0.09948 0.0945,-0.160161 0.025,-0.06103 0.0374,-0.133703 0.0374,-0.217664 0,-0.08325 -0.0155,-0.158044 -0.0466,-0.224366 -0.031,-0.06668 -0.0737,-0.12312 -0.1277,-0.169334 -0.0543,-0.04657 -0.11889,-0.0829 -0.19368,-0.108302 -0.0748,-0.0254 -0.15592,-0.0381 -0.24341,-0.0381" />
      <path
         inkscape:connector-curvature="0"
         id="path718"
         style="fill:#e7665c;fill-opacity:1;fill-rule:nonzero;stroke:none;stroke-width:0.35247713"
         d="m 168.90971,65.450169 h -0.42545 v 0.898525 c 0,0.150636 -0.12206,0.272344 -0.27234,0.272344 -0.15064,0 -0.2727,-0.121708 -0.2727,-0.272344 v -0.898525 h -4.65596 v 0.898525 c 0,0.150636 -0.12206,0.272344 -0.27235,0.272344 -0.15063,0 -0.27234,-0.121708 -0.27234,-0.272344 v -0.898525 h -0.4258 c -0.49072,0 -0.88865,0.397933 -0.88865,0.888647 v 1.033639 h 8.37424 v -1.033639 c 0,-0.490714 -0.39794,-0.888647 -0.88865,-0.888647" />
      <path
         inkscape:connector-curvature="0"
         id="path722"
         style="fill:#7b7979;fill-opacity:1;fill-rule:nonzero;stroke:none;stroke-width:0.35247713"
         d="m 163.01084,64.677833 c -0.15064,0 -0.27234,0.122061 -0.27234,0.272344 v 0.499887 h 0.54468 v -0.499887 c 0,-0.150283 -0.12206,-0.272344 -0.27234,-0.272344" />
      <path
         inkscape:connector-curvature="0"
         id="path726"
         style="fill:#745750;fill-opacity:1;fill-rule:nonzero;stroke:none;stroke-width:0.35247713"
         d="m 163.28322,65.450169 h -0.54469 v 0.898525 c 0,0.150636 0.12171,0.272344 0.27235,0.272344 0.15028,0 0.27234,-0.121708 0.27234,-0.272344 z" />
      <path
         inkscape:connector-curvature="0"
         id="path730"
         style="fill:#7b7979;fill-opacity:1;fill-rule:nonzero;stroke:none;stroke-width:0.35247713"
         d="m 168.21178,64.677833 c -0.15064,0 -0.27234,0.122061 -0.27234,0.272344 v 0.499887 h 0.54468 v -0.499887 c 0,-0.150283 -0.12206,-0.272344 -0.27234,-0.272344" />
      <path
         inkscape:connector-curvature="0"
         id="path734"
         style="fill:#745750;fill-opacity:1;fill-rule:nonzero;stroke:none;stroke-width:0.35247713"
         d="m 168.48416,65.450169 h -0.54469 v 0.898525 c 0,0.150636 0.12171,0.272344 0.27235,0.272344 0.15028,0 0.27234,-0.121708 0.27234,-0.272344 z" />
    </g>
  </g>
</svg>
