<?xml version="1.0" encoding="UTF-8" standalone="no"?>
<!-- Created with Inkscape (http://www.inkscape.org/) -->

<svg
   xmlns:dc="http://purl.org/dc/elements/1.1/"
   xmlns:cc="http://creativecommons.org/ns#"
   xmlns:rdf="http://www.w3.org/1999/02/22-rdf-syntax-ns#"
   xmlns:svg="http://www.w3.org/2000/svg"
   xmlns="http://www.w3.org/2000/svg"
   xmlns:sodipodi="http://sodipodi.sourceforge.net/DTD/sodipodi-0.dtd"
   xmlns:inkscape="http://www.inkscape.org/namespaces/inkscape"
   width="222"
   height="50"
   viewBox="0 0 58.737498 13.229167"
   version="1.1"
   id="svg3487"
   inkscape:version="0.92.5 (2060ec1f9f, 2020-04-08)"
   sodipodi:docname="donate-calendar-1.svg">
  <defs
     id="defs3481" />
  <sodipodi:namedview
     id="base"
     pagecolor="#ffffff"
     bordercolor="#666666"
     borderopacity="1.0"
     inkscape:pageopacity="0.0"
     inkscape:pageshadow="2"
     inkscape:zoom="2.8"
     inkscape:cx="-17.940336"
     inkscape:cy="22.635926"
     inkscape:document-units="mm"
     inkscape:current-layer="layer1"
     showgrid="false"
     units="px"
     inkscape:window-width="1920"
     inkscape:window-height="964"
     inkscape:window-x="0"
     inkscape:window-y="27"
     inkscape:window-maximized="1" />
  <metadata
     id="metadata3484">
    <rdf:RDF>
      <cc:Work
         rdf:about="">
        <dc:format>image/svg+xml</dc:format>
        <dc:type
           rdf:resource="http://purl.org/dc/dcmitype/StillImage" />
        <dc:title></dc:title>
      </cc:Work>
    </rdf:RDF>
  </metadata>
  <g
     inkscape:label="Layer 1"
     inkscape:groupmode="layer"
     id="layer1"
     transform="translate(0,-283.77081)">
    <g
       id="g3358"
       transform="translate(-50.950332,219.10277)">
      <path
         inkscape:connector-curvature="0"
         id="path300"
         style="fill:#ffffff;fill-opacity:1;fill-rule:nonzero;stroke:none;stroke-width:0.35277778"
         d="m 58.425323,65.450169 h -6.596944 c -0.490714,0 -0.888648,0.397933 -0.888648,0.888647 v 6.002867 c 0,0.490714 0.397934,0.888647 0.888648,0.888647 h 6.596944 c 0.490714,0 0.888647,-0.397933 0.888647,-0.888647 v -6.002867 c 0,-0.490714 -0.397933,-0.888647 -0.888647,-0.888647" />
      <path
         inkscape:connector-curvature="0"
         id="path304"
         style="fill:#2ba543;fill-opacity:1;fill-rule:nonzero;stroke:none;stroke-width:0.35277778"
         d="m 58.425323,65.450169 h -6.596944 c -0.490714,0 -0.888648,0.397933 -0.888648,0.888647 v 1.033639 h 8.374239 v -1.033639 c 0,-0.490714 -0.397933,-0.888647 -0.888647,-0.888647" />
      <path
         inkscape:connector-curvature="0"
         id="path308"
         style="fill:#27963c;fill-opacity:1;fill-rule:nonzero;stroke:none;stroke-width:0.35277778"
         d="m 54.093776,76.821361 c -0.03916,0 -0.06491,-0.01834 -0.07691,-0.05503 l -0.02469,-0.121003 -0.08184,0.07937 c -0.02857,0.02364 -0.05927,0.0441 -0.09207,0.06103 -0.03316,0.01729 -0.06879,0.03069 -0.106539,0.03986 -0.03775,0.0095 -0.07902,0.01411 -0.122767,0.01411 -0.06844,0 -0.131233,-0.01446 -0.188383,-0.04269 -0.05715,-0.02858 -0.106186,-0.06985 -0.147461,-0.124177 -0.04092,-0.05433 -0.07267,-0.121356 -0.09525,-0.201084 -0.02222,-0.08008 -0.03351,-0.171097 -0.03351,-0.274108 0,-0.09278 0.0127,-0.179211 0.03775,-0.258939 0.0254,-0.08008 0.06174,-0.149225 0.109008,-0.207786 0.04727,-0.05891 0.103717,-0.104775 0.169686,-0.137583 0.06632,-0.03316 0.140406,-0.04974 0.222603,-0.04974 0.0702,0 0.130175,0.01129 0.179917,0.03387 0.04974,0.02223 0.09419,0.05221 0.132997,0.08961 v -0.662517 h 0.301978 v 1.816806 z m -0.402167,-0.221192 c 0.0628,0 0.116064,-0.01305 0.160161,-0.03916 0.0441,-0.02611 0.08572,-0.06315 0.124531,-0.111478 v -0.562328 c -0.03422,-0.04163 -0.07126,-0.07091 -0.111831,-0.08784 -0.04022,-0.01729 -0.08361,-0.02575 -0.130175,-0.02575 -0.04551,0 -0.08678,0.0085 -0.124177,0.02575 -0.03704,0.01693 -0.06844,0.04269 -0.09384,0.07761 -0.02575,0.03457 -0.04551,0.07867 -0.05962,0.131939 -0.01376,0.05327 -0.02046,0.116416 -0.02046,0.188736 0,0.07338 0.0056,0.135819 0.01764,0.186619 0.01164,0.05115 0.02857,0.09243 0.0508,0.124884 0.02187,0.0321 0.04868,0.05539 0.08043,0.0695 0.03175,0.01411 0.06738,0.02152 0.106539,0.02152" />
      <path
         inkscape:connector-curvature="0"
         id="path312"
         style="fill:#27963c;fill-opacity:1;fill-rule:nonzero;stroke:none;stroke-width:0.35277778"
         d="m 55.245525,75.547375 c 0.07902,0 0.151694,0.0127 0.218369,0.03775 0.06632,0.0254 0.123473,0.06244 0.171803,0.110772 0.04798,0.04868 0.08537,0.10795 0.112184,0.178506 0.02716,0.07056 0.04057,0.150989 0.04057,0.2413 l -0.0032,0.05715 -0.01094,0.03528 -0.02152,0.01834 -0.03422,0.0056 h -0.775053 c 0.0088,0.128764 0.04374,0.223308 0.10407,0.283633 0.05997,0.06033 0.140052,0.09031 0.239536,0.09031 0.04904,0 0.09102,-0.0056 0.126647,-0.01693 0.03528,-0.01129 0.06632,-0.02399 0.09278,-0.0381 l 0.0695,-0.03775 0.05821,-0.01729 0.03175,0.0074 0.02328,0.02081 0.08819,0.110066 c -0.03351,0.03916 -0.07091,0.07197 -0.112536,0.09843 -0.04163,0.02646 -0.08502,0.04762 -0.130175,0.0635 -0.04551,0.01588 -0.09137,0.02716 -0.138289,0.03387 -0.04692,0.0064 -0.09243,0.0095 -0.136172,0.0095 -0.08749,0 -0.168275,-0.01446 -0.243417,-0.04339 -0.07514,-0.02893 -0.140406,-0.07161 -0.195792,-0.128411 -0.05539,-0.05644 -0.09878,-0.126647 -0.130527,-0.210255 -0.0321,-0.08361 -0.04798,-0.18027 -0.04798,-0.290336 0,-0.08537 0.01411,-0.166159 0.04163,-0.2413 0.02787,-0.0755 0.06738,-0.141112 0.119238,-0.19685 0.05186,-0.05609 0.115006,-0.100189 0.189442,-0.132645 0.07479,-0.03281 0.15875,-0.04904 0.252589,-0.04904 m 0.006,0.216606 c -0.08784,0 -0.156633,0.02469 -0.206375,0.07444 -0.04974,0.04974 -0.08149,0.120297 -0.0956,0.211314 h 0.567267 c 0,-0.03916 -0.0053,-0.07585 -0.01587,-0.11042 -0.01058,-0.03457 -0.02681,-0.06491 -0.04868,-0.09102 -0.02222,-0.02611 -0.04974,-0.04692 -0.08326,-0.06174 -0.03351,-0.01517 -0.07267,-0.02258 -0.117475,-0.02258" />
      <path
         inkscape:connector-curvature="0"
         id="path316"
         style="fill:#27963c;fill-opacity:1;fill-rule:nonzero;stroke:none;stroke-width:0.35277778"
         d="m 57.037812,75.832278 -0.02611,0.02681 -0.03739,0.0099 -0.04516,-0.01411 -0.05292,-0.03175 -0.07267,-0.03175 c -0.02787,-0.0095 -0.0628,-0.01411 -0.104423,-0.01411 -0.05292,0 -0.09948,0.0095 -0.139347,0.02893 -0.03986,0.01905 -0.07303,0.04657 -0.09984,0.0822 -0.02646,0.03598 -0.04621,0.07937 -0.05927,0.130175 -0.01305,0.05115 -0.0194,0.108655 -0.0194,0.173214 0,0.06667 0.0071,0.126294 0.02152,0.178505 0.01411,0.05221 0.03457,0.09596 0.06174,0.131233 0.02681,0.03563 0.05927,0.06244 0.09772,0.08079 0.0381,0.01834 0.08149,0.02752 0.129469,0.02752 0.04798,0 0.08714,-0.006 0.116769,-0.01764 l 0.07514,-0.03916 0.05327,-0.03916 0.0508,-0.01764 0.05503,0.02822 0.08678,0.109714 c -0.03351,0.03916 -0.06985,0.07197 -0.109008,0.09843 -0.03916,0.02681 -0.07937,0.04798 -0.121356,0.06385 -0.04198,0.01588 -0.08537,0.02681 -0.130527,0.03351 -0.0448,0.0064 -0.08925,0.0099 -0.132998,0.0099 -0.07761,0 -0.150636,-0.01446 -0.219075,-0.04339 -0.06844,-0.02893 -0.128058,-0.07126 -0.178858,-0.126648 -0.05115,-0.05539 -0.09137,-0.123119 -0.121003,-0.203552 -0.02999,-0.08043 -0.0448,-0.171803 -0.0448,-0.274461 0,-0.09208 0.01305,-0.177448 0.03986,-0.256117 0.02646,-0.07867 0.06526,-0.146756 0.11677,-0.204258 0.05115,-0.0575 0.114653,-0.102306 0.1905,-0.135114 0.07585,-0.03246 0.162983,-0.04904 0.261761,-0.04904 0.09384,0 0.175683,0.01517 0.246239,0.04551 0.07055,0.02999 0.134055,0.07338 0.190147,0.129469 z" />
      <path
         inkscape:connector-curvature="0"
         id="path320"
         style="fill:#040606;fill-opacity:1;fill-rule:nonzero;stroke:none;stroke-width:0.35277778"
         d="m 54.732374,71.856402 -1.231547,-1.196269 0.174625,-0.179917 1.037872,1.008239 1.847497,-2.206978 0.192264,0.161219 z" />
      <path
         inkscape:connector-curvature="0"
         id="path324"
         style="fill:#040606;fill-opacity:1;fill-rule:nonzero;stroke:none;stroke-width:0.35277778"
         d="m 52.526455,66.621215 v 0 c -0.150283,0 -0.272344,-0.122061 -0.272344,-0.272344 v -1.398764 c 0,-0.150284 0.122061,-0.272345 0.272344,-0.272345 0.150283,0 0.272344,0.122061 0.272344,0.272345 v 1.398764 c 0,0.150283 -0.122061,0.272344 -0.272344,0.272344" />
      <path
         inkscape:connector-curvature="0"
         id="path328"
         style="fill:#040606;fill-opacity:1;fill-rule:nonzero;stroke:none;stroke-width:0.35277778"
         d="m 57.727317,66.621215 v 0 c -0.150283,0 -0.272344,-0.122061 -0.272344,-0.272344 v -1.398764 c 0,-0.150284 0.122061,-0.272345 0.272344,-0.272345 0.150283,0 0.272344,0.122061 0.272344,0.272345 v 1.398764 c 0,0.150283 -0.122061,0.272344 -0.272344,0.272344" />
      <path
         inkscape:connector-curvature="0"
         id="path332"
         style="fill:#ffffff;fill-opacity:1;fill-rule:nonzero;stroke:none;stroke-width:0.35277778"
         d="m 68.469329,65.450169 h -6.596944 c -0.490714,0 -0.888648,0.397933 -0.888648,0.888647 v 6.002867 c 0,0.490714 0.397934,0.888647 0.888648,0.888647 h 6.596944 c 0.490714,0 0.888647,-0.397933 0.888647,-0.888647 v -6.002867 c 0,-0.490714 -0.397933,-0.888647 -0.888647,-0.888647" />
      <path
         inkscape:connector-curvature="0"
         id="path336"
         style="fill:#2ba543;fill-opacity:1;fill-rule:nonzero;stroke:none;stroke-width:0.35277778"
         d="m 68.469329,65.450169 h -6.596944 c -0.490714,0 -0.888648,0.397933 -0.888648,0.888647 v 1.033639 h 8.374239 v -1.033639 c 0,-0.490714 -0.397933,-0.888647 -0.888647,-0.888647" />
      <path
         inkscape:connector-curvature="0"
         id="path340"
         style="fill:#27963c;fill-opacity:1;fill-rule:nonzero;stroke:none;stroke-width:0.35277778"
         d="m 63.970919,75.566954 v 1.297164 c 0,0.05468 -0.0071,0.105833 -0.02152,0.154164 -0.01411,0.04798 -0.03704,0.09031 -0.06844,0.126647 -0.0314,0.03598 -0.07232,0.06456 -0.123473,0.08537 -0.0508,0.02081 -0.112888,0.03105 -0.186266,0.03105 l -0.07937,-0.0053 -0.07479,-0.01764 0.0099,-0.16263 0.0194,-0.0314 0.06103,-0.0067 0.07655,-0.0092 0.05009,-0.02928 0.02681,-0.05327 c 0.0056,-0.02187 0.0081,-0.04939 0.0081,-0.08184 v -1.297164 z m 0.04516,-0.365478 -0.01587,0.07338 -0.04198,0.05962 -0.06174,0.04127 -0.07585,0.01517 -0.07408,-0.01517 -0.06032,-0.04127 -0.04127,-0.05962 -0.01517,-0.07338 0.01517,-0.07585 0.04127,-0.06103 0.06032,-0.04127 0.07408,-0.01517 0.07585,0.01517 0.06174,0.04127 0.04198,0.06103 z" />
      <path
         inkscape:connector-curvature="0"
         id="path344"
         style="fill:#27963c;fill-opacity:1;fill-rule:nonzero;stroke:none;stroke-width:0.35277778"
         d="M 65.412369,76.821361 H 65.27655 l -0.06703,-0.0127 -0.03669,-0.05221 -0.02681,-0.08925 c -0.0321,0.02858 -0.06315,0.05362 -0.09384,0.07514 -0.03034,0.02187 -0.06209,0.03986 -0.09454,0.05468 -0.03281,0.01446 -0.06738,0.0254 -0.104069,0.03281 -0.03669,0.0074 -0.07726,0.01094 -0.122061,0.01094 -0.05327,0 -0.101953,-0.0071 -0.146756,-0.02117 -0.0448,-0.01446 -0.08325,-0.03598 -0.115711,-0.06456 -0.0321,-0.02857 -0.05715,-0.06421 -0.07514,-0.106539 -0.01799,-0.04269 -0.02681,-0.09207 -0.02681,-0.14852 0,-0.04762 0.01235,-0.09419 0.0374,-0.140405 0.02469,-0.04621 0.06597,-0.0882 0.123825,-0.125236 0.05786,-0.0374 0.135114,-0.06809 0.231069,-0.09278 0.09631,-0.02434 0.215548,-0.03669 0.358423,-0.03669 v -0.07373 c 0,-0.08467 -0.01764,-0.147461 -0.05327,-0.188031 -0.03528,-0.04057 -0.08714,-0.06103 -0.154517,-0.06103 -0.04904,0 -0.08996,0.0056 -0.122413,0.01729 -0.03246,0.01129 -0.06103,0.02399 -0.08502,0.03845 l -0.06668,0.03845 -0.06703,0.01729 -0.05256,-0.01623 -0.03563,-0.03881 -0.05503,-0.09666 c 0.144286,-0.131939 0.318205,-0.198261 0.522111,-0.198261 0.07338,0 0.138641,0.01199 0.196144,0.03598 0.0575,0.02434 0.106186,0.0575 0.14605,0.100542 0.04022,0.04269 0.07056,0.09384 0.09137,0.153458 0.02081,0.05927 0.03104,0.124531 0.03104,0.195439 z m -0.586669,-0.188383 0.08537,-0.0085 0.07408,-0.02505 0.06703,-0.04163 0.06562,-0.05821 v -0.210256 c -0.08819,0 -0.161573,0.0056 -0.220839,0.01658 -0.05891,0.01129 -0.106539,0.0254 -0.14217,0.04269 -0.03598,0.01729 -0.06138,0.03739 -0.07655,0.06032 l -0.02258,0.07514 c 0,0.05327 0.01552,0.09137 0.04692,0.114653 0.0314,0.02293 0.07232,0.03422 0.12312,0.03422" />
      <path
         inkscape:connector-curvature="0"
         id="path348"
         style="fill:#27963c;fill-opacity:1;fill-rule:nonzero;stroke:none;stroke-width:0.35277778"
         d="m 65.831716,76.821361 v -1.254478 h 0.184503 c 0.03916,0 0.06491,0.01834 0.07726,0.05503 l 0.02081,0.09913 0.08008,-0.07091 0.08925,-0.05503 c 0.0314,-0.01552 0.06491,-0.02752 0.100895,-0.03563 0.03563,-0.0081 0.07479,-0.012 0.117122,-0.012 0.06844,0 0.129117,0.01164 0.182386,0.03457 0.05292,0.02328 0.09701,0.05609 0.132645,0.09807 0.03528,0.04198 0.06209,0.09207 0.08043,0.150283 0.01834,0.05821 0.02752,0.122414 0.02752,0.192617 v 0.798336 h -0.301978 v -0.798336 c 0,-0.07655 -0.01764,-0.13582 -0.05292,-0.1778 -0.03563,-0.04198 -0.0889,-0.06315 -0.159808,-0.06315 -0.05221,0 -0.100895,0.01199 -0.146756,0.03563 -0.04551,0.02364 -0.08855,0.05574 -0.129469,0.09631 v 0.907344 z" />
      <path
         inkscape:connector-curvature="0"
         id="path352"
         style="fill:#040606;fill-opacity:1;fill-rule:nonzero;stroke:none;stroke-width:0.35277778"
         d="m 64.776381,71.856402 -1.231547,-1.196269 0.174625,-0.179917 1.037872,1.008239 1.847497,-2.206978 0.192264,0.161219 z" />
      <path
         inkscape:connector-curvature="0"
         id="path356"
         style="fill:#040606;fill-opacity:1;fill-rule:nonzero;stroke:none;stroke-width:0.35277778"
         d="m 62.594168,66.621215 v 0 c -0.150636,0 -0.272344,-0.122061 -0.272344,-0.272344 v -1.398764 c 0,-0.150284 0.121708,-0.272345 0.272344,-0.272345 0.150283,0 0.272344,0.122061 0.272344,0.272345 v 1.398764 c 0,0.150283 -0.122061,0.272344 -0.272344,0.272344" />
      <path
         inkscape:connector-curvature="0"
         id="path360"
         style="fill:#040606;fill-opacity:1;fill-rule:nonzero;stroke:none;stroke-width:0.35277778"
         d="m 67.79503,66.621215 v 0 c -0.150283,0 -0.272344,-0.122061 -0.272344,-0.272344 v -1.398764 c 0,-0.150284 0.122061,-0.272345 0.272344,-0.272345 0.150283,0 0.272344,0.122061 0.272344,0.272345 v 1.398764 c 0,0.150283 -0.122061,0.272344 -0.272344,0.272344" />
      <path
         inkscape:connector-curvature="0"
         id="path364"
         style="fill:#ffffff;fill-opacity:1;fill-rule:nonzero;stroke:none;stroke-width:0.35277778"
         d="m 78.513441,65.450169 h -6.596944 c -0.490714,0 -0.888648,0.397933 -0.888648,0.888647 v 6.002867 c 0,0.490714 0.397934,0.888647 0.888648,0.888647 h 6.596944 c 0.490714,0 0.888647,-0.397933 0.888647,-0.888647 v -6.002867 c 0,-0.490714 -0.397933,-0.888647 -0.888647,-0.888647" />
      <path
         inkscape:connector-curvature="0"
         id="path368"
         style="fill:#2ba543;fill-opacity:1;fill-rule:nonzero;stroke:none;stroke-width:0.35277778"
         d="m 78.513441,65.450169 h -6.596944 c -0.490714,0 -0.888648,0.397933 -0.888648,0.888647 v 1.033639 h 8.374239 v -1.033639 c 0,-0.490714 -0.397933,-0.888647 -0.888647,-0.888647" />
      <path
         inkscape:connector-curvature="0"
         id="path372"
         style="fill:#27963c;fill-opacity:1;fill-rule:nonzero;stroke:none;stroke-width:0.35277778"
         d="m 73.552222,76.821361 v -1.026936 l -0.108656,-0.01729 -0.05715,-0.02434 -0.02117,-0.05151 v -0.123473 h 0.186972 v -0.09278 c 0,-0.07161 0.01094,-0.136172 0.03246,-0.193322 0.02152,-0.0568 0.05256,-0.105481 0.09278,-0.145345 0.04057,-0.03986 0.08961,-0.07055 0.147461,-0.09172 0.05786,-0.02117 0.12312,-0.03175 0.195439,-0.03175 0.05786,0 0.111831,0.0078 0.161572,0.02328 l -0.006,0.151342 -0.03316,0.0441 -0.07091,0.0088 c -0.03598,0 -0.06773,0.0035 -0.09596,0.01129 l -0.07161,0.04057 -0.04445,0.07585 c -0.01023,0.0314 -0.01552,0.0702 -0.01552,0.11677 v 0.0829 h 0.326672 v 0.215195 H 73.8542 v 1.028347 z" />
      <path
         inkscape:connector-curvature="0"
         id="path376"
         style="fill:#27963c;fill-opacity:1;fill-rule:nonzero;stroke:none;stroke-width:0.35277778"
         d="m 74.996106,75.547375 c 0.07902,0 0.151694,0.0127 0.218369,0.03775 0.06632,0.0254 0.123473,0.06244 0.171803,0.110772 0.04798,0.04868 0.08537,0.10795 0.112184,0.178506 0.02716,0.07056 0.04057,0.150989 0.04057,0.2413 l -0.0032,0.05715 -0.01094,0.03528 -0.02152,0.01834 -0.03422,0.0056 h -0.775053 c 0.0088,0.128764 0.04374,0.223308 0.10407,0.283633 0.06033,0.06033 0.140052,0.09031 0.239536,0.09031 0.04904,0 0.09102,-0.0056 0.126647,-0.01693 0.03528,-0.01129 0.06632,-0.02399 0.09278,-0.0381 l 0.06985,-0.03775 0.05786,-0.01729 0.03175,0.0074 0.02328,0.02081 0.08819,0.110066 c -0.03351,0.03916 -0.07091,0.07197 -0.112536,0.09843 -0.04163,0.02646 -0.08502,0.04762 -0.130175,0.0635 -0.04551,0.01588 -0.09137,0.02716 -0.138289,0.03387 -0.04692,0.0064 -0.09243,0.0095 -0.136172,0.0095 -0.08749,0 -0.168275,-0.01446 -0.243417,-0.04339 -0.07514,-0.02893 -0.140053,-0.07161 -0.195439,-0.128411 -0.05574,-0.05644 -0.09913,-0.126647 -0.13088,-0.210255 -0.03175,-0.08361 -0.04798,-0.18027 -0.04798,-0.290336 0,-0.08537 0.01411,-0.166159 0.04163,-0.2413 0.02787,-0.0755 0.06773,-0.141112 0.119238,-0.19685 0.05186,-0.05609 0.115006,-0.100189 0.189442,-0.132645 0.07479,-0.03281 0.15875,-0.04904 0.252589,-0.04904 m 0.006,0.216606 c -0.08784,0 -0.156633,0.02469 -0.206375,0.07444 -0.04974,0.04974 -0.08149,0.120297 -0.0956,0.211314 h 0.567267 c 0,-0.03916 -0.0049,-0.07585 -0.01587,-0.11042 -0.01058,-0.03457 -0.02681,-0.06491 -0.04868,-0.09102 -0.02222,-0.02611 -0.04974,-0.04692 -0.08326,-0.06174 -0.03351,-0.01517 -0.07267,-0.02258 -0.117475,-0.02258" />
      <path
         inkscape:connector-curvature="0"
         id="path380"
         style="fill:#27963c;fill-opacity:1;fill-rule:nonzero;stroke:none;stroke-width:0.35277778"
         d="m 75.910576,76.821361 v -1.816806 h 0.301978 v 0.716492 c 0.04974,-0.05292 0.105833,-0.09525 0.168628,-0.126647 0.06279,-0.0314 0.136172,-0.04692 0.220133,-0.04692 0.06844,0 0.131233,0.01411 0.187678,0.04198 0.0568,0.02822 0.10548,0.06914 0.146755,0.123119 0.04127,0.05362 0.07303,0.120298 0.09525,0.19932 0.02258,0.07902 0.03387,0.169686 0.03387,0.272344 0,0.09384 -0.0127,0.180623 -0.0381,0.260703 -0.02505,0.07973 -0.06138,0.148872 -0.10795,0.207786 -0.04692,0.05856 -0.103717,0.104422 -0.170039,0.137584 -0.06668,0.03281 -0.140758,0.04939 -0.223308,0.04939 -0.0381,0 -0.07338,-0.0039 -0.105128,-0.01164 -0.03175,-0.0078 -0.06068,-0.0187 -0.08678,-0.03246 l -0.07267,-0.0508 -0.06421,-0.06668 -0.01341,0.08467 -0.02505,0.04516 -0.04833,0.01341 z m 0.587022,-1.039283 c -0.06279,0 -0.116416,0.01341 -0.160866,0.03986 -0.04445,0.02646 -0.08572,0.06385 -0.124178,0.11183 V 76.4961 c 0.03422,0.04233 0.07161,0.07197 0.11183,0.08855 0.04057,0.01693 0.08431,0.0254 0.131586,0.0254 0.04551,0 0.08678,-0.0088 0.123473,-0.02575 0.03669,-0.01729 0.06773,-0.04339 0.09349,-0.07832 0.02575,-0.03528 0.04551,-0.07937 0.05927,-0.132645 0.01376,-0.05362 0.02081,-0.116416 0.02081,-0.189089 0,-0.07338 -0.006,-0.135466 -0.01764,-0.186266 -0.01199,-0.05115 -0.02893,-0.09243 -0.0508,-0.124178 -0.02187,-0.03175 -0.04868,-0.05503 -0.08008,-0.0695 -0.0314,-0.01482 -0.06703,-0.02223 -0.106892,-0.02223" />
      <path
         inkscape:connector-curvature="0"
         id="path384"
         style="fill:#040606;fill-opacity:1;fill-rule:nonzero;stroke:none;stroke-width:0.35277778"
         d="m 74.820387,71.856402 -1.231547,-1.196269 0.174625,-0.179917 1.037872,1.008239 1.847497,-2.206978 0.192264,0.161219 z" />
      <path
         inkscape:connector-curvature="0"
         id="path388"
         style="fill:#040606;fill-opacity:1;fill-rule:nonzero;stroke:none;stroke-width:0.35277778"
         d="m 72.599299,66.620898 v 0 c -0.150283,-0.0035 -0.269169,-0.128764 -0.265642,-0.279047 l 0.03422,-1.398059 c 0.0035,-0.150283 0.128411,-0.269169 0.279047,-0.265641 0.150283,0.0035 0.269169,0.128411 0.265642,0.279047 l -0.03422,1.398058 c -0.0039,0.150284 -0.128764,0.26917 -0.279047,0.265642" />
      <path
         inkscape:connector-curvature="0"
         id="path392"
         style="fill:#040606;fill-opacity:1;fill-rule:nonzero;stroke:none;stroke-width:0.35277778"
         d="m 77.823973,66.621215 v 0 c -0.150283,0 -0.272344,-0.122061 -0.272344,-0.272344 v -1.398764 c 0,-0.150284 0.122061,-0.272345 0.272344,-0.272345 0.150283,0 0.272344,0.122061 0.272344,0.272345 v 1.398764 c 0,0.150283 -0.122061,0.272344 -0.272344,0.272344" />
      <path
         inkscape:connector-curvature="0"
         id="path396"
         style="fill:#ffffff;fill-opacity:1;fill-rule:nonzero;stroke:none;stroke-width:0.35277778"
         d="m 88.557448,65.450169 h -6.596944 c -0.490714,0 -0.888648,0.397933 -0.888648,0.888647 v 6.002867 c 0,0.490714 0.397934,0.888647 0.888648,0.888647 h 6.596944 c 0.490714,0 0.888647,-0.397933 0.888647,-0.888647 v -6.002867 c 0,-0.490714 -0.397933,-0.888647 -0.888647,-0.888647" />
      <path
         inkscape:connector-curvature="0"
         id="path400"
         style="fill:#2ba543;fill-opacity:1;fill-rule:nonzero;stroke:none;stroke-width:0.35277778"
         d="m 88.557448,65.450169 h -6.596944 c -0.490714,0 -0.888648,0.397933 -0.888648,0.888647 v 1.033639 h 8.374239 v -1.033639 c 0,-0.490714 -0.397933,-0.888647 -0.888647,-0.888647" />
      <path
         inkscape:connector-curvature="0"
         id="path404"
         style="fill:#27963c;fill-opacity:1;fill-rule:nonzero;stroke:none;stroke-width:0.35277778"
         d="m 83.237418,76.821361 v -1.254478 h 0.184503 c 0.03916,0 0.06491,0.01834 0.07726,0.05503 l 0.0194,0.09313 0.06914,-0.06738 0.07691,-0.05256 0.08819,-0.03493 c 0.0314,-0.0085 0.06562,-0.0127 0.103011,-0.0127 0.07938,0 0.144287,0.02117 0.195087,0.06421 0.05115,0.04269 0.08925,0.09948 0.1143,0.170392 0.01976,-0.04163 0.0441,-0.07726 0.07338,-0.106892 0.02963,-0.02963 0.06174,-0.05397 0.09666,-0.07267 0.03493,-0.0187 0.07232,-0.03281 0.111831,-0.04163 0.03951,-0.0092 0.07937,-0.01341 0.119239,-0.01341 0.0695,0 0.13088,0.01058 0.184503,0.03175 0.05398,0.02117 0.09913,0.05221 0.135819,0.09278 0.03669,0.04092 0.06456,0.09066 0.08396,0.149225 0.01905,0.05856 0.02858,0.125942 0.02858,0.201789 v 0.798336 h -0.301978 v -0.798336 c 0,-0.08008 -0.01764,-0.140053 -0.05256,-0.18027 -0.03493,-0.04057 -0.08643,-0.06068 -0.154164,-0.06068 l -0.08608,0.01588 -0.06985,0.04586 -0.04692,0.07514 c -0.01129,0.03034 -0.01729,0.06491 -0.01729,0.10407 v 0.798336 h -0.303036 v -0.798336 c 0,-0.08396 -0.01693,-0.144992 -0.0508,-0.183445 -0.03387,-0.03845 -0.08361,-0.0575 -0.149578,-0.0575 -0.04339,0 -0.08396,0.01094 -0.121708,0.03245 -0.0381,0.02152 -0.07338,0.05115 -0.105833,0.08855 v 0.918281 z" />
      <path
         inkscape:connector-curvature="0"
         id="path408"
         style="fill:#27963c;fill-opacity:1;fill-rule:nonzero;stroke:none;stroke-width:0.35277778"
         d="m 85.418608,76.821361 v -1.254478 h 0.177094 l 0.06491,0.01729 0.02434,0.05856 0.01834,0.151695 c 0.0448,-0.07761 0.09737,-0.138642 0.158044,-0.183445 0.05997,-0.0448 0.127706,-0.06738 0.202847,-0.06738 0.06174,0 0.113242,0.01446 0.154164,0.04304 l -0.03916,0.22613 -0.01623,0.03104 -0.03281,0.0092 -0.05009,-0.0085 c -0.02117,-0.0056 -0.04939,-0.0085 -0.08431,-0.0085 -0.06279,0 -0.116769,0.01729 -0.161572,0.05186 -0.0448,0.03457 -0.08255,0.08537 -0.113594,0.152047 v 0.781403 z" />
      <path
         inkscape:connector-curvature="0"
         id="path412"
         style="fill:#27963c;fill-opacity:1;fill-rule:nonzero;stroke:none;stroke-width:0.35277778"
         d="m 86.951709,76.84087 c -0.108303,0 -0.191911,-0.03069 -0.250825,-0.09207 -0.05856,-0.06174 -0.08784,-0.146756 -0.08784,-0.255058 V 75.79312 h -0.127 l -0.04233,-0.01588 -0.01764,-0.04762 v -0.119944 l 0.201436,-0.03281 0.06385,-0.342547 0.02258,-0.03775 0.04445,-0.01341 h 0.156633 v 0.394759 h 0.3302 v 0.215194 h -0.3302 v 0.679803 c 0,0.03916 0.0099,0.0695 0.02928,0.09172 0.0194,0.02187 0.04551,0.03281 0.07832,0.03281 l 0.04692,-0.0067 0.03316,-0.01411 0.02505,-0.01376 0.02187,-0.0067 0.02222,0.0067 0.01834,0.02011 0.09031,0.146756 c -0.0441,0.03669 -0.09454,0.06421 -0.151695,0.0829 -0.0568,0.01905 -0.116063,0.02822 -0.177094,0.02822" />
      <path
         inkscape:connector-curvature="0"
         id="path416"
         style="fill:#040606;fill-opacity:1;fill-rule:nonzero;stroke:none;stroke-width:0.35277778"
         d="m 84.864464,71.856402 -1.231547,-1.196269 0.174625,-0.179917 1.037872,1.008239 1.847497,-2.206978 0.192264,0.161219 z" />
      <path
         inkscape:connector-curvature="0"
         id="path420"
         style="fill:#040606;fill-opacity:1;fill-rule:nonzero;stroke:none;stroke-width:0.35277778"
         d="m 82.63953,66.621215 v 0 c -0.150283,0 -0.272344,-0.122061 -0.272344,-0.272344 v -1.398764 c 0,-0.150284 0.122061,-0.272345 0.272344,-0.272345 0.150283,0 0.272344,0.122061 0.272344,0.272345 v 1.398764 c 0,0.150283 -0.122061,0.272344 -0.272344,0.272344" />
      <path
         inkscape:connector-curvature="0"
         id="path424"
         style="fill:#040606;fill-opacity:1;fill-rule:nonzero;stroke:none;stroke-width:0.35277778"
         d="m 87.840392,66.621215 v 0 c -0.150283,0 -0.272344,-0.122061 -0.272344,-0.272344 v -1.398764 c 0,-0.150284 0.122061,-0.272345 0.272344,-0.272345 0.150283,0 0.272344,0.122061 0.272344,0.272345 v 1.398764 c 0,0.150283 -0.122061,0.272344 -0.272344,0.272344" />
      <path
         inkscape:connector-curvature="0"
         id="path428"
         style="fill:#ffffff;fill-opacity:1;fill-rule:nonzero;stroke:none;stroke-width:0.35277778"
         d="M 98.601454,65.450169 H 92.00451 c -0.490714,0 -0.888648,0.397933 -0.888648,0.888647 v 6.002867 c 0,0.490714 0.397934,0.888647 0.888648,0.888647 h 6.596944 c 0.490714,0 0.888647,-0.397933 0.888647,-0.888647 v -6.002867 c 0,-0.490714 -0.397933,-0.888647 -0.888647,-0.888647" />
      <path
         inkscape:connector-curvature="0"
         id="path432"
         style="fill:#2ba543;fill-opacity:1;fill-rule:nonzero;stroke:none;stroke-width:0.35277778"
         d="M 98.601454,65.450169 H 92.00451 c -0.490714,0 -0.888648,0.397933 -0.888648,0.888647 v 1.033639 h 8.374239 v -1.033639 c 0,-0.490714 -0.397933,-0.888647 -0.888647,-0.888647" />
      <path
         inkscape:connector-curvature="0"
         id="path436"
         style="fill:#27963c;fill-opacity:1;fill-rule:nonzero;stroke:none;stroke-width:0.35277778"
         d="m 94.463724,76.821361 h -0.135819 l -0.06703,-0.0127 -0.03669,-0.05221 -0.02681,-0.08925 c -0.0321,0.02858 -0.06315,0.05362 -0.09384,0.07514 -0.03034,0.02187 -0.06209,0.03986 -0.09454,0.05468 -0.03281,0.01446 -0.06738,0.0254 -0.104069,0.03281 -0.03669,0.0074 -0.07726,0.01094 -0.122061,0.01094 -0.05327,0 -0.101953,-0.0071 -0.146756,-0.02117 -0.0448,-0.01446 -0.08361,-0.03598 -0.115711,-0.06456 -0.0321,-0.02857 -0.05715,-0.06421 -0.07514,-0.106539 -0.01799,-0.04269 -0.02681,-0.09207 -0.02681,-0.14852 0,-0.04762 0.01235,-0.09419 0.03704,-0.140405 0.02505,-0.04621 0.06632,-0.0882 0.124178,-0.125236 0.05786,-0.0374 0.135114,-0.06809 0.231069,-0.09278 0.09631,-0.02434 0.215548,-0.03669 0.358423,-0.03669 v -0.07373 c 0,-0.08467 -0.01799,-0.147461 -0.05327,-0.188031 -0.03563,-0.04057 -0.08714,-0.06103 -0.154517,-0.06103 -0.04904,0 -0.08996,0.0056 -0.122413,0.01729 -0.03246,0.01129 -0.06103,0.02399 -0.08502,0.03845 l -0.06668,0.03845 -0.06703,0.01729 -0.05256,-0.01623 -0.03563,-0.03881 -0.05503,-0.09666 c 0.144286,-0.131939 0.318205,-0.198261 0.522111,-0.198261 0.07338,0 0.138641,0.01199 0.196144,0.03598 0.0575,0.02434 0.106186,0.0575 0.14605,0.100542 0.04022,0.04269 0.07056,0.09384 0.09137,0.153458 0.02046,0.05927 0.03104,0.124531 0.03104,0.195439 z m -0.587022,-0.188383 0.08573,-0.0085 0.07408,-0.02505 0.06703,-0.04163 0.06562,-0.05821 v -0.210256 c -0.08819,0 -0.161573,0.0056 -0.220839,0.01658 -0.05891,0.01129 -0.106539,0.0254 -0.142523,0.04269 -0.03563,0.01729 -0.06138,0.03739 -0.0762,0.06032 l -0.02258,0.07514 c 0,0.05327 0.01552,0.09137 0.04692,0.114653 0.0314,0.02293 0.07232,0.03422 0.122767,0.03422" />
      <path
         inkscape:connector-curvature="0"
         id="path440"
         style="fill:#27963c;fill-opacity:1;fill-rule:nonzero;stroke:none;stroke-width:0.35277778"
         d="m 94.883071,77.230901 v -1.664053 h 0.184503 l 0.05009,0.01341 0.02716,0.04163 0.02434,0.116063 c 0.05045,-0.05785 0.108655,-0.104422 0.174272,-0.140405 0.06562,-0.03598 0.142522,-0.05397 0.230364,-0.05397 0.06844,0 0.131233,0.01446 0.187678,0.04304 0.0568,0.02858 0.10548,0.06985 0.146755,0.123825 0.04127,0.05433 0.07303,0.121355 0.09525,0.20073 0.02258,0.07937 0.03387,0.170392 0.03387,0.27305 0,0.09384 -0.0127,0.180623 -0.0381,0.260703 -0.02505,0.07973 -0.06138,0.148872 -0.10795,0.207786 -0.04692,0.05856 -0.103717,0.104422 -0.170039,0.137584 -0.06668,0.03281 -0.140758,0.04939 -0.223308,0.04939 -0.07091,0 -0.130881,-0.01094 -0.18027,-0.03245 -0.04939,-0.02152 -0.09349,-0.05151 -0.132644,-0.08961 v 0.513292 z m 0.587022,-1.448858 c -0.06279,0 -0.116416,0.0134 -0.160866,0.03986 -0.04445,0.02646 -0.08573,0.06385 -0.124178,0.11183 v 0.562328 c 0.03422,0.04233 0.07161,0.07197 0.11183,0.08855 0.04022,0.01693 0.08396,0.0254 0.130175,0.0254 0.04586,0 0.08714,-0.0088 0.124178,-0.02575 0.03704,-0.01729 0.06844,-0.04339 0.09419,-0.07832 0.02575,-0.03493 0.04551,-0.07937 0.05927,-0.132645 0.01376,-0.05327 0.02081,-0.116416 0.02081,-0.189089 0,-0.07303 -0.006,-0.135466 -0.01764,-0.186266 -0.01199,-0.0508 -0.02893,-0.09243 -0.0508,-0.124178 -0.02223,-0.03175 -0.04868,-0.05503 -0.08008,-0.0695 -0.0314,-0.01482 -0.06703,-0.02222 -0.106892,-0.02222" />
      <path
         inkscape:connector-curvature="0"
         id="path444"
         style="fill:#27963c;fill-opacity:1;fill-rule:nonzero;stroke:none;stroke-width:0.35277778"
         d="m 96.388091,76.821361 v -1.254478 h 0.177094 l 0.06491,0.01729 0.02434,0.05856 0.0187,0.151695 c 0.0448,-0.07761 0.09737,-0.138642 0.157692,-0.183445 0.05997,-0.0448 0.127706,-0.06738 0.202847,-0.06738 0.06174,0 0.113242,0.01446 0.154164,0.04304 l -0.03916,0.22613 -0.01587,0.03104 -0.03316,0.0092 -0.05009,-0.0085 c -0.02117,-0.0056 -0.04939,-0.0085 -0.08431,-0.0085 -0.06279,0 -0.116769,0.01729 -0.161572,0.05186 -0.0448,0.03457 -0.08255,0.08537 -0.113594,0.152047 v 0.781403 z" />
      <path
         inkscape:connector-curvature="0"
         id="path448"
         style="fill:#040606;fill-opacity:1;fill-rule:nonzero;stroke:none;stroke-width:0.35277778"
         d="m 94.908471,71.856402 -1.231547,-1.196269 0.174625,-0.179917 1.037872,1.008239 1.847497,-2.206978 0.192264,0.161219 z" />
      <path
         inkscape:connector-curvature="0"
         id="path452"
         style="fill:#040606;fill-opacity:1;fill-rule:nonzero;stroke:none;stroke-width:0.35277778"
         d="m 92.689463,66.621215 v 0 c -0.150283,0 -0.272344,-0.122061 -0.272344,-0.272344 v -1.398764 c 0,-0.150284 0.122061,-0.272345 0.272344,-0.272345 0.150283,0 0.272344,0.122061 0.272344,0.272345 v 1.398764 c 0,0.150283 -0.122061,0.272344 -0.272344,0.272344" />
      <path
         inkscape:connector-curvature="0"
         id="path456"
         style="fill:#040606;fill-opacity:1;fill-rule:nonzero;stroke:none;stroke-width:0.35277778"
         d="m 97.890395,66.621215 v 0 c -0.150283,0 -0.272344,-0.122061 -0.272344,-0.272344 v -1.398764 c 0,-0.150284 0.122061,-0.272345 0.272344,-0.272345 0.150283,0 0.272344,0.122061 0.272344,0.272345 v 1.398764 c 0,0.150283 -0.122061,0.272344 -0.272344,0.272344" />
      <path
         inkscape:connector-curvature="0"
         id="path460"
         style="fill:#ffffff;fill-opacity:1;fill-rule:nonzero;stroke:none;stroke-width:0.35277778"
         d="m 108.6455,65.450169 h -6.59694 c -0.49072,0 -0.88865,0.397933 -0.88865,0.888647 v 6.002867 c 0,0.490714 0.39793,0.888647 0.88865,0.888647 h 6.59694 c 0.49071,0 0.88865,-0.397933 0.88865,-0.888647 v -6.002867 c 0,-0.490714 -0.39794,-0.888647 -0.88865,-0.888647" />
      <path
         inkscape:connector-curvature="0"
         id="path464"
         style="fill:#2ba543;fill-opacity:1;fill-rule:nonzero;stroke:none;stroke-width:0.35277778"
         d="m 108.6455,65.450169 h -6.59694 c -0.49072,0 -0.88865,0.397933 -0.88865,0.888647 v 1.033639 h 8.37424 v -1.033639 c 0,-0.490714 -0.39794,-0.888647 -0.88865,-0.888647" />
      <path
         inkscape:connector-curvature="0"
         id="path468"
         style="fill:#27963c;fill-opacity:1;fill-rule:nonzero;stroke:none;stroke-width:0.35277778"
         d="m 103.35852,76.821361 v -1.254478 h 0.1845 c 0.0392,0 0.0649,0.01834 0.0773,0.05503 l 0.0194,0.09313 0.0692,-0.06738 0.0769,-0.05256 0.0882,-0.03493 c 0.0314,-0.0085 0.0656,-0.0127 0.10336,-0.0127 0.079,0 0.14394,0.02117 0.19474,0.06421 0.0511,0.04269 0.0892,0.09948 0.1143,0.170392 0.0197,-0.04163 0.0441,-0.07726 0.0734,-0.106892 0.0296,-0.02963 0.0617,-0.05397 0.0967,-0.07267 0.0349,-0.0187 0.0723,-0.03281 0.11183,-0.04163 0.0395,-0.0092 0.0794,-0.01341 0.11924,-0.01341 0.0695,0 0.13088,0.01058 0.18451,0.03175 0.054,0.02117 0.0991,0.05221 0.13582,0.09278 0.0367,0.04092 0.0645,0.09066 0.084,0.149225 0.0191,0.05856 0.0286,0.125942 0.0286,0.201789 v 0.798336 h -0.30198 v -0.798336 c 0,-0.08008 -0.0176,-0.140053 -0.0526,-0.18027 -0.0349,-0.04057 -0.0864,-0.06068 -0.15416,-0.06068 l -0.0861,0.01588 -0.0699,0.04586 -0.0469,0.07514 c -0.0113,0.03034 -0.0169,0.06491 -0.0169,0.10407 v 0.798336 h -0.30339 v -0.798336 c 0,-0.08396 -0.0169,-0.144992 -0.0508,-0.183445 -0.0339,-0.03845 -0.0836,-0.0575 -0.14958,-0.0575 -0.0434,0 -0.084,0.01094 -0.12171,0.03245 -0.0381,0.02152 -0.0734,0.05115 -0.10583,0.08855 v 0.918281 z" />
      <path
         inkscape:connector-curvature="0"
         id="path472"
         style="fill:#27963c;fill-opacity:1;fill-rule:nonzero;stroke:none;stroke-width:0.35277778"
         d="m 106.05805,75.547375 c 0.079,0 0.15169,0.0127 0.21837,0.03775 0.0663,0.0254 0.12347,0.06244 0.1718,0.110772 0.048,0.04868 0.0854,0.10795 0.11219,0.178506 0.0272,0.07056 0.0406,0.150989 0.0406,0.2413 l -0.003,0.05715 -0.0109,0.03528 -0.0215,0.01834 -0.0342,0.0056 h -0.77505 c 0.009,0.128764 0.0438,0.223308 0.10407,0.283633 0.06,0.06033 0.14005,0.09031 0.23954,0.09031 0.049,0 0.091,-0.0056 0.12664,-0.01693 0.0353,-0.01129 0.0663,-0.02399 0.0928,-0.0381 l 0.0699,-0.03775 0.0579,-0.01729 0.0318,0.0074 0.0233,0.02081 0.0882,0.110066 c -0.0335,0.03916 -0.0709,0.07197 -0.11254,0.09843 -0.0416,0.02646 -0.085,0.04762 -0.13017,0.0635 -0.0455,0.01588 -0.0914,0.02716 -0.13829,0.03387 -0.0469,0.0064 -0.0924,0.0095 -0.13617,0.0095 -0.0875,0 -0.16828,-0.01446 -0.24342,-0.04339 -0.0751,-0.02893 -0.14041,-0.07161 -0.19544,-0.128411 -0.0557,-0.05644 -0.0991,-0.126647 -0.13123,-0.210255 -0.0314,-0.08361 -0.0476,-0.18027 -0.0476,-0.290336 0,-0.08537 0.0141,-0.166159 0.0416,-0.2413 0.0279,-0.0755 0.0674,-0.141112 0.11924,-0.19685 0.0519,-0.05609 0.11501,-0.100189 0.18944,-0.132645 0.0748,-0.03281 0.15875,-0.04904 0.25259,-0.04904 m 0.006,0.216606 c -0.0878,0 -0.15664,0.02469 -0.20638,0.07444 -0.0497,0.04974 -0.0815,0.120297 -0.0956,0.211314 h 0.56727 c 0,-0.03916 -0.005,-0.07585 -0.0159,-0.11042 -0.0106,-0.03457 -0.0268,-0.06491 -0.0487,-0.09102 -0.0222,-0.02611 -0.0497,-0.04692 -0.0833,-0.06174 -0.0335,-0.01517 -0.0727,-0.02258 -0.11747,-0.02258" />
      <path
         inkscape:connector-curvature="0"
         id="path476"
         style="fill:#27963c;fill-opacity:1;fill-rule:nonzero;stroke:none;stroke-width:0.35277778"
         d="m 107.33567,75.201335 -0.0159,0.07338 -0.0423,0.05997 -0.0617,0.04092 -0.0758,0.01517 -0.0737,-0.01517 -0.0607,-0.04092 -0.0409,-0.05997 -0.0152,-0.07338 0.0152,-0.07585 0.0409,-0.06103 0.0607,-0.04092 0.0737,-0.01552 0.0758,0.01552 0.0617,0.04092 0.0423,0.06103 z m -0.0452,1.619956 h -0.30197 v -1.254478 h 0.30197 z" />
      <path
         inkscape:connector-curvature="0"
         id="path480"
         style="fill:#040606;fill-opacity:1;fill-rule:nonzero;stroke:none;stroke-width:0.35277778"
         d="m 104.95251,71.856402 -1.23155,-1.196269 0.17463,-0.179917 1.03787,1.008239 1.8475,-2.206978 0.19226,0.161219 z" />
      <path
         inkscape:connector-curvature="0"
         id="path484"
         style="fill:#040606;fill-opacity:1;fill-rule:nonzero;stroke:none;stroke-width:0.35277778"
         d="m 102.73672,66.621215 v 0 c -0.15028,0 -0.27234,-0.122061 -0.27234,-0.272344 v -1.398764 c 0,-0.150284 0.12206,-0.272345 0.27234,-0.272345 0.15064,0 0.27234,0.122061 0.27234,0.272345 v 1.398764 c 0,0.150283 -0.1217,0.272344 -0.27234,0.272344" />
      <path
         inkscape:connector-curvature="0"
         id="path488"
         style="fill:#040606;fill-opacity:1;fill-rule:nonzero;stroke:none;stroke-width:0.35277778"
         d="m 107.93761,66.621215 v 0 c -0.15028,0 -0.27234,-0.122061 -0.27234,-0.272344 v -1.398764 c 0,-0.150284 0.12206,-0.272345 0.27234,-0.272345 0.15028,0 0.27234,0.122061 0.27234,0.272345 v 1.398764 c 0,0.150283 -0.12206,0.272344 -0.27234,0.272344" />
    </g>
  </g>
</svg>
