<svg id="Laag_1" data-name="Laag 1" xmlns="http://www.w3.org/2000/svg" xmlns:xlink="http://www.w3.org/1999/xlink" viewBox="0 0 136.07 136.07"><defs><style>.cls-1{fill:none;}.cls-2{clip-path:url(#clip-path);}.cls-3{fill:#005c6d;}.cls-4{fill:#fff;}</style><clipPath id="clip-path" transform="translate(0 0.01)"><rect class="cls-1" y="-0.01" width="136.07" height="136.07"/></clipPath></defs><g class="cls-2"><path class="cls-3" d="M62.11,135.8A68,68,0,1,0,.26,62.1a68,68,0,0,0,61.85,73.7" transform="translate(0 0.01)"/><path class="cls-4" d="M93.1,99.84,92,99.75l-.08,1a2.87,2.87,0,0,1-.21.85,3.41,3.41,0,0,1-.45.74l.57.45a2.47,2.47,0,0,0,.78-.88,2.64,2.64,0,0,0,.36-1.09Zm-1.7-.15-1.06-.09-.09,1a2.58,2.58,0,0,1-.2.85,3.19,3.19,0,0,1-.45.74l.57.45a2.57,2.57,0,0,0,.78-.88,2.65,2.65,0,0,0,.36-1.08Zm-3.28,7-1.05-.1-.1,1.1,1.06.09Zm.59-6.7-1.06-.1-.45,5.24,1,.09Zm-9.23,7,2.8.24,0-.67-.85-.23.29-3.39a1.6,1.6,0,0,1,.61-.55,1.46,1.46,0,0,1,.83-.15,1.19,1.19,0,0,1,.89.4,1.5,1.5,0,0,1,.21,1.11l-.25,2.81-.88.07-.06.68,2.8.24L86,107l-.86-.23.25-2.83a2.47,2.47,0,0,0-.37-1.74,1.9,1.9,0,0,0-1.4-.67,1.94,1.94,0,0,0-1,.17,2.09,2.09,0,0,0-.78.65v-.87L80,101.27l-.06.68.86.23-.36,4.13-.88.08Zm-1.87-4.85a1.65,1.65,0,0,1,.25,1.07l0,.14-2.67-.24v0a2.06,2.06,0,0,1,.55-1.08,1.15,1.15,0,0,1,1-.37,1.16,1.16,0,0,1,.94.5m0,4.59a2.53,2.53,0,0,0,.87-.43l-.36-.72a2.17,2.17,0,0,1-.73.36,2.65,2.65,0,0,1-1,.07,1.39,1.39,0,0,1-1.1-.64,2.28,2.28,0,0,1-.3-1.41l0,0,3.76.32,0-.65a2.82,2.82,0,0,0-.43-1.94,2.2,2.2,0,0,0-1.71-.86,2.24,2.24,0,0,0-1.81.67,3,3,0,0,0-.92,2l0,.24a3,3,0,0,0,.53,2.15,2.45,2.45,0,0,0,1.85,1,3.29,3.29,0,0,0,1.25-.1m-7-5.51-.37,4.13-.88.08-.06.67,2.8.25.06-.68-.86-.23.29-3.32a1.34,1.34,0,0,1,.49-.51,1.18,1.18,0,0,1,.71-.13l.6.08.23-1-.2-.06a1.18,1.18,0,0,0-.25,0,1.37,1.37,0,0,0-.85.18,1.94,1.94,0,0,0-.67.64l0-.85-1.81-.16-.06.68ZM66.87,106l1.61.14,0-.68-.65-.2.44-5-1.06-.09-.77-.07-.06.68.76.22-.29,3.34a1.41,1.41,0,0,1-.61.6,1.68,1.68,0,0,1-1,.14,1,1,0,0,1-.82-.42,2.22,2.22,0,0,1-.16-1.3l.3-3.42-1.06-.09-.66-.06-.06.68.65.21-.22,2.58a2.78,2.78,0,0,0,.36,1.93,1.86,1.86,0,0,0,1.42.73,1.87,1.87,0,0,0,1.78-.82Zm-6.81-7.84-.13,1.4L59,99.44l-.07.78.92.08-.31,3.51a1.68,1.68,0,0,0,.27,1.25,1.38,1.38,0,0,0,1,.48,2.81,2.81,0,0,0,.58,0,1.22,1.22,0,0,0,.46-.12l-.09-.73-.29,0h-.32a.63.63,0,0,1-.43-.21.8.8,0,0,1-.12-.58l.31-3.52,1.1.1.07-.79L61,99.61l.12-1.4Zm-2.17,1.76a2.41,2.41,0,0,0-.83-.55,3.72,3.72,0,0,0-1.17-.28,2.41,2.41,0,0,0-1.61.37,1.49,1.49,0,0,0-.7,1.15,1.25,1.25,0,0,0,.44,1.11,4.17,4.17,0,0,0,1.53.77,2.32,2.32,0,0,1,1,.48.69.69,0,0,1,.22.59.7.7,0,0,1-.37.57,1.56,1.56,0,0,1-.9.15,2.8,2.8,0,0,1-.64-.13,1.13,1.13,0,0,1-.47-.28l-.13-.8-.79-.07-.11,1.33a3.17,3.17,0,0,0,.9.52,4.39,4.39,0,0,0,1.16.26,2.73,2.73,0,0,0,1.68-.34,1.52,1.52,0,0,0,.73-1.19,1.3,1.3,0,0,0-.44-1.13,4.29,4.29,0,0,0-1.58-.78,2.71,2.71,0,0,1-1-.44.66.66,0,0,1-.19-.56.8.8,0,0,1,.32-.57,1.25,1.25,0,0,1,.86-.18,2.06,2.06,0,0,1,.65.17,1.35,1.35,0,0,1,.46.34l.11.71.79.07Zm-8.06-.41-.36,4.13-.89.08-.06.67,2.8.25.06-.68-.86-.22.29-3.33a1.41,1.41,0,0,1,.49-.51,1.28,1.28,0,0,1,.72-.13l.59.08.23-1-.2-.06-.25,0a1.38,1.38,0,0,0-.85.18,1.94,1.94,0,0,0-.67.64l0-.85L49,98.56l-.06.68Zm-3.32,0a1.71,1.71,0,0,1,.24,1.07l0,.14-2.67-.24v0a2.14,2.14,0,0,1,.55-1.08,1.27,1.27,0,0,1,1.9.14m0,4.59a2.72,2.72,0,0,0,.87-.43l-.35-.72a2.32,2.32,0,0,1-.74.36,2.9,2.9,0,0,1-.95.07,1.39,1.39,0,0,1-1.1-.64,2.35,2.35,0,0,1-.3-1.41l0,0,3.76.33.05-.66A2.79,2.79,0,0,0,47.34,99a2.2,2.2,0,0,0-1.71-.86,2.25,2.25,0,0,0-1.81.67,2.94,2.94,0,0,0-.92,2l0,.23a3.08,3.08,0,0,0,.53,2.16,2.48,2.48,0,0,0,1.86,1,3.26,3.26,0,0,0,1.24-.1m-7.43-6.39-2.24-.19-.06.68.47.12,1.52,5.2.8.07L42,98.71l.49,0L42.5,98l-2.24-.2-.06.68.69.17-1.44,3.2-.14.41h0l-.06-.42-.91-3.4.71,0Z" transform="translate(0 0.01)"/><path class="cls-4" d="M106.89,91.52a1.6,1.6,0,0,1,.24,1.07v.14l-2.67-.23v0a2.07,2.07,0,0,1,.56-1.08,1.14,1.14,0,0,1,.94-.37,1.21,1.21,0,0,1,1,.5m0,4.59a2.39,2.39,0,0,0,.86-.43l-.35-.72a2.26,2.26,0,0,1-.73.36,2.69,2.69,0,0,1-1,.07,1.35,1.35,0,0,1-1.09-.64,2.28,2.28,0,0,1-.3-1.41l0,0,3.75.33.06-.66a2.82,2.82,0,0,0-.44-1.94,2.23,2.23,0,0,0-1.7-.86,2.27,2.27,0,0,0-1.82.67,3,3,0,0,0-.91,2l0,.24a3,3,0,0,0,.53,2.15,2.43,2.43,0,0,0,1.85,1,3.31,3.31,0,0,0,1.25-.1m-6.48-7.71-.12,1.4-.92-.08-.07.78.92.08-.31,3.51a1.68,1.68,0,0,0,.27,1.25,1.37,1.37,0,0,0,1,.48,2.33,2.33,0,0,0,.59,0,1.22,1.22,0,0,0,.45-.12l-.08-.73-.3,0h-.31a.66.66,0,0,1-.44-.21.76.76,0,0,1-.11-.58l.3-3.52,1.1.1.07-.78-1.1-.1.12-1.4ZM89.07,94.65l2.8.24.06-.67L91.07,94l.3-3.39a1.53,1.53,0,0,1,.61-.55,1.44,1.44,0,0,1,.83-.15,1.19,1.19,0,0,1,.89.4,1.6,1.6,0,0,1,.21,1.11l-.25,2.81-.88.07-.06.68,2.8.24,0-.67-.85-.23L95,91.48a2.42,2.42,0,0,0-.36-1.74,1.9,1.9,0,0,0-1.4-.67,1.92,1.92,0,0,0-1,.17,2.12,2.12,0,0,0-.79.65V89l-1.81-.16-.06.68.86.23L90,93.9l-.89.08ZM87.21,89.8a1.59,1.59,0,0,1,.24,1.07V91l-2.67-.24v0a2.07,2.07,0,0,1,.56-1.08,1.14,1.14,0,0,1,.94-.37,1.18,1.18,0,0,1,.95.5m0,4.59a2.39,2.39,0,0,0,.86-.43l-.35-.72a2.26,2.26,0,0,1-.73.36,2.94,2.94,0,0,1-1,.07A1.37,1.37,0,0,1,85,93a2.28,2.28,0,0,1-.3-1.41l0,0,3.75.33.06-.65A2.82,2.82,0,0,0,88,89.33a2.19,2.19,0,0,0-1.7-.86,2.27,2.27,0,0,0-1.82.67,3,3,0,0,0-.91,2l0,.24a3,3,0,0,0,.53,2.15,2.43,2.43,0,0,0,1.85,1,3.31,3.31,0,0,0,1.25-.1m-9.16-3.51a3.26,3.26,0,0,1,.51-1.6,1.23,1.23,0,0,1,1.17-.53,1.35,1.35,0,0,1,.76.29,1.55,1.55,0,0,1,.48.62l-.23,2.69a1.71,1.71,0,0,1-.59.55,1.32,1.32,0,0,1-.81.15,1.23,1.23,0,0,1-1.06-.63A2.37,2.37,0,0,1,78.06,91Zm2.69,3,1.78.16.06-.68-.86-.22.66-7.53-1-.09-.87-.07-.06.67.86.23-.21,2.36a1.9,1.9,0,0,0-.62-.61,2.07,2.07,0,0,0-.89-.27,2,2,0,0,0-1.75.71,3.94,3.94,0,0,0-.79,2.2v.12A3.26,3.26,0,0,0,77.42,93a2,2,0,0,0,1.59.91,2.18,2.18,0,0,0,1-.12,1.84,1.84,0,0,0,.74-.54Zm-6-5.21A1.65,1.65,0,0,1,75,89.78l0,.14-2.67-.24v0a2.23,2.23,0,0,1,.56-1.09,1.17,1.17,0,0,1,1-.36,1.14,1.14,0,0,1,.94.5m0,4.59a2.72,2.72,0,0,0,.87-.43l-.36-.72a2.17,2.17,0,0,1-.73.36,2.9,2.9,0,0,1-1,.07,1.39,1.39,0,0,1-1.1-.64,2.28,2.28,0,0,1-.3-1.41l0,0,3.76.33.05-.66a2.79,2.79,0,0,0-.43-1.93,2.2,2.2,0,0,0-1.71-.86,2.24,2.24,0,0,0-1.81.67,3,3,0,0,0-.92,2l0,.23a3,3,0,0,0,.53,2.16,2.45,2.45,0,0,0,1.85,1,3.29,3.29,0,0,0,1.25-.1m-11-.87,2.79.24.06-.67-.86-.23L66,88.32a1.61,1.61,0,0,1,.63-.5,1.49,1.49,0,0,1,.81-.14,1.17,1.17,0,0,1,.89.42,1.61,1.61,0,0,1,.21,1.09L68.3,92l-.88.08-.06.67,2.8.24.06-.67-.86-.23.24-2.8a2.46,2.46,0,0,0-.36-1.76,1.87,1.87,0,0,0-1.4-.68,2,2,0,0,0-1,.15,2.1,2.1,0,0,0-.79.58l.29-3.33-1.92-.17-.06.68.86.23-.59,6.69-.89.08Zm-7.07-.62,2.8.25.06-.68-.86-.22.3-3.4a1.53,1.53,0,0,1,.61-.55,1.42,1.42,0,0,1,.82-.15,1.23,1.23,0,0,1,.9.4,1.6,1.6,0,0,1,.21,1.11l-.25,2.81-.88.08-.06.67,2.8.25,0-.68-.85-.22.24-2.84a2.38,2.38,0,0,0-.36-1.73,2.14,2.14,0,0,0-2.42-.51,2,2,0,0,0-.79.65v-.87L57.15,86l-.06.68.86.23-.36,4.13-.89.08ZM54.78,87A1.6,1.6,0,0,1,55,88v.14l-2.67-.23v0a2.07,2.07,0,0,1,.56-1.08,1.14,1.14,0,0,1,.94-.37,1.21,1.21,0,0,1,1,.5m0,4.6a2.57,2.57,0,0,0,.86-.44l-.35-.72a2.26,2.26,0,0,1-.73.36,2.69,2.69,0,0,1-1,.07,1.35,1.35,0,0,1-1.09-.64,2.28,2.28,0,0,1-.3-1.41l0,0,3.75.33.06-.66a2.82,2.82,0,0,0-.44-1.94,2.23,2.23,0,0,0-1.7-.86,2.3,2.3,0,0,0-1.82.67,3,3,0,0,0-.91,2l0,.24a3,3,0,0,0,.53,2.15,2.43,2.43,0,0,0,1.85,1,3.32,3.32,0,0,0,1.25-.09M46,88.07a3.15,3.15,0,0,1,.52-1.59A1.25,1.25,0,0,1,47.71,86a1.39,1.39,0,0,1,.77.29,1.7,1.7,0,0,1,.48.63l-.24,2.66a1.58,1.58,0,0,1-.58.57,1.44,1.44,0,0,1-.82.15,1.29,1.29,0,0,1-1.07-.63A2.38,2.38,0,0,1,46,88.19Zm-1.06,0a3.13,3.13,0,0,0,.43,2.07,2,2,0,0,0,1.61.92,2.1,2.1,0,0,0,.92-.11,1.78,1.78,0,0,0,.73-.49l0,.55a1.66,1.66,0,0,1-.43,1.1,1.26,1.26,0,0,1-1.07.31,3.14,3.14,0,0,1-.77-.17,3.21,3.21,0,0,1-.67-.32l-.35.79a3.19,3.19,0,0,0,.83.39,4.09,4.09,0,0,0,.9.2,2.4,2.4,0,0,0,1.83-.49,2.47,2.47,0,0,0,.79-1.72l.5-5.71-.89-.08-.16.72a1.9,1.9,0,0,0-.64-.68,2,2,0,0,0-.94-.3,2,2,0,0,0-1.76.71A3.87,3.87,0,0,0,45,88Zm-2.26-2.18A1.56,1.56,0,0,1,42.93,87v.14l-2.67-.23v0a2.15,2.15,0,0,1,.56-1.08,1.13,1.13,0,0,1,.94-.37,1.19,1.19,0,0,1,.95.51m0,4.59a2.37,2.37,0,0,0,.87-.44l-.35-.72a2.22,2.22,0,0,1-.74.36,2.63,2.63,0,0,1-.95.07,1.32,1.32,0,0,1-1.09-.64,2.35,2.35,0,0,1-.31-1.41l0,0L43.9,88l.06-.66a2.83,2.83,0,0,0-.44-1.94,2.23,2.23,0,0,0-1.71-.86,2.28,2.28,0,0,0-1.81.67,3,3,0,0,0-.92,2l0,.24a3.06,3.06,0,0,0,.54,2.15,2.42,2.42,0,0,0,1.85,1,3.45,3.45,0,0,0,1.24-.1m-5.94-8-.59,6.69-.88.07-.06.68,2.8.24.06-.67-.86-.23.66-7.52L36,81.59l-.06.68Zm-3.4,2.59a1.71,1.71,0,0,1,.24,1.07v.13l-2.67-.23v0A2.08,2.08,0,0,1,31.46,85a1.12,1.12,0,0,1,.94-.36,1.17,1.17,0,0,1,1,.5m0,4.59a2.72,2.72,0,0,0,.87-.43l-.35-.72a2.11,2.11,0,0,1-.74.35,2.44,2.44,0,0,1-1,.07,1.34,1.34,0,0,1-1.09-.63,2.29,2.29,0,0,1-.31-1.41l0,0,3.76.33,0-.66a2.79,2.79,0,0,0-.43-1.93,2.17,2.17,0,0,0-1.71-.86,2.27,2.27,0,0,0-1.81.66,3,3,0,0,0-.92,2l0,.23a3,3,0,0,0,.53,2.15,2.46,2.46,0,0,0,1.86,1,3.26,3.26,0,0,0,1.24-.1M24.57,86.2a3.15,3.15,0,0,1,.52-1.59,1.22,1.22,0,0,1,1.19-.53,1.35,1.35,0,0,1,.76.28,1.66,1.66,0,0,1,.48.63l-.23,2.67a1.57,1.57,0,0,1-.59.56,1.32,1.32,0,0,1-.81.15,1.28,1.28,0,0,1-1.08-.63,2.44,2.44,0,0,1-.25-1.43Zm-1.06,0a3.19,3.19,0,0,0,.43,2.07,2.07,2.07,0,0,0,1.61.92,2.17,2.17,0,0,0,.93-.11,2,2,0,0,0,.73-.49l-.05.55a1.79,1.79,0,0,1-.43,1.1,1.29,1.29,0,0,1-1.07.3,3.14,3.14,0,0,1-.77-.17,2.86,2.86,0,0,1-.68-.32l-.34.8a3.77,3.77,0,0,0,.83.39,4,4,0,0,0,.89.19A2.34,2.34,0,0,0,27.43,91a2.38,2.38,0,0,0,.78-1.71l.5-5.72-.89-.07-.16.72A1.8,1.8,0,0,0,27,83.5a2,2,0,0,0-.94-.3,1.93,1.93,0,0,0-1.76.71,3.75,3.75,0,0,0-.81,2.2Z" transform="translate(0 0.01)"/><path class="cls-4" d="M105.54,78.15a1.6,1.6,0,0,1,.24,1.07v.14l-2.67-.23v0a2.07,2.07,0,0,1,.56-1.08,1.13,1.13,0,0,1,.94-.37,1.21,1.21,0,0,1,1,.5m0,4.6a2.57,2.57,0,0,0,.86-.44l-.35-.72a2.22,2.22,0,0,1-.74.36,2.61,2.61,0,0,1-.95.07,1.32,1.32,0,0,1-1.09-.64A2.28,2.28,0,0,1,103,80v0l3.76.33.06-.66a2.82,2.82,0,0,0-.44-1.94,2.23,2.23,0,0,0-1.71-.86,2.28,2.28,0,0,0-1.81.67,3,3,0,0,0-.91,2l0,.24a3.07,3.07,0,0,0,.54,2.15,2.43,2.43,0,0,0,1.85,1,3.32,3.32,0,0,0,1.25-.09m-7-5.52-.36,4.14-.89.07-.05.67,2.79.25.06-.68-.86-.22.29-3.33a1.41,1.41,0,0,1,.49-.51,1.28,1.28,0,0,1,.72-.13l.6.09.22-1-.2-.06-.25,0a1.38,1.38,0,0,0-.85.18,2.14,2.14,0,0,0-.67.64l0-.85-1.82-.16-.06.68Zm-3.32,0a1.59,1.59,0,0,1,.24,1.07v.14l-2.67-.24v0a2.07,2.07,0,0,1,.56-1.08,1.13,1.13,0,0,1,.94-.37,1.18,1.18,0,0,1,1,.5m0,4.59a2.44,2.44,0,0,0,.87-.43l-.35-.72a2.22,2.22,0,0,1-.74.36,2.63,2.63,0,0,1-1,.07A1.37,1.37,0,0,1,93,80.48a2.35,2.35,0,0,1-.31-1.41l0,0,3.76.32.06-.65a2.82,2.82,0,0,0-.44-1.94,2.2,2.2,0,0,0-1.71-.86,2.25,2.25,0,0,0-1.81.67,3,3,0,0,0-.92,2l0,.24A3.12,3.12,0,0,0,92.12,81a2.45,2.45,0,0,0,1.86,1,3.24,3.24,0,0,0,1.24-.1m-9.15-3.51a3.26,3.26,0,0,1,.51-1.6,1.21,1.21,0,0,1,1.17-.53,1.38,1.38,0,0,1,.76.29,1.75,1.75,0,0,1,.48.62l-.24,2.69a1.6,1.6,0,0,1-.58.55,1.35,1.35,0,0,1-.81.15,1.23,1.23,0,0,1-1.06-.63,2.44,2.44,0,0,1-.24-1.43Zm2.68,3,1.79.16.06-.68-.86-.22.66-7.53L89.35,73l-.88-.07-.06.68.86.22-.2,2.36a1.92,1.92,0,0,0-1.52-.88,2,2,0,0,0-1.74.71A3.87,3.87,0,0,0,85,78.24v.11a3.13,3.13,0,0,0,.42,2.07,2,2,0,0,0,1.59.91,2.12,2.12,0,0,0,1-.12,1.81,1.81,0,0,0,.75-.54Zm-11.14-1,2.8.24.06-.67-.86-.23.3-3.4a1.69,1.69,0,0,1,.61-.55,1.62,1.62,0,0,1,.83-.15,1.19,1.19,0,0,1,.89.41,1.6,1.6,0,0,1,.21,1.11L82.2,80l-.88.07-.06.68,2.8.24.06-.67-.86-.23.24-2.83a2.42,2.42,0,0,0-.36-1.74,1.9,1.9,0,0,0-1.4-.67,1.93,1.93,0,0,0-1,.16,2.22,2.22,0,0,0-.79.65v-.86l-1.82-.16-.06.68.86.22-.36,4.14-.89.07ZM73.19,79a.72.72,0,0,1-.19-.6.93.93,0,0,1,.45-.7,1.68,1.68,0,0,1,1-.21l1.12.1-.08,1a1.67,1.67,0,0,1-.68.55,1.9,1.9,0,0,1-1,.16,1,1,0,0,1-.69-.26m3.7,1.3.06-.67-.42-.1v-.21c0-.07,0-.15,0-.22l.24-2.79a1.74,1.74,0,0,0-.48-1.49,2.4,2.4,0,0,0-1.55-.64,3.63,3.63,0,0,0-1.24.08,3,3,0,0,0-1,.42l-.1,1.12.82.08.16-.61a1.46,1.46,0,0,1,.52-.23,2.24,2.24,0,0,1,.7,0,1.3,1.3,0,0,1,.87.37,1.05,1.05,0,0,1,.25.84l-.06.67-1.08-.09a3.24,3.24,0,0,0-1.87.28A1.47,1.47,0,0,0,72,78.32a1.68,1.68,0,0,0,.36,1.28,2,2,0,0,0,1.34.56,1.91,1.91,0,0,0,1-.17,2.7,2.7,0,0,0,.82-.58v.37c0,.13,0,.27,0,.43Zm-11.11-6-.36,4.14-.88.07-.06.68,2.8.24.06-.67-.86-.23.29-3.32a1.19,1.19,0,0,1,.48-.51,1.28,1.28,0,0,1,.72-.14l.6.09.22-1-.19-.06-.26,0a1.49,1.49,0,0,0-.84.18,2,2,0,0,0-.67.65l0-.85L65,73.46l-.06.68Zm-6.13,1.49a2.71,2.71,0,0,1,.52-1.48,1.25,1.25,0,0,1,1.19-.5,1.28,1.28,0,0,1,1.1.7,2.75,2.75,0,0,1,.26,1.55v.12a2.79,2.79,0,0,1-.52,1.49,1.41,1.41,0,0,1-2.3-.2A2.76,2.76,0,0,1,59.64,76Zm-1.07,0a3.26,3.26,0,0,0,.51,2.18,2.38,2.38,0,0,0,1.83,1,2.34,2.34,0,0,0,2-.66,3.16,3.16,0,0,0,.88-2.06v-.12A3.17,3.17,0,0,0,63.26,74a2.59,2.59,0,0,0-3.79-.32,3.23,3.23,0,0,0-.88,2.05Zm-5.08-.56A2.76,2.76,0,0,1,54,73.84a1.27,1.27,0,0,1,1.2-.51,1.29,1.29,0,0,1,1.09.71,2.7,2.7,0,0,1,.26,1.54v.12A2.76,2.76,0,0,1,56,77.19a1.31,1.31,0,0,1-1.19.5,1.3,1.3,0,0,1-1.1-.7,2.74,2.74,0,0,1-.26-1.56Zm-1.06,0A3.14,3.14,0,0,0,53,77.52a2.59,2.59,0,0,0,3.78.33,3.17,3.17,0,0,0,.89-2.06v-.11a3.2,3.2,0,0,0-.52-2.18,2.57,2.57,0,0,0-3.78-.33,3.13,3.13,0,0,0-.88,2ZM48.64,72l-2.24-.2-.06.68.47.12,1.53,5.2.79.07,2.39-4.85L52,73l.06-.68-2.24-.2-.06.68.69.17L49,76.17l-.14.41h0l-.06-.43-.91-3.4.71,0ZM32.86,76.48l2.8.25.06-.68-.86-.22.3-3.47a1.24,1.24,0,0,1,.53-.51,1.48,1.48,0,0,1,.81-.13,1,1,0,0,1,.84.45,2,2,0,0,1,.2,1.22L37.31,76l-.89.07-.06.68,2.8.24.06-.67-.86-.23.25-2.85a1.72,1.72,0,0,1,.47-.94A1.09,1.09,0,0,1,40,72a1,1,0,0,1,.84.43A1.9,1.9,0,0,1,41,73.7l-.23,2.65-.89.07,0,.67,2.8.25.06-.68-.86-.22.23-2.64a2.83,2.83,0,0,0-.35-1.87,1.74,1.74,0,0,0-1.35-.73,1.86,1.86,0,0,0-1.08.2,2.14,2.14,0,0,0-.79.71,1.6,1.6,0,0,0-.55-.85,1.78,1.78,0,0,0-1-.36A2.2,2.2,0,0,0,36,71a1.87,1.87,0,0,0-.77.57v-.76l-1.82-.16-.06.68.86.23-.36,4.13-.89.08Zm-4.62-3.37a2.76,2.76,0,0,1,.52-1.48,1.27,1.27,0,0,1,1.2-.51,1.29,1.29,0,0,1,1.09.71,2.7,2.7,0,0,1,.26,1.54v.12A2.76,2.76,0,0,1,30.78,75a1.31,1.31,0,0,1-1.19.5,1.33,1.33,0,0,1-1.11-.7,2.83,2.83,0,0,1-.25-1.56Zm-1.06,0a3.14,3.14,0,0,0,.51,2.18,2.59,2.59,0,0,0,3.78.33,3.11,3.11,0,0,0,.88-2.06l0-.11a3.2,3.2,0,0,0-.52-2.18A2.57,2.57,0,0,0,28.07,71,3.13,3.13,0,0,0,27.19,73Z" transform="translate(0 0.01)"/><path class="cls-4" d="M111.54,62.87l-.13,1.4-.91-.08-.07.78.91.08-.3,3.52a1.69,1.69,0,0,0,.27,1.25,1.34,1.34,0,0,0,1,.47,2.25,2.25,0,0,0,.58,0,1.11,1.11,0,0,0,.45-.12l-.08-.73-.29,0h-.32a.59.59,0,0,1-.43-.21.8.8,0,0,1-.12-.58l.31-3.52,1.1.1.06-.78-1.09-.1.12-1.4Zm-6.7-.92-.58,6.7-.89.07-.06.67,2.8.25.06-.68-.86-.22.16-1.85.69.06L107.53,69,107,69l0,.67,2.4.21.06-.67-.65-.19-1.65-2.51,1.68-1.69.72-.07.06-.68-2.42-.22-.06.68.52.12-1.37,1.42-.67-.06.42-4.83L104,61.05l-.06.68Zm-2.33-1-1.05-.09-.09,1.08,1,.09Zm-2.65,8.18,2.8.25,0-.68-.85-.22.43-5-1.93-.17-.06.68.86.23-.36,4.13-.88.08Zm-7.22-.63,2.8.24L95.5,68l-.86-.23.3-3.45a1.69,1.69,0,0,1,.63-.5,1.49,1.49,0,0,1,.81-.14,1.18,1.18,0,0,1,.89.42,1.55,1.55,0,0,1,.21,1.09L97.24,68l-.89.08-.06.67,2.8.24.06-.67-.86-.23.25-2.8a2.51,2.51,0,0,0-.37-1.76,1.85,1.85,0,0,0-1.39-.68,2,2,0,0,0-1,.15,2.1,2.1,0,0,0-.79.58l.3-3.33-1.93-.17-.06.68.86.23-.59,6.69-.88.08ZM88.4,66.78a2.89,2.89,0,0,1-.22-1.51l0-.23a2.83,2.83,0,0,1,.48-1.43,1.28,1.28,0,0,1,1.24-.49,1.64,1.64,0,0,1,.65.17,1.36,1.36,0,0,1,.46.33l.15.93.84.08.06-1.29a2.33,2.33,0,0,0-.86-.71A3.1,3.1,0,0,0,90,62.29,2.31,2.31,0,0,0,88,63a3.18,3.18,0,0,0-.84,2l0,.22a3.13,3.13,0,0,0,.48,2.13,2.38,2.38,0,0,0,1.86,1,2.49,2.49,0,0,0,1.66-.44,1.61,1.61,0,0,0,.78-1.28v0l-1-.08a1,1,0,0,1-.47.76,1.43,1.43,0,0,1-.95.24,1.29,1.29,0,0,1-1.14-.69M86.13,62.6a2.51,2.51,0,0,0-.83-.55,3.72,3.72,0,0,0-1.17-.28,2.47,2.47,0,0,0-1.61.36,1.52,1.52,0,0,0-.71,1.16,1.25,1.25,0,0,0,.44,1.11,4.31,4.31,0,0,0,1.54.77,2.46,2.46,0,0,1,1,.48.71.71,0,0,1,.21.59.68.68,0,0,1-.37.57,1.52,1.52,0,0,1-.9.15,2.61,2.61,0,0,1-.63-.13,1.07,1.07,0,0,1-.47-.28l-.13-.8-.8-.07L81.56,67a3.31,3.31,0,0,0,.9.52,4.38,4.38,0,0,0,1.17.26,2.68,2.68,0,0,0,1.67-.34A1.49,1.49,0,0,0,86,66.26a1.28,1.28,0,0,0-.44-1.13A4.23,4.23,0,0,0,84,64.35a2.62,2.62,0,0,1-1-.44.67.67,0,0,1-.19-.56.73.73,0,0,1,.32-.57,1.23,1.23,0,0,1,.86-.18,1.89,1.89,0,0,1,.65.17,1.47,1.47,0,0,1,.46.33l.11.72.79.06Zm-6.86,0a1.56,1.56,0,0,1,.24,1.06v.14l-2.67-.23v0a2.24,2.24,0,0,1,.56-1.08,1.15,1.15,0,0,1,1-.37,1.17,1.17,0,0,1,.94.51m0,4.59a2.57,2.57,0,0,0,.86-.44L79.79,66a2.17,2.17,0,0,1-.73.36,2.65,2.65,0,0,1-1,.07,1.34,1.34,0,0,1-1.1-.64,2.28,2.28,0,0,1-.3-1.41l0,0,3.75.33.06-.66a2.82,2.82,0,0,0-.44-1.94,2.21,2.21,0,0,0-1.7-.86,2.3,2.3,0,0,0-1.82.67,3,3,0,0,0-.91,2l0,.24a3,3,0,0,0,.53,2.15,2.49,2.49,0,0,0,1.85,1,3.51,3.51,0,0,0,1.25-.1M70.5,63.71A3.08,3.08,0,0,1,71,62.13a1.23,1.23,0,0,1,1.18-.54,1.47,1.47,0,0,1,.77.29,1.7,1.7,0,0,1,.48.63l-.23,2.67a1.65,1.65,0,0,1-.59.56,1.33,1.33,0,0,1-.81.15,1.27,1.27,0,0,1-1.08-.63,2.37,2.37,0,0,1-.25-1.43Zm-1.06,0a3.11,3.11,0,0,0,.43,2.07,2,2,0,0,0,1.61.92,2,2,0,0,0,.92-.11,1.78,1.78,0,0,0,.73-.49l0,.55a1.71,1.71,0,0,1-.42,1.1,1.27,1.27,0,0,1-1.07.31,3.34,3.34,0,0,1-1.45-.49l-.34.8a3.45,3.45,0,0,0,.82.38,4.09,4.09,0,0,0,.9.2,2.39,2.39,0,0,0,1.84-.49,2.48,2.48,0,0,0,.78-1.71l.5-5.72L73.75,61l-.16.72A1.9,1.9,0,0,0,73,61a2.22,2.22,0,0,0-.94-.3,2,2,0,0,0-1.76.71,3.87,3.87,0,0,0-.8,2.2Zm-5-5.32-.59,6.7-.88.07-.06.68,2.8.24.06-.67-.86-.23.66-7.52-1.93-.17-.06.68ZM61,61a1.68,1.68,0,0,1,.24,1.06v.14L58.57,62v0a2.08,2.08,0,0,1,.56-1.08,1.16,1.16,0,0,1,.94-.37A1.21,1.21,0,0,1,61,61m0,4.59a2.54,2.54,0,0,0,.87-.44l-.35-.72a2.13,2.13,0,0,1-.74.36,2.65,2.65,0,0,1-.95.07,1.34,1.34,0,0,1-1.09-.63,2.31,2.31,0,0,1-.31-1.41l0,0,3.76.33.05-.66a2.79,2.79,0,0,0-.43-1.93,2.21,2.21,0,0,0-1.71-.87,2.32,2.32,0,0,0-1.81.67,3,3,0,0,0-.92,2l0,.23a3,3,0,0,0,.53,2.15,2.46,2.46,0,0,0,1.86,1A3.26,3.26,0,0,0,61,65.6m-5.89-5.11a1.72,1.72,0,0,1,.24,1.07l0,.14-2.67-.24v0a2.06,2.06,0,0,1,.55-1.08,1.15,1.15,0,0,1,1-.37,1.2,1.2,0,0,1,.95.5m0,4.59a2.53,2.53,0,0,0,.87-.43l-.36-.72a2.17,2.17,0,0,1-.73.36,2.65,2.65,0,0,1-.95.07,1.36,1.36,0,0,1-1.1-.64,2.28,2.28,0,0,1-.3-1.41l0,0,3.76.32.05-.65A2.82,2.82,0,0,0,56,60a2.2,2.2,0,0,0-1.71-.86,2.24,2.24,0,0,0-1.81.67,3,3,0,0,0-.92,2l0,.24A3.07,3.07,0,0,0,52,64.21a2.45,2.45,0,0,0,1.85,1,3.29,3.29,0,0,0,1.25-.1m-11-.87,2.8.25,0-.68-.85-.22.3-3.46a1.61,1.61,0,0,1,.63-.5,1.49,1.49,0,0,1,.81-.14,1.22,1.22,0,0,1,.89.42A1.61,1.61,0,0,1,48.92,61l-.24,2.81-.89.08-.06.67,2.8.25.06-.68-.86-.22L50,61.07a2.52,2.52,0,0,0-.37-1.76,1.88,1.88,0,0,0-1.39-.68,2,2,0,0,0-1,.15,2.22,2.22,0,0,0-.79.58L46.73,56l-1.92-.17-.06.68.86.23L45,63.46l-.88.08ZM36.22,56l-.58,6.69-.89.08-.06.67,2.8.25.06-.68-.86-.23.16-1.84.69.06L38.91,63l-.55,0-.06.68,2.41.21,0-.68-.64-.18-1.65-2.52,1.68-1.68.72-.08.06-.68-2.42-.21-.06.68.52.12L37.6,60.11l-.67-.06.42-4.84L35.42,55l-.06.68ZM30.11,60a2.84,2.84,0,0,1,.52-1.48,1.29,1.29,0,0,1,1.2-.51,1.31,1.31,0,0,1,1.1.71,2.74,2.74,0,0,1,.25,1.55v.12a2.68,2.68,0,0,1-.52,1.48,1.4,1.4,0,0,1-2.29-.2,2.72,2.72,0,0,1-.26-1.55Zm-1.06,0a3.14,3.14,0,0,0,.51,2.18,2.35,2.35,0,0,0,1.83,1,2.38,2.38,0,0,0,2-.65,3.23,3.23,0,0,0,.88-2.06v-.12a3.25,3.25,0,0,0-.51-2.18,2.39,2.39,0,0,0-1.83-1,2.36,2.36,0,0,0-2,.67,3.2,3.2,0,0,0-.88,2.06ZM24,59.48A2.84,2.84,0,0,1,24.48,58a1.26,1.26,0,0,1,1.2-.5,1.29,1.29,0,0,1,1.1.7A2.83,2.83,0,0,1,27,59.75v.12a2.73,2.73,0,0,1-.53,1.48,1.25,1.25,0,0,1-1.19.5,1.28,1.28,0,0,1-1.1-.7A2.81,2.81,0,0,1,24,59.6Zm-1.06,0a3.22,3.22,0,0,0,.51,2.17A2.59,2.59,0,0,0,27.2,62,3.23,3.23,0,0,0,28.08,60v-.12a3.21,3.21,0,0,0-.51-2.18,2.38,2.38,0,0,0-1.83-1,2.35,2.35,0,0,0-2,.66,3.25,3.25,0,0,0-.88,2.06Z" transform="translate(0 0.01)"/><path class="cls-4" d="M93.64,55.3l2.8.24.06-.67-.86-.23.3-3.4a1.69,1.69,0,0,1,.61-.55,1.52,1.52,0,0,1,.83-.14,1.19,1.19,0,0,1,.89.4,1.6,1.6,0,0,1,.21,1.11l-.25,2.81-.88.07-.06.68,2.8.24.06-.67L99.29,55l.24-2.83a2.42,2.42,0,0,0-.36-1.74,1.9,1.9,0,0,0-1.4-.67,1.93,1.93,0,0,0-1,.16,2.25,2.25,0,0,0-.79.66v-.87l-1.82-.16-.06.68.86.22-.36,4.14-.89.07Zm-.4-8.45-1.06-.09-.09,1.05,1,.1ZM93,49.41l-1.92-.17-.06.68.86.23-.48,5.43a1.14,1.14,0,0,1-.27.75.69.69,0,0,1-.58.19l-.23,0-.22-.06-.14.82.29.1.3,0A1.69,1.69,0,0,0,91.91,57a1.93,1.93,0,0,0,.59-1.33ZM89.8,46.55l-1-.09-.1,1.07,1.06.1Zm-2.66,8.18,2.8.24L90,54.3l-.86-.23.44-5-1.93-.17-.06.68.86.23L88.09,54l-.89.07Zm-.81-5.18.06-.72L82,48.45l-.16,1.72.9.08.16-.88,2.12.18-3.5,3.94-.06.74,4.59.4.15-1.71-.89-.08-.16.88-2.37-.2Zm-14.92,3.8,2.8.25.06-.68-.86-.22.3-3.4a1.61,1.61,0,0,1,.61-.55,1.42,1.42,0,0,1,.82-.15,1.23,1.23,0,0,1,.9.4,1.6,1.6,0,0,1,.21,1.11L76,52.92l-.88.08-.06.67,2.8.25,0-.68L77.06,53l.24-2.83a2.39,2.39,0,0,0-.36-1.74,1.91,1.91,0,0,0-1.4-.68,2,2,0,0,0-1,.17,2,2,0,0,0-.79.65v-.87l-1.81-.16-.06.68.86.23-.36,4.14-.89.07ZM69.55,48.5a1.6,1.6,0,0,1,.24,1.07v.14l-2.67-.23v0a2.11,2.11,0,0,1,.56-1.08A1.14,1.14,0,0,1,68.6,48a1.21,1.21,0,0,1,1,.5m0,4.6a2.57,2.57,0,0,0,.86-.44l-.35-.72a2.22,2.22,0,0,1-.74.36,2.61,2.61,0,0,1-1,.07,1.32,1.32,0,0,1-1.09-.64,2.28,2.28,0,0,1-.3-1.41l0,0,3.75.33.06-.66A2.82,2.82,0,0,0,70.38,48a2.23,2.23,0,0,0-1.7-.86,2.29,2.29,0,0,0-1.82.67,3,3,0,0,0-.91,2l0,.24a3,3,0,0,0,.53,2.15,2.43,2.43,0,0,0,1.85,1,3.32,3.32,0,0,0,1.25-.09m-6.48-7.72L63,46.78,62,46.7l-.07.78.92.08-.31,3.52a1.69,1.69,0,0,0,.27,1.25,1.36,1.36,0,0,0,1,.47,2.33,2.33,0,0,0,.59,0,1.22,1.22,0,0,0,.45-.12l-.08-.73-.3,0h-.31a.65.65,0,0,1-.44-.2.8.8,0,0,1-.11-.59l.3-3.52,1.1.1.07-.78-1.1-.1.12-1.4ZM58.27,47.2l-.37,4.14-.88.07-.06.68,2.8.24.06-.67L59,51.43l.29-3.32a1.21,1.21,0,0,1,.49-.51,1.18,1.18,0,0,1,.71-.13l.6.08.23-1-.2,0a1.18,1.18,0,0,0-.25,0,1.44,1.44,0,0,0-.85.17,2,2,0,0,0-.67.65l0-.85-1.81-.16-.06.68Zm-5.89,3.51a.69.69,0,0,1-.18-.6.89.89,0,0,1,.44-.7,1.71,1.71,0,0,1,1-.21l1.12.1-.08,1a1.52,1.52,0,0,1-.68.55,1.81,1.81,0,0,1-1,.17,1.09,1.09,0,0,1-.69-.26m3.7,1.3.06-.67-.42-.1V51c0-.08,0-.15,0-.22L56,48a1.76,1.76,0,0,0-.49-1.49A2.45,2.45,0,0,0,54,45.88a3.89,3.89,0,0,0-1.24.09,3,3,0,0,0-1,.42l-.1,1.12.82.07.16-.6a1.46,1.46,0,0,1,.52-.23,2,2,0,0,1,.7,0,1.28,1.28,0,0,1,.87.37,1.05,1.05,0,0,1,.25.84l-.06.67-1.08-.1a3.32,3.32,0,0,0-1.87.29A1.46,1.46,0,0,0,51.14,50a1.65,1.65,0,0,0,.37,1.29,1.91,1.91,0,0,0,1.33.56,2,2,0,0,0,1-.17,2.57,2.57,0,0,0,.82-.59v.38c0,.13,0,.27,0,.43Zm-9.74-1.83a.75.75,0,0,1-.18-.6.86.86,0,0,1,.44-.69,1.58,1.58,0,0,1,1-.21l1.13.09-.09,1a1.63,1.63,0,0,1-.67.55,1.92,1.92,0,0,1-1,.16,1,1,0,0,1-.7-.26m3.71,1.3.06-.67-.43-.1a1.48,1.48,0,0,1,0-.21,1.64,1.64,0,0,1,0-.22L50,47.49A1.8,1.8,0,0,0,49.47,46a2.42,2.42,0,0,0-1.56-.64,3.57,3.57,0,0,0-1.23.08,2.93,2.93,0,0,0-1,.42L45.58,47l.81.08.17-.6a1.21,1.21,0,0,1,.51-.24,2.31,2.31,0,0,1,.71,0,1.3,1.3,0,0,1,.87.37,1.09,1.09,0,0,1,.25.84l-.06.67L47.75,48a3.27,3.27,0,0,0-1.87.28,1.46,1.46,0,0,0-.77,1.22,1.6,1.6,0,0,0,.36,1.28,2.22,2.22,0,0,0,2.34.39,2.54,2.54,0,0,0,.81-.58c0,.12,0,.25,0,.37s0,.27,0,.43ZM39.61,43,39,49.69l-.89.07-.06.68,2.8.24.06-.67-.86-.23.16-1.84.69.06,1.37,2.06-.55,0,0,.67,2.4.21.06-.67-.65-.19-1.65-2.51,1.68-1.68.72-.08.06-.68-2.42-.21-.06.68.52.11L41,47.15l-.67,0,.42-4.84-1.93-.17-.06.68Z" transform="translate(0 0.01)"/><path class="cls-4" d="M95.77,37.55A1.59,1.59,0,0,1,96,38.62v.13l-2.67-.23v0a2.24,2.24,0,0,1,.56-1.08,1.26,1.26,0,0,1,1.89.14m0,4.59a2.56,2.56,0,0,0,.86-.43L96.29,41a2,2,0,0,1-.73.35,2.48,2.48,0,0,1-1,.07,1.35,1.35,0,0,1-1.09-.63,2.29,2.29,0,0,1-.3-1.41l0,0,3.75.33L97,39a2.79,2.79,0,0,0-.44-1.93,2.15,2.15,0,0,0-1.7-.86,2.29,2.29,0,0,0-1.82.66,3,3,0,0,0-.91,2l0,.23a3,3,0,0,0,.53,2.16,2.48,2.48,0,0,0,1.85,1,3.29,3.29,0,0,0,1.25-.1M87,38.66a3.15,3.15,0,0,1,.52-1.59,1.21,1.21,0,0,1,1.18-.53,1.38,1.38,0,0,1,.77.28,1.89,1.89,0,0,1,.48.63l-.24,2.67a1.66,1.66,0,0,1-.58.57,1.44,1.44,0,0,1-.82.14,1.25,1.25,0,0,1-1.07-.63A2.37,2.37,0,0,1,87,38.77Zm-1.06,0a3.13,3.13,0,0,0,.43,2.07,2.05,2.05,0,0,0,1.61.92,2.1,2.1,0,0,0,.92-.11,1.88,1.88,0,0,0,.73-.49l0,.55a1.73,1.73,0,0,1-.42,1.1,1.3,1.3,0,0,1-1.07.3,3.12,3.12,0,0,1-.78-.17,2.78,2.78,0,0,1-.67-.32l-.34.8a3.9,3.9,0,0,0,.82.39,4,4,0,0,0,.9.19,2.35,2.35,0,0,0,1.84-.49,2.46,2.46,0,0,0,.78-1.71l.5-5.72-.89-.07-.16.72a1.75,1.75,0,0,0-.64-.68,2,2,0,0,0-.94-.3,1.94,1.94,0,0,0-1.76.71,3.81,3.81,0,0,0-.8,2.2Zm-1.19-5.82-1-.09-.1,1.07,1.06.09ZM82.1,41l2.8.24,0-.67-.86-.23.44-5-1.93-.17-.06.68.86.22L83,40.29l-.88.07Zm-10.57-.93,2.8.25.06-.68-.86-.22L73.84,36a1.3,1.3,0,0,1,.52-.52,1.48,1.48,0,0,1,.81-.13,1.08,1.08,0,0,1,.84.46,1.87,1.87,0,0,1,.2,1.21L76,39.67l-.89.08-.06.67,2.8.24.06-.67L77,39.76l.25-2.85a1.72,1.72,0,0,1,.47-.94,1.13,1.13,0,0,1,.92-.31,1.09,1.09,0,0,1,.85.43,2,2,0,0,1,.18,1.24L79.47,40l-.88.07-.06.68,2.8.24.06-.67-.86-.23.23-2.64a2.77,2.77,0,0,0-.35-1.87,1.77,1.77,0,0,0-1.35-.73A1.89,1.89,0,0,0,78,35a2.11,2.11,0,0,0-.8.72,1.57,1.57,0,0,0-.55-.86,1.86,1.86,0,0,0-1-.36,2.29,2.29,0,0,0-1,.14,1.93,1.93,0,0,0-.78.57v-.76L72,34.32,72,35l.86.23-.36,4.14-.89.07Zm-10.35-.9,2.8.24.06-.67-.86-.23.3-3.46a1.24,1.24,0,0,1,.53-.51,1.39,1.39,0,0,1,.81-.13,1,1,0,0,1,.84.45,2,2,0,0,1,.2,1.22l-.24,2.65-.88.07-.06.67,2.8.25.06-.68-.86-.22L66.93,36a1.75,1.75,0,0,1,.47-.95,1.12,1.12,0,0,1,.92-.31,1.06,1.06,0,0,1,.84.44,1.87,1.87,0,0,1,.19,1.23l-.23,2.65-.89.08-.06.67,2.81.24.06-.67-.86-.23.23-2.63a2.79,2.79,0,0,0-.36-1.88,1.76,1.76,0,0,0-1.34-.73,2,2,0,0,0-1.08.2,2.26,2.26,0,0,0-.79.72,1.63,1.63,0,0,0-.55-.86,1.8,1.8,0,0,0-1-.35,2.2,2.2,0,0,0-1,.13,2,2,0,0,0-.77.58v-.76l-1.82-.16-.06.68.86.22-.36,4.14-.89.07Zm-4.62-3.38a2.71,2.71,0,0,1,.52-1.48,1.25,1.25,0,0,1,1.19-.5,1.28,1.28,0,0,1,1.1.7,2.74,2.74,0,0,1,.26,1.55v.12a2.73,2.73,0,0,1-.52,1.48,1.41,1.41,0,0,1-2.3-.2A2.81,2.81,0,0,1,56.55,36Zm-1.07,0A3.17,3.17,0,0,0,56,38a2.58,2.58,0,0,0,3.78.34,3.18,3.18,0,0,0,.88-2.06v-.12A3.16,3.16,0,0,0,60.17,34a2.59,2.59,0,0,0-3.78-.33,3.21,3.21,0,0,0-.89,2.06Zm-.77-4.21a3.52,3.52,0,0,0-1-.78,4,4,0,0,0-1.46-.41,3.19,3.19,0,0,0-2.07.43,1.85,1.85,0,0,0-.91,1.46,1.81,1.81,0,0,0,.57,1.5,4.83,4.83,0,0,0,1.85,1,3.52,3.52,0,0,1,1.37.73,1.21,1.21,0,0,1,.32.94,1.09,1.09,0,0,1-.54.87,2.14,2.14,0,0,1-1.29.23,3,3,0,0,1-1-.25,2.5,2.5,0,0,1-.69-.48l-.11-1.13L49,35.72l-.13,1.45a3.46,3.46,0,0,0,1.07.87,4.23,4.23,0,0,0,1.58.43,3.26,3.26,0,0,0,2.05-.4,1.77,1.77,0,0,0,.9-1.44,1.87,1.87,0,0,0-.51-1.53A4.13,4.13,0,0,0,52.12,34a4.37,4.37,0,0,1-1.42-.73,1,1,0,0,1-.39-.89,1.15,1.15,0,0,1,.53-.89,2,2,0,0,1,1.32-.24,2.7,2.7,0,0,1,.92.22,1.94,1.94,0,0,1,.62.39L53.8,33l.79.07Zm-7.87.8,1,.1.09-1a2.52,2.52,0,0,1,.2-.84,2.87,2.87,0,0,1,.45-.76l-.57-.44a2.69,2.69,0,0,0-.79.88,2.79,2.79,0,0,0-.35,1.08ZM45.1,32.3l1.06.09.08-.95a2.86,2.86,0,0,1,.2-.85,3.47,3.47,0,0,1,.45-.75l-.56-.45a2.84,2.84,0,0,0-1.14,2Z" transform="translate(0 0.01)"/></g></svg>