<?xml version="1.0" encoding="UTF-8" standalone="no"?>
<svg
   xmlns:dc="http://purl.org/dc/elements/1.1/"
   xmlns:cc="http://creativecommons.org/ns#"
   xmlns:rdf="http://www.w3.org/1999/02/22-rdf-syntax-ns#"
   xmlns:svg="http://www.w3.org/2000/svg"
   xmlns="http://www.w3.org/2000/svg"
   xmlns:sodipodi="http://sodipodi.sourceforge.net/DTD/sodipodi-0.dtd"
   xmlns:inkscape="http://www.inkscape.org/namespaces/inkscape"
   width="100"
   height="100"
   viewBox="0 0 100 100"
   version="1.1"
   id="svg10"
   sodipodi:docname="pray.svg"
   style="fill:none"
   inkscape:version="0.92.5 (2060ec1f9f, 2020-04-08)">
  <metadata
     id="metadata16">
    <rdf:RDF>
      <cc:Work
         rdf:about="">
        <dc:format>image/svg+xml</dc:format>
        <dc:type
           rdf:resource="http://purl.org/dc/dcmitype/StillImage" />
        <dc:title></dc:title>
      </cc:Work>
    </rdf:RDF>
  </metadata>
  <defs
     id="defs14" />
  <sodipodi:namedview
     pagecolor="#ffffff"
     bordercolor="#666666"
     borderopacity="1"
     objecttolerance="10"
     gridtolerance="10"
     guidetolerance="10"
     inkscape:pageopacity="0"
     inkscape:pageshadow="2"
     inkscape:window-width="2560"
     inkscape:window-height="1337"
     id="namedview12"
     showgrid="false"
     inkscape:zoom="2.1957526"
     inkscape:cx="-142.90056"
     inkscape:cy="71.006035"
     inkscape:window-x="1920"
     inkscape:window-y="27"
     inkscape:window-maximized="1"
     inkscape:current-layer="svg10" />
  <path
     d="m 21.540435,70.645211 c 1.806302,0 3.270624,-1.235145 3.270624,-2.758915 0,-1.523548 -1.464322,-2.758915 -3.270624,-2.758915 -1.806324,0 -3.270621,1.235367 -3.270621,2.758915 0,1.52377 1.464297,2.758915 3.270621,2.758915 z"
     id="path2"
     inkscape:connector-curvature="0"
     style="fill:#000000;stroke-width:0.99999988" />
  <path
     d="m 64.874306,90.629141 6.373456,2.670452 c 0.964364,0.4068 2.0127,0.601376 3.082029,0.601376 2.641699,0 5.09446,-1.290994 6.247762,-3.289476 L 93.680819,68.310297 c 1.677338,-2.900548 0.251655,-6.437543 -3.186727,-7.887818 l -6.373456,-2.63493 C 80.703247,56.354922 76.510169,57.48686 74.791112,60.440351 L 74.03615,61.731345 C 62.840615,52.216549 70.073734,44.293435 64.454973,31.542332 61.205263,24.185298 62.42128,18.879691 62.1489,14.210758 c 0,-4.5628259 -6.436437,-6.8972929 -10.315147,-3.873097 -3.962416,-3.0418824 -10.315145,-0.6189867 -10.315145,3.873097 -0.251389,4.686604 0.943635,9.939155 -2.285081,17.331574 -5.765555,13.140255 1.886739,20.444345 -9.581282,30.171365 -0.377376,-0.4068 -1.677232,-4.562822 -7.002486,-4.562822 -1.069222,0 -2.138472,0.212224 -3.102888,0.6188 l -6.373509,2.635157 c -3.4173857,1.432625 -4.8430412,4.969623 -3.144834,7.887817 L 23.111,90.576198 c 1.195048,2.033777 3.647998,3.324771 6.28967,3.324771 1.069223,0 2.117504,-0.212224 3.08192,-0.601376 4.717246,-2.316596 8.469997,-2.546691 9.874685,-6.048393 1.153037,-2.865027 -0.712708,-4.916453 -0.880389,-5.376198 1.404691,-1.078993 7.002458,-3.360293 10.377861,-9.850781 3.417389,6.508137 9.057142,8.824956 10.377861,9.83291 l -0.524035,0.902064 c -1.677339,2.900324 -0.272648,6.419896 3.165733,7.869946 z M 30.61666,90.116229 c -1.341791,0.548209 -3.060955,0.05316 -3.710896,-1.078771 L 13.844243,66.77156 c -0.691848,-1.167234 -0.12577,-2.581987 1.236984,-3.147845 l 6.373508,-2.635154 c 0.398342,-0.15928 0.81765,-0.247745 1.236956,-0.247745 1.069251,0 2.012701,0.495265 2.494908,1.308866 6.226743,10.646509 6.457377,11.018014 5.891302,10.045133 1.006349,1.697794 3.081921,5.252661 7.170272,12.238415 0.670722,1.131712 -4.570559,4.067556 -7.631513,5.782999 z M 49.779069,63.83594 c 0,10.027484 -9.623165,14.289617 -10.168192,14.82018 L 31.643976,65.073766 c 14.256649,-10.92955 5.975195,-19.542281 11.551969,-32.258088 5.304393,-12.096717 -0.08398,-20.267351 4.570426,-20.267351 3.899701,0 1.090321,3.484007 2.012698,51.287613 z m 32.517542,-2.847379 6.373456,2.635154 c 1.383698,0.583507 1.949983,1.99826 1.278996,3.147845 L 76.84553,89.072979 c -0.649729,1.114066 -2.369052,1.626979 -3.710763,1.060898 C 70.05274,88.400786 63.59531,87.569537 65.503308,84.33323 78.753528,62.739299 78.355187,59.361358 82.296611,60.988561 Z M 53.972146,63.83594 c 0.209666,-52.118817 -0.545028,-49.819736 0.629003,-50.792416 1.216015,-1.043451 3.396394,-0.318336 3.396394,1.202597 0.272647,4.651241 -1.00635,10.505102 2.557992,18.569557 4.738106,10.770493 -0.440328,15.598483 5.304126,25.290207 1.572373,2.652803 3.669043,5.004918 6.22677,6.985528 L 64.119612,78.65612 C 63.574316,78.10791 53.972146,73.845776 53.972146,63.83594 Z"
     id="path4"
     inkscape:connector-curvature="0"
     style="fill:#000000;stroke-width:0.99999988" />
  <path
     d="m 31.07915,72.096154 c -1.530491,-2.599635 -0.482208,-0.831249 0,0 z"
     id="path6"
     inkscape:connector-curvature="0"
     style="fill:#000000;stroke-width:0.99999988" />
  <path
     d="m 80.746828,70.344523 c 1.614357,0.671969 3.585069,0.12376 4.381751,-1.255698 0.796682,-1.361809 0.146953,-3.024084 -1.488398,-3.696277 -3.857715,-1.591681 -6.771797,3.342645 -2.893353,4.951975 z"
     id="path8"
     inkscape:connector-curvature="0"
     style="fill:#000000;stroke-width:0.99999988" />
</svg>
