<svg xmlns:svg="http://www.w3.org/2000/svg" xmlns="http://www.w3.org/2000/svg" version="1.1" x="0" y="0" viewBox="0 0 66 150" xml:space="preserve" width="66" height="150"><style>.s0{stroke-width:0.4;}.s1{fill:#1e1e1c;}</style><style type="text/css">
	.st0{fill:#1E1E1C;}
	.st1{fill:#FFFFFF;}
	.st2{fill:#E0E5E9;}
	.st3{fill:#77c473;}
</style><g transform="matrix(2.3454476,0,0,2.3454476,-57.819651,-48.399645)" stroke-width="0.4"><path class="st1" d="m43.6 70.5c-0.7-1.5-1.7-2.8-3-3.8V27.3c0-3.2-2.6-5.7-5.7-5.7-3.2 0-5.7 2.6-5.7 5.8v39.4c-3.5 2.6-4.8 7.4-3 11.5 2.1 4.8 7.8 7 12.6 4.9 4.8-2.1 7-7.8 4.9-12.6z" style="fill:#fff;stroke-width:0.3"/><path class="st0" d="m34.8 84.4c-3.9 0-7.6-2.2-9.2-6-1.9-4.2-0.6-9.1 3-12V27.3c0-3.4 2.8-6.2 6.3-6.2 3.5 0 6.3 2.8 6.3 6.3v39.2c1.3 1 2.3 2.3 3 3.8v0c2.3 5.1-0.1 11-5.1 13.3-1.3 0.6-2.7 0.9-4.1 0.9zM34.8 22.1c-2.9 0-5.2 2.4-5.2 5.3v39.7l-0.2 0.2c-3.4 2.6-4.6 7-2.8 10.9 2 4.6 7.4 6.7 12 4.6 4.6-2 6.7-7.4 4.6-12v0c-0.6-1.4-1.6-2.6-2.8-3.6l-0.2-0.1V27.3c0-2.9-2.3-5.2-5.2-5.2z" style="fill:#1e1e1c;stroke-width:0.3"/></g><g transform="matrix(2.3454476,0,0,2.3454476,-57.819651,-48.399645)" stroke-width="0.4"><path class="st2" d="m35.2 62h-0.7c-0.8 0-1.5-0.7-1.5-1.5v-31.4c0-0.8 0.7-1.5 1.5-1.5h0.8c0.8 0 1.5 0.7 1.5 1.5v31.4c0 0.8-0.7 1.5-1.5 1.5z" style="fill:#e0e5e9;stroke-width:0.3"/><rect x="32.9" y="56.8" class="st3" width="3.8" height="21" style="fill:#77c473;stroke-width:0.4"/><circle class="st3" cx="34.8" cy="74.3" r="5.9" style="fill:#77c473;stroke-width:0.3"/></g><path d="m44.1 17.1v2h9.9c0.6 0 1-0.4 1-1 0-0.6-0.5-1-1-1zM44.1 26.7v2h16c0.6 0 1-0.4 1-1 0-0.6-0.5-1-1-1z" fill="#1e1e1c"/><path d="m44.1 36.4v2h9.9c0.6 0 1-0.4 1-1 0-0.6-0.5-1-1-1z" fill="#77c473"/><path d="m44.1 46.1v2h16c0.6 0 1-0.4 1-1 0-0.5-0.5-1-1-1zM44.1 55.7v2h9.9c0.6 0 1-0.4 1-1 0-0.5-0.5-1-1-1zM44.1 65.4v2h16c0.6 0 1-0.4 1-1 0-0.6-0.5-1-1-1zM44.1 75.1v2h9.9c0.6 0 1-0.4 1-1 0-0.6-0.5-1-1-1zM44.1 84.7v2h16c0.6 0 1-0.4 1-1 0-0.6-0.5-1-1-1zM44.1 94.4v2h9.9c0.6 0 1-0.4 1-1 0-0.6-0.5-1-1-1zM44.1 104.1v2h16c0.6 0 1-0.4 1-1 0-0.6-0.5-1-1-1z" fill="#1e1e1c"/></svg>