<?xml version="1.0" encoding="UTF-8" standalone="no"?>
<!-- Generator: Adobe Illustrator 24.1.2, SVG Export Plug-In . SVG Version: 6.00 Build 0)  -->

<svg
   xmlns:dc="http://purl.org/dc/elements/1.1/"
   xmlns:cc="http://creativecommons.org/ns#"
   xmlns:rdf="http://www.w3.org/1999/02/22-rdf-syntax-ns#"
   xmlns:svg="http://www.w3.org/2000/svg"
   xmlns="http://www.w3.org/2000/svg"
   xmlns:sodipodi="http://sodipodi.sourceforge.net/DTD/sodipodi-0.dtd"
   xmlns:inkscape="http://www.inkscape.org/namespaces/inkscape"
   version="1.1"
   x="0px"
   y="0px"
   viewBox="0 0 130 191.98"
   xml:space="preserve"
   id="svg116"
   sodipodi:docname="thermometer-text.svg"
   width="130"
   height="191.98"
   inkscape:version="0.92.5 (2060ec1f9f, 2020-04-08)"><metadata
   id="metadata122"><rdf:RDF><cc:Work
       rdf:about=""><dc:format>image/svg+xml</dc:format><dc:type
         rdf:resource="http://purl.org/dc/dcmitype/StillImage" /><dc:title /></cc:Work></rdf:RDF></metadata><defs
   id="defs120">
	
	
	
	
	
	
</defs><sodipodi:namedview
   pagecolor="#ffffff"
   bordercolor="#666666"
   borderopacity="1"
   objecttolerance="10"
   gridtolerance="10"
   guidetolerance="10"
   inkscape:pageopacity="0"
   inkscape:pageshadow="2"
   inkscape:window-width="2560"
   inkscape:window-height="1337"
   id="namedview118"
   showgrid="false"
   inkscape:zoom="9.8343579"
   inkscape:cx="32.637994"
   inkscape:cy="148.56077"
   inkscape:window-x="1920"
   inkscape:window-y="27"
   inkscape:window-maximized="1"
   inkscape:current-layer="text1118"
   showguides="false" />
<style
   type="text/css"
   id="style2">
	.st0{fill:#FFFFFF;}
	.st1{fill:#1E1E1C;}
	.st2{fill:#E0E5E9;}
	.st3{fill:#77C473;}
	.st4{fill:#1D1D1D;}
	.st5{fill:none;stroke:#000000;stroke-width:0.5;stroke-miterlimit:10;}
</style>
<g
   id="g18"
   transform="translate(26,4.2724609e-6)">
		<g
   id="g8"
   transform="matrix(2.3454476,0,0,2.3454476,-57.819651,-48.399645)">
			<path
   style="fill:#ffffff"
   inkscape:connector-curvature="0"
   id="path4"
   d="m 49.85,87.65 c -2.1,4.8 0.1,10.5 4.9,12.6 4.8,2.1 10.5,-0.1 12.6,-4.9 1.8,-4.1 0.5,-8.9 -3,-11.5 v -39.4 c 0,-3.2 -2.5,-5.8 -5.7,-5.8 -3.1,0 -5.7,2.5 -5.7,5.7 v 39.4 c -1.3,1 -2.3,2.3 -3,3.8 z"
   class="st0" />
			<path
   style="fill:#1e1e1c"
   inkscape:connector-curvature="0"
   id="path6"
   d="m 58.55,101.65 c -1.4,0 -2.8,-0.3 -4.1,-0.9 -5,-2.3 -7.4,-8.2 -5.1,-13.3 v 0 c 0.7,-1.5 1.7,-2.8 3,-3.8 v -39.2 c 0,-3.5 2.8,-6.3 6.3,-6.3 3.5,0 6.3,2.8 6.3,6.2 v 39.1 c 3.6,2.9 4.9,7.8 3,12 -1.6,3.8 -5.5,6.2 -9.4,6.2 z m 0,-62.5 c -2.9,0 -5.2,2.3 -5.2,5.2 v 39.8 l -0.2,0.1 c -1.2,1 -2.2,2.2 -2.8,3.6 v 0 c -2.1,4.6 0,10 4.6,12 4.6,2.1 10,0 12,-4.6 1.8,-3.9 0.6,-8.3 -2.8,-10.9 l -0.2,-0.2 v -39.7 c 0,-2.9 -2.3,-5.3 -5.2,-5.3 z"
   class="st1" />
		</g>
		<g
   id="g16"
   transform="matrix(2.3454476,0,0,2.3454476,-57.819651,-48.399645)">
			<path
   style="fill:#e0e5e9"
   inkscape:connector-curvature="0"
   id="path10"
   d="m 58.25,79.05 c -0.8,0 -1.5,-0.7 -1.5,-1.5 v -31.4 c 0,-0.8 0.7,-1.5 1.5,-1.5 h 0.8 c 0.8,0 1.5,0.7 1.5,1.5 v 31.4 c 0,0.8 -0.7,1.5 -1.5,1.5 h -0.7 z"
   class="st2" />
			<rect
   style="fill:#77c473"
   id="rect12"
   height="21"
   width="3.8"
   class="st3"
   y="73.849998"
   x="56.849998" />
			<circle
   style="fill:#77c473"
   id="circle14"
   r="5.9000001"
   cy="91.349998"
   cx="58.75"
   class="st3" />
		</g>
	</g><path
   style="fill:#1e1e1c"
   inkscape:connector-curvature="0"
   id="path20"
   d="m 74.43,57.080004 c -0.5,0 -1,0.4 -1,1 0,0.6 0.4,1 1,1 h 9.9 v -2 z m -6.1,9.6 c -0.5,0 -1,0.4 -1,1 0,0.6 0.4,1 1,1 h 16 v -2 z"
   class="st1" /><path
   style="fill:#77c473"
   inkscape:connector-curvature="0"
   id="path22"
   d="m 74.43,76.380004 c -0.5,0 -1,0.4 -1,1 0,0.6 0.4,1 1,1 h 9.9 v -2 z"
   class="st3" /><path
   style="fill:#1e1e1c"
   inkscape:connector-curvature="0"
   id="path24"
   d="m 68.33,86.080004 c -0.5,0 -1,0.5 -1,1 0,0.6 0.4,1 1,1 h 16 v -2 z m 6.1,9.6 c -0.5,0 -1,0.5 -1,1 0,0.6 0.4,1 1,1 h 9.9 v -2 z M 68.33,105.38 c -0.5,0 -1,0.4 -1,1 0,0.6 0.4,1 1,1 h 16 v -2 z m 6.1,9.7 c -0.5,0 -1,0.4 -1,1 0,0.6 0.4,1 1,1 h 9.9 v -2 z m -6.1,9.6 c -0.5,0 -1,0.4 -1,1 0,0.6 0.4,1 1,1 h 16 v -2 z m 6.1,9.7 c -0.5,0 -1,0.4 -1,1 0,0.6 0.4,1 1,1 h 9.9 v -2 z m -6.1,9.7 c -0.5,0 -1,0.4 -1,1 0,0.6 0.4,1 1,1 h 16 v -2 z"
   class="st1" />
<g
   id="Laag_2"
   transform="translate(26,4.2724609e-6)">
	<g
   id="g103">
		<g
   id="g101">
			<g
   id="g99">
				<path
   class="st4"
   d="m 24.43,83.13 c 0.11,-0.01 0.25,-0.04 0.43,-0.12 0.17,-0.06 0.46,-0.29 0.42,-0.21 0.15,-0.05 0.4,-0.14 0.62,-0.23 0.46,-0.18 0.92,-0.39 1.38,-0.62 0.92,-0.46 1.82,-1 2.71,-1.53 0.98,-0.58 1.97,-1.15 2.96,-1.79 l 0.82,-0.55 c 0.4,-0.29 0.8,-0.59 1.03,-0.93 0.12,-0.17 0.17,-0.34 0.17,-0.54 v -0.08 c 0.02,-0.01 -0.04,-0.03 0.04,-0.04 L 35,76.46 C 34.99,76.42 34.98,76.38 34.96,76.34 34.92,76.26 34.92,76.18 34.84,76.09 34.62,75.74 34.22,75.41 33.9,75.1 32.42,73.81 31,72.72 29.64,71.46 29.31,71.15 28.98,70.83 28.67,70.49 28.38,70.14 28.1,69.77 27.83,69.4 27.56,69.03 27.3,68.65 27.05,68.26 c -0.25,-0.4 -0.53,-0.8 -0.62,-1.18 -0.03,-0.15 -0.42,-0.13 -0.48,0.08 -0.11,0.47 0.03,0.99 0.16,1.4 0.1,0.38 0.29,0.83 0.49,1.22 0.42,0.8 0.95,1.59 1.67,2.26 1.37,1.32 2.96,2.38 4.15,3.48 l 0.91,0.84 c 0.03,0.03 0.06,0.06 0.08,0.09 0.01,0.04 -0.02,0.08 -0.04,0.11 -0.05,0.06 -0.11,0.12 -0.17,0.17 -0.13,0.1 -0.25,0.19 -0.4,0.29 -0.93,0.6 -1.93,1.14 -2.93,1.68 -1,0.54 -1.99,1.08 -2.98,1.66 -0.49,0.29 -0.98,0.58 -1.45,0.9 -0.24,0.16 -0.47,0.32 -0.71,0.51 -0.26,0.21 -0.38,0.4 -0.63,0.54 -0.39,0.26 0.05,0.85 0.33,0.82 z"
   id="path97"
   inkscape:connector-curvature="0"
   style="fill:#1d1d1d" />
			</g>
		</g>
	</g>
	
	<g
   id="g113">
		<g
   id="g111">
			<g
   id="g109">
				<path
   class="st4"
   d="M 27.3,74.1 C 23.51,73.13 19.83,71.61 16.31,69.56 14.4,68.44 12.6,67.19 11.1,65.65 9.6,64.13 8.44,62.27 7.58,60.27 6.14,56.93 5.58,53.27 5.73,49.64 5.8,47.82 6.05,46 6.43,44.2 c 0.2,-0.9 0.42,-1.8 0.69,-2.68 0.28,-0.85 0.7,-1.74 1.41,-2.12 0.3,-0.14 0.3,-0.55 -0.07,-0.51 -0.85,0.14 -1.58,0.9 -2.01,1.69 -0.46,0.82 -0.73,1.63 -1.01,2.48 -0.53,1.7 -0.89,3.56 -1.03,5.46 -0.31,3.82 0.36,7.74 1.43,10.88 0.73,2.2 1.78,4.32 3.24,6.15 1.46,1.84 3.29,3.33 5.21,4.59 3.82,2.49 8.13,4.58 12.73,4.82 0.81,0.03 1.09,-0.66 0.28,-0.86 z"
   id="path107"
   inkscape:connector-curvature="0"
   style="fill:#1d1d1d" />
			</g>
		</g>
	</g>
</g>
<g
   aria-label="Bij 80% mogen
ze vertrekken!"
   style="font-style:normal;font-variant:normal;font-weight:normal;font-stretch:normal;font-size:10.42316628px;line-height:1.25;font-family:Mogra;-inkscape-font-specification:'Mogra, Normal';font-variant-ligatures:normal;font-variant-caps:normal;font-variant-numeric:normal;font-feature-settings:normal;text-align:start;letter-spacing:0px;word-spacing:0px;writing-mode:lr-tb;text-anchor:start;fill:#000000;fill-opacity:1;stroke:none;stroke-width:0.99999982"
   id="text1118"><path
     d="m 12.633857,7.4074615 q 1.160391,0 1.811839,0.5038543 0.656537,0.4987648 0.656537,1.5013838 0,0.4936753 -0.315545,0.8855624 -0.310455,0.386797 -0.824489,0.575106 0.666717,0.142504 1.053514,0.656537 0.386797,0.514033 0.386797,1.196018 0,1.017887 -0.661627,1.557367 -0.661626,0.534391 -1.791481,0.534391 H 9.3867959 V 14.176412 L 10.216374,14.033908 V 8.1963242 L 9.3867959,8.05382 V 7.4074615 h 0.8295781 z m -1.414864,3.9341345 v 2.692312 h 1.730409 q 0.687074,0 1.063692,-0.335903 0.381708,-0.340992 0.381708,-0.961903 0,-0.651448 -0.320635,-1.022977 -0.315545,-0.371529 -0.972082,-0.371529 z m 0,-0.783773 h 1.674425 q 0.53948,-0.01527 0.870293,-0.320635 0.335903,-0.3053659 0.335903,-0.8448462 0,-0.6005535 -0.376618,-0.8957408 -0.376618,-0.3002768 -1.089139,-0.3002768 h -1.414864 z"
     style="font-style:normal;font-variant:normal;font-weight:normal;font-stretch:normal;font-size:10.42316628px;font-family:'Roboto Slab';-inkscape-font-specification:'Roboto Slab';font-variant-ligatures:normal;font-variant-caps:normal;font-variant-numeric:normal;font-feature-settings:normal;text-align:start;writing-mode:lr-tb;text-anchor:start;stroke-width:0.99999982"
     id="path835" /><path
     d="m 16.323698,14.176412 0.829578,-0.142504 V 10.099774 L 16.323698,9.9572693 V 9.3109108 h 1.832197 v 4.7229972 l 0.829578,0.142504 v 0.641269 H 16.323698 Z M 18.155895,7.9011369 H 17.153276 V 6.8781601 h 1.002619 z"
     style="font-style:normal;font-variant:normal;font-weight:normal;font-stretch:normal;font-size:10.42316628px;font-family:'Roboto Slab';-inkscape-font-specification:'Roboto Slab';font-variant-ligatures:normal;font-variant-caps:normal;font-variant-numeric:normal;font-feature-settings:normal;text-align:start;writing-mode:lr-tb;text-anchor:start;stroke-width:0.99999982"
     id="path837" /><path
     d="m 21.45385,15.270641 q 0,0.849936 -0.437691,1.307985 -0.437692,0.463139 -1.216376,0.463139 -0.162862,0 -0.295187,-0.02545 -0.132325,-0.02036 -0.27483,-0.06616 l 0.06616,-0.788862 q 0.07125,0.02545 0.208667,0.04071 0.137415,0.02036 0.223935,0.02036 0.330813,0 0.524212,-0.223935 0.198488,-0.223936 0.198488,-0.72779 V 10.099774 L 19.621653,9.9572693 V 9.3109108 h 1.832197 z m -0.03054,-7.3898619 h -1.002619 v -1.002619 h 1.002619 z"
     style="font-style:normal;font-variant:normal;font-weight:normal;font-stretch:normal;font-size:10.42316628px;font-family:'Roboto Slab';-inkscape-font-specification:'Roboto Slab';font-variant-ligatures:normal;font-variant-caps:normal;font-variant-numeric:normal;font-feature-settings:normal;text-align:start;writing-mode:lr-tb;text-anchor:start;stroke-width:0.99999982"
     id="path839" /><path
     d="m 29.876868,9.3414475 q 0,0.5801957 -0.325724,1.0178875 -0.325724,0.432602 -0.880473,0.646358 0.641269,0.223935 1.022977,0.702343 0.386797,0.478407 0.386797,1.104407 0,1.028066 -0.671805,1.572636 -0.666717,0.53948 -1.735498,0.53948 -1.08914,0 -1.750767,-0.53948 -0.661626,-0.54457 -0.661626,-1.572636 0,-0.626 0.376618,-1.104407 0.376618,-0.478408 1.017887,-0.702343 -0.554748,-0.213756 -0.870293,-0.646358 -0.315545,-0.4376918 -0.315545,-1.0178875 0,-0.9771719 0.600553,-1.5064733 0.605643,-0.5343908 1.592994,-0.5343908 0.977172,0 1.592993,0.5343908 0.620912,0.5293014 0.620912,1.5064733 z m -0.793952,3.4506385 q 0,-0.610733 -0.402066,-1.002619 -0.402065,-0.391887 -1.017887,-0.391887 -0.620911,0 -1.012798,0.391887 -0.386797,0.386797 -0.386797,1.002619 0,0.63109 0.381707,0.99244 0.386798,0.35626 1.028067,0.35626 0.626,0 1.017887,-0.36135 0.391887,-0.36135 0.391887,-0.98735 z M 28.874249,9.3618052 q 0,-0.5496591 -0.346082,-0.9110091 -0.340992,-0.36135 -0.865204,-0.36135 -0.534391,0 -0.865204,0.3511711 -0.325724,0.3460817 -0.325724,0.921188 0,0.5649275 0.330813,0.9059198 0.330813,0.340992 0.870294,0.340992 0.529301,0 0.865204,-0.340992 0.335903,-0.3409923 0.335903,-0.9059198 z"
     style="font-style:normal;font-variant:normal;font-weight:normal;font-stretch:normal;font-size:10.42316628px;font-family:'Roboto Slab';-inkscape-font-specification:'Roboto Slab';font-variant-ligatures:normal;font-variant-caps:normal;font-variant-numeric:normal;font-feature-settings:normal;text-align:start;writing-mode:lr-tb;text-anchor:start;stroke-width:0.99999982"
     id="path841" /><path
     d="m 35.882403,11.993044 q 0,1.419953 -0.63109,2.178279 -0.63109,0.753236 -1.725319,0.753236 -1.089139,0 -1.725319,-0.758326 -0.63618,-0.758326 -0.63618,-2.173189 v -1.755856 q 0,-1.4148631 0.631091,-2.1731891 0.63109,-0.7634155 1.720229,-0.7634155 1.094229,0 1.730409,0.7634155 0.636179,0.758326 0.636179,2.1731891 z m -1.002619,-1.969612 q 0,-0.9619035 -0.351171,-1.4454 -0.346082,-0.4885859 -1.012798,-0.4885859 -0.656537,0 -1.002619,0.4885859 -0.346082,0.4834965 -0.346082,1.4454 v 2.173189 q 0,0.961904 0.351172,1.455579 0.351171,0.488586 1.007708,0.488586 0.666716,0 1.007709,-0.488586 0.346081,-0.488586 0.346081,-1.455579 z"
     style="font-style:normal;font-variant:normal;font-weight:normal;font-stretch:normal;font-size:10.42316628px;font-family:'Roboto Slab';-inkscape-font-specification:'Roboto Slab';font-variant-ligatures:normal;font-variant-caps:normal;font-variant-numeric:normal;font-feature-settings:normal;text-align:start;writing-mode:lr-tb;text-anchor:start;stroke-width:0.99999982"
     id="path843" /><path
     d="m 36.885022,8.8325038 q 0,-0.6463585 0.417334,-1.0891394 0.417334,-0.442781 1.109497,-0.442781 0.702342,0 1.119676,0.442781 0.417334,0.4376915 0.417334,1.0891394 v 0.3918866 q 0,0.6463585 -0.417334,1.0840496 -0.417334,0.437692 -1.109497,0.437692 -0.697253,0 -1.119676,-0.437692 -0.417334,-0.4376911 -0.417334,-1.0840496 z m 0.743058,0.3918866 q 0,0.3766183 0.203577,0.641269 0.208667,0.2595616 0.590375,0.2595616 0.371529,0 0.575106,-0.2595616 0.208667,-0.2595612 0.208667,-0.641269 V 8.8325038 q 0,-0.3766183 -0.208667,-0.641269 -0.208667,-0.2697402 -0.585285,-0.2697402 -0.376618,0 -0.580196,0.2697402 -0.203577,0.2646507 -0.203577,0.641269 z m 2.844995,3.7763616 q 0,-0.641269 0.417334,-1.08405 0.417334,-0.442781 1.109497,-0.442781 0.697253,0 1.114587,0.442781 0.422423,0.437692 0.422423,1.08405 v 0.396976 q 0,0.651448 -0.417334,1.08914 -0.417334,0.437691 -1.109497,0.437691 -0.702342,0 -1.119676,-0.437691 -0.417334,-0.437692 -0.417334,-1.08914 z m 0.743058,0.396976 q 0,0.381708 0.203577,0.646359 0.208667,0.259561 0.590375,0.259561 0.376618,0 0.580196,-0.259561 0.203577,-0.264651 0.203577,-0.646359 v -0.396976 q 0,-0.376618 -0.208667,-0.641269 -0.208667,-0.26465 -0.585285,-0.26465 -0.376618,0 -0.580196,0.26465 -0.203577,0.264651 -0.203577,0.641269 z m -2.473467,0.860115 -0.554748,-0.340992 3.618589,-5.7917789 0.554749,0.3409923 z"
     style="font-style:normal;font-variant:normal;font-weight:normal;font-stretch:normal;font-size:10.42316628px;font-family:'Roboto Slab';-inkscape-font-specification:'Roboto Slab';font-variant-ligatures:normal;font-variant-caps:normal;font-variant-numeric:normal;font-feature-settings:normal;text-align:start;writing-mode:lr-tb;text-anchor:start;stroke-width:0.99999982"
     id="path845" /><path
     d="m 46.768706,14.176412 0.829579,-0.142504 V 10.099774 L 46.768706,9.9572693 V 9.3109108 h 1.730409 l 0.06616,0.7176102 q 0.26465,-0.3918862 0.681984,-0.6056425 0.417334,-0.2137564 0.966993,-0.2137564 0.549659,0 0.941546,0.2544718 0.396976,0.2544719 0.595464,0.7634151 0.259561,-0.4682277 0.687074,-0.7430573 0.427512,-0.2748296 0.997529,-0.2748296 0.844847,0 1.333433,0.5801958 0.488586,0.5751061 0.488586,1.7354981 v 2.509092 l 0.829578,0.142504 v 0.641269 H 53.4206 v -0.641269 l 0.829578,-0.142504 v -2.519271 q 0,-0.81431 -0.279919,-1.150213 -0.279919,-0.340992 -0.829578,-0.340992 -0.524212,0 -0.844846,0.371529 -0.315545,0.366439 -0.36644,0.926277 v 2.71267 l 0.829578,0.142504 v 0.641269 h -2.661775 v -0.641269 l 0.829578,-0.142504 v -2.519271 q 0,-0.773594 -0.290098,-1.129855 -0.285008,-0.36135 -0.829578,-0.36135 -0.458049,0 -0.753237,0.188309 -0.295187,0.188309 -0.452959,0.529302 v 3.292865 l 0.829578,0.142504 v 0.641269 h -2.661776 z"
     style="font-style:normal;font-variant:normal;font-weight:normal;font-stretch:normal;font-size:10.42316628px;font-family:'Roboto Slab';-inkscape-font-specification:'Roboto Slab';font-variant-ligatures:normal;font-variant-caps:normal;font-variant-numeric:normal;font-feature-settings:normal;text-align:start;writing-mode:lr-tb;text-anchor:start;stroke-width:0.99999982"
     id="path847" /><path
     d="m 56.769453,12.013402 q 0,-1.221465 0.661626,-2.010328 0.661627,-0.7939519 1.796571,-0.7939519 1.140034,0 1.801661,0.7888627 0.666716,0.7888622 0.666716,2.0154172 v 0.111967 q 0,1.231644 -0.661627,2.015417 -0.661626,0.783773 -1.796571,0.783773 -1.145123,0 -1.80675,-0.783773 -0.661626,-0.788862 -0.661626,-2.015417 z m 1.002619,0.111967 q 0,0.875383 0.366439,1.4454 0.371529,0.570017 1.099318,0.570017 0.712521,0 1.08405,-0.570017 0.371529,-0.570017 0.371529,-1.4454 v -0.111967 q 0,-0.865205 -0.371529,-1.440311 -0.371529,-0.5751062 -1.094229,-0.5751062 -0.7227,0 -1.089139,0.5751062 -0.366439,0.575106 -0.366439,1.440311 z"
     style="font-style:normal;font-variant:normal;font-weight:normal;font-stretch:normal;font-size:10.42316628px;font-family:'Roboto Slab';-inkscape-font-specification:'Roboto Slab';font-variant-ligatures:normal;font-variant-caps:normal;font-variant-numeric:normal;font-feature-settings:normal;text-align:start;writing-mode:lr-tb;text-anchor:start;stroke-width:0.99999982"
     id="path849" /><path
     d="m 62.617216,12.166085 q 0,-1.328343 0.580195,-2.142653 0.580196,-0.8143099 1.603173,-0.8143099 0.519123,0 0.911009,0.2035775 0.391887,0.2035774 0.656537,0.5903744 l 0.09161,-0.6921632 h 0.844847 v 5.4355182 q 0,1.068782 -0.595464,1.679514 -0.595464,0.615822 -1.694783,0.615822 -0.396976,0 -0.860114,-0.111967 -0.463139,-0.106879 -0.81431,-0.295188 l 0.259561,-0.778684 q 0.279919,0.147594 0.661627,0.244293 0.381707,0.0967 0.743057,0.0967 0.671806,0 0.982262,-0.376619 0.315545,-0.376618 0.315545,-1.073871 v -0.524212 q -0.26974,0.346082 -0.646359,0.524212 -0.376618,0.17813 -0.865204,0.17813 -1.012798,0 -1.592994,-0.732878 -0.580195,-0.732879 -0.580195,-1.918718 z m 1.002619,0.106878 q 0,0.829578 0.351171,1.333432 0.351171,0.503855 1.068781,0.503855 0.45296,0 0.758327,-0.203578 0.305366,-0.208667 0.503854,-0.585285 v -2.53454 q -0.193399,-0.351171 -0.503854,-0.554748 -0.310456,-0.208667 -0.748148,-0.208667 -0.71761,0 -1.073871,0.600554 -0.35626,0.600553 -0.35626,1.542099 z"
     style="font-style:normal;font-variant:normal;font-weight:normal;font-stretch:normal;font-size:10.42316628px;font-family:'Roboto Slab';-inkscape-font-specification:'Roboto Slab';font-variant-ligatures:normal;font-variant-caps:normal;font-variant-numeric:normal;font-feature-settings:normal;text-align:start;writing-mode:lr-tb;text-anchor:start;stroke-width:0.99999982"
     id="path851" /><path
     d="m 71.024963,14.924559 q -1.150213,0 -1.832197,-0.763415 -0.676895,-0.768505 -0.676895,-1.98997 v -0.223935 q 0,-1.17566 0.697252,-1.9543436 0.702343,-0.7837733 1.659157,-0.7837733 1.109497,0 1.679514,0.6718057 0.575106,0.6718052 0.575106,1.7914812 v 0.626001 h -3.572784 l -0.01527,0.02545 q 0.01527,0.793952 0.402066,1.307986 0.386797,0.508943 1.08405,0.508943 0.508944,0 0.890651,-0.142504 0.386797,-0.147594 0.666716,-0.402065 l 0.391887,0.651447 q -0.295187,0.285009 -0.783773,0.483497 -0.483497,0.193398 -1.165481,0.193398 z M 70.87228,9.9979848 q -0.503854,0 -0.860115,0.4275122 -0.356261,0.422424 -0.437692,1.063693 l 0.01018,0.02545 h 2.539629 v -0.132325 q 0,-0.590375 -0.315545,-0.987351 Q 71.493191,9.9979848 70.87228,9.9979848 Z"
     style="font-style:normal;font-variant:normal;font-weight:normal;font-stretch:normal;font-size:10.42316628px;font-family:'Roboto Slab';-inkscape-font-specification:'Roboto Slab';font-variant-ligatures:normal;font-variant-caps:normal;font-variant-numeric:normal;font-feature-settings:normal;text-align:start;writing-mode:lr-tb;text-anchor:start;stroke-width:0.99999982"
     id="path853" /><path
     d="m 73.966661,14.176412 0.829578,-0.142504 V 10.099774 L 73.966661,9.9572693 V 9.3109108 h 1.725319 l 0.07125,0.8193992 q 0.27483,-0.4376914 0.687074,-0.6768949 0.417334,-0.244293 0.946635,-0.244293 0.890652,0 1.379238,0.524212 0.488586,0.5191229 0.488586,1.6082619 v 2.692312 l 0.829578,0.142504 v 0.641269 h -2.661775 v -0.641269 l 0.829578,-0.142504 v -2.671954 q 0,-0.72779 -0.290098,-1.033156 -0.285009,-0.305366 -0.875383,-0.305366 -0.432602,0 -0.768505,0.208667 -0.330814,0.208667 -0.529302,0.570017 v 3.231792 l 0.829579,0.142504 v 0.641269 h -2.661776 z"
     style="font-style:normal;font-variant:normal;font-weight:normal;font-stretch:normal;font-size:10.42316628px;font-family:'Roboto Slab';-inkscape-font-specification:'Roboto Slab';font-variant-ligatures:normal;font-variant-caps:normal;font-variant-numeric:normal;font-feature-settings:normal;text-align:start;writing-mode:lr-tb;text-anchor:start;stroke-width:0.99999982"
     id="path855" /><path
     d="m 10.786391,27.526911 h 2.249531 l 0.08143,-0.849936 h 0.849936 v 1.633709 H 9.5954628 v -0.702342 l 2.9773202,-4.010476 h -2.015417 l -0.07634,0.844846 H 9.6259995 v -1.638798 h 4.1733385 v 0.681984 z"
     style="font-style:normal;font-variant:normal;font-weight:normal;font-stretch:normal;font-size:10.42316628px;font-family:'Roboto Slab';-inkscape-font-specification:'Roboto Slab';font-variant-ligatures:normal;font-variant-caps:normal;font-variant-numeric:normal;font-feature-settings:normal;text-align:start;writing-mode:lr-tb;text-anchor:start;stroke-width:0.99999982"
     id="path857" /><path
     d="m 17.428106,28.417562 q -1.150213,0 -1.832197,-0.763415 -0.676895,-0.768505 -0.676895,-1.98997 v -0.223935 q 0,-1.17566 0.697252,-1.954344 0.702343,-0.783773 1.659157,-0.783773 1.109497,0 1.679514,0.671806 0.575106,0.671805 0.575106,1.791481 v 0.626001 h -3.572784 l -0.01527,0.02545 q 0.01527,0.793952 0.402066,1.307985 0.386797,0.508944 1.08405,0.508944 0.508943,0 0.890651,-0.142504 0.386797,-0.147594 0.666716,-0.402066 l 0.391887,0.651448 q -0.295187,0.285009 -0.783773,0.483497 -0.483497,0.193398 -1.165481,0.193398 z m -0.152683,-4.926574 q -0.503855,0 -0.860115,0.427512 -0.356261,0.422424 -0.437692,1.063693 l 0.01018,0.02545 h 2.539629 v -0.132326 q 0,-0.590374 -0.315545,-0.98735 -0.315545,-0.396976 -0.936456,-0.396976 z"
     style="font-style:normal;font-variant:normal;font-weight:normal;font-stretch:normal;font-size:10.42316628px;font-family:'Roboto Slab';-inkscape-font-specification:'Roboto Slab';font-variant-ligatures:normal;font-variant-caps:normal;font-variant-numeric:normal;font-feature-settings:normal;text-align:start;writing-mode:lr-tb;text-anchor:start;stroke-width:0.99999982"
     id="path859" /><path
     d="m 24.996098,23.450272 -0.661627,0.101789 1.134944,3.135093 0.09161,0.396976 h 0.03054 l 0.0967,-0.396976 1.099318,-3.135093 -0.666716,-0.101789 v -0.646358 h 2.127385 v 0.646358 l -0.45296,0.07634 -1.847466,4.78407 h -0.758326 l -1.867823,-4.78407 -0.45296,-0.07634 v -0.646358 h 2.127385 z"
     style="font-style:normal;font-variant:normal;font-weight:normal;font-stretch:normal;font-size:10.42316628px;font-family:'Roboto Slab';-inkscape-font-specification:'Roboto Slab';font-variant-ligatures:normal;font-variant-caps:normal;font-variant-numeric:normal;font-feature-settings:normal;text-align:start;writing-mode:lr-tb;text-anchor:start;stroke-width:0.99999982"
     id="path861" /><path
     d="m 31.373163,28.417562 q -1.150213,0 -1.832198,-0.763415 -0.676895,-0.768505 -0.676895,-1.98997 v -0.223935 q 0,-1.17566 0.697253,-1.954344 0.702342,-0.783773 1.659157,-0.783773 1.109497,0 1.679514,0.671806 0.575106,0.671805 0.575106,1.791481 v 0.626001 h -3.572785 l -0.01527,0.02545 q 0.01527,0.793952 0.402066,1.307985 0.386797,0.508944 1.08405,0.508944 0.508943,0 0.890651,-0.142504 0.386797,-0.147594 0.666716,-0.402066 l 0.391887,0.651448 q -0.295187,0.285009 -0.783773,0.483497 -0.483497,0.193398 -1.165481,0.193398 z M 31.22048,23.490988 q -0.503855,0 -0.860115,0.427512 -0.356261,0.422424 -0.437692,1.063693 l 0.01018,0.02545 h 2.539629 v -0.132326 q 0,-0.590374 -0.315545,-0.98735 -0.315545,-0.396976 -0.936456,-0.396976 z"
     style="font-style:normal;font-variant:normal;font-weight:normal;font-stretch:normal;font-size:10.42316628px;font-family:'Roboto Slab';-inkscape-font-specification:'Roboto Slab';font-variant-ligatures:normal;font-variant-caps:normal;font-variant-numeric:normal;font-feature-settings:normal;text-align:start;writing-mode:lr-tb;text-anchor:start;stroke-width:0.99999982"
     id="path863" /><path
     d="m 34.462451,23.450272 v -0.646358 h 1.725319 l 0.0967,0.799041 q 0.234114,-0.422423 0.575106,-0.661626 0.346082,-0.239204 0.788863,-0.239204 0.117057,0 0.239204,0.02036 0.127236,0.01527 0.193398,0.03563 l -0.132325,0.931367 -0.570017,-0.03054 q -0.396976,0 -0.666716,0.188309 -0.26974,0.18322 -0.417334,0.519123 v 3.16054 l 0.829578,0.142504 v 0.641269 h -2.661775 v -0.641269 l 0.829578,-0.142504 v -3.934135 z"
     style="font-style:normal;font-variant:normal;font-weight:normal;font-stretch:normal;font-size:10.42316628px;font-family:'Roboto Slab';-inkscape-font-specification:'Roboto Slab';font-variant-ligatures:normal;font-variant-caps:normal;font-variant-numeric:normal;font-feature-settings:normal;text-align:start;writing-mode:lr-tb;text-anchor:start;stroke-width:0.99999982"
     id="path865" /><path
     d="m 40.686831,21.475571 v 1.328343 h 1.043334 v 0.743058 h -1.043334 v 3.343759 q 0,0.386798 0.157772,0.54457 0.162862,0.157773 0.427513,0.157773 0.132325,0 0.295187,-0.02036 0.167952,-0.02545 0.279919,-0.05089 l 0.137415,0.687073 q -0.142504,0.09161 -0.417334,0.147594 -0.274829,0.06107 -0.549659,0.06107 -0.610732,0 -0.972082,-0.366439 -0.36135,-0.371529 -0.36135,-1.160392 v -3.343759 h -0.870294 v -0.743058 h 0.870294 v -1.328343 z"
     style="font-style:normal;font-variant:normal;font-weight:normal;font-stretch:normal;font-size:10.42316628px;font-family:'Roboto Slab';-inkscape-font-specification:'Roboto Slab';font-variant-ligatures:normal;font-variant-caps:normal;font-variant-numeric:normal;font-feature-settings:normal;text-align:start;writing-mode:lr-tb;text-anchor:start;stroke-width:0.99999982"
     id="path867" /><path
     d="m 42.753144,23.450272 v -0.646358 h 1.725319 l 0.0967,0.799041 q 0.234115,-0.422423 0.575107,-0.661626 0.346081,-0.239204 0.788862,-0.239204 0.117058,0 0.239204,0.02036 0.127236,0.01527 0.193399,0.03563 l -0.132326,0.931367 -0.570017,-0.03054 q -0.396976,0 -0.666716,0.188309 -0.26974,0.18322 -0.417334,0.519123 v 3.16054 l 0.829578,0.142504 v 0.641269 h -2.661775 v -0.641269 l 0.829578,-0.142504 v -3.934135 z"
     style="font-style:normal;font-variant:normal;font-weight:normal;font-stretch:normal;font-size:10.42316628px;font-family:'Roboto Slab';-inkscape-font-specification:'Roboto Slab';font-variant-ligatures:normal;font-variant-caps:normal;font-variant-numeric:normal;font-feature-settings:normal;text-align:start;writing-mode:lr-tb;text-anchor:start;stroke-width:0.99999982"
     id="path869" /><path
     d="m 49.481376,28.417562 q -1.150213,0 -1.832197,-0.763415 -0.676895,-0.768505 -0.676895,-1.98997 v -0.223935 q 0,-1.17566 0.697253,-1.954344 0.702342,-0.783773 1.659156,-0.783773 1.109497,0 1.679514,0.671806 0.575106,0.671805 0.575106,1.791481 v 0.626001 h -3.572784 l -0.01527,0.02545 q 0.01527,0.793952 0.402065,1.307985 0.386797,0.508944 1.08405,0.508944 0.508944,0 0.890652,-0.142504 0.386797,-0.147594 0.666716,-0.402066 l 0.391886,0.651448 q -0.295187,0.285009 -0.783773,0.483497 -0.483496,0.193398 -1.165481,0.193398 z m -0.152683,-4.926574 q -0.503854,0 -0.860115,0.427512 -0.35626,0.422424 -0.437691,1.063693 l 0.01018,0.02545 h 2.539628 v -0.132326 q 0,-0.590374 -0.315545,-0.98735 -0.315545,-0.396976 -0.936456,-0.396976 z"
     style="font-style:normal;font-variant:normal;font-weight:normal;font-stretch:normal;font-size:10.42316628px;font-family:'Roboto Slab';-inkscape-font-specification:'Roboto Slab';font-variant-ligatures:normal;font-variant-caps:normal;font-variant-numeric:normal;font-feature-settings:normal;text-align:start;writing-mode:lr-tb;text-anchor:start;stroke-width:0.99999982"
     id="path871" /><path
     d="m 52.433249,21.017521 v -0.646358 h 1.832198 v 4.600851 h 0.641269 l 1.17566,-1.455579 -0.503855,-0.06616 v -0.646358 h 2.305515 v 0.646358 l -0.671806,0.132326 -1.450489,1.730408 1.766035,2.234263 0.626,0.122146 v 0.641269 h -2.285157 v -0.641269 l 0.514033,-0.06616 -1.460668,-1.832198 h -0.656537 v 1.755856 l 0.829578,0.142504 v 0.641269 h -2.661776 v -0.641269 l 0.829579,-0.142504 v -6.366885 z"
     style="font-style:normal;font-variant:normal;font-weight:normal;font-stretch:normal;font-size:10.42316628px;font-family:'Roboto Slab';-inkscape-font-specification:'Roboto Slab';font-variant-ligatures:normal;font-variant-caps:normal;font-variant-numeric:normal;font-feature-settings:normal;text-align:start;writing-mode:lr-tb;text-anchor:start;stroke-width:0.99999982"
     id="path873" /><path
     d="m 58.769599,21.017521 v -0.646358 h 1.832197 v 4.600851 h 0.641269 l 1.17566,-1.455579 -0.503854,-0.06616 v -0.646358 h 2.305515 v 0.646358 l -0.671806,0.132326 -1.450489,1.730408 1.766034,2.234263 0.626001,0.122146 v 0.641269 h -2.285157 v -0.641269 l 0.514033,-0.06616 -1.460669,-1.832198 h -0.656537 v 1.755856 l 0.829578,0.142504 v 0.641269 h -2.661775 v -0.641269 l 0.829578,-0.142504 v -6.366885 z"
     style="font-style:normal;font-variant:normal;font-weight:normal;font-stretch:normal;font-size:10.42316628px;font-family:'Roboto Slab';-inkscape-font-specification:'Roboto Slab';font-variant-ligatures:normal;font-variant-caps:normal;font-variant-numeric:normal;font-feature-settings:normal;text-align:start;writing-mode:lr-tb;text-anchor:start;stroke-width:0.99999982"
     id="path875" /><path
     d="m 67.655757,28.417562 q -1.150212,0 -1.832197,-0.763415 -0.676895,-0.768505 -0.676895,-1.98997 v -0.223935 q 0,-1.17566 0.697253,-1.954344 0.702342,-0.783773 1.659156,-0.783773 1.109497,0 1.679514,0.671806 0.575107,0.671805 0.575107,1.791481 v 0.626001 H 66.18491 l -0.01527,0.02545 q 0.01527,0.793952 0.402065,1.307985 0.386798,0.508944 1.08405,0.508944 0.508944,0 0.890652,-0.142504 0.386797,-0.147594 0.666716,-0.402066 l 0.391887,0.651448 q -0.295188,0.285009 -0.783774,0.483497 -0.483496,0.193398 -1.165481,0.193398 z m -0.152683,-4.926574 q -0.503854,0 -0.860115,0.427512 -0.35626,0.422424 -0.437691,1.063693 l 0.01018,0.02545 h 2.539629 v -0.132326 q 0,-0.590374 -0.315545,-0.98735 -0.315545,-0.396976 -0.936457,-0.396976 z"
     style="font-style:normal;font-variant:normal;font-weight:normal;font-stretch:normal;font-size:10.42316628px;font-family:'Roboto Slab';-inkscape-font-specification:'Roboto Slab';font-variant-ligatures:normal;font-variant-caps:normal;font-variant-numeric:normal;font-feature-settings:normal;text-align:start;writing-mode:lr-tb;text-anchor:start;stroke-width:0.99999982"
     id="path877" /><path
     d="m 70.597452,27.669415 0.829578,-0.142504 v -3.934135 l -0.829578,-0.142504 v -0.646358 h 1.725319 l 0.07125,0.819399 q 0.27483,-0.437691 0.687074,-0.676895 0.417334,-0.244293 0.946635,-0.244293 0.890652,0 1.379237,0.524212 0.488586,0.519123 0.488586,1.608262 v 2.692312 l 0.829579,0.142504 v 0.641269 h -2.661776 v -0.641269 l 0.829578,-0.142504 v -2.671954 q 0,-0.72779 -0.290098,-1.033156 -0.285008,-0.305366 -0.875383,-0.305366 -0.432602,0 -0.768505,0.208667 -0.330813,0.208667 -0.529301,0.570017 v 3.231792 l 0.829578,0.142504 v 0.641269 h -2.661775 z"
     style="font-style:normal;font-variant:normal;font-weight:normal;font-stretch:normal;font-size:10.42316628px;font-family:'Roboto Slab';-inkscape-font-specification:'Roboto Slab';font-variant-ligatures:normal;font-variant-caps:normal;font-variant-numeric:normal;font-feature-settings:normal;text-align:start;writing-mode:lr-tb;text-anchor:start;stroke-width:0.99999982"
     id="path879" /><path
     d="m 78.730372,25.877934 h -1.002619 v -4.97747 h 1.002619 z m 0,2.43275 h -1.002619 v -1.038245 h 1.002619 z"
     style="font-style:normal;font-variant:normal;font-weight:normal;font-stretch:normal;font-size:10.42316628px;font-family:'Roboto Slab';-inkscape-font-specification:'Roboto Slab';font-variant-ligatures:normal;font-variant-caps:normal;font-variant-numeric:normal;font-feature-settings:normal;text-align:start;writing-mode:lr-tb;text-anchor:start;stroke-width:0.99999982"
     id="path881" /></g>
</svg>